<?xml version="1.0" encoding="utf-8"?>
<!-- Generator: Adobe Illustrator 19.2.1, SVG Export Plug-In . SVG Version: 6.00 Build 0)  -->
<!DOCTYPE svg PUBLIC "-//W3C//DTD SVG 1.1//EN" "http://www.w3.org/Graphics/SVG/1.1/DTD/svg11.dtd">
<svg version="1.1" id="Layer_1" xmlns="http://www.w3.org/2000/svg" xmlns:xlink="http://www.w3.org/1999/xlink" x="0px" y="0px"
	 viewBox="0 0 2000 2000" style="enable-background:new 0 0 2000 2000;" xml:space="preserve">
<style type="text/css">
	.st0{fill:#FF0000;stroke:#FF0000;stroke-miterlimit:10;}
</style>
<path id="skull-path" class="st0" d="M1016.3,1660.1c-9,2.3-17.6,5.8-26.5,8.4c-4.9,1.5-9.9,2.7-14.9,3.4c-21.6,3-43.2,6.2-64.9,8.6
	c-21.4,2.4-42.8,3.8-64.2,5.8c-3.9,0.4-8.2,0.7-11.6,2.5c-13.4,7.1-26.7,4.7-40.3,1.2c-1.9-0.5-4.1-0.2-6.2-0.1
	c-8.5,0.3-17.2,1.6-25.5,0.7c-27.2-3-54.2-7.7-81.4-10.2c-21.1-2-42.4-2.6-63.6-2.1c-16.7,0.4-28.4-5.2-37.8-18.9
	c-5.5-7.9-14.6-13.4-19.9-21.4c-9.1-13.8-20.3-27.7-14.8-46.1c8.3-28.1,17.7-55.9,25.5-84.1c4.3-15.5,6.3-31.6,9.1-47.5
	c3.4-19.5,6.6-39.1,9.8-58.6c0.3-1.7-0.4-3.7-0.9-5.5c-8.9-30.8-13.8-61.6-6.3-93.9c2.1-9-3.7-20.3-7.1-30
	c-6.7-19.1-15.6-37.5-21.1-56.9c-5.2-18.6-7.3-38-10.4-57.1c-1.1-6.8-5.1-5.8-9.2-4.2c-19.6,7.8-36.6,2.1-49.2-15.3
	c-5.7-7.9-12.9-14.9-20.3-21.3c-9.2-8.1-12.9-18.8-13.3-29.8c-1-22-0.1-44.1-0.2-66.2c0-5.6-2.5-11.2-1.9-16.6
	c1.5-13.9,4.1-27.6,6.3-41.5c2.1-13.8,4.3-27.7,6.4-41.5c0.1-0.5,0.1-0.9,0.1-1.4c-3.8-25-7.7-50-11.2-75.1c-1-6.9-0.3-14-0.6-20.9
	c-0.1-2.8,0.3-6.4-1.2-8.1c-8.7-9.8-5.2-21-5.6-32.4c-0.6-20.7,6.5-39,15.2-56.6c6.6-13.3,17-24.7,24.8-37.5
	c3.3-5.3,4.8-11.9,6.6-18c2.3-8.1,4.1-16.3,5.9-24.5c0.8-3.6,2.4-7.9,1.2-10.9c-5.8-14.3,1-27.1,4.6-40c5-18.1,10.5-36.3,17.8-53.7
	c6.5-15.6,13.4-32,24.1-44.6c17.5-20.5,37.8-38.7,57.7-57c10.7-9.9,23.1-18,34.6-27c15.3-12.1,30.9-23.8,45.5-36.6
	c28.6-24.9,61.3-41.8,97.4-53c13.7-4.3,26.7-11,40.1-16.3c3.2-1.3,6.8-1.3,10.3-1.9c21.1-3.6,42.2-7.6,63.4-10.7
	c31.6-4.6,63.4-3.3,95.1-1.4c5.4,0.3,10.8,0.4,16.1,0c26-2.2,51.2,1.2,75.7,10.3c11.4,4.2,186,66.1,208.4,75.9
	c22.2,9.7,44,20.5,66.1,30.6c8,3.7,16.6,6.3,24.3,10.5c6.4,3.4,12.7,7.7,17.9,12.8c12.8,12.6,25.7,25.2,37.3,38.9
	c10.9,12.9,20.3,27.1,30,40.9c2,2.8,2.4,6.5,4,9.7c1.5,3.1,2.7,7.2,5.4,8.8c8.4,5.2,10.7,13.6,13.5,22.1c2.3,7.1,5.9,13.7,8.4,20.7
	c6.9,19.5,14.1,38.9,19.9,58.8c6.4,21.8,11.8,44,16.9,66.2c2.8,12.1,4,24.5,6,36.8c0.2,1.4,0.3,3,1.1,4c8,8.9,7.9,19.9,8.2,30.8
	c0.4,11.6,0.7,23.2,0.5,34.8c-0.3,18-1,35.9-1.7,53.8c-0.1,2.2-1.9,4.3-2.2,6.5c-0.7,5.9-1.2,11.8-1.4,17.7
	c-0.2,5.6,1.8,11.9-0.1,16.7c-6.9,17.1-5.3,35-7.2,52.5c-1.4,12.6-3.2,25.6-7.6,37.4c-6.5,17.3-14.9,34-23.7,50.3
	c-4.1,7.6-9.9,15.1-16.7,20.4c-13.1,10.3-19,24.4-24.7,39c-6.2,15.6-12.3,31.3-19.4,46.6c-2.4,5.2-7.4,9.4-11.8,13.5
	c-13.6,12.7-28,24.6-41,37.9c-7.4,7.5-14,16.5-18.9,25.9c-7.1,14-17.6,24.7-29.1,34.6c-2.7,2.4-6.3,4.2-9.8,5.2
	c-13.6,4-27.3,8-41.2,11.2c-2.7,0.6-7.2-1.3-9.2-3.5c-6.5-7-12.1-14.8-18.2-22.1c-1-1.2-3.2-2.7-4.4-2.3c-1.3,0.4-2.3,2.6-3.1,4.2
	c-5.7,12.4-12,24.6-16.8,37.3c-6,15.8-16.4,29.7-17.3,47.8c-0.7,13.7-5.7,27.1-8,40.8c-2.4,14.2-3.8,28.6-5.8,42.9
	c-4.8,33.1-7.7,66.7-21.2,97.9c-5.2,12-5.4,24.5-2.1,37.1c3.9,14.9,2.4,17-10.5,24.9c-6.7,4.1-11.8,10.6-18.1,15.4
	c-11,8.5-22.1,17-33.6,24.8c-6.5,4.4-13.5,8.7-20.9,10.8c-11.8,3.3-24,4.7-36.1,7c-3.6,0.7-7.2,1.7-10.9,2.4
	C1046.3,1642.9,1024.8,1657.9,1016.3,1660.1z M1282.9,868.6c-7.1-3.9-8.7-10.1-5.3-18c2.2-5.2,4.9-10.3,5.8-15.8
	c1.2-7.6,0.8-15.5,1.3-23.2c0.4-5.9-0.4-12.7,2.3-17.3c4.7-8.2,12-14.9,17.7-22.5c1.6-2.1,2.9-6.8,1.8-8.1
	c-3.2-3.6-6.5-9.3-13.1-3.6c-10.4,8.8-21.4,16.9-32,25.5c-10.7,8.6-15.3,19.4-12.3,33.3c1.6,7.4,4.7,15.6,3.1,22.5
	c-2.8,11.8-8.2,23.1-13.5,34.2c-1.6,3.4-6.7,7.7-9.5,7.3c-3.6-0.5-7.6-5-9.4-8.7c-6.9-14.7-0.9-28.1,6.8-40.3
	c4.1-6.5,5.6-12.6,4.1-19.8c-1.3-6.4-2.9-12.9-3.3-19.4c-0.4-6.2,1.4-12.6,0.8-18.8c-0.5-4.7-1.8-11.3-5.1-13.3
	c-6.6-3.9-8.4-8.7-8.1-15.6c0.1-2.7-0.3-5.8-1.6-8.1c-1.2-2.2-3.8-4.9-5.9-4.9c-1.9,0-4.7,2.8-5.6,4.9c-1.2,3.1-0.2,7.2-1.7,10.2
	c-2.3,4.8-5.1,10.3-9.2,13c-2.3,1.5-9.5-0.7-11.7-3.4c-7.9-10.2-16.6-20.5-21.1-32.3c-4.4-11.2-4.2-24.2-5.5-36.5
	c-0.3-2.4,1.3-5.4,2.8-7.7c5.8-9,4.4-13.2-6.2-15.2c-7.9-1.5-14.2-3.9-14.6-13c-0.5-10.5-4.2-22.5,8.4-28.7
	c15.3-7.5,30.7-15.1,46.7-20.8c12.8-4.5,20.1-14.1,27.8-23.7c1.9-2.4,1.3-7.2,1-10.8c-0.1-1.7-2.3-3.2-3.6-4.8
	c-1.3,1.3-3.3,2.4-3.9,4c-3.5,8.9-10.8,13.1-18.9,16.7c-4.2,1.9-8.3,3.9-11.9,5.6c1.8,2.9,3.2,4.9,4.5,7c-2.4-0.1-4.8-0.3-7.1-0.2
	c-1.5,0-3.2,0.2-4.3,1c-2.1,1.5-3.7,3.6-5.8,5.1c-8.9,6.3-17.9,11.1-29.8,9.5c-11.8-1.6-25.5,16.8-24.9,31.6
	c0.4,9.2-0.2,18.6,1,27.7c0.7,5.7,2.4,12.8,6.3,16.4c7.5,7,7.3,14.9,7,23.7c-0.4,13.9,0.2,27.4,12.4,37.3c1.7,1.4,2.8,4.5,2.7,6.7
	c-0.6,22.4-1.6,44.7-2.2,67c-0.1,3.1,0.7,6.9,2.5,9.3c7.8,10.3,15.6,20.7,24.5,30c11.1,11.6,11.9,25.6,11.5,40
	c-0.3,13.3-1.7,26.6-1.6,39.9c0.1,9.1,2,18.2,2.9,27.4c0.1,1.1-0.2,2.4-0.6,3.4c-3.2,7.4,1.2,11.7,6.2,15.9c1.8,1.5,3.6,3,5.6,4
	c9.2,4.4,18.7,12.7,27.6,12.1c21.4-1.4,40.2,6.5,59.9,11.3c13.7,3.3,26.9,9,39.8,14.7c14.4,6.3,26.2,1.9,39-5
	c6.9-3.7,16.3-3.4,24.6-3.5c2.5,0,6.2,4.3,7.3,7.3c0.7,1.9-2.5,5.3-4.2,7.8c-2,3.1-4.8,5.7-6.5,8.9c-5.8,11.3-10.7,23.1-17.2,34
	c-2.7,4.5-8.2,8.9-13.2,10.1c-14.5,3.3-29.8,3.6-44.1,7.6c-16.4,4.5-30.5-1.8-44.7-6.8c-13.8-4.9-13.5-5.1-25,3.6
	c-10.8,8.2-23.1,14.7-35,21.3c-18.5,10.2-38.1,11.3-58.8,8c-7.9-1.3-17,1.1-24.8,4c-5.8,2.1-10.8,7.3-15.5,11.8
	c-4.1,3.9-7.6,8.6-10.7,13.4c-0.6,1,1.5,5.4,2.3,5.4c8-0.2,16.3,0.2,23.7-2.1c8.8-2.7,16.6-8.3,25.2-11.7c8.4-3.4,17.5,1.2,19.9,10
	c3.1,11.5,5.7,23.1,7.9,34.8c1.7,9.5,5,11.9,13.9,7.6c9.5-4.5,19.1-9.1,27.9-14.8c7.4-4.8,14.3-10.8,20.4-17.3
	c5.2-5.5,8.7-12.6,13.6-18.6c5.7-7.1,10.9-15.4,18.3-20.2c18.1-11.8,37.3-15.2,57.1-2c6.9,4.6,7.9,9.2,4,15
	c-4.2,6.2-9.8,11.5-14.7,17.3c-3.8,4.4-8.1,8.5-10.9,13.4c-4.3,7.7-7.4,16.1-11.2,24.1c-2.7,5.7-6.1,11.1-8.5,16.8
	c-0.8,1.8,0.6,4.6,1.1,6.9c1.9-1.2,4.3-1.9,5.7-3.5c13.2-15.8,26.2-31.6,39.2-47.6c2.2-2.7,4.2-5.8,5-9.1c2.3-10.2,4-20.6,5.9-30.9
	c1.9-10.2,9.1-17,17.3-20.8c7.1-3.2,16.6-9.1,23.7,1.8c0.4,0.7,2.1,1,3.2,0.8c8-1,13.6-11.2,13.3-19.3c-0.3-7.8,1-16.2,3.9-23.4
	c5.4-13.5,13-26.1,18.9-39.5c6.1-13.9,13.5-16,25.1-6.2c1.3,1.1,3.9,1.9,5.5,1.4c21.7-6.5,28.1-25.9,35.8-43.9
	c4.2-9.6,5.2-21,17.3-25.4c1.8-0.6,2.5-4.3,3.7-6.6c-2.3,0.1-4.7-0.3-6.7,0.4c-2.6,0.9-5.6,2.2-7,4.3c-4.9,7.2-9.1,4-12.7-0.7
	c-4.2-5.6-7.8-11.7-11.7-17.8c-7.5,3.4-9.4,9.5-5,19.1c2.4,5.2,4.8,10.5-3,13.1c-9.1,3-12,10.9-14.6,18.6
	c-2.9,8.7-18.2,21.5-29.5,19.1c-5.7-1.2-7.8-4.8-5.5-10.4c2.8-6.9,6.1-13.7,8.4-20.9c1.1-3.3,1.5-7.6,0.2-10.6
	c-0.7-1.5-5.7-1.4-8.8-1.5c-2.5-0.1-5.3,0.1-7.6,1c-8.4,3.3-17.4,5.9-24.7,10.9c-8.6,5.9-15.7,14.1-23.6,21.1
	c-7.5,6.7-15.1,7.2-24.2,2s-10.3-9-2.4-16c5.6-4.9,11.7-9.4,17.3-14.4c1.3-1.2,2.8-3.7,2.4-4.9c-1.6-4.8-14.6-8.1-18.6-5
	c-6.3,4.9-12.3,10.2-18.6,15c-7.8,5.9-18.1,3.1-19.7-6.4c-0.7-4.3,2.3-10.3,5.6-13.9c12.2-13.3,24.4-26,29.5-44.4
	c1.5-5.6,8.6-12.1,14.4-13.7c16.5-4.5,29.8-14.1,43.5-23.1c4.3-2.8,9.2-5.4,12.2-9.4c2.3-3.1,2.2-8.1,2.5-12.3c0.1-1-3.1-3.2-4.5-3
	c-9.9,1.4-20,2.3-29.6,5.2c-7,2.1-10.9-0.1-14.1-5.3c-3.4-5.6-4-10.9,1.7-16.4c4.3-4.2,7.5-9.7,10.3-15.2c3.1-6,5.2-12.5,7.4-18.8
	c0.5-1.5,0-4.9-0.2-4.9c-5.7-0.3-13.4-2.8-16.9,0c-10.6,8.3-18.6,20-29.3,27.9c-9.1,6.6-12.5,13.6-10.9,24.1c0.4,2.7,0.2,5.9-1,8.3
	c-2.1,4.6-4.2,10-8,12.9C1295.3,865.4,1289.1,866.3,1282.9,868.6z M1104.1,839.9c-2.5-7.2-4-15-7.8-21.5c-4.4-7.6-10.9-14-16.5-20.9
	c-15-18.7-31.2-35.4-57-38.3c-6.2-0.7-12.3-2.8-18.5-3.8c-2.5-0.4-5.3,0.6-7.9,0.9c-2.8,0.3-5.8,1.3-8.2,0.5
	c-5.3-1.8-10.2-6.5-15.3-6.5c-13,0-26,2-39,2.9c-9.6,0.6-18.5-2.2-24.4-9.7c-4.5-5.7-9.4-5.4-15.5-4.9c-15.7,1.4-26.6,9.8-35.8,21.9
	c-6.1,8.1-5.8,19.4,2.4,25.4c4.5,3.3,9.2,6.4,14,9.3c9.8,5.9,9.6,17,1.9,24.8c-7.3,7.4-15,16.5-17.5,26.1
	c-4.4,17,1.1,33.7,10.2,48.9c3.9,6.6,7.2,13.6,10,20.8c0.7,1.9-1.4,4.9-2.2,7.4c-2.1-0.7-4.8-0.8-6.1-2.2
	c-5.7-6.2-10.9-12.8-16.5-19.1c-1.9-2.2-4.2-4.1-6.3-6.1c-2.1,2.3-4.1,4.6-6.2,6.9c-2,2.2-4.1,4.3-6.2,6.5
	c-1.5-3.6-3.3-7.1-4.5-10.8c-1.3-4.1-1.4-8.8-3.2-12.6c-4.7-9.8-11.7-19-5.6-30.9c0.7-1.3-1-3.9-1.6-5.9c-2.8,1-7.6,1.3-8.2,3
	c-2.2,6.7-4.7,14-4.2,20.8c1.1,12.8,1.7,26.7,7.2,38c10.6,22.1,31.5,32.5,54.3,38.9c3.8,1.1,7.3,2.9,10.9,4.7
	c15.2,7.5,29.8,16.5,45.5,22.4c11.8,4.4,25,6,37.7,7.1c14.3,1.3,29.1,2.8,43,0.3c15.1-2.6,30.1-8.4,44.1-15
	c17.8-8.4,35-18.6,38.1-41.2c0.6-4.4,1.1-8.8,1.9-13.2C1095.4,890.2,1099.7,865.6,1104.1,839.9z M501.7,855.2
	c0.5,8.5,1.1,16.9,1.5,25.2c1.2,25.9,8.7,49.2,29,66.8c1.5,1.3,4.4,3.3,5.1,2.8c5.3-3.8,8.1,0.7,10.3,3.5c4.6,5.6,9.5,8.5,17,6.6
	c6.2-1.6,12.6-2.6,19-3.6c10.3-1.6,20.8-2.3,30.9-4.9c6.4-1.6,12.1-7.8,18.3-8.3c13.6-1,24.1-5.4,30.8-17.6c0.5-0.9,1.8-1.5,2.8-2.1
	c19.9-12,28.9-35,23.1-57.2c-2.3-9-2.8-18.4-4.4-27.6c-2.2-12.2-2-25.8-7.6-36.3c-13.9-26.4-29-52.5-52.7-72.1
	c-6.3-5.2-16.2-3.9-19.4,2c-2.1,4-6.2,8-10.3,9.5c-6,2.2-12.8,2-19.2,3c-5,0.8-10.3,3.7-14.8,2.8c-14.2-3.1-25.9,3-37.1,9.3
	c-7.2,4-12.8,11.2-18.7,17.4c-6.2,6.4-13,12.7-17.6,20.2c-4.7,7.7-4.2,16.2,2.3,24.1C498.5,829.2,505.2,840.7,501.7,855.2z
	 M747,931.7c0.4-15-2.1-18.1-15.6-19.4c-10-1-20-1.8-30.1-2c-2.3,0-6.1,2.5-6.7,4.6c-3.2,10.9-6.5,22-7.9,33.2
	c-1.7,13.8-1,27.8-8.5,40.4c-12.6,21-27.1,41.3-28.3,67.3c-0.1,1.2-1.5,2.2-2.1,3.5c-1.2,2.9-3.3,6-3.2,8.9c0.1,7,0.6,14.2,2.2,20.9
	c4.2,17.8,3.8,36.9,19.9,50.9c7.4,6.4,13,3.6,19.8,2.8c6.4-0.8,3.7-4.8,3.3-8.2c-0.1-1,1.3-2.4,2.3-3.2c16-13.5,26.3-30.8,33.5-50.1
	c2.4-6.4,5.7-8.1,11.6-5.9c10,3.7,12.9,7.9,9.6,14.8c-7.3,15.5-13,32-25.7,44.5c-2,2-3.7,6.5-2.8,8.7c0.8,2.2,5.1,3.4,8.1,4.2
	c4.9,1.4,10,2.7,15.1,3.1c30.6,2.2,47.8-3.2,54.5-34.9c6.1-28.8,1.3-56.2-12.9-81.9c-2.3-4.2-6.5-7.4-8.8-11.5
	c-2.3-4-3.8-8.7-5-13.2c-2.2-8.4-1.7-18.5-6.4-25C750.9,967.9,748.2,949.7,747,931.7z M937,1241.5c1.9,0.3,6.1,0.3,9.5,1.8
	c15.7,7.1,23.7,19.7,26,36.7c1.9,13.9,5.2,27.6,7.4,41.5c1.3,7.9,2.2,16,2.3,24.1c0.2,13.2-9.2,21.2-19,26.6
	c-6.6,3.6-15.8,2.4-23.8,3.2c-3.5,0.4-7.8,0.5-4.3,5.4c10.7,15,5.4,30.3-2.1,43c-6.2,10.3-1.1,12.9,5.2,16
	c5.7,2.8,12.4,5.1,18.6,5.2c20.1,0.2,36.2-9.2,48.3-24.5c4.2-5.3,5.3-13.3,7.4-20.2c1.1-3.6,0.6-7.7,2.1-11c0.4-0.9,5.5,0.2,9.5,0.5
	c1.7-4.3,3.7-9.4,5.9-14.4c2.1-4.9,3.4-10.7,6.8-14.5c8-8.9,7.5-20,9.5-30.4c2.3-12.3,2.9-24.9,4.1-37.3c1.3-14.5,2.7-29,3.4-43.6
	c0.3-5-2.4-10.4-1.7-15.2c3.4-21.9,7.2-43.7,11.6-65.5c1.4-6.7-0.9-8.8-6.8-10c-11-2.3-19.2,2.9-27.7,8.8
	c-11.3,7.8-23.5,11.3-36.2,2.3c-1.9-1.4-3.9-3-6.1-3.5c-5.5-1.2-11.7-3.8-16.5-2.2c-6.8,2.3-12.9,7.2-18.4,12
	c-6.6,5.8-13,12.2-18.1,19.4c-3.2,4.5-4,9.5-0.6,16.4C937.1,1220.2,935.8,1231,937,1241.5z M677,1446c6,0,12.8,1.8,17.9-0.3
	c15.5-6.5,30.3-2.8,45.4,0.9c3.9,1,7.9,3.5,11.5,3c3.8-0.5,9.9-3.5,10.2-6.1c0.7-5.2-2.3-10.8-3-16.3c-1.5-13-2.5-26-3.9-39
	c-0.2-1.6-1.3-4.5-2.1-4.6c-6.1-0.3-12.4-1.2-18.3,0.1c-15.8,3.5-34.5-7.2-34.4-23.1c0.1-15,3.4-30.6,8.5-44.8
	c3.2-8.8,1.3-12-4.9-16.4c-11.6-8.3-23.1-11.9-35.5-1.6c-1.8,1.5-4,2.6-6.2,3.2c-6,1.6-5.9,5.1-4.3,10.2c3.5,11.1,3,21.9-1.7,32.9
	c-2.8,6.5-3.9,13.8-5.2,20.9c-0.4,1.9,1,4.4,2,6.3c4.7,8.7,9.7,17.2,14.3,26c2.3,4.3,4.9,8.7,5.7,13.4
	C674.9,1422,675.7,1433.7,677,1446z M778.5,1373.4c5.4,0.6,9.5,1,13.6,1.4c14.3,1.2,28.6,2.7,43,3.4c8.4,0.5,17.1-1.2,25.3,0.1
	c8.2,1.2,12.6-0.9,10.3-8.7c-3.7-12.9-2.5-25.7-0.3-38.1c1.3-7.1,7.5-13.2,11.2-19.9c0.9-1.7,1.1-6,0.7-6.1
	c-9.9-3.1-18.7-11.7-30.4-6c-6.8,3.3-13.7,6.5-20.8,9.1c-2.9,1.1-6.6,1.2-9.7,0.6c-9.8-1.8-19.4-5-29.3-6.1
	c-8.3-1-10.7,3.7-7.8,11.4c2.3,6,4.9,12.2,5.4,18.5C791,1347.3,788.9,1361.2,778.5,1373.4z M602.6,1258.2c2.6-3.7,3.8-4.7,4-5.9
	c3.8-17.3,7.9-34.6,11-52.1c0.8-4.3-0.9-10.2-3.5-13.8c-9.2-12.8-18.8-25.4-29.3-37.2c-3.2-3.6-9.4-4.7-14.2-6.9
	c-0.3,4.6-1.5,9.4-0.6,13.8c2,10.4,6.5,20.6,7.4,31.1c2,23.7,14.3,43.6,22.4,65.1C600.6,1253.9,601.4,1255.5,602.6,1258.2z
	 M910.9,1052.3c8-0.1,13.7-5.2,13.5-12c-0.1-5.6-9.5-13-16.6-11.7c-4.8,0.9-12.2,0.1-12.3,8.3
	C895.5,1044.6,903.7,1052.4,910.9,1052.3z"/>
<path class="st0" d="M954.4,931.2c4.5-4.7,7.2-8.8,11-11.1c2.3-1.4,6.2-0.3,9.4-0.3c-0.7,2.8-0.6,6.3-2.3,8.1
	c-9.8,10.9-10,13.7-1.2,25.2c1.1,1.4,2.1,4.6,1.4,5.3c-1.9,1.8-4.5,3-7.1,3.6c-0.6,0.1-2.5-2.9-2.9-4.6c-2.4-10.2-4.5-11.3-12.7-5.5
	c-3.2,2.3-5.7,5.5-8.8,7.9c-1.8,1.4-5.1,3.5-6,2.8c-2.2-1.6-4.4-4.4-4.8-7c-0.3-1.7,2-4.8,3.9-5.7c13.5-6.5,14.6-12.8,4.1-23.1
	c-2-2-3.6-5.2-3.8-8c-0.1-1.1,4.6-3.8,6.6-3.4c2.9,0.6,6,3,8,5.4C951.4,923.5,952.5,927.1,954.4,931.2z"/>
</svg>
