<?xml version="1.0" standalone="no"?>
<!DOCTYPE svg PUBLIC "-//W3C//DTD SVG 1.1//EN" "http://www.w3.org/Graphics/SVG/1.1/DTD/svg11.dtd" >
<svg xmlns="http://www.w3.org/2000/svg">
<metadata></metadata>
<defs>
<font id="sfc-display" horiz-adv-x="1144" >
<font-face units-per-em="2048" ascent="1638" descent="-410" />
<missing-glyph horiz-adv-x="405" />
<glyph horiz-adv-x="0" />
<glyph unicode="&#xd;" horiz-adv-x="0" />
<glyph unicode=" "  horiz-adv-x="405" />
<glyph unicode="&#x09;" horiz-adv-x="405" />
<glyph unicode="&#xa0;" horiz-adv-x="405" />
<glyph unicode="!" horiz-adv-x="545" d="M132 113q0 57 41 95t99 38q59 0 100 -38t41 -95t-41 -95t-100 -38q-58 0 -99 38t-41 95zM142 1365h262l-29 -953h-206z" />
<glyph unicode="&#x22;" horiz-adv-x="840" d="M126 1365h221l-28 -474h-165zM495 1365h221l-29 -474h-164z" />
<glyph unicode="#" horiz-adv-x="1218" d="M47 374l35 177h200l56 277h-191l34 176h193l72 361h182l-73 -361h248l72 361h181l-72 -361h209l-34 -176h-211l-56 -277h201l-35 -177h-202l-75 -374h-181l75 374h-247l-76 -374h-181l75 374h-199zM448 537h272l62 305h-272z" />
<glyph unicode="$" horiz-adv-x="1181" d="M85 385h207q5 -84 65.5 -141t167.5 -71v444l-80 20q-67 16 -123.5 44t-104 70.5t-74.5 106.5t-27 142q0 168 113 266.5t294 116.5v130h144v-130q178 -18 290 -119.5t116 -259.5h-203q-2 77 -56.5 133.5t-147.5 69.5v-417l81 -20q168 -40 259 -127t91 -246 q0 -175 -117.5 -278.5t-313.5 -120.5l1 -127h-145v126q-214 16 -324.5 126t-112.5 262zM326 1016q0 -123 154 -179l45 -15v386q-89 -11 -144 -61t-55 -131zM666 172q101 9 162 63.5t61 143.5q0 73 -45 121.5t-151 79.5q-9 3 -27 7v-415z" />
<glyph unicode="%" horiz-adv-x="1532" d="M76 1019v29q0 142 78.5 236.5t210.5 94.5q133 0 211 -94t78 -239v-29q0 -142 -78.5 -238.5t-213.5 -96.5q-132 0 -209 95.5t-77 241.5zM153 0l544 704l503 661h185l-538 -696l-509 -669h-185zM232 1029q0 -96 35.5 -152t97.5 -56q61 0 96.5 55t35.5 151v9 q0 96 -34.5 150.5t-97.5 54.5t-98 -55t-35 -148v-9zM878 323v29q0 143 78.5 237.5t211.5 94.5q132 0 210 -94.5t78 -239.5v-29q0 -141 -78.5 -237.5t-213.5 -96.5q-132 0 -209 95t-77 241zM1034 333q0 -96 35.5 -151.5t97.5 -55.5q61 0 96.5 55t35.5 150v10 q0 95 -34.5 149.5t-97.5 54.5t-98 -55t-35 -147v-10z" />
<glyph unicode="&#x26;" horiz-adv-x="1336" d="M73 357q0 124 67.5 212t189.5 156l57 30q-82 86 -125 157t-43 155q0 133 105 221.5t263 88.5q152 0 258.5 -84.5t106.5 -224.5q0 -62 -22 -115t-64 -95.5t-87.5 -74t-107.5 -65.5l289 -315q54 99 54 311v58h200v-68q0 -284 -113 -446l246 -258h-269l-113 121 q-85 -75 -196 -111.5t-229 -36.5q-207 0 -337 104.5t-130 279.5zM293 374q0 -107 78 -166.5t191 -59.5q76 0 152 27.5t126 80.5l-340 372q-5 -2 -13.5 -6t-15 -7.5t-11.5 -6.5q-80 -45 -123.5 -100.5t-43.5 -133.5zM425 1054q0 -50 29 -98.5t104 -122.5q96 49 145 99t49 123 q0 72 -46.5 116t-117.5 44q-72 0 -117.5 -45t-45.5 -116z" />
<glyph unicode="'" horiz-adv-x="435" d="M107 1365h221l-28 -474h-165z" />
<glyph unicode="(" horiz-adv-x="657" d="M121 566q0 127 17 238t40.5 187.5t62.5 152t69 119t75 100.5h211q-35 -40 -71.5 -104t-75.5 -161.5t-64 -236.5t-25 -293q0 -104 10 -199.5t32.5 -178.5t41 -142t52.5 -128t49 -97t48 -85h-217q-46 56 -85.5 125t-80.5 170.5t-65 239.5t-24 293z" />
<glyph unicode=")" horiz-adv-x="657" d="M61 1363h209q45 -57 75 -100t70 -119t63.5 -152.5t40.5 -187.5t17 -238q0 -155 -24.5 -293t-66 -239.5t-81 -170t-85.5 -125.5h-216q39 67 58.5 103.5t58.5 125.5t59.5 166t38 194t17.5 241q0 153 -24.5 292.5t-64 237t-75 161.5t-70.5 104z" />
<glyph unicode="*" horiz-adv-x="930" d="M146 951l212 95l-212 95l77 134l191 -141l-25 236h152l-25 -236l192 141l76 -133l-212 -96l212 -95l-76 -133l-191 137l24 -232h-152l24 231l-190 -136z" />
<glyph unicode="+" d="M73 454v198h398v412h201v-412h399v-198h-399v-431h-201v431h-398z" />
<glyph unicode="," horiz-adv-x="445" d="M21 -251l101 451h234l-158 -451h-177z" />
<glyph unicode="-" horiz-adv-x="787" d="M79 455v210h630v-210h-630z" />
<glyph unicode="." horiz-adv-x="518" d="M116 122q0 59 42.5 101.5t101.5 42.5t101 -42.5t42 -101.5q0 -58 -42.5 -100.5t-100.5 -42.5q-59 0 -101.5 42t-42.5 101z" />
<glyph unicode="/" horiz-adv-x="687" d="M0 -296l476 1733h211l-476 -1733h-211z" />
<glyph unicode="0" horiz-adv-x="1180" d="M84 633v98q0 303 134 482t375 179t372 -178t131 -483v-98q0 -195 -56 -342.5t-172 -232.5t-279 -85q-241 0 -373 178t-132 482zM325 635q0 -222 71 -342t194 -120t194 120t71 342v95q0 222 -71 341.5t-194 119.5q-124 0 -194.5 -119.5t-70.5 -341.5v-95z" />
<glyph unicode="1" horiz-adv-x="830" d="M95 929v227q55 39 167.5 110.5t164.5 98.5h231v-1365h-239v1130h-8q-36 -20 -151 -93t-165 -108z" />
<glyph unicode="2" horiz-adv-x="1131" d="M101 967v11q0 80 29 153t83.5 132t143.5 94t200 35q203 0 328 -107.5t125 -272.5q0 -33 -6.5 -66.5t-12.5 -57.5t-25.5 -58.5t-27.5 -49.5t-38.5 -53t-37.5 -46.5t-45.5 -52t-43.5 -49.5l-327 -373v-6h589v-200h-920v151l500 553q38 42 57 65t46 63t39 78.5t12 80.5 q0 91 -61.5 147.5t-155.5 56.5q-101 0 -161 -63t-60 -153q0 -2 0.5 -6.5t0.5 -5.5h-231z" />
<glyph unicode="3" horiz-adv-x="1153" d="M80 372h224q10 -91 77.5 -148.5t181.5 -57.5q123 0 194 63t70 161q-2 98 -72 158t-194 60h-145v191h137q103 0 167.5 58t63.5 148q-1 86 -62.5 141t-162.5 55q-104 0 -161.5 -59.5t-62.5 -138.5h-227q4 164 125 276.5t332 112.5q199 0 327 -99.5t131 -253.5 q1 -69 -22 -129t-61 -98.5t-80.5 -62.5t-83.5 -30v-8q49 -4 98 -25.5t93 -60t72.5 -102t29.5 -141.5q2 -119 -66.5 -213.5t-185.5 -145.5t-261 -51q-116 0 -207 32t-148.5 87.5t-88 126.5t-32.5 154z" />
<glyph unicode="4" horiz-adv-x="1192" d="M77 262v198q208 388 544 905h345v-904h170v-199h-170v-262h-228v262h-661zM300 461h438v715h-8q-242 -368 -430 -713v-2z" />
<glyph unicode="5" horiz-adv-x="1202" d="M120 360h225q13 -90 84 -141t177 -51q105 0 187 76t82 202q0 124 -76.5 200t-190.5 76q-100 0 -165.5 -46t-94.5 -110h-211l68 800h808v-198h-613l-37 -375h7q31 43 109.5 80t184.5 37q90 0 171.5 -32.5t143.5 -90t98.5 -144t36.5 -187.5q0 -216 -145.5 -349.5 t-370.5 -133.5q-110 0 -200 31t-149 84.5t-92 123t-37 148.5z" />
<glyph unicode="6" horiz-adv-x="1159" d="M82 645q0 360 143.5 552.5t387.5 192.5q99 0 182.5 -32t136.5 -84.5t84 -114.5t36 -126h-231q-7 61 -64.5 112t-149.5 51q-134 0 -213.5 -132t-82.5 -370h1h8q32 81 117.5 140t210.5 59q85 0 162.5 -30t139 -84.5t98.5 -141t37 -190.5q0 -146 -66 -255t-175.5 -163.5 t-245.5 -54.5q-241 0 -376 168q-140 176 -140 503zM341 436q0 -125 75 -196.5t184 -71.5q107 0 180 70t73 198q0 127 -74.5 198.5t-180.5 71.5q-109 0 -183 -73t-74 -197z" />
<glyph unicode="7" horiz-adv-x="1097" d="M81 1165v200h918v-206l-555 -1159h-255l574 1159v6h-682z" />
<glyph unicode="8" horiz-adv-x="1204" d="M88 374q0 62 18 116t46.5 91t66.5 66t75.5 45.5t76.5 24.5v7q-95 29 -162 106.5t-67 199.5q0 158 128.5 260t332.5 102t332.5 -102t128.5 -260q0 -123 -68.5 -200.5t-161.5 -105.5v-7q49 -11 96 -35.5t90.5 -64.5t70 -103t26.5 -139q0 -178 -143.5 -290t-374.5 -112 q-230 0 -370.5 111t-140.5 290zM327 389q0 -104 78.5 -169.5t197.5 -65.5q118 0 196.5 65.5t78.5 169.5t-78.5 170.5t-196.5 66.5t-197 -66.5t-79 -170.5zM374 1005q0 -92 64.5 -150t164.5 -58t164 58t64 150q0 91 -64 147.5t-164 56.5t-164.5 -56.5t-64.5 -147.5z" />
<glyph unicode="9" horiz-adv-x="1159" d="M84 921q0 109 39.5 199t106 148t152.5 90t182 32q248 0 385 -169.5t137 -518.5q0 -341 -140 -534t-391 -193q-107 0 -195 34t-142 88.5t-84 118t-34 128.5h230q9 -70 71 -122.5t160 -52.5q99 0 168 67.5t99.5 178.5t28.5 256h-11q-29 -83 -116.5 -140.5t-220.5 -57.5 q-84 0 -160 29.5t-135.5 84t-94.5 141.5t-35 193zM316 927q0 -127 72 -197.5t180 -70.5t184.5 75.5t76.5 189.5q0 129 -72.5 201t-183.5 72q-107 0 -182 -71t-75 -199z" />
<glyph unicode=":" horiz-adv-x="550" d="M129 122q0 59 42.5 101.5t101.5 42.5t101 -42.5t42 -101.5q0 -58 -42 -100.5t-101 -42.5t-101.5 42t-42.5 101zM129 811q0 59 42.5 101t101.5 42t101 -42t42 -101t-42 -101.5t-101 -42.5t-101.5 42.5t-42.5 101.5z" />
<glyph unicode=";" horiz-adv-x="549" d="M56 -280l100 486h236l-158 -486h-178zM132 811q0 59 42 101t101 42t101 -42t42 -101t-42 -101.5t-101 -42.5t-101 42.5t-42 101.5z" />
<glyph unicode="&#x3c;" d="M120 439v164l901 513v-240l-634 -343v-11l634 -331v-236z" />
<glyph unicode="=" d="M122 252v187h901v-187h-901zM122 658v188h901v-188h-901z" />
<glyph unicode="&#x3e;" d="M120 -45v236l636 331v11l-636 343v240l902 -513v-164z" />
<glyph unicode="?" horiz-adv-x="967" d="M50 993q-2 86 23 155.5t67 114.5t100.5 75t120 43t128.5 13q116 0 211 -38t156 -120.5t61 -198.5q0 -49 -12 -92.5t-29 -73.5t-46.5 -61.5t-51.5 -49.5t-58 -45q-53 -40 -75.5 -58.5t-46 -47t-30.5 -56.5t-7 -70v-55h-218l-1 69q-5 102 43 176.5t139 139.5q44 33 64.5 50 t45 44t34 54.5t9.5 63.5q0 89 -57.5 133.5t-142.5 44.5q-99 0 -152.5 -58.5t-54.5 -151.5h-220zM315 113q0 57 41 95t100 38q58 0 99 -38t41 -95t-41 -95t-99 -38q-59 0 -100 38t-41 95z" />
<glyph unicode="@" horiz-adv-x="1697" d="M92 491v55q0 174 58 319.5t161 245t247 155t312 55.5h8q139 0 259.5 -37t207.5 -101t149.5 -150.5t93 -186.5t30.5 -207v-50q0 -204 -97 -330t-256 -126q-95 0 -160.5 40.5t-80.5 101.5h-10q-16 -59 -79 -100.5t-146 -41.5q-127 0 -200 89t-73 240v103q0 145 74.5 233.5 t203.5 88.5q85 0 137.5 -40.5t68.5 -93.5h8v120h170v-493q0 -53 30.5 -81.5t79.5 -28.5q72 0 121.5 84.5t49.5 246.5v32q0 110 -40 208.5t-112.5 173t-183.5 118.5t-245 44h-8q-133 0 -246.5 -45t-195 -126.5t-127.5 -202t-46 -264.5v-42q0 -155 49 -276t133.5 -195 t192 -112t230.5 -38h9q196 0 301 47v-145q-99 -45 -308 -45h-9q-161 0 -299 49t-241 142t-162 238.5t-59 328.5zM697 487q0 -203 150 -203q148 0 148 193v81q0 91 -42.5 138.5t-107.5 47.5q-67 0 -107.5 -50t-40.5 -149v-58z" />
<glyph unicode="A" horiz-adv-x="1243" d="M18 0l466 1365h276l464 -1365h-256l-116 368h-471l-117 -368h-246zM434 552h366l-178 568h-9z" />
<glyph unicode="B" horiz-adv-x="1247" d="M150 0v1365h553q181 0 288.5 -90t107.5 -246q0 -118 -62 -195t-167 -104v-11q133 -15 217.5 -102t84.5 -232q0 -180 -130.5 -282.5t-345.5 -102.5h-546zM391 188h211q170 0 246.5 50.5t76.5 156.5q0 104 -66.5 161.5t-190.5 57.5h-277v-426zM391 791h187 q145 0 213.5 49.5t68.5 147.5q0 89 -55.5 139t-154.5 50h-259v-386z" />
<glyph unicode="C" horiz-adv-x="1270" d="M96 598v163q0 296 147.5 463.5t413.5 167.5q230 0 377.5 -132.5t147.5 -341.5v-19h-234q-2 127 -81.5 206.5t-208.5 79.5q-152 0 -235 -110t-83 -314v-164q0 -201 82.5 -309t235.5 -108q129 0 208.5 74.5t81.5 194.5h234v-20q0 -200 -148.5 -328t-376.5 -128 q-266 0 -413.5 166t-147.5 459z" />
<glyph unicode="D" horiz-adv-x="1317" d="M150 0v1365h481q304 0 455.5 -174t151.5 -505q0 -333 -152.5 -509.5t-454.5 -176.5h-481zM392 202h210q190 0 288.5 113.5t98.5 366.5q0 481 -387 481h-210v-961z" />
<glyph unicode="E" horiz-adv-x="1118" d="M150 0v1365h862v-202h-621v-375h584v-191h-584v-395h621v-202h-862z" />
<glyph unicode="F" horiz-adv-x="1057" d="M150 0v1365h852v-203h-610v-406h557v-199h-557v-557h-242z" />
<glyph unicode="G" horiz-adv-x="1295" d="M96 598v188q0 279 150.5 442.5t418.5 163.5q236 0 379 -129.5t152 -328.5h-236q-14 116 -92 184t-204 68q-155 0 -240 -105.5t-85 -296.5v-186q0 -198 83 -308.5t249 -110.5q134 0 215.5 74t81.5 188v100h-302v187h533v-275q0 -98 -36.5 -185.5t-103.5 -153 t-168.5 -103.5t-223.5 -38q-281 0 -426 166.5t-145 458.5z" />
<glyph unicode="H" horiz-adv-x="1392" d="M150 0v1365h242v-563h608v563h242v-1365h-242v598h-608v-598h-242z" />
<glyph unicode="I" horiz-adv-x="543" d="M150 0v1365h242v-1365h-242z" />
<glyph unicode="J" horiz-adv-x="1034" d="M25 367h234q2 -82 52 -130t140 -48q101 0 149.5 60.5t48.5 183.5v932h242v-934q0 -222 -114.5 -340t-324.5 -118q-199 0 -313 112t-114 282z" />
<glyph unicode="K" horiz-adv-x="1236" d="M150 0v1365h242v-626h11l540 626h269l-493 -586l516 -779h-294l-400 616l-149 -165v-451h-242z" />
<glyph unicode="L" horiz-adv-x="1010" d="M150 0v1365h242v-1157h594v-208h-836z" />
<glyph unicode="M" horiz-adv-x="1617" d="M154 0v1365h244l408 -932h7l408 932h242v-1365h-218v929h-9l-344 -775h-168l-344 775h-9v-929h-217z" />
<glyph unicode="N" horiz-adv-x="1375" d="M150 0v1365h209l631 -955h8v955h226v-1365h-207l-633 958h-7v-958h-227z" />
<glyph unicode="O" horiz-adv-x="1339" d="M96 586v182q0 290 154.5 457t420.5 167q267 0 420 -167t153 -457v-182q0 -288 -153.5 -450.5t-421.5 -162.5q-267 0 -420 162.5t-153 450.5zM341 585q0 -200 90.5 -303.5t238.5 -103.5q149 0 238.5 103.5t89.5 303.5v185q0 201 -90 309t-238 108q-147 0 -238 -108 t-91 -309v-185z" />
<glyph unicode="P" horiz-adv-x="1183" d="M150 0v1365h532q209 0 331 -125t122 -321q0 -198 -122.5 -321t-332.5 -123h-288v-475h-242zM392 670h175q162 0 242 54.5t80 194.5q0 119 -65 184t-182 65h-250v-498z" />
<glyph unicode="Q" horiz-adv-x="1342" d="M98 592v180q0 288 155 454t417 166q264 0 419 -166t155 -454v-180q0 -311 -181 -478l177 -255h-247l-108 153q-98 -39 -215 -39q-263 0 -417.5 165.5t-154.5 453.5zM336 590q0 -205 91 -313.5t238 -110.5q55 0 103 20l-163 231h234l86 -116q81 109 81 289v182 q0 201 -93 308.5t-243 107.5q-149 0 -241.5 -107.5t-92.5 -308.5v-182z" />
<glyph unicode="R" horiz-adv-x="1246" d="M150 0v1365h530q116 0 206.5 -33t146.5 -91.5t85 -134.5t29 -165q0 -80 -23 -148t-62 -113.5t-80 -75t-85 -46.5l276 -558h-272l-243 519h-268v-519h-240zM390 707h251q123 0 189.5 58.5t66.5 168.5q0 115 -68 175.5t-183 60.5h-256v-463z" />
<glyph unicode="S" horiz-adv-x="1191" d="M60 382h235q8 -91 86 -151.5t213 -60.5q128 0 200.5 55t72.5 149q0 74 -51.5 118t-162.5 71l-219 53q-71 16 -129.5 44.5t-107 72t-75.5 108.5t-27 146q0 127 69 221.5t181 140.5t249 46q138 0 249.5 -47t178 -139.5t68.5 -214.5h-230q-7 89 -76 147t-192 58 q-115 0 -184.5 -51.5t-69.5 -141.5q0 -133 188 -177l220 -53q82 -19 144 -47t113.5 -72t78.5 -110t27 -152q0 -198 -145.5 -310t-386.5 -112q-111 0 -200.5 25t-147 65t-96.5 94.5t-55.5 110t-17.5 114.5z" />
<glyph unicode="T" horiz-adv-x="1067" d="M17 1160v205h1033v-205h-397v-1160h-240v1160h-396z" />
<glyph unicode="U" horiz-adv-x="1352" d="M135 459v906h240v-873q0 -145 82 -228t219 -83t219 83t82 228v873h240v-906q0 -218 -145.5 -352t-395.5 -134t-395.5 134t-145.5 352z" />
<glyph unicode="V" horiz-adv-x="1234" d="M11 1365h279l329 -1084h9l326 1084h270l-465 -1365h-282z" />
<glyph unicode="W" horiz-adv-x="1725" d="M9 1365h259l227 -1002h9l250 1002h218l249 -1002h10l226 1002h259l-365 -1365h-221l-263 983h-9l-263 -983h-222z" />
<glyph unicode="X" horiz-adv-x="1166" d="M-4 0l429 688l-425 677h286l301 -506h12l298 506h274l-440 -686l433 -679h-280l-306 500h-11l-306 -500h-265z" />
<glyph unicode="Y" horiz-adv-x="1133" d="M-11 1365h270l306 -587h8l307 587h264l-457 -822v-543h-241v539z" />
<glyph unicode="Z" horiz-adv-x="1167" d="M84 0v161l681 993v9h-661v202h955v-160l-678 -994v-9h697v-202h-994z" />
<glyph unicode="[" horiz-adv-x="695" d="M121 -228v1593h499v-174h-273v-1245h286v-174h-512z" />
<glyph unicode="\" horiz-adv-x="687" d="M0 1437h211l476 -1733h-211z" />
<glyph unicode="]" horiz-adv-x="695" d="M62 -54h287v1245h-275v174h500v-1593h-512v174z" />
<glyph unicode="^" horiz-adv-x="839" d="M41 795l275 570h209l273 -570h-204l-171 382h-8l-174 -382h-200z" />
<glyph unicode="_" horiz-adv-x="850" d="M-27 -103h904v-182h-904v182z" />
<glyph unicode="`" horiz-adv-x="947" d="M253 1473h215l197 -285h-169z" />
<glyph unicode="a" horiz-adv-x="1082" d="M81 304q0 144 97.5 226.5t277.5 83.5h264v98q0 87 -49 134t-139 47q-85 0 -135 -41.5t-55 -110.5h-222q3 70 28.5 128.5t74 105.5t129 73.5t185.5 26.5q122 0 214 -38t147.5 -119.5t55.5 -198.5v-719h-224v129h-9q-82 -145 -293 -145q-155 0 -251 87t-96 233zM317 319 q0 -76 54 -117t131 -41q93 0 155.5 52.5t62.5 134.5v115h-220q-90 0 -136.5 -39t-46.5 -105z" />
<glyph unicode="b" horiz-adv-x="1196" d="M141 0v1437h236v-530h10q37 73 120.5 119.5t185.5 46.5q186 0 296.5 -129.5t110.5 -365.5v-96q0 -233 -110.5 -364.5t-298.5 -131.5q-110 0 -189 46t-121 130h-9v-162h-231zM375 493q0 -152 67 -233.5t185 -81.5q105 0 168.5 82t63.5 231v76q0 150 -63.5 231.5 t-168.5 81.5q-118 0 -185 -81t-67 -232v-74z" />
<glyph unicode="c" horiz-adv-x="1064" d="M95 488v93q0 222 123.5 358.5t337.5 136.5q189 0 305 -104t122 -254h-222q-13 69 -66 117.5t-127 48.5q-111 0 -173.5 -82t-62.5 -226v-88q0 -144 64 -228.5t173 -84.5q86 0 136.5 43t61.5 109h221q-19 -165 -133 -255t-300 -90q-213 0 -336.5 138.5t-123.5 367.5z" />
<glyph unicode="d" horiz-adv-x="1194" d="M96 484v91q0 226 109.5 362t300.5 136q104 0 184 -46t118 -121h8v531h237v-1437h-231v162h-9q-40 -83 -120.5 -129.5t-186.5 -46.5q-195 0 -302.5 134t-107.5 364zM337 491q0 -153 65 -233t172 -80q114 0 179 81t65 231v77q0 145 -66 229t-180 84q-106 0 -170.5 -80.5 t-64.5 -232.5v-76z" />
<glyph unicode="e" horiz-adv-x="1103" d="M95 484v104q0 225 125 356.5t334 131.5q212 0 335 -135.5t123 -361.5v-102h-685v-27q0 -129 65 -207t174 -78q82 0 137.5 38.5t74.5 106.5h222q-24 -140 -135.5 -234t-300.5 -94q-216 0 -342.5 133t-126.5 369zM327 636h454v2q0 111 -62.5 184.5t-163.5 73.5 q-102 0 -165 -73.5t-63 -184.5v-2z" />
<glyph unicode="f" horiz-adv-x="725" d="M66 871v187h149v106q0 156 82.5 227t261.5 71q60 0 104 -7v-174q-30 4 -61 4q-81 0 -118.5 -31.5t-37.5 -109.5v-86h205v-187h-201v-871h-235v871h-149z" />
<glyph unicode="g" horiz-adv-x="1190" d="M97 508v72q0 235 111.5 364t298.5 129q105 0 186.5 -47.5t116.5 -121.5h9v154h232v-1050q0 -102 -40.5 -181.5t-109.5 -126.5t-152.5 -70.5t-176.5 -23.5q-210 0 -324 88t-128 229h232q14 -60 73.5 -99.5t149.5 -39.5q112 0 176 62.5t64 173.5v160h-9 q-31 -72 -112 -119.5t-187 -47.5q-187 0 -298.5 129t-111.5 366zM338 508q0 -149 64 -231t178 -82q110 0 172.5 82.5t62.5 230.5v62q0 145 -64 228t-171 83q-114 0 -178 -81t-64 -230v-62z" />
<glyph unicode="h" horiz-adv-x="1183" d="M141 0v1437h236v-529h9q32 66 109 116.5t195 50.5q166 0 268 -103t102 -292v-680h-236v631q0 120 -61 180t-161 60q-108 0 -166.5 -68t-58.5 -176v-627h-236z" />
<glyph unicode="i" horiz-adv-x="531" d="M128 1318q0 56 40 93t97 37q58 0 98 -37t40 -93t-40 -93t-98 -37q-57 0 -97 37t-40 93zM148 0v1058h235v-1058h-235z" />
<glyph unicode="j" horiz-adv-x="531" d="M-54 -186q25 -5 61 -5q74 0 107.5 41.5t33.5 132.5v1075h235v-1078q0 -178 -87 -263t-243 -85q-71 0 -107 8v174zM128 1318q0 56 40 93t97 37q58 0 98 -37t40 -93t-40 -93t-98 -37q-57 0 -97 37t-40 93z" />
<glyph unicode="k" horiz-adv-x="1047" d="M139 0v1437h237v-823h10l368 444h278l-396 -457l422 -601h-282l-319 462l-81 -94v-368h-237z" />
<glyph unicode="l" horiz-adv-x="525" d="M145 0v1437h236v-1437h-236z" />
<glyph unicode="m" horiz-adv-x="1767" d="M137 0v1058h232v-145h12q26 65 97 113.5t177 48.5q119 0 194 -47.5t105 -131.5h10q30 75 114.5 127t208.5 52q163 0 255.5 -95.5t92.5 -257.5v-722h-236v660q0 101 -52.5 157.5t-144.5 56.5q-95 0 -148 -60.5t-53 -164.5v-649h-230v649q0 112 -53.5 168.5t-144.5 56.5 q-88 0 -144 -57.5t-56 -165.5v-651h-236z" />
<glyph unicode="n" horiz-adv-x="1179" d="M137 0v1058h232v-150h9q32 65 110 116t197 51q167 0 268.5 -103t101.5 -292v-680h-236v631q0 120 -61.5 180t-160.5 60q-108 0 -166 -68.5t-58 -175.5v-627h-236z" />
<glyph unicode="o" horiz-adv-x="1140" d="M95 490v82q0 224 126 364t350 140t349 -139.5t125 -363.5v-82q0 -232 -124 -370.5t-350 -138.5t-351 138.5t-125 369.5zM333 489q0 -143 60.5 -231t177.5 -88q116 0 176 88t60 231v82q0 145 -60 232t-176 87q-117 0 -177.5 -87t-60.5 -232v-82z" />
<glyph unicode="p" horiz-adv-x="1187" d="M139 -357v1415h231v-156h9q44 79 123.5 125t184.5 46q181 0 292.5 -131.5t111.5 -365.5v-93q0 -233 -112 -365t-297 -132q-102 0 -178.5 43.5t-118.5 119.5h-9v-506h-237zM374 495q0 -147 66.5 -232t179.5 -85q105 0 167.5 82.5t62.5 234.5v73q0 149 -61.5 231t-171.5 82 q-112 0 -177.5 -84.5t-65.5 -227.5v-74z" />
<glyph unicode="q" horiz-adv-x="1193" d="M96 492v83q0 231 109.5 364.5t294.5 133.5q112 0 192 -45t122 -124h9v154h231v-1416h-236v514h-9q-33 -75 -115.5 -122.5t-195.5 -47.5q-185 0 -293.5 134.5t-108.5 371.5zM337 498q0 -150 63 -236t175 -86q113 0 179 86.5t66 235.5v67q0 145 -66.5 230t-180.5 85 q-110 0 -173 -82.5t-63 -232.5v-67z" />
<glyph unicode="r" horiz-adv-x="746" d="M137 0v1058h236v-141h10q24 61 88 109t163 48q41 0 78 -7v-207q-27 8 -98 8q-236 0 -236 -250v-618h-241z" />
<glyph unicode="s" horiz-adv-x="1021" d="M79 293h230q8 -64 62 -102t143 -38q96 0 146.5 40t50.5 100q0 36 -17.5 61t-54 40.5t-72.5 25t-92 20.5q-18 3 -27 5q-79 17 -136.5 37.5t-108.5 55t-77.5 87.5t-26.5 123q0 84 34 148.5t92.5 102.5t131.5 57.5t157 19.5q186 0 291 -87.5t105 -233.5h-211q-6 63 -51 107 t-140 44q-83 0 -132.5 -36t-49.5 -99q0 -37 19.5 -63t64.5 -43t73 -24t91 -18q14 -3 21 -4q81 -14 138 -33.5t107 -52.5t75.5 -85.5t25.5 -124.5q0 -161 -118 -251t-323 -90q-195 0 -308 84.5t-113 226.5z" />
<glyph unicode="t" horiz-adv-x="740" d="M64 871v187h152v256h230v-256h206v-187h-206v-549q0 -83 35.5 -113.5t124.5 -30.5q39 0 52 2v-179q-51 -8 -110 -8q-129 0 -203 33t-103.5 97.5t-29.5 174.5v573h-148z" />
<glyph unicode="u" horiz-adv-x="1175" d="M124 356v702h237v-638q0 -126 60.5 -180t156.5 -54q99 0 161 62.5t62 174.5v635h236v-1058h-231v150h-11q-29 -70 -106.5 -118t-198.5 -48q-168 0 -267 95.5t-99 276.5z" />
<glyph unicode="v" horiz-adv-x="995" d="M2 1058h251l234 -813h8l256 813h242l-371 -1058h-265z" />
<glyph unicode="w" horiz-adv-x="1540" d="M31 1058h239l168 -797h10l211 797h223l213 -797h10l168 797h237l-274 -1058h-248l-214 772h-7l-214 -772h-250z" />
<glyph unicode="x" horiz-adv-x="1043" d="M26 0l343 530l-343 528h276l224 -372h5l224 372h263l-349 -528l349 -530h-269l-232 372h-5l-231 -372h-255z" />
<glyph unicode="y" horiz-adv-x="1017" d="M3 1058h261l244 -834h8l247 834h251q-353 -1031 -356 -1039l-27 -72q-28 -76 -58 -128.5t-77.5 -101t-117 -73t-161.5 -24.5q-74 0 -133 11v175q34 -6 84 -6q92 0 136 37t61 114l11 43z" />
<glyph unicode="z" horiz-adv-x="990" d="M92 0v147l525 713v8h-517v190h805v-157l-514 -702v-8h525v-191h-824z" />
<glyph unicode="{" horiz-adv-x="766" d="M85 471v225q95 0 128.5 45.5t33.5 153.5v204q0 185 96.5 263.5t295.5 78.5h82v-175h-41q-118 0 -164 -45.5t-46 -155.5v-248q0 -105 -46.5 -158t-139.5 -62v-26q186 -17 186 -230v-277q0 -110 46 -155.5t164 -45.5h41v-176h-82q-198 0 -295 82t-97 269v234 q0 108 -33.5 153.5t-128.5 45.5z" />
<glyph unicode="|" horiz-adv-x="691" d="M241 -302v1739h209v-1739h-209z" />
<glyph unicode="}" horiz-adv-x="766" d="M45 -137h41q118 0 164 45.5t46 155.5v277q0 213 186 230v26q-93 9 -139.5 62t-46.5 158v248q0 110 -46 155.5t-164 45.5h-41v175h83q198 0 294 -78.5t96 -263.5v-204q0 -107 34 -153t130 -46v-225q-96 0 -130 -45.5t-34 -153.5v-234q0 -187 -96.5 -269t-293.5 -82h-83 v176z" />
<glyph unicode="~" horiz-adv-x="1114" d="M63 522q-3 98 27 178.5t97 132t162 51.5q59 0 110 -20.5t86 -50t66 -59t65 -50t68 -20.5q57 0 85.5 47t31.5 118h187q2 -157 -73 -260t-212 -103q-58 0 -108.5 20.5t-86.5 50t-67.5 59t-66 50t-68.5 20.5q-55 0 -84.5 -47t-32.5 -117h-186z" />
<glyph unicode="&#xa1;" horiz-adv-x="545" d="M132 975q0 57 40.5 94.5t99.5 37.5t100 -37.5t41 -94.5q0 -58 -41 -95.5t-100 -37.5t-99.5 37.5t-40.5 95.5zM142 -277l27 953h206l29 -953h-262z" />
<glyph unicode="&#xa2;" horiz-adv-x="1181" d="M132 604v158q0 194 105.5 316t269.5 141v234h182v-235q103 -12 181.5 -63.5t119 -124.5t42.5 -155h-218q-3 27 -16.5 54.5t-38.5 53.5t-67 42.5t-95 16.5q-115 0 -179 -77.5t-64 -204.5v-157q0 -129 66 -204t179 -75q99 0 154 43t67 108h218q-4 -131 -98.5 -225 t-250.5 -110v-225h-182v225q-166 18 -270.5 140.5t-104.5 323.5z" />
<glyph unicode="&#xa3;" horiz-adv-x="1181" d="M90 603v167h182v265q0 167 112.5 261.5t296.5 94.5q187 0 294 -93t110 -260h-221q-4 70 -52 115t-130 45q-91 0 -137 -53t-46 -136v-239h293v-167h-293l-1 -178q-2 -177 -78 -218v-14h673v-193h-987v202q44 3 71 11t50.5 31.5t34 70t10.5 119.5v169h-182z" />
<glyph unicode="&#xa4;" horiz-adv-x="1180" d="M87 267l168 169q-65 98 -65 216q0 116 61 211l-164 165l124 124l163 -164q99 66 218 66q117 0 215 -63l161 161l125 -124l-162 -161q63 -98 63 -215q0 -120 -67 -220l166 -165l-124 -124l-167 167q-97 -59 -210 -59q-117 0 -213 62l-169 -170zM363 652q0 -94 67 -161 t162 -67t162 67t67 161t-67.5 161.5t-161.5 67.5t-161.5 -67.5t-67.5 -161.5z" />
<glyph unicode="&#xa5;" horiz-adv-x="1181" d="M12 1365h270l304 -587h11l306 587h264l-389 -697h221v-153h-289v-130h289v-153h-289v-232h-241v232h-286v153h286v130h-286v153h218z" />
<glyph unicode="&#xa6;" horiz-adv-x="691" d="M241 -302v681h209v-681h-209zM241 781v656h209v-656h-209z" />
<glyph unicode="&#xa7;" horiz-adv-x="930" d="M60 67h206q9 -66 59.5 -104.5t135.5 -38.5q96 0 142.5 42t46.5 106q0 30 -13.5 54t-31 39t-53.5 29.5t-62 22t-75 20.5q-18 5 -27 7q-72 19 -123 41t-98 56.5t-71 86t-24 118.5q0 161 167 249v8q-160 90 -160 257q0 106 55.5 183t143 113.5t195.5 36.5q172 0 276.5 -90 t104.5 -231h-200q-4 57 -53.5 102t-133.5 45q-76 0 -123.5 -41t-47.5 -106q0 -51 41 -87t80 -49t125 -34q7 -2 11 -3q57 -14 96 -27t85.5 -37.5t75 -54t47.5 -76.5t19 -106q0 -158 -153 -260v-8q67 -41 106.5 -95.5t39.5 -141.5q0 -155 -112.5 -249.5t-295.5 -94.5 q-174 0 -287 86t-114 232zM283 577q0 -70 49 -107t143 -60q2 -1 41 -10t41 -10q46 20 76 67.5t30 101.5q0 69 -50 108.5t-144 60.5l-18 4q-18 4 -33.5 7t-17.5 3q-45 -15 -81 -62t-36 -103z" />
<glyph unicode="&#xa8;" horiz-adv-x="945" d="M180 1303q0 48 30.5 79t75.5 31q47 0 77 -31t30 -79q0 -46 -30.5 -76t-76.5 -30q-45 0 -75.5 30t-30.5 76zM551 1303q0 48 30 79t75 31q47 0 78 -31t31 -79q0 -46 -31 -76t-78 -30q-45 0 -75 30t-30 76z" />
<glyph unicode="&#xa9;" horiz-adv-x="1639" d="M103 644v103q0 142 54 268t148 218t229 145.5t289 53.5q155 0 290 -54t228.5 -146.5t147.5 -218.5t54 -266v-103q0 -151 -53 -282t-146.5 -224.5t-228.5 -147.5t-292 -54q-209 0 -374 92t-255.5 253.5t-90.5 362.5zM233 641q0 -167 73 -298.5t207.5 -206t309.5 -74.5 q264 0 428.5 163t164.5 416v106q0 115 -43.5 217.5t-120.5 177.5t-188.5 119t-240.5 44t-240 -43.5t-187.5 -119t-119.5 -178t-43 -217.5v-106zM491 632v99q0 156 93 244t245 88q138 0 224 -78t88 -182h-154q-6 47 -44 84.5t-113 37.5q-181 0 -181 -200v-94 q0 -95 48.5 -142.5t132.5 -47.5q143 0 161 105h153q-2 -103 -85.5 -176t-229.5 -73q-153 0 -245.5 87.5t-92.5 247.5z" />
<glyph unicode="&#xaa;" horiz-adv-x="649" d="M54 943q0 83 56.5 129.5t167.5 46.5h146v51q0 79 -99 79q-85 0 -95 -57h-151q5 79 65 127.5t185 48.5q118 0 186.5 -48t68.5 -154v-392h-153v74h-7q-46 -83 -164 -83q-95 0 -150.5 47.5t-55.5 130.5zM213 954q0 -37 28.5 -56.5t69.5 -19.5q47 0 80 26t33 66v54h-111 q-49 1 -74.5 -17.5t-25.5 -52.5z" />
<glyph unicode="&#xab;" horiz-adv-x="1279" d="M106 557v8l344 390h219l-339 -389v-6l339 -391h-228zM599 557v8l344 390h219l-339 -389v-6l339 -391h-228z" />
<glyph unicode="&#xac;" d="M74 449v189h993v-547h-205v358h-788z" />
<glyph unicode="&#xad;" horiz-adv-x="787" d="M79 455v210h630v-210h-630z" />
<glyph unicode="&#xae;" horiz-adv-x="981" d="M80 983v57q0 161 118 271.5t293 110.5q174 0 292 -111.5t118 -270.5v-57q0 -170 -116 -282t-294 -112t-294.5 112t-116.5 282zM175 984q0 -130 89.5 -216.5t226.5 -86.5t226.5 86.5t89.5 216.5v55q0 122 -90.5 207t-225.5 85q-136 0 -226 -85t-90 -207v-55zM336 816v398 h195q59 0 96 -34.5t37 -87.5q0 -44 -22.5 -76.5t-55.5 -42.5l93 -157h-109l-80 144h-62v-144h-92zM429 1028h62q77 0 77 58q0 57 -68 57h-71v-115z" />
<glyph unicode="&#xaf;" horiz-adv-x="943" d="M185 1232v140h572v-140h-572z" />
<glyph unicode="&#xb0;" horiz-adv-x="552" d="M38 1147q0 100 69 168.5t170 68.5q100 0 169 -68.5t69 -168.5t-69.5 -169.5t-168.5 -69.5q-101 0 -170 69t-69 170zM167 1147q0 -45 32.5 -78t77.5 -33q46 0 78 33t32 78q0 46 -32 78t-78 32q-45 0 -77.5 -32.5t-32.5 -77.5z" />
<glyph unicode="&#xb1;" d="M90 648v182h379v248h201v-248h382v-182h-382v-264h-201v264h-379zM92 87v186h962v-186h-962z" />
<glyph unicode="&#xb2;" horiz-adv-x="643" d="M67 1153v11q0 87 63.5 151t184.5 64q110 0 177 -55t67 -142q0 -45 -23.5 -91t-43 -67t-54.5 -56l-146 -138v-3h278v-133h-489v102l243 246q74 74 74 126q0 36 -25 58.5t-62 22.5q-40 0 -64 -24.5t-24 -59.5v-12h-156z" />
<glyph unicode="&#xb3;" horiz-adv-x="654" d="M61 887h151q2 -34 29.5 -56t72.5 -22q48 0 77.5 24t29.5 61q0 36 -28 59t-76 23h-77v124h75q41 0 66 22.5t25 56.5t-25 55t-65 21q-43 0 -67.5 -22.5t-26.5 -55.5h-151q4 90 68.5 146t180.5 56q108 0 174.5 -49t66.5 -129q0 -58 -36 -99t-89 -54v-4q64 -10 105 -49.5 t41 -108.5q0 -94 -75.5 -149t-186.5 -55q-122 0 -189.5 60.5t-69.5 144.5z" />
<glyph unicode="&#xb4;" horiz-adv-x="947" d="M289 1188l197 285h215l-243 -285h-169z" />
<glyph unicode="&#xb5;" horiz-adv-x="1270" d="M139 -357v1415h237v-640q0 -108 52.5 -170t149.5 -62q104 0 167.5 67t63.5 164v641h237v-760q0 -71 18.5 -96.5t67.5 -25.5q24 0 45 6v-179q-46 -12 -110 -12q-198 0 -224 163l-3 19h-9q-32 -92 -98.5 -140.5t-159.5 -48.5q-61 0 -112 26t-75 72h-10v-439h-237z" />
<glyph unicode="&#xb6;" horiz-adv-x="1348" d="M95 920q0 99 29.5 178t76.5 127.5t109 81t121.5 45.5t120.5 13h246v-1575h-227v685h-20q-59 0 -120 15.5t-121.5 50.5t-108 85.5t-77 126.5t-29.5 167zM959 -210v1575h226v-1575h-226z" />
<glyph unicode="&#xb7;" horiz-adv-x="609" d="M161 533q0 59 42.5 101.5t101.5 42.5t101 -42.5t42 -101.5t-42 -101t-101 -42t-101.5 42t-42.5 101z" />
<glyph unicode="&#xb8;" horiz-adv-x="947" d="M318 -352q44 -13 113 -13q113 0 113 67q0 21 -9.5 34t-30 19t-41.5 8t-56 2h-54v94l56 148h144l-50 -132q92 0 146 -43.5t54 -122.5q0 -95 -64.5 -142.5t-172.5 -50.5q-83 -3 -148 15v117z" />
<glyph unicode="&#xb9;" horiz-adv-x="575" d="M100 1101v147l162 117h165v-671h-165v517h-8z" />
<glyph unicode="&#xba;" horiz-adv-x="653" d="M44 1034v62q0 122 78 197t206 75q127 0 204 -73.5t77 -198.5v-61q0 -130 -76 -202t-205 -72q-131 0 -207.5 71.5t-76.5 201.5zM204 1035q0 -68 30.5 -110t92.5 -42q61 0 91.5 42t30.5 110v60q0 67 -31 109t-91 42t-91.5 -42t-31.5 -109v-60z" />
<glyph unicode="&#xbb;" horiz-adv-x="1279" d="M113 169l339 391v6l-339 389h219l344 -390v-8l-335 -388h-228zM606 169l339 391v6l-339 389h219l344 -390v-8l-335 -388h-228z" />
<glyph unicode="&#xbc;" horiz-adv-x="1564" d="M104 1101v147l162 117h165v-671h-165v517h-8zM142 0l544 704l503 661h185l-538 -696l-509 -669h-185zM866 113v120q80 147 258 437h222v-435h80v-122h-80v-113h-147v113h-333zM1014 235h185v312h-7q-70 -109 -178 -310v-2z" />
<glyph unicode="&#xbd;" horiz-adv-x="1564" d="M87 1101v147l162 117h165v-671h-165v517h-8zM122 0l544 704l503 661h185l-538 -696l-509 -669h-185zM939 465v11q0 41 15 79t44.5 69.5t79 50.5t112.5 19q112 0 180 -56t68 -144q0 -28 -9.5 -56.5t-20 -48.5t-31 -45t-31 -35.5t-31.5 -30.5l-148 -140v-3h282v-135h-496 v103l246 249q75 75 75 128q0 37 -25 59.5t-63 22.5q-41 0 -65 -25t-24 -60v-12h-158z" />
<glyph unicode="&#xbe;" horiz-adv-x="1564" d="M91 870h152q3 -34 30.5 -56.5t72.5 -22.5q49 0 78.5 24t29.5 62q0 36 -28 59.5t-77 23.5h-78v125h76q42 0 67 22.5t25 57t-25 55.5t-66 21q-43 0 -67.5 -22.5t-27.5 -55.5h-152q4 91 69.5 147.5t181.5 56.5q110 0 177 -50t67 -130q0 -58 -36.5 -100t-90.5 -55v-4 q65 -10 106.5 -50t41.5 -109q0 -95 -76 -150.5t-189 -55.5q-123 0 -191.5 60.5t-69.5 146.5zM184 0l544 704l503 661h185l-538 -696l-509 -669h-185zM909 113v120q80 147 258 437h223v-434h79v-123h-79v-113h-148v113h-333zM1057 236h185v311h-8q-82 -129 -177 -308v-3z" />
<glyph unicode="&#xbf;" horiz-adv-x="967" d="M50 48q0 49 12.5 92.5t29 73.5t46 61.5t51.5 49.5t58 45q54 40 76 58.5t46 47t31 56.5t7 70v55h218l1 -69q5 -102 -43.5 -176.5t-139.5 -139.5q-44 -32 -64.5 -49.5t-45 -44.5t-33.5 -54.5t-9 -63.5q0 -89 57 -133.5t142 -44.5q100 0 153.5 59t53.5 152h220 q3 -107 -34.5 -187.5t-103 -126t-141 -67t-160.5 -21.5q-116 0 -211 38t-156 120.5t-61 198.5zM371 975q0 57 41 94.5t100 37.5t100 -37.5t41 -94.5q0 -58 -41 -95.5t-100 -37.5t-100 37.5t-41 95.5z" />
<glyph unicode="&#xc0;" horiz-adv-x="1242" d="M18 0l466 1365h276l464 -1365h-256l-116 368h-471l-117 -368h-246zM304 1793h215l197 -286h-169zM434 552h366l-178 568h-9z" />
<glyph unicode="&#xc1;" horiz-adv-x="1242" d="M18 0l466 1365h276l464 -1365h-256l-116 368h-471l-117 -368h-246zM434 552h366l-178 568h-9zM526 1507l197 286h215l-243 -286h-169z" />
<glyph unicode="&#xc2;" horiz-adv-x="1243" d="M18 0l466 1365h276l464 -1365h-256l-116 368h-471l-117 -368h-246zM322 1507l223 285h152l223 -285h-181l-115 161h-6l-115 -161h-181zM434 552h366l-178 568h-9z" />
<glyph unicode="&#xc3;" horiz-adv-x="1242" d="M18 0l466 1365h276l464 -1365h-256l-116 368h-471l-117 -368h-246zM326 1498q0 85 47 147t133 62q42 0 79 -17.5t57.5 -38.5t44.5 -38.5t43 -17.5q29 0 44 28.5t18 67.5h126q0 -85 -50.5 -149t-136.5 -64q-42 0 -78 17.5t-55.5 38.5t-43 38.5t-43.5 17.5q-30 0 -43.5 -28 t-14.5 -64h-127zM434 552h366l-178 568h-9z" />
<glyph unicode="&#xc4;" horiz-adv-x="1243" d="M18 0l466 1365h276l464 -1365h-256l-116 368h-471l-117 -368h-246zM355 1583q0 45 28.5 74.5t70.5 29.5q43 0 72 -29.5t29 -74.5q0 -43 -29 -72t-72 -29q-42 0 -70.5 29t-28.5 72zM434 552h366l-178 568h-9zM689 1583q0 45 28.5 74.5t70.5 29.5q43 0 72 -29.5t29 -74.5 q0 -43 -29 -72t-72 -29q-42 0 -70.5 29t-28.5 72z" />
<glyph unicode="&#xc5;" horiz-adv-x="1243" d="M18 0l466 1365h276l464 -1365h-256l-116 368h-471l-117 -368h-246zM414 1675q0 86 59.5 143.5t147.5 57.5t147.5 -57t59.5 -144q0 -86 -59.5 -143.5t-147.5 -57.5t-147.5 57.5t-59.5 143.5zM434 552h366l-178 568h-9zM525 1675q0 -41 27.5 -69.5t68.5 -28.5t68.5 28.5 t27.5 69.5t-27.5 69t-68.5 28t-68.5 -28t-27.5 -69z" />
<glyph unicode="&#xc6;" horiz-adv-x="1879" d="M10 0l692 1365h1070v-201h-615v-376h579v-191h-579v-395h615v-202h-855v376h-448l-191 -376h-268zM556 566h361v598h-69z" />
<glyph unicode="&#xc7;" horiz-adv-x="1270" d="M96 598v163q0 296 147.5 463.5t413.5 167.5q230 0 377.5 -132.5t147.5 -341.5v-19h-234q-2 127 -81.5 206.5t-208.5 79.5q-152 0 -235 -110t-83 -314v-164q0 -201 82.5 -309t235.5 -108q129 0 208.5 74.5t81.5 194.5h234v-20q0 -184 -129 -309.5t-333 -143.5l-39 -101 q95 0 148 -44t53 -122q0 -94 -66 -143.5t-185 -49.5q-81 0 -135 15v117q52 -13 114 -13q51 0 81.5 16.5t30.5 48.5q0 35 -29.5 50t-106.5 15h-54v94l44 118q-229 25 -354.5 188.5t-125.5 432.5z" />
<glyph unicode="&#xc8;" horiz-adv-x="1118" d="M150 0v1365h862v-202h-621v-375h584v-191h-584v-395h621v-202h-862zM257 1793h215l197 -286h-169z" />
<glyph unicode="&#xc9;" horiz-adv-x="1118" d="M150 0v1365h862v-202h-621v-375h584v-191h-584v-395h621v-202h-862zM479 1507l197 286h215l-243 -286h-169z" />
<glyph unicode="&#xca;" horiz-adv-x="1118" d="M150 0v1365h862v-202h-621v-375h584v-191h-584v-395h621v-202h-862zM275 1507l223 285h152l223 -285h-181l-115 161h-6l-115 -161h-181z" />
<glyph unicode="&#xcb;" horiz-adv-x="1118" d="M150 0v1365h862v-202h-621v-375h584v-191h-584v-395h621v-202h-862zM307 1583q0 45 28.5 74.5t70.5 29.5q43 0 72 -29.5t29 -74.5q0 -43 -29 -72t-72 -29q-42 0 -70.5 29t-28.5 72zM641 1583q0 45 28.5 74.5t70.5 29.5q43 0 72 -29.5t29 -74.5q0 -43 -29 -72t-72 -29 q-42 0 -70.5 29t-28.5 72z" />
<glyph unicode="&#xcc;" horiz-adv-x="543" d="M-46 1793h215l197 -286h-169zM150 0v1365h242v-1365h-242z" />
<glyph unicode="&#xcd;" horiz-adv-x="543" d="M150 0v1365h242v-1365h-242zM176 1507l197 286h215l-243 -286h-169z" />
<glyph unicode="&#xce;" horiz-adv-x="543" d="M-28 1507l223 285h152l223 -285h-181l-115 161h-6l-115 -161h-181zM150 0v1365h242v-1365h-242z" />
<glyph unicode="&#xcf;" horiz-adv-x="543" d="M4 1583q0 45 28.5 74.5t70.5 29.5q43 0 72 -29.5t29 -74.5q0 -43 -29 -72t-72 -29q-42 0 -70.5 29t-28.5 72zM150 0v1365h242v-1365h-242zM338 1583q0 45 28.5 74.5t70.5 29.5q43 0 72 -29.5t29 -74.5q0 -43 -29 -72t-72 -29q-42 0 -70.5 29t-28.5 72z" />
<glyph unicode="&#xd0;" horiz-adv-x="1402" d="M72 590v210h112v565h480q304 0 455.5 -174t151.5 -505q0 -333 -152.5 -509.5t-454.5 -176.5h-480v590h-112zM425 205h209q191 0 289 113.5t98 366.5q0 482 -387 482h-209v-367h317v-210h-317v-385z" />
<glyph unicode="&#xd1;" horiz-adv-x="1375" d="M150 0v1365h209l631 -955h8v955h226v-1365h-207l-633 958h-7v-958h-227zM392 1498q0 85 47 147t133 62q42 0 79 -17.5t57.5 -38.5t44.5 -38.5t43 -17.5q29 0 44 28.5t18 67.5h126q0 -85 -50.5 -149t-136.5 -64q-42 0 -78 17.5t-55.5 38.5t-43 38.5t-43.5 17.5 q-30 0 -43.5 -28t-14.5 -64h-127z" />
<glyph unicode="&#xd2;" horiz-adv-x="1339" d="M96 586v182q0 290 154.5 457t420.5 167q267 0 420 -167t153 -457v-182q0 -288 -153.5 -450.5t-421.5 -162.5q-267 0 -420 162.5t-153 450.5zM341 585q0 -200 90.5 -303.5t238.5 -103.5q149 0 238.5 103.5t89.5 303.5v185q0 201 -90 309t-238 108q-147 0 -238 -108 t-91 -309v-185zM351 1793h215l197 -286h-169z" />
<glyph unicode="&#xd3;" horiz-adv-x="1339" d="M96 586v182q0 290 154.5 457t420.5 167q267 0 420 -167t153 -457v-182q0 -288 -153.5 -450.5t-421.5 -162.5q-267 0 -420 162.5t-153 450.5zM341 585q0 -200 90.5 -303.5t238.5 -103.5q149 0 238.5 103.5t89.5 303.5v185q0 201 -90 309t-238 108q-147 0 -238 -108 t-91 -309v-185zM573 1507l197 286h215l-243 -286h-169z" />
<glyph unicode="&#xd4;" horiz-adv-x="1339" d="M96 586v182q0 290 154.5 457t420.5 167q267 0 420 -167t153 -457v-182q0 -288 -153.5 -450.5t-421.5 -162.5q-267 0 -420 162.5t-153 450.5zM341 585q0 -200 90.5 -303.5t238.5 -103.5q149 0 238.5 103.5t89.5 303.5v185q0 201 -90 309t-238 108q-147 0 -238 -108 t-91 -309v-185zM370 1507l223 285h152l223 -285h-181l-115 161h-6l-115 -161h-181z" />
<glyph unicode="&#xd5;" horiz-adv-x="1339" d="M96 586v182q0 290 154.5 457t420.5 167q267 0 420 -167t153 -457v-182q0 -288 -153.5 -450.5t-421.5 -162.5q-267 0 -420 162.5t-153 450.5zM341 585q0 -200 90.5 -303.5t238.5 -103.5q149 0 238.5 103.5t89.5 303.5v185q0 201 -90 309t-238 108q-147 0 -238 -108 t-91 -309v-185zM373 1498q0 85 47 147t133 62q42 0 79 -17.5t57.5 -38.5t44.5 -38.5t43 -17.5q29 0 44 28.5t18 67.5h126q0 -85 -50.5 -149t-136.5 -64q-42 0 -78 17.5t-55.5 38.5t-43 38.5t-43.5 17.5q-30 0 -43.5 -28t-14.5 -64h-127z" />
<glyph unicode="&#xd6;" horiz-adv-x="1339" d="M96 586v182q0 290 154.5 457t420.5 167q267 0 420 -167t153 -457v-182q0 -288 -153.5 -450.5t-421.5 -162.5q-267 0 -420 162.5t-153 450.5zM341 585q0 -200 90.5 -303.5t238.5 -103.5q149 0 238.5 103.5t89.5 303.5v185q0 201 -90 309t-238 108q-147 0 -238 -108 t-91 -309v-185zM402 1583q0 45 28.5 74.5t70.5 29.5q43 0 72 -29.5t29 -74.5q0 -43 -29 -72t-72 -29q-42 0 -70.5 29t-28.5 72zM736 1583q0 45 28.5 74.5t70.5 29.5q43 0 72 -29.5t29 -74.5q0 -43 -29 -72t-72 -29q-42 0 -70.5 29t-28.5 72z" />
<glyph unicode="&#xd7;" d="M122 210l307 307l-307 307l143 143l307 -307l307 307l143 -143l-307 -307l307 -307l-143 -143l-307 307l-307 -307z" />
<glyph unicode="&#xd8;" horiz-adv-x="1338" d="M75 71l115 142q-94 151 -94 373v182q0 290 154 457t420 167q226 0 372 -126l92 114l119 -86l-112 -138q101 -155 101 -388v-182q0 -288 -153.5 -450.5t-421.5 -162.5q-233 0 -378 128l-99 -123zM336 583q0 -93 23 -162l541 671q-89 98 -232 98q-149 0 -240.5 -109 t-91.5 -311v-187zM429 274q88 -101 239 -101q150 0 241.5 104.5t91.5 305.5v187q0 102 -28 178z" />
<glyph unicode="&#xd9;" horiz-adv-x="1352" d="M135 459v906h240v-873q0 -145 82 -228t219 -83t219 83t82 228v873h240v-906q0 -218 -145.5 -352t-395.5 -134t-395.5 134t-145.5 352zM358 1793h215l197 -286h-169z" />
<glyph unicode="&#xda;" horiz-adv-x="1352" d="M135 459v906h240v-873q0 -145 82 -228t219 -83t219 83t82 228v873h240v-906q0 -218 -145.5 -352t-395.5 -134t-395.5 134t-145.5 352zM580 1507l197 286h215l-243 -286h-169z" />
<glyph unicode="&#xdb;" horiz-adv-x="1352" d="M135 459v906h240v-873q0 -145 82 -228t219 -83t219 83t82 228v873h240v-906q0 -218 -145.5 -352t-395.5 -134t-395.5 134t-145.5 352zM376 1507l223 285h152l223 -285h-181l-115 161h-6l-115 -161h-181z" />
<glyph unicode="&#xdc;" horiz-adv-x="1352" d="M135 459v906h240v-873q0 -145 82 -228t219 -83t219 83t82 228v873h240v-906q0 -218 -145.5 -352t-395.5 -134t-395.5 134t-145.5 352zM408 1583q0 45 28.5 74.5t70.5 29.5q43 0 72 -29.5t29 -74.5q0 -43 -29 -72t-72 -29q-42 0 -70.5 29t-28.5 72zM742 1583 q0 45 28.5 74.5t70.5 29.5q43 0 72 -29.5t29 -74.5q0 -43 -29 -72t-72 -29q-42 0 -70.5 29t-28.5 72z" />
<glyph unicode="&#xdd;" horiz-adv-x="1132" d="M-11 1365h270l306 -587h8l307 587h264l-457 -822v-543h-241v539zM471 1507l197 286h215l-243 -286h-169z" />
<glyph unicode="&#xde;" horiz-adv-x="1180" d="M150 0v1365h241v-240h277q212 0 333 -113t121 -305q0 -194 -121.5 -305.5t-333.5 -111.5h-275v-290h-242zM392 485h206q51 0 89.5 5t75.5 19t60.5 38.5t37.5 64.5t14 95q0 221 -247 221h-236v-443z" />
<glyph unicode="&#xdf;" horiz-adv-x="1283" d="M147 0v1047q0 126 61 217t165 135t238 44q209 0 335.5 -99.5t126.5 -258.5q0 -72 -24 -133t-62 -99.5t-79.5 -61t-80.5 -28.5v-14q69 -1 134.5 -24t119.5 -66.5t86.5 -113.5t32.5 -157q0 -99 -40 -178t-108 -127.5t-154.5 -74t-183.5 -25.5q-103 0 -166 19v189 q52 -20 138 -20q73 0 132.5 21t100 73t40.5 130q0 108 -85 169.5t-223 61.5h-77v207h46q85 0 152.5 61.5t67.5 156.5q0 88 -59.5 143.5t-164.5 55.5q-233 0 -233 -246v-1004h-236z" />
<glyph unicode="&#xe0;" horiz-adv-x="1082" d="M81 304q0 144 97.5 226.5t277.5 83.5h264v98q0 87 -49 134t-139 47q-85 0 -135 -41.5t-55 -110.5h-222q3 70 28.5 128.5t74 105.5t129 73.5t185.5 26.5q122 0 214 -38t147.5 -119.5t55.5 -198.5v-719h-224v129h-9q-82 -145 -293 -145q-155 0 -251 87t-96 233zM227 1473 h215l197 -285h-169zM317 319q0 -76 54 -117t131 -41q93 0 155.5 52.5t62.5 134.5v115h-220q-90 0 -136.5 -39t-46.5 -105z" />
<glyph unicode="&#xe1;" horiz-adv-x="1082" d="M81 304q0 144 97.5 226.5t277.5 83.5h264v98q0 87 -49 134t-139 47q-85 0 -135 -41.5t-55 -110.5h-222q3 70 28.5 128.5t74 105.5t129 73.5t185.5 26.5q122 0 214 -38t147.5 -119.5t55.5 -198.5v-719h-224v129h-9q-82 -145 -293 -145q-155 0 -251 87t-96 233zM317 319 q0 -76 54 -117t131 -41q93 0 155.5 52.5t62.5 134.5v115h-220q-90 0 -136.5 -39t-46.5 -105zM445 1188l197 285h215l-243 -285h-169z" />
<glyph unicode="&#xe2;" horiz-adv-x="1082" d="M81 304q0 144 97.5 226.5t277.5 83.5h264v98q0 87 -49 134t-139 47q-85 0 -135 -41.5t-55 -110.5h-222q3 70 28.5 128.5t74 105.5t129 73.5t185.5 26.5q122 0 214 -38t147.5 -119.5t55.5 -198.5v-719h-224v129h-9q-82 -145 -293 -145q-155 0 -251 87t-96 233zM242 1188 l223 307h154l224 -307h-183l-115 177h-5l-115 -177h-183zM317 319q0 -76 54 -117t131 -41q93 0 155.5 52.5t62.5 134.5v115h-220q-90 0 -136.5 -39t-46.5 -105z" />
<glyph unicode="&#xe3;" horiz-adv-x="1082" d="M81 304q0 144 97.5 226.5t277.5 83.5h264v98q0 87 -49 134t-139 47q-85 0 -135 -41.5t-55 -110.5h-222q3 70 28.5 128.5t74 105.5t129 73.5t185.5 26.5q122 0 214 -38t147.5 -119.5t55.5 -198.5v-719h-224v129h-9q-82 -145 -293 -145q-155 0 -251 87t-96 233zM206 1201 q0 97 52.5 166t144.5 69q46 0 85.5 -19.5t62 -43t49.5 -43t51 -19.5q34 0 52 32t20 75h141q0 -94 -56.5 -166t-151.5 -72q-46 0 -85 19.5t-61 42.5t-48.5 42.5t-49.5 19.5q-36 0 -50.5 -33t-14.5 -70h-141zM317 319q0 -76 54 -117t131 -41q93 0 155.5 52.5t62.5 134.5v115 h-220q-90 0 -136.5 -39t-46.5 -105z" />
<glyph unicode="&#xe4;" horiz-adv-x="1082" d="M81 304q0 144 97.5 226.5t277.5 83.5h264v98q0 87 -49 134t-139 47q-85 0 -135 -41.5t-55 -110.5h-222q3 70 28.5 128.5t74 105.5t129 73.5t185.5 26.5q122 0 214 -38t147.5 -119.5t55.5 -198.5v-719h-224v129h-9q-82 -145 -293 -145q-155 0 -251 87t-96 233zM258 1303 q0 48 30.5 79t75.5 31q47 0 77 -31t30 -79q0 -46 -30.5 -76t-76.5 -30q-45 0 -75.5 30t-30.5 76zM317 319q0 -76 54 -117t131 -41q93 0 155.5 52.5t62.5 134.5v115h-220q-90 0 -136.5 -39t-46.5 -105zM629 1303q0 48 30 79t75 31q47 0 78 -31t31 -79q0 -46 -31 -76t-78 -30 q-45 0 -75 30t-30 76z" />
<glyph unicode="&#xe5;" horiz-adv-x="1082" d="M81 304q0 144 97.5 226.5t277.5 83.5h264v98q0 87 -49 134t-139 47q-85 0 -135 -41.5t-55 -110.5h-222q3 70 28.5 128.5t74 105.5t129 73.5t185.5 26.5q122 0 214 -38t147.5 -119.5t55.5 -198.5v-719h-224v129h-9q-82 -145 -293 -145q-155 0 -251 87t-96 233zM317 319 q0 -76 54 -117t131 -41q93 0 155.5 52.5t62.5 134.5v115h-220q-90 0 -136.5 -39t-46.5 -105zM335 1383q0 86 59.5 143.5t147.5 57.5t147.5 -57t59.5 -144q0 -86 -59.5 -143.5t-147.5 -57.5t-147.5 57.5t-59.5 143.5zM446 1383q0 -41 27.5 -69.5t68.5 -28.5t68.5 28.5 t27.5 69.5t-27.5 69t-68.5 28t-68.5 -28t-27.5 -69z" />
<glyph unicode="&#xe6;" horiz-adv-x="1741" d="M81 304q0 148 97.5 235t277.5 87h264v86q0 87 -49 134t-139 47q-85 0 -135 -41.5t-55 -110.5h-222q4 70 29 128.5t73.5 105.5t129 74t185.5 27q107 0 194 -36.5t136 -100.5h6q111 137 319 137q218 0 338 -137t120 -367v-95h-685v-33q0 -117 62.5 -196t176.5 -79 q92 0 143.5 40t63.5 101h227q-5 -45 -22 -89t-51.5 -88t-82 -77t-119 -53.5t-157.5 -20.5q-268 0 -381 195h-6q-123 -195 -372 -195q-168 0 -267 87t-99 235zM317 319q0 -76 54 -117t131 -41q93 0 155.5 52.5t62.5 134.5v123h-213q-95 0 -142.5 -40.5t-47.5 -111.5zM965 636 h454v2q0 114 -60.5 185t-165.5 71q-104 0 -166 -71.5t-62 -184.5v-2z" />
<glyph unicode="&#xe7;" horiz-adv-x="1064" d="M95 488v93q0 222 123.5 358.5t337.5 136.5q189 0 305 -104t122 -254h-222q-13 69 -66 117.5t-127 48.5q-111 0 -173.5 -82t-62.5 -226v-88q0 -144 64 -228.5t173 -84.5q86 0 136.5 43t61.5 109h221q-18 -147 -110.5 -235.5t-247.5 -105.5l-42 -97q92 0 142.5 -42.5 t50.5 -122.5q0 -94 -64.5 -142t-172.5 -51q-86 -4 -148 15v117q47 -14 113 -14q113 0 113 68q0 39 -30.5 50.5t-99.5 11.5h-54v94l48 113q-183 22 -287 158t-104 344z" />
<glyph unicode="&#xe8;" horiz-adv-x="1103" d="M95 484v104q0 225 125 356.5t334 131.5q212 0 335 -135.5t123 -361.5v-102h-685v-27q0 -129 65 -207t174 -78q82 0 137.5 38.5t74.5 106.5h222q-24 -140 -135.5 -234t-300.5 -94q-216 0 -342.5 133t-126.5 369zM238 1473h215l197 -285h-169zM327 636h454v2 q0 111 -62.5 184.5t-163.5 73.5q-102 0 -165 -73.5t-63 -184.5v-2z" />
<glyph unicode="&#xe9;" horiz-adv-x="1103" d="M95 484v104q0 225 125 356.5t334 131.5q212 0 335 -135.5t123 -361.5v-102h-685v-27q0 -129 65 -207t174 -78q82 0 137.5 38.5t74.5 106.5h222q-24 -140 -135.5 -234t-300.5 -94q-216 0 -342.5 133t-126.5 369zM327 636h454v2q0 111 -62.5 184.5t-163.5 73.5 q-102 0 -165 -73.5t-63 -184.5v-2zM456 1188l197 285h215l-243 -285h-169z" />
<glyph unicode="&#xea;" horiz-adv-x="1103" d="M95 484v104q0 225 125 356.5t334 131.5q212 0 335 -135.5t123 -361.5v-102h-685v-27q0 -129 65 -207t174 -78q82 0 137.5 38.5t74.5 106.5h222q-24 -140 -135.5 -234t-300.5 -94q-216 0 -342.5 133t-126.5 369zM253 1188l223 307h154l224 -307h-183l-115 177h-5 l-115 -177h-183zM327 636h454v2q0 111 -62.5 184.5t-163.5 73.5q-102 0 -165 -73.5t-63 -184.5v-2z" />
<glyph unicode="&#xeb;" horiz-adv-x="1103" d="M95 484v104q0 225 125 356.5t334 131.5q212 0 335 -135.5t123 -361.5v-102h-685v-27q0 -129 65 -207t174 -78q82 0 137.5 38.5t74.5 106.5h222q-24 -140 -135.5 -234t-300.5 -94q-216 0 -342.5 133t-126.5 369zM269 1303q0 48 30.5 79t75.5 31q47 0 77 -31t30 -79 q0 -46 -30.5 -76t-76.5 -30q-45 0 -75.5 30t-30.5 76zM327 636h454v2q0 111 -62.5 184.5t-163.5 73.5q-102 0 -165 -73.5t-63 -184.5v-2zM640 1303q0 48 30 79t75 31q47 0 78 -31t31 -79q0 -46 -31 -76t-78 -30q-45 0 -75 30t-30 76z" />
<glyph unicode="&#xec;" horiz-adv-x="531" d="M-54 1473h215l197 -285h-169zM148 0v1058h235v-1058h-235z" />
<glyph unicode="&#xed;" horiz-adv-x="531" d="M148 0v1058h235v-1058h-235zM164 1188l197 285h215l-243 -285h-169z" />
<glyph unicode="&#xee;" horiz-adv-x="531" d="M-39 1188l223 307h154l224 -307h-183l-115 177h-5l-115 -177h-183zM148 0v1058h235v-1058h-235z" />
<glyph unicode="&#xef;" horiz-adv-x="531" d="M-23 1303q0 48 30.5 79t75.5 31q47 0 77 -31t30 -79q0 -46 -30.5 -76t-76.5 -30q-45 0 -75.5 30t-30.5 76zM148 0v1058h235v-1058h-235zM348 1303q0 48 30 79t75 31q47 0 78 -31t31 -79q0 -46 -31 -76t-78 -30q-45 0 -75 30t-30 76z" />
<glyph unicode="&#xf0;" horiz-adv-x="1126" d="M95 490v29q0 223 113.5 363.5t309.5 140.5q169 0 248 -111h12q-6 21 -20 59q-54 139 -134 238l-256 -96l-51 118l215 78q-115 124 -229 218h282q75 -59 147 -140l264 98l48 -114l-218 -82q219 -304 219 -706v-89q0 -152 -52 -266t-160 -180t-262 -66q-226 0 -351 138.5 t-125 369.5zM329 489q0 -148 64 -231.5t178 -83.5t177.5 83t63.5 232v34q0 149 -63.5 231.5t-177.5 82.5t-178 -83t-64 -231v-34z" />
<glyph unicode="&#xf1;" horiz-adv-x="1179" d="M137 0v1058h232v-150h9q32 65 110 116t197 51q167 0 268.5 -103t101.5 -292v-680h-236v631q0 120 -61.5 180t-160.5 60q-108 0 -166 -68.5t-58 -175.5v-627h-236zM256 1201q0 97 52.5 166t144.5 69q46 0 85.5 -19.5t62 -43t49.5 -43t51 -19.5q34 0 52 32t20 75h141 q0 -94 -56.5 -166t-151.5 -72q-46 0 -85 19.5t-61 42.5t-48.5 42.5t-49.5 19.5q-36 0 -50.5 -33t-14.5 -70h-141z" />
<glyph unicode="&#xf2;" horiz-adv-x="1140" d="M95 490v82q0 224 126 364t350 140t349 -139.5t125 -363.5v-82q0 -232 -124 -370.5t-350 -138.5t-351 138.5t-125 369.5zM257 1473h215l197 -285h-169zM333 489q0 -143 60.5 -231t177.5 -88q116 0 176 88t60 231v82q0 145 -60 232t-176 87q-117 0 -177.5 -87t-60.5 -232 v-82z" />
<glyph unicode="&#xf3;" horiz-adv-x="1140" d="M95 490v82q0 224 126 364t350 140t349 -139.5t125 -363.5v-82q0 -232 -124 -370.5t-350 -138.5t-351 138.5t-125 369.5zM333 489q0 -143 60.5 -231t177.5 -88q116 0 176 88t60 231v82q0 145 -60 232t-176 87q-117 0 -177.5 -87t-60.5 -232v-82zM475 1188l197 285h215 l-243 -285h-169z" />
<glyph unicode="&#xf4;" horiz-adv-x="1140" d="M95 490v82q0 224 126 364t350 140t349 -139.5t125 -363.5v-82q0 -232 -124 -370.5t-350 -138.5t-351 138.5t-125 369.5zM272 1188l223 307h154l224 -307h-183l-115 177h-5l-115 -177h-183zM333 489q0 -143 60.5 -231t177.5 -88q116 0 176 88t60 231v82q0 145 -60 232 t-176 87q-117 0 -177.5 -87t-60.5 -232v-82z" />
<glyph unicode="&#xf5;" horiz-adv-x="1140" d="M95 490v82q0 224 126 364t350 140t349 -139.5t125 -363.5v-82q0 -232 -124 -370.5t-350 -138.5t-351 138.5t-125 369.5zM236 1201q0 97 52.5 166t144.5 69q46 0 85.5 -19.5t62 -43t49.5 -43t51 -19.5q34 0 52 32t20 75h141q0 -94 -56.5 -166t-151.5 -72q-46 0 -85 19.5 t-61 42.5t-48.5 42.5t-49.5 19.5q-36 0 -50.5 -33t-14.5 -70h-141zM333 489q0 -143 60.5 -231t177.5 -88q116 0 176 88t60 231v82q0 145 -60 232t-176 87q-117 0 -177.5 -87t-60.5 -232v-82z" />
<glyph unicode="&#xf6;" horiz-adv-x="1140" d="M95 490v82q0 224 126 364t350 140t349 -139.5t125 -363.5v-82q0 -232 -124 -370.5t-350 -138.5t-351 138.5t-125 369.5zM288 1303q0 48 30.5 79t75.5 31q47 0 77 -31t30 -79q0 -46 -30.5 -76t-76.5 -30q-45 0 -75.5 30t-30.5 76zM333 489q0 -143 60.5 -231t177.5 -88 q116 0 176 88t60 231v82q0 145 -60 232t-176 87q-117 0 -177.5 -87t-60.5 -232v-82zM659 1303q0 48 30 79t75 31q47 0 78 -31t31 -79q0 -46 -31 -76t-78 -30q-45 0 -75 30t-30 76z" />
<glyph unicode="&#xf7;" d="M95 479v171h955v-171h-955zM435 181q0 57 39.5 93t96.5 36q60 0 99 -35.5t39 -93.5q0 -57 -39 -92.5t-99 -35.5q-57 0 -96.5 36t-39.5 92zM435 951q0 58 39.5 93.5t96.5 35.5q60 0 99 -35.5t39 -93.5q0 -57 -39 -92.5t-99 -35.5q-57 0 -96.5 36t-39.5 92z" />
<glyph unicode="&#xf8;" horiz-adv-x="1140" d="M76 11l113 146q-94 130 -94 333v82q0 224 126 364t350 140q163 0 276 -76l97 125l104 -83l-104 -134q101 -131 101 -335v-82q0 -232 -124 -370.5t-350 -138.5q-174 0 -288 82l-105 -134zM330 490q0 -87 25 -144l365 489q-57 59 -149 59q-119 0 -180 -87.5t-61 -233.5v-83 zM412 234q61 -66 159 -66q118 0 179 89t61 233v83q0 93 -31 152z" />
<glyph unicode="&#xf9;" horiz-adv-x="1175" d="M124 356v702h237v-638q0 -126 60.5 -180t156.5 -54q99 0 161 62.5t62 174.5v635h236v-1058h-231v150h-11q-29 -70 -106.5 -118t-198.5 -48q-168 0 -267 95.5t-99 276.5zM269 1473h215l197 -285h-169z" />
<glyph unicode="&#xfa;" horiz-adv-x="1175" d="M124 356v702h237v-638q0 -126 60.5 -180t156.5 -54q99 0 161 62.5t62 174.5v635h236v-1058h-231v150h-11q-29 -70 -106.5 -118t-198.5 -48q-168 0 -267 95.5t-99 276.5zM487 1188l197 285h215l-243 -285h-169z" />
<glyph unicode="&#xfb;" horiz-adv-x="1175" d="M124 356v702h237v-638q0 -126 60.5 -180t156.5 -54q99 0 161 62.5t62 174.5v635h236v-1058h-231v150h-11q-29 -70 -106.5 -118t-198.5 -48q-168 0 -267 95.5t-99 276.5zM284 1188l223 307h154l224 -307h-183l-115 177h-5l-115 -177h-183z" />
<glyph unicode="&#xfc;" horiz-adv-x="1175" d="M124 356v702h237v-638q0 -126 60.5 -180t156.5 -54q99 0 161 62.5t62 174.5v635h236v-1058h-231v150h-11q-29 -70 -106.5 -118t-198.5 -48q-168 0 -267 95.5t-99 276.5zM300 1303q0 48 30.5 79t75.5 31q47 0 77 -31t30 -79q0 -46 -30.5 -76t-76.5 -30q-45 0 -75.5 30 t-30.5 76zM671 1303q0 48 30 79t75 31q47 0 78 -31t31 -79q0 -46 -31 -76t-78 -30q-45 0 -75 30t-30 76z" />
<glyph unicode="&#xfd;" horiz-adv-x="1017" d="M3 1058h261l244 -834h8l247 834h251q-353 -1031 -356 -1039l-27 -72q-28 -76 -58 -128.5t-77.5 -101t-117 -73t-161.5 -24.5q-74 0 -133 11v175q34 -6 84 -6q92 0 136 37t61 114l11 43zM416 1188l197 285h215l-243 -285h-169z" />
<glyph unicode="&#xfe;" horiz-adv-x="1187" d="M139 -357v1794h237v-531h9q38 77 117 122t185 45q181 0 292.5 -131.5t111.5 -365.5v-93q0 -233 -112 -365t-297 -132q-102 0 -178.5 43.5t-118.5 119.5h-9v-506h-237zM374 495q0 -147 66.5 -232t179.5 -85q105 0 167.5 82.5t62.5 234.5v73q0 149 -61.5 231t-171.5 82 q-112 0 -177.5 -84.5t-65.5 -227.5v-74z" />
<glyph unicode="&#xff;" horiz-adv-x="1017" d="M3 1058h261l244 -834h8l247 834h251q-353 -1031 -356 -1039l-27 -72q-28 -76 -58 -128.5t-77.5 -101t-117 -73t-161.5 -24.5q-74 0 -133 11v175q34 -6 84 -6q92 0 136 37t61 114l11 43zM229 1303q0 48 30.5 79t75.5 31q47 0 77 -31t30 -79q0 -46 -30.5 -76t-76.5 -30 q-45 0 -75.5 30t-30.5 76zM600 1303q0 48 30 79t75 31q47 0 78 -31t31 -79q0 -46 -31 -76t-78 -30q-45 0 -75 30t-30 76z" />
<glyph unicode="&#x152;" horiz-adv-x="1961" d="M96 587v181q0 294 149.5 459t397.5 165q121 0 218 -42.5t149 -124.5h16v140h828v-202h-613v-375h577v-191h-577v-395h613v-202h-828v144h-16q-53 -81 -150.5 -126t-219.5 -45q-251 0 -397.5 164t-146.5 450zM347 584q0 -200 90 -303.5t239 -103.5q150 0 240 99.5 t90 298.5v210q0 199 -90.5 300.5t-239.5 101.5q-148 0 -238.5 -108t-90.5 -309v-186z" />
<glyph unicode="&#x153;" horiz-adv-x="1809" d="M88 466v130q0 217 132 348.5t347 131.5q108 0 201.5 -41.5t144.5 -120.5h15q46 71 136.5 116.5t205.5 45.5q207 0 330 -135.5t123 -361.5v-102h-684v-27q0 -129 65 -207t175 -78q80 0 135.5 38.5t74.5 106.5h223q-23 -138 -134.5 -233t-300.5 -95q-117 0 -207.5 42.5 t-140.5 117.5h-16q-53 -75 -147 -117.5t-207 -42.5q-213 0 -342 127.5t-129 356.5zM325 472q0 -134 61.5 -218t177.5 -84q114 0 175 84t61 218v116q0 133 -62 217.5t-174 84.5t-175.5 -85t-63.5 -217v-116zM1039 636h454v2q0 111 -62.5 184.5t-163.5 73.5t-164 -73.5 t-64 -184.5v-2z" />
<glyph unicode="&#x178;" horiz-adv-x="1133" d="M-11 1365h270l306 -587h8l307 587h264l-457 -822v-543h-241v539zM299 1583q0 45 28.5 74.5t70.5 29.5q43 0 72 -29.5t29 -74.5q0 -43 -29 -72t-72 -29q-42 0 -70.5 29t-28.5 72zM633 1583q0 45 28.5 74.5t70.5 29.5q43 0 72 -29.5t29 -74.5q0 -43 -29 -72t-72 -29 q-42 0 -70.5 29t-28.5 72z" />
<glyph unicode="&#x2c6;" horiz-adv-x="945" d="M172 1188l223 307h154l224 -307h-183l-115 177h-5l-115 -177h-183z" />
<glyph unicode="&#x2dc;" horiz-adv-x="947" d="M137 1221q0 97 52.5 166t144.5 69q46 0 85.5 -19.5t62 -43t49.5 -43t51 -19.5q34 0 52 32t20 75h141q0 -94 -56.5 -166t-151.5 -72q-46 0 -85 19.5t-61 42.5t-48.5 42.5t-49.5 19.5q-36 0 -50.5 -33t-14.5 -70h-141z" />
<glyph unicode="&#x2000;" horiz-adv-x="938" />
<glyph unicode="&#x2001;" horiz-adv-x="1876" />
<glyph unicode="&#x2002;" horiz-adv-x="938" />
<glyph unicode="&#x2003;" horiz-adv-x="1876" />
<glyph unicode="&#x2004;" horiz-adv-x="625" />
<glyph unicode="&#x2005;" horiz-adv-x="469" />
<glyph unicode="&#x2006;" horiz-adv-x="312" />
<glyph unicode="&#x2007;" horiz-adv-x="312" />
<glyph unicode="&#x2008;" horiz-adv-x="234" />
<glyph unicode="&#x2009;" horiz-adv-x="375" />
<glyph unicode="&#x200a;" horiz-adv-x="104" />
<glyph unicode="&#x2010;" horiz-adv-x="787" d="M79 455v210h630v-210h-630z" />
<glyph unicode="&#x2011;" horiz-adv-x="787" d="M79 455v210h630v-210h-630z" />
<glyph unicode="&#x2012;" horiz-adv-x="787" d="M79 455v210h630v-210h-630z" />
<glyph unicode="&#x2013;" horiz-adv-x="1185" d="M0 455v210h1185v-210h-1185z" />
<glyph unicode="&#x2014;" horiz-adv-x="2048" d="M0 455v210h2048v-210h-2048z" />
<glyph unicode="&#x2018;" horiz-adv-x="522" d="M113 888l146 477h178l-97 -477h-227z" />
<glyph unicode="&#x2019;" horiz-adv-x="563" d="M131 888l97 477h226l-145 -477h-178z" />
<glyph unicode="&#x201a;" horiz-adv-x="563" d="M131 -432l97 477h226l-145 -477h-178z" />
<glyph unicode="&#x201c;" horiz-adv-x="892" d="M97 888l146 477h178l-97 -477h-227zM476 888l145 477h178l-97 -477h-226z" />
<glyph unicode="&#x201d;" horiz-adv-x="892" d="M93 888l97 477h227l-146 -477h-178zM472 888l96 477h227l-146 -477h-177z" />
<glyph unicode="&#x201e;" horiz-adv-x="905" d="M93 -370l97 477h227l-146 -477h-178zM472 -370l96 477h227l-146 -477h-177z" />
<glyph unicode="&#x2022;" horiz-adv-x="930" d="M146 608q0 132 93.5 225.5t224.5 93.5t225 -93.5t94 -225.5q0 -131 -94 -224.5t-225 -93.5t-224.5 93.5t-93.5 224.5z" />
<glyph unicode="&#x2026;" horiz-adv-x="1481" d="M120 122q0 59 42 101.5t101 42.5t101.5 -42.5t42.5 -101.5t-42.5 -101t-101.5 -42t-101 42.5t-42 100.5zM591 122q0 59 42 101.5t101 42.5t101.5 -42.5t42.5 -101.5t-42.5 -101t-101.5 -42t-101 42t-42 101zM1061 122q0 59 42.5 101.5t101.5 42.5t101 -42.5t42 -101.5 q0 -58 -42 -100.5t-101 -42.5t-101.5 42t-42.5 101z" />
<glyph unicode="&#x202f;" horiz-adv-x="375" />
<glyph unicode="&#x2039;" horiz-adv-x="800" d="M106 557v8l344 390h219l-339 -389v-6l339 -391h-228z" />
<glyph unicode="&#x203a;" horiz-adv-x="800" d="M117 169l339 391v6l-339 389h219l344 -390v-8l-335 -388h-228z" />
<glyph unicode="&#x205f;" horiz-adv-x="469" />
<glyph unicode="&#x20ac;" horiz-adv-x="1181" d="M43 463v142h116v145h-116v142h122q20 249 141 374.5t353 125.5q122 0 214 -39t146 -108.5t80 -156t26 -189.5h-234q0 286 -231 286q-122 0 -182 -70t-69 -223h302v-142h-307v-145h307v-142h-302q8 -154 66.5 -218t184.5 -64q70 0 117 20.5t71 60t33.5 83.5t9.5 104h234 q0 -76 -15 -143.5t-49.5 -129.5t-87.5 -106.5t-133.5 -70.5t-181.5 -26q-236 0 -355 120t-138 370h-122z" />
<glyph unicode="&#x2122;" horiz-adv-x="1496" d="M57 1245v120h530v-120h-197v-451h-138v451h-195zM712 794v571h162l168 -356h7l167 356h161v-571h-131v369h-8l-147 -317h-91l-149 317h-7v-369h-132z" />
<glyph unicode="&#x25fc;" horiz-adv-x="1060" d="M0 0v1060h1060v-1060h-1060z" />
<glyph unicode="&#xfb01;" horiz-adv-x="1256" d="M66 871v187h149v106q0 156 82.5 227t261.5 71q60 0 104 -7v-174q-30 4 -61 4q-81 0 -118.5 -31.5t-37.5 -109.5v-86h205v-187h-201v-871h-235v871h-149zM853 1318q0 56 40 93t97 37q58 0 98 -37t40 -93t-40 -93t-98 -37q-57 0 -97 37t-40 93zM873 0v1058h235v-1058h-235z " />
<glyph unicode="&#xfb02;" horiz-adv-x="1250" d="M66 871v187h149v106q0 156 82.5 227t261.5 71q60 0 104 -7v-174q-30 4 -61 4q-81 0 -118.5 -31.5t-37.5 -109.5v-86h205v-187h-201v-871h-235v871h-149zM870 0v1437h236v-1437h-236z" />
</font>
</defs>
</svg>
