<?xml version="1.0" standalone="no"?>
<!DOCTYPE svg PUBLIC "-//W3C//DTD SVG 1.1//EN" "http://www.w3.org/Graphics/SVG/1.1/DTD/svg11.dtd" >
<svg xmlns="http://www.w3.org/2000/svg">
<metadata></metadata>
<defs>
<font id="sfc-display" horiz-adv-x="1185" >
<font-face units-per-em="2048" ascent="1638" descent="-410" />
<missing-glyph horiz-adv-x="402" />
<glyph horiz-adv-x="0" />
<glyph unicode="&#xd;" horiz-adv-x="0" />
<glyph unicode=" "  horiz-adv-x="402" />
<glyph unicode="&#x09;" horiz-adv-x="402" />
<glyph unicode="&#xa0;" horiz-adv-x="402" />
<glyph unicode="!" horiz-adv-x="565" d="M124 127q0 64 46 105t113 41t112.5 -41t45.5 -105q0 -65 -45.5 -106t-112.5 -41t-113 41t-46 106zM128 1365h309l-33 -948h-244z" />
<glyph unicode="&#x22;" horiz-adv-x="880" d="M113 1365h259l-33 -513h-193zM509 1365h260l-34 -513h-192z" />
<glyph unicode="#" horiz-adv-x="1237" d="M40 364l39 204h196l49 244h-188l39 204h190l69 349h214l-71 -349h219l69 349h213l-70 -349h204l-38 -204h-207l-49 -244h198l-39 -204h-200l-72 -364h-212l72 364h-218l-74 -364h-211l72 364h-194zM463 546h259l57 288h-258z" />
<glyph unicode="$" horiz-adv-x="1212" d="M87 393h237q5 -78 60 -131.5t155 -66.5v406l-84 20q-70 16 -128.5 44.5t-107.5 73t-76.5 110t-27.5 146.5q0 170 117 270.5t304 118.5v129h154v-130q183 -19 296.5 -124t116.5 -262h-232q-2 70 -51 123.5t-133 66.5v-382l83 -19q80 -18 142 -46.5t112.5 -73t77 -110 t26.5 -150.5q0 -176 -118.5 -282.5t-321.5 -125.5v-127h-154l1 125q-115 9 -203.5 46t-140 93t-77.5 121t-27 137zM358 1013q0 -115 145 -166q20 -7 36 -11v352q-81 -10 -131 -56t-50 -119zM687 194q90 8 145 58t55 131q0 67 -42 112t-135 72q-7 2 -23 6v-379z" />
<glyph unicode="%" horiz-adv-x="1550" d="M78 1020v31q0 143 81 236.5t217 93.5q135 0 215 -93t80 -239v-31q0 -140 -80 -236.5t-219 -96.5q-136 0 -215 94.5t-79 240.5zM147 -1l559 717l493 649h209l-549 -703l-503 -663h-209zM255 1030q0 -90 32 -140t87 -50q54 0 86.5 49.5t32.5 138.5v11q0 90 -31.5 139 t-86.5 49q-56 0 -88 -49t-32 -137v-11zM880 319v31q0 144 81 237.5t216 93.5q136 0 215.5 -93t79.5 -239v-31q0 -141 -80 -237.5t-219 -96.5q-135 0 -214 94.5t-79 240.5zM1057 329q0 -90 32 -140t87 -50q54 0 86 49.5t32 139.5v11q0 90 -31.5 138.5t-86.5 48.5 q-56 0 -87.5 -49t-31.5 -137v-11z" />
<glyph unicode="&#x26;" horiz-adv-x="1362" d="M66 355q0 84 33.5 153.5t86.5 117.5t131 92q40 22 62 32q-84 87 -126.5 157.5t-42.5 153.5q0 137 110.5 226.5t274.5 89.5q100 0 184.5 -34.5t139.5 -107.5t55 -170q0 -63 -22 -117t-64 -97t-86.5 -74.5t-103.5 -63.5l260 -282q48 87 48 267v70h228v-86q0 -262 -114 -418 l252 -264h-306l-105 112q-78 -68 -188 -104t-232 -36q-215 0 -345 104t-130 279zM321 377q0 -97 71 -151.5t176 -54.5q70 0 138.5 24.5t111.5 71.5l-313 340q-21 -10 -37 -19q-147 -82 -147 -211zM445 1047q0 -47 28 -92t98 -115q86 45 130.5 92.5t44.5 114.5t-42.5 107.5 t-107.5 40.5q-66 0 -108.5 -41.5t-42.5 -106.5z" />
<glyph unicode="'" horiz-adv-x="457" d="M99 1365h259l-33 -513h-193z" />
<glyph unicode="(" horiz-adv-x="686" d="M113 566q0 127 17 238t40.5 187.5t63 152.5t69 119t74.5 100h259q-35 -40 -71.5 -104t-75.5 -161.5t-64 -236.5t-25 -293q0 -104 10 -199.5t32.5 -178.5t41 -142t52.5 -128t49 -97t48 -85h-265q-46 56 -85.5 125t-80.5 170.5t-65 239.5t-24 293z" />
<glyph unicode=")" horiz-adv-x="686" d="M50 1363h257q45 -57 75 -100t70 -119t63.5 -152.5t40.5 -187.5t17 -238q0 -155 -24 -293t-65.5 -239.5t-81.5 -170.5t-86 -125h-264q38 65 58.5 103.5t58.5 126t59.5 165.5t38.5 194.5t17 240.5q0 154 -24.5 293t-63.5 236.5t-75 161.5t-71 104z" />
<glyph unicode="*" horiz-adv-x="930" d="M139 942l211 89l-211 89l86 149l186 -143l-31 233h171l-31 -233l187 143l85 -148l-212 -90l212 -89l-85 -149l-186 139l30 -228h-171l29 227l-184 -138z" />
<glyph unicode="+" d="M80 441v238h391v405h243v-405h392v-238h-392v-419h-243v419h-391z" />
<glyph unicode="," horiz-adv-x="456" d="M16 -268l92 485h269l-147 -485h-214z" />
<glyph unicode="-" horiz-adv-x="788" d="M79 435v250h630v-250h-630z" />
<glyph unicode="." horiz-adv-x="543" d="M109 141q0 67 48 115t115 48q68 0 115.5 -48t47.5 -115t-48 -115t-115 -48t-115 48t-48 115z" />
<glyph unicode="/" horiz-adv-x="685" d="M-14 -289l460 1726h252l-459 -1726h-253z" />
<glyph unicode="0" horiz-adv-x="1198" d="M75 637v92q0 302 139.5 482t387.5 180q249 0 385 -179t136 -483v-92q0 -192 -57.5 -339.5t-178 -235.5t-290.5 -88q-249 0 -385.5 180t-136.5 483zM364 638q0 -209 63 -319t172 -110t172 110t63 319v90q0 208 -63 318t-172 110t-172 -109.5t-63 -318.5v-90z" />
<glyph unicode="1" horiz-adv-x="847" d="M84 892v262q41 30 166 110.5t163 100.5h280v-1365h-286v1095h-11q-26 -14 -150 -95t-162 -108z" />
<glyph unicode="2" horiz-adv-x="1148" d="M90 952v15q0 80 29.5 154.5t86 135.5t149.5 97.5t210 36.5q212 0 343 -109t131 -275q0 -35 -7 -69.5t-13.5 -60t-26.5 -60t-29 -50.5t-39 -52.5t-38 -46t-45.5 -49.5t-42.5 -46l-297 -331v-9h562v-233h-954v179l492 528q37 39 56 61.5t45.5 60t38.5 74.5t12 76 q0 79 -55 130.5t-139 51.5q-89 0 -142.5 -56t-53.5 -136q0 -3 0.5 -9.5t0.5 -7.5h-274z" />
<glyph unicode="3" horiz-adv-x="1172" d="M69 385h266q8 -82 71.5 -134.5t167.5 -52.5q109 0 173.5 56.5t63.5 143.5t-64.5 141t-175.5 54h-148v220h141q94 0 151.5 51t57.5 132q-1 76 -57.5 125t-147.5 49q-94 0 -148 -55t-57 -127h-270q5 176 133 289.5t352 113.5q206 0 341 -100t137 -256q1 -69 -22.5 -128 t-61 -96t-79.5 -59.5t-83 -28.5v-11q50 -4 99 -25.5t92 -60t70 -102t28 -141.5q1 -121 -71.5 -215.5t-193.5 -144.5t-267 -50q-122 0 -218 33t-155.5 90.5t-91 131t-33.5 157.5z" />
<glyph unicode="4" horiz-adv-x="1213" d="M66 247v232q191 362 520 886h411v-887h164v-231h-164v-247h-271v247h-660zM324 478h402v673h-11q-234 -369 -391 -670v-3z" />
<glyph unicode="5" horiz-adv-x="1213" d="M108 372h266q12 -79 76.5 -125t162.5 -46q97 0 170 69t73 181q0 110 -69 179t-173 69q-89 0 -148 -41t-85 -96h-255l63 804h850v-231h-620l-33 -337h11q29 43 106.5 80t185.5 37q120 0 222 -53.5t165 -158t63 -239.5q0 -222 -149 -356t-384 -134q-227 0 -359.5 114 t-138.5 284z" />
<glyph unicode="6" horiz-adv-x="1177" d="M76 655q0 352 145.5 543t399.5 191q105 0 192.5 -33.5t142.5 -87.5t86 -117.5t35 -128.5h-270q-7 56 -60 99.5t-133 43.5q-128 0 -198.5 -127.5t-68.5 -336.5h1h11q33 79 113.5 137.5t205.5 58.5q114 0 210.5 -50t158.5 -153t62 -241q0 -149 -67.5 -259t-180 -165 t-252.5 -55q-250 0 -390 175q-143 179 -143 506zM381 441q0 -111 65.5 -176t162.5 -65q96 0 160.5 64t64.5 177q0 112 -65.5 177t-160.5 65q-98 0 -162.5 -66t-64.5 -176z" />
<glyph unicode="7" horiz-adv-x="1110" d="M70 1132v233h955v-238l-553 -1127h-304l572 1124v8h-670z" />
<glyph unicode="8" horiz-adv-x="1225" d="M75 376q0 77 27 140.5t71 103t92 63t99 33.5v9q-102 31 -168 107t-66 198q0 158 133 259.5t350 101.5t350.5 -101.5t133.5 -259.5q0 -123 -67 -198.5t-168 -106.5v-9q51 -10 99 -34t92 -63.5t70.5 -102t26.5 -139.5q0 -179 -147.5 -291t-391.5 -112t-390 111.5 t-146 290.5zM363 396q0 -96 71.5 -156.5t178.5 -60.5q108 0 179 60.5t71 156.5q0 97 -71 158t-179 61q-107 0 -178.5 -61.5t-71.5 -157.5zM406 997q0 -83 59 -136.5t148 -53.5q90 0 148.5 53t58.5 137q0 83 -58.5 135t-148.5 52q-89 0 -148 -52.5t-59 -134.5z" />
<glyph unicode="9" horiz-adv-x="1177" d="M76 916q0 147 69.5 256.5t180 163.5t244.5 54q255 0 396.5 -174.5t141.5 -517.5q0 -338 -143 -530.5t-402 -192.5q-110 0 -200.5 34.5t-146.5 90.5t-86.5 121t-34.5 131h269q10 -62 65.5 -107t139.5 -45q71 0 125.5 38t85.5 104t45.5 148t11.5 177h-14 q-26 -81 -109.5 -138.5t-215.5 -57.5q-84 0 -159.5 29.5t-134.5 84t-93.5 140.5t-34.5 191zM351 924q0 -113 63.5 -176.5t160.5 -63.5t163.5 67.5t66.5 169.5q0 115 -63.5 179.5t-163.5 64.5q-96 0 -161.5 -64t-65.5 -177z" />
<glyph unicode=":" horiz-adv-x="567" d="M119 141q0 67 47.5 115t115.5 48q67 0 115 -48t48 -115t-48 -115t-115 -48t-115 48t-48 115zM119 813q0 67 47.5 115t115.5 48q67 0 115 -48t48 -115t-48 -115t-115 -48t-115 48t-48 115z" />
<glyph unicode=";" horiz-adv-x="565" d="M59 -314l89 541h273l-148 -541h-214zM123 813q0 67 47.5 115t115.5 48q67 0 115 -48t48 -115t-48 -115t-115 -48t-115 48t-48 115z" />
<glyph unicode="&#x3c;" d="M124 439v180l933 512v-280l-607 -310v-12l607 -303v-276z" />
<glyph unicode="=" d="M119 224v221h948v-221h-948zM119 657v222h948v-222h-948z" />
<glyph unicode="&#x3e;" d="M124 -50v276l607 303v12l-607 310v280l933 -512v-180z" />
<glyph unicode="?" horiz-adv-x="982" d="M39 983q-4 107 34 188.5t105 128t147.5 69.5t171.5 23q123 0 222 -39t162 -124t63 -204q0 -62 -16 -112.5t-49 -90t-61 -63.5t-74 -56q-99 -69 -130.5 -108t-31.5 -116v-51h-252l-2 56q-8 108 38 186t138 140q44 30 65.5 47t45.5 42t33.5 51.5t9.5 59.5q0 80 -51 120.5 t-126 40.5q-87 0 -134.5 -52.5t-48.5 -135.5h-259zM301 127q0 64 46 105t113 41t113 -41t46 -105q0 -65 -46 -106t-113 -41t-113 41t-46 106z" />
<glyph unicode="@" horiz-adv-x="1717" d="M92 499v51q0 232 100.5 410t279 274t408.5 96h8q175 0 319.5 -56.5t237 -152.5t143 -219t50.5 -260v-49q0 -205 -97 -332.5t-261 -127.5q-93 0 -162.5 40t-87.5 106h-9q-19 -65 -82.5 -105t-147.5 -40q-130 0 -205.5 88.5t-75.5 239.5v113q0 145 76.5 233t207.5 88 q89 0 142.5 -41.5t69.5 -97.5h8v125h190v-498q0 -48 28.5 -75t73.5 -27q65 0 111 82.5t46 241.5v29q0 110 -40 207.5t-112.5 171t-181.5 116.5t-240 43h-9q-272 0 -440.5 -172t-168.5 -458v-38q0 -125 32 -227.5t87.5 -173.5t131.5 -119.5t162.5 -71t182.5 -22.5h9 q185 0 284 43v-157q-93 -42 -294 -42h-9q-163 0 -302 50t-242.5 144t-162 240.5t-58.5 329.5zM716 492q0 -192 140 -192q138 0 138 180v83q0 86 -39.5 129.5t-100.5 43.5q-64 0 -101 -47t-37 -142v-55z" />
<glyph unicode="A" horiz-adv-x="1273" d="M14 0l452 1365h344l450 -1365h-308l-101 339h-444l-102 -339h-291zM464 552h331l-158 541h-13z" />
<glyph unicode="B" horiz-adv-x="1266" d="M141 0v1365h581q186 0 297.5 -90t111.5 -245q0 -121 -65.5 -197.5t-171.5 -101.5v-13q129 -12 217 -98t88 -234q0 -180 -132 -283t-343 -103h-583zM428 213h193q148 0 216 48.5t68 144.5q0 94 -61 147t-175 53h-241v-393zM428 802h172q247 0 247 178q0 80 -51 126.5 t-143 46.5h-225v-351z" />
<glyph unicode="C" horiz-adv-x="1286" d="M86 604v153q0 296 151.5 465t426.5 169q238 0 390.5 -134.5t152.5 -349.5v-29h-278q-2 120 -73 195t-190 75q-137 0 -211.5 -101.5t-74.5 -289.5v-154q0 -186 74.5 -286t211.5 -100q119 0 190 72t73 186h278v-30q0 -208 -153 -339.5t-390 -131.5q-275 0 -426.5 168 t-151.5 462z" />
<glyph unicode="D" horiz-adv-x="1336" d="M141 0v1365h511q308 0 460 -175t152 -503q0 -330 -153 -508.5t-459 -178.5h-511zM431 234h179q84 0 147 22t111.5 72.5t73.5 139t25 213.5q0 215 -83.5 332.5t-273.5 117.5h-179v-897z" />
<glyph unicode="E" horiz-adv-x="1133" d="M141 0v1365h891v-234h-604v-332h568v-218h-568v-347h604v-234h-891z" />
<glyph unicode="F" horiz-adv-x="1077" d="M141 0v1365h883v-236h-593v-364h541v-231h-541v-534h-290z" />
<glyph unicode="G" horiz-adv-x="1311" d="M86 602v178q0 279 155 445t433 166q126 0 229.5 -37.5t171.5 -102t106 -148.5t42 -179h-282q-12 102 -82.5 164t-185.5 62q-141 0 -218 -97.5t-77 -275.5v-174q0 -119 30 -203.5t99 -134.5t174 -50q123 0 196 67.5t73 168.5v78h-267v211h542v-270q0 -100 -36 -189 t-103 -158t-173.5 -109t-237.5 -40q-149 0 -262.5 46t-184.5 130.5t-106.5 198t-35.5 253.5z" />
<glyph unicode="H" horiz-adv-x="1412" d="M141 0v1365h290v-550h550v550h290v-1365h-290v577h-550v-577h-290z" />
<glyph unicode="I" horiz-adv-x="572" d="M141 0v1365h290v-1365h-290z" />
<glyph unicode="J" horiz-adv-x="1083" d="M26 405h278q2 -81 48 -128t130 -47q93 0 136.5 55.5t43.5 166.5v913h290v-917q0 -231 -123 -352.5t-345 -121.5q-112 0 -200.5 35t-144 95t-84.5 137t-29 164z" />
<glyph unicode="K" horiz-adv-x="1273" d="M141 0v1365h290v-601h13l501 601h315l-483 -589l503 -776h-346l-369 584l-134 -154v-430h-290z" />
<glyph unicode="L" horiz-adv-x="1025" d="M141 0v1365h290v-1120h569v-245h-859z" />
<glyph unicode="M" horiz-adv-x="1640" d="M144 0v1365h296l377 -846h9l377 846h294v-1365h-261v884h-12l-314 -702h-181l-315 702h-12v-884h-258z" />
<glyph unicode="N" horiz-adv-x="1385" d="M141 0v1365h237l587 -876h10v876h269v-1365h-236l-588 882h-10v-882h-269z" />
<glyph unicode="O" horiz-adv-x="1358" d="M86 593v170q0 292 158 460t436 168t435 -168.5t157 -459.5v-170q0 -289 -157.5 -454t-436.5 -165q-278 0 -435 165t-157 454zM381 592q0 -185 81.5 -282t216.5 -97q136 0 217 96.5t81 282.5v174q0 186 -81.5 286t-216.5 100t-216.5 -100.5t-81.5 -285.5v-174z" />
<glyph unicode="P" horiz-adv-x="1207" d="M141 0v1365h556q218 0 342.5 -130.5t124.5 -330.5q0 -201 -125 -329t-345 -128h-264v-447h-289zM429 671h153q142 0 215 53t73 180q0 112 -61.5 173t-171.5 61h-208v-467z" />
<glyph unicode="Q" horiz-adv-x="1361" d="M89 599v165q0 289 160 458t432 169t432.5 -169.5t160.5 -457.5v-165q0 -311 -186 -480l170 -251h-283l-95 139q-93 -33 -199 -33q-272 0 -432 168.5t-160 456.5zM373 594q0 -192 82.5 -294t217.5 -105q40 0 76 14l-148 215h261l63 -85q65 99 65 255v172q0 187 -85 287 t-224 100q-138 0 -223 -100t-85 -287v-172z" />
<glyph unicode="R" horiz-adv-x="1270" d="M141 0v1365h556q120 0 214 -33.5t152.5 -92.5t89 -137.5t30.5 -172.5q0 -65 -16.5 -122.5t-41.5 -98.5t-59 -75t-66 -54.5t-64 -33.5l274 -545h-322l-237 502h-225v-502h-285zM426 715h225q110 0 172 54t62 155q0 105 -63.5 161.5t-166.5 56.5h-229v-427z" />
<glyph unicode="S" horiz-adv-x="1217" d="M59 392h278q6 -81 77.5 -136t194.5 -55q118 0 182.5 48.5t64.5 129.5q0 68 -50 106.5t-158 62.5l-205 47q-76 16 -137 44.5t-110.5 73.5t-77 112t-27.5 151q0 130 69.5 226t185.5 143.5t262 47.5q228 0 369.5 -113.5t143.5 -295.5h-270q-6 78 -69 131.5t-175 53.5 q-105 0 -166 -46t-61 -125q0 -119 186 -157l207 -46q81 -17 143 -44.5t115.5 -72t82 -113t28.5 -158.5q0 -201 -146.5 -317t-400.5 -116q-116 0 -209 25t-152.5 66t-99.5 96.5t-57 112.5t-18 118z" />
<glyph unicode="T" horiz-adv-x="1083" d="M14 1125v240h1055v-240h-383v-1125h-289v1125h-383z" />
<glyph unicode="U" horiz-adv-x="1367" d="M126 463v902h288v-862q0 -135 73.5 -209.5t196.5 -74.5q122 0 195.5 74.5t73.5 209.5v862h289v-902q0 -221 -150 -355t-408 -134t-408 134t-150 355z" />
<glyph unicode="V" horiz-adv-x="1261" d="M7 1365h335l292 -1044h12l288 1044h321l-446 -1365h-353z" />
<glyph unicode="W" horiz-adv-x="1762" d="M5 1365h306l201 -955h11l236 955h246l235 -955h12l200 955h305l-357 -1365h-267l-246 921h-10l-247 -921h-268z" />
<glyph unicode="X" horiz-adv-x="1197" d="M-12 0l418 688l-416 677h341l271 -481h13l269 481h326l-431 -684l425 -681h-330l-280 472h-13l-280 -472h-313z" />
<glyph unicode="Y" horiz-adv-x="1165" d="M-19 1365h319l281 -573h10l282 573h311l-457 -853v-512h-289v505z" />
<glyph unicode="Z" horiz-adv-x="1183" d="M84 0v188l646 931v11h-630v235h980v-187l-644 -931v-12h664v-235h-1016z" />
<glyph unicode="[" horiz-adv-x="730" d="M113 -228v1593h546v-206h-277v-1182h290v-205h-559z" />
<glyph unicode="\" horiz-adv-x="685" d="M-14 1437h253l459 -1726h-252z" />
<glyph unicode="]" horiz-adv-x="730" d="M58 -23h290v1182h-278v206h547v-1593h-559v205z" />
<glyph unicode="^" horiz-adv-x="897" d="M36 795l294 570h240l291 -570h-244l-164 348h-11l-168 -348h-238z" />
<glyph unicode="_" horiz-adv-x="856" d="M-27 -103h910v-215h-910v215z" />
<glyph unicode="`" horiz-adv-x="948" d="M239 1483h243l207 -294h-196z" />
<glyph unicode="a" horiz-adv-x="1102" d="M73 307q0 146 98.5 230t280.5 84h256v94q0 75 -43.5 115.5t-121.5 40.5q-76 0 -120 -37.5t-48 -99.5h-263q3 70 27.5 129.5t73.5 109.5t135 78.5t200 28.5q127 0 223.5 -37.5t155 -121.5t58.5 -206v-715h-265v129h-12q-33 -64 -104 -104.5t-181 -40.5q-157 0 -253.5 87 t-96.5 236zM352 327q0 -67 48 -104t116 -37q81 0 136.5 45.5t55.5 116.5v110h-189q-81 0 -124 -35.5t-43 -95.5z" />
<glyph unicode="b" horiz-adv-x="1215" d="M130 0v1437h282v-530h12q35 76 117.5 123t187.5 47q184 0 292.5 -129.5t108.5 -368.5v-92q0 -236 -108.5 -368t-293.5 -132q-111 0 -190 47t-118 131h-12v-165h-278zM411 497q0 -139 59.5 -213.5t162.5 -74.5q95 0 151.5 74.5t56.5 212.5v72q0 137 -57 211.5t-151 74.5 q-103 0 -162.5 -73.5t-59.5 -212.5v-71z" />
<glyph unicode="c" horiz-adv-x="1080" d="M83 495v85q0 226 129 364.5t351 138.5q199 0 319.5 -110t125.5 -274h-258q-10 68 -58 115t-117 47q-97 0 -153 -76t-56 -208v-80q0 -137 56.5 -215.5t153.5 -78.5q81 0 125 42.5t53 109.5h258q-15 -182 -135.5 -278t-314.5 -96q-222 0 -350.5 138.5t-128.5 375.5z" />
<glyph unicode="d" horiz-adv-x="1213" d="M85 489v88q0 231 108 365.5t295 134.5q107 0 187 -46.5t115 -124.5h11v531h282v-1437h-278v165h-11q-37 -83 -117.5 -130.5t-188.5 -47.5q-190 0 -296.5 134t-106.5 368zM374 496q0 -139 58 -212.5t154 -73.5q100 0 158.5 74t58.5 211v73q0 134 -59.5 210t-159.5 76 q-95 0 -152.5 -73.5t-57.5 -212.5v-72z" />
<glyph unicode="e" horiz-adv-x="1117" d="M83 491v93q0 234 131.5 366.5t346.5 132.5q219 0 347 -137t128 -368v-105h-677v-32q0 -113 59.5 -180.5t155.5 -67.5q77 0 128.5 35.5t65.5 98.5h259q-7 -52 -27 -101t-58 -94t-88.5 -78t-123 -53t-158.5 -20q-224 0 -356.5 133.5t-132.5 376.5zM359 645h406v2 q0 100 -56 165t-146 65q-91 0 -147.5 -65.5t-56.5 -164.5v-2z" />
<glyph unicode="f" horiz-adv-x="758" d="M58 847v217h154v105q0 161 86.5 231.5t277.5 70.5q52 0 122 -7v-198q-28 4 -66 4q-76 0 -111.5 -28t-35.5 -96v-82h204v-217h-198v-847h-279v847h-154z" />
<glyph unicode="g" horiz-adv-x="1208" d="M87 516v62q0 239 108.5 369t293.5 130q107 0 188 -47.5t114 -124.5h12v159h278v-1057q0 -85 -29.5 -154.5t-78 -114.5t-114 -75.5t-135.5 -43.5t-145 -13q-223 0 -341 91t-128 234h271q13 -55 67 -88.5t135 -33.5q103 0 160 57t57 161v156h-12q-30 -73 -110.5 -120.5 t-188.5 -47.5q-184 0 -293 130t-109 371zM376 509q0 -137 57 -211.5t157 -74.5q98 0 154 74.5t56 211.5v61q0 134 -57 209.5t-153 75.5q-100 0 -157 -74t-57 -211v-61z" />
<glyph unicode="h" horiz-adv-x="1204" d="M130 0v1437h281v-532h12q31 68 107.5 121.5t196.5 53.5q165 0 264.5 -102.5t99.5 -292.5v-685h-281v622q0 113 -55 166.5t-143 53.5q-94 0 -147.5 -61.5t-53.5 -162.5v-618h-281z" />
<glyph unicode="i" horiz-adv-x="554" d="M121 1329q0 63 45 103.5t111 40.5t111.5 -40.5t45.5 -103.5q0 -64 -45.5 -104.5t-111.5 -40.5t-111 40.5t-45 104.5zM137 0v1064h281v-1064h-281z" />
<glyph unicode="j" horiz-adv-x="554" d="M-57 -156q19 -4 57 -4q70 0 103.5 35.5t33.5 115.5v1073h280v-1076q0 -178 -96.5 -265t-265.5 -87q-74 0 -112 8v200zM121 1329q0 63 45 103.5t111 40.5t111.5 -40.5t45.5 -103.5q0 -64 -45.5 -104.5t-111.5 -40.5t-111 40.5t-45 104.5z" />
<glyph unicode="k" horiz-adv-x="1100" d="M128 0v1437h281v-804h13l332 431h324l-382 -459l408 -605h-331l-293 445l-71 -84v-361h-281z" />
<glyph unicode="l" horiz-adv-x="550" d="M134 0v1437h282v-1437h-282z" />
<glyph unicode="m" horiz-adv-x="1791" d="M126 0v1064h274v-157h14q25 69 97 121t184 52q118 0 193.5 -49.5t102.5 -135.5h12q28 75 112.5 130t210.5 55q161 0 252.5 -96t91.5 -256v-728h-281v647q0 98 -47.5 149t-128.5 51q-84 0 -132 -54.5t-48 -154.5v-638h-270v638q0 107 -48.5 158t-129.5 51q-78 0 -128 -52 t-50 -155v-640h-281z" />
<glyph unicode="n" horiz-adv-x="1200" d="M126 0v1064h274v-159h12q30 68 109 121.5t200 53.5q166 0 265 -102.5t99 -292.5v-685h-281v622q0 113 -55.5 166.5t-141.5 53.5q-94 0 -147 -61.5t-53 -162.5v-618h-281z" />
<glyph unicode="o" horiz-adv-x="1151" d="M83 497v75q0 227 131 369t363 142q231 0 361 -141t130 -369v-75q0 -239 -128.5 -378t-362.5 -139q-235 0 -364.5 139t-129.5 377zM368 492q0 -83 20.5 -147t68.5 -106t119 -42q105 0 156.5 83t51.5 212v82q0 132 -52 213t-156 81t-156 -81.5t-52 -212.5v-82z" />
<glyph unicode="p" horiz-adv-x="1207" d="M128 -352v1416h278v-160h12q40 80 119.5 126.5t185.5 46.5q181 0 290 -131.5t109 -368.5v-89q0 -237 -109 -369t-293 -132q-104 0 -181.5 45.5t-116.5 123.5h-12v-508h-282zM408 499q0 -135 59 -212.5t160 -77.5q94 0 150 75t56 215v69q0 137 -55.5 212t-153.5 75 t-157 -76.5t-59 -209.5v-70z" />
<glyph unicode="q" horiz-adv-x="1212" d="M85 494v82q0 236 107.5 368.5t291.5 132.5q112 0 193 -46t118 -126h11v159h278v-1417h-282v514h-11q-31 -77 -113.5 -125.5t-195.5 -48.5q-183 0 -290 133.5t-107 373.5zM374 501q0 -138 57 -215.5t155 -77.5q100 0 159 78t59 215v65q0 135 -59 211.5t-160 76.5 q-98 0 -154.5 -75.5t-56.5 -212.5v-65z" />
<glyph unicode="r" horiz-adv-x="785" d="M126 0v1064h282v-150h12q21 63 84.5 114t161.5 51q55 0 87 -8v-242q-33 11 -108 11q-230 0 -230 -244v-596h-289z" />
<glyph unicode="s" horiz-adv-x="1041" d="M70 301h273q8 -58 56 -92.5t127 -34.5q83 0 127.5 35t44.5 87q0 16 -4 29.5t-14 24.5t-20 19.5t-28.5 16t-31.5 12.5t-38 11t-39.5 9t-44 8.5t-43.5 8.5q-78 16 -135 38t-106.5 57.5t-75.5 89.5t-26 126q0 86 35 152.5t96.5 106t137.5 59t164 19.5q190 0 301 -87.5 t111 -238.5h-248q-6 56 -46.5 95t-123.5 39q-73 0 -116.5 -32.5t-43.5 -86.5q0 -17 5 -31t16.5 -25.5t22.5 -20.5t32 -17t35 -13t41 -10.5t40.5 -8.5t43.5 -8t41 -7q79 -14 136 -34.5t103.5 -54.5t70.5 -86.5t24 -123.5q0 -165 -121.5 -258t-337.5 -93q-207 0 -324 88 t-117 232z" />
<glyph unicode="t" horiz-adv-x="775" d="M55 847v217h158v251h273v-251h205v-217h-205v-504q0 -75 35 -104.5t116 -29.5q46 0 58 2v-207q-47 -9 -126 -9q-199 0 -280.5 70.5t-81.5 236.5v545h-152z" />
<glyph unicode="u" horiz-adv-x="1196" d="M115 362v702h282v-628q0 -117 54.5 -166t138.5 -49q87 0 143 56.5t56 161.5v625h281v-1064h-274v158h-13q-28 -71 -106 -122.5t-201 -51.5q-166 0 -263.5 97t-97.5 281z" />
<glyph unicode="v" horiz-adv-x="1035" d="M0 1064h301l205 -791h10l228 791h291l-367 -1064h-321z" />
<glyph unicode="w" horiz-adv-x="1590" d="M24 1064h285l150 -774h12l193 774h265l194 -774h11l151 774h281l-272 -1064h-297l-197 745h-9l-197 -745h-299z" />
<glyph unicode="x" horiz-adv-x="1082" d="M20 1064h324l201 -354h8l201 354h309l-345 -531l340 -533h-314l-207 354h-8l-205 -354h-299l331 533z" />
<glyph unicode="y" horiz-adv-x="1058" d="M2 1064h311l214 -816h11l220 816h298q-338 -1015 -343 -1027l-27 -73q-24 -63 -49 -110.5t-63 -93t-84 -74t-112 -46t-148 -17.5q-95 0 -153 12v200q32 -7 89 -7q94 0 136 34t55 104l8 34z" />
<glyph unicode="z" horiz-adv-x="1006" d="M86 0v162l499 672v10h-488v220h828v-179l-480 -654v-11h494v-220h-853z" />
<glyph unicode="{" horiz-adv-x="804" d="M88 456v256q93 0 125.5 45t32.5 152v178q0 193 99 273.5t312 80.5h100v-203h-41q-117 0 -159.5 -42.5t-42.5 -152.5v-226q0 -106 -49 -158t-149 -61v-28q198 -17 198 -235v-249q0 -110 42.5 -152.5t159.5 -42.5h41v-204h-100q-212 0 -311.5 83.5t-99.5 279.5v209 q0 107 -32.5 152t-125.5 45z" />
<glyph unicode="|" horiz-adv-x="711" d="M229 -299v1736h253v-1736h-253z" />
<glyph unicode="}" horiz-adv-x="805" d="M48 -109h42q116 0 159 42.5t43 152.5v249q0 218 197 235v28q-99 9 -148 61t-49 158v226q0 110 -43 152.5t-159 42.5h-42v203h100q213 0 311.5 -80t98.5 -274v-178q0 -107 33 -152t127 -45v-256q-94 0 -127 -45t-33 -152v-209q0 -196 -99 -279.5t-311 -83.5h-100v204z" />
<glyph unicode="~" horiz-adv-x="1115" d="M56 512q-8 165 70 276t224 111q57 0 106.5 -19.5t84 -46.5t64.5 -54.5t63.5 -47t66.5 -19.5q102 0 108 158h212q4 -172 -73.5 -280t-218.5 -108q-56 0 -106 19.5t-85.5 47t-67 54.5t-65 46.5t-65.5 19.5q-53 0 -78.5 -45t-28.5 -112h-211z" />
<glyph unicode="&#xa1;" horiz-adv-x="565" d="M124 963q0 64 46 105t113 41t112.5 -41t45.5 -105q0 -65 -45.5 -106t-112.5 -41t-113 41t-46 106zM128 -278l32 949h244l33 -949h-309z" />
<glyph unicode="&#xa2;" horiz-adv-x="1212" d="M123 615v142q0 101 31 186t84 142t121 92t145 45v225h212v-228q154 -17 251 -122.5t100 -242.5h-253q-6 62 -60 113.5t-146 51.5q-105 0 -165.5 -72.5t-60.5 -188.5v-145q0 -122 62 -193.5t166 -71.5q92 0 145.5 44.5t62.5 108.5h253q-3 -143 -102.5 -243t-252.5 -117 v-223h-212v222q-164 18 -272.5 142t-108.5 333z" />
<glyph unicode="&#xa3;" horiz-adv-x="1212" d="M89 583v191h173v245q0 172 115 271t313 99q202 0 315.5 -98.5t116.5 -282.5h-264q-2 68 -45.5 111.5t-119.5 43.5q-82 0 -123.5 -49t-41.5 -128v-212h291v-191h-291l-1 -142q-3 -160 -85 -198v-16h687v-227h-1028v236q38 4 64.5 14.5t50 33t35 64.5t11.5 103v132h-173z " />
<glyph unicode="&#xa4;" horiz-adv-x="1211" d="M84 266l162 163q-64 100 -64 221q0 118 61 218l-159 159l142 142l158 -159q103 65 223 65t221 -63l156 157l142 -142l-157 -157q63 -101 63 -220q0 -122 -66 -224l160 -160l-141 -142l-162 162q-99 -60 -216 -60q-120 0 -219 62l-163 -164zM390 650q0 -89 63.5 -152.5 t153.5 -63.5q89 0 153 63.5t64 152.5q0 90 -64 153.5t-153 63.5q-90 0 -153.5 -63.5t-63.5 -153.5z" />
<glyph unicode="&#xa5;" horiz-adv-x="1212" d="M4 1365h319l279 -573h12l282 573h310l-379 -704h212v-175h-289v-118h289v-174h-289v-194h-289v194h-285v174h285v118h-285v175h206z" />
<glyph unicode="&#xa6;" horiz-adv-x="711" d="M229 -299v679h253v-679h-253zM229 780v657h253v-657h-253z" />
<glyph unicode="&#xa7;" horiz-adv-x="930" d="M53 75h234q9 -60 53.5 -95.5t121.5 -35.5q83 0 124 37t41 92q0 17 -4 31t-14 26t-19.5 21t-27.5 18.5t-31.5 15.5t-38 13.5t-40 12t-44.5 12.5t-45 13q-68 19 -117 41t-94.5 56.5t-69 85.5t-23.5 118q0 161 166 253v7q-158 92 -158 259q0 107 57 184.5t147.5 114.5 t203.5 37q179 0 285.5 -90.5t106.5 -236.5h-231q-3 52 -48.5 92.5t-119.5 40.5q-67 0 -108 -35.5t-41 -91.5q0 -34 16.5 -59.5t56 -44t68 -27.5t89.5 -25q20 -5 30 -8q53 -14 91.5 -27.5t82.5 -38t71 -54t45.5 -75.5t18.5 -103q0 -162 -156 -267v-7q70 -42 109 -96t39 -142 q0 -156 -114 -252t-303 -96q-180 0 -294 88t-116 238zM302 574q0 -63 44 -97t127 -55q4 -1 36.5 -8.5t35.5 -8.5q42 19 70 62t28 92q0 63 -44.5 99t-127.5 56q-37 9 -63 13q-43 -17 -74.5 -59.5t-31.5 -93.5z" />
<glyph unicode="&#xa8;" horiz-adv-x="946" d="M161 1310q0 52 33 85.5t83 33.5q51 0 84.5 -33.5t33.5 -85.5q0 -50 -33.5 -83t-84.5 -33q-50 0 -83 33t-33 83zM551 1310q0 52 32 85.5t82 33.5q52 0 86 -33.5t34 -85.5q0 -50 -34 -83t-86 -33q-49 0 -81.5 33t-32.5 83z" />
<glyph unicode="&#xa9;" horiz-adv-x="1640" d="M103 644v103q0 142 54 268t148 218t229 145.5t289 53.5q155 0 290 -54t228.5 -146.5t147.5 -218.5t54 -266v-103q0 -151 -53 -282t-146.5 -224.5t-228.5 -147.5t-292 -54q-209 0 -374 92t-255.5 253.5t-90.5 362.5zM237 642q0 -252 161.5 -413t423.5 -161t425 161 t163 413v105q0 114 -43 215.5t-119.5 176t-187 118t-238.5 43.5t-238 -43t-185.5 -117.5t-118.5 -176t-43 -216.5v-105zM480 632v99q0 155 98 243.5t251 88.5q140 0 229.5 -80t91.5 -190h-175q-4 45 -40 80t-105 35q-168 0 -168 -183v-94q0 -88 45.5 -131t122.5 -43 q68 0 105 27t43 72h174q-2 -108 -89 -183.5t-234 -75.5q-154 0 -251.5 88t-97.5 247z" />
<glyph unicode="&#xaa;" horiz-adv-x="661" d="M41 933q0 84 58 131.5t175 47.5h145v49q0 70 -89 70q-79 0 -87 -54h-175q10 186 266 186q274 0 274 -207v-394h-180v73h-9q-41 -82 -163 -82q-100 0 -157.5 47.5t-57.5 132.5zM228 947q0 -34 26 -51t64 -17q42 0 71.5 22t29.5 58v51h-98q-93 0 -93 -63z" />
<glyph unicode="&#xab;" horiz-adv-x="1298" d="M96 557v8l344 394h250l-339 -393v-6l339 -395h-259zM602 557v8l344 394h250l-339 -393v-6l339 -395h-259z" />
<glyph unicode="&#xac;" d="M81 431v224h1018v-569h-244v345h-774z" />
<glyph unicode="&#xad;" horiz-adv-x="788" d="M79 435v250h630v-250h-630z" />
<glyph unicode="&#xae;" horiz-adv-x="964" d="M72 999v57q0 161 117.5 271t292.5 110q174 0 292 -111t118 -270v-57q0 -170 -115.5 -282t-294.5 -112q-177 0 -293.5 112t-116.5 282zM172 1000q0 -128 88 -213.5t222 -85.5q135 0 223 85.5t88 213.5v54q0 120 -89 204t-222 84t-221.5 -84t-88.5 -204v-54zM322 834v395 h200q62 0 99.5 -35t37.5 -89q0 -43 -22 -75t-55 -44l93 -152h-117l-79 138h-57v-138h-100zM423 1044h61q71 0 71 55q0 53 -64 53h-68v-108z" />
<glyph unicode="&#xaf;" horiz-adv-x="943" d="M176 1225v157h590v-157h-590z" />
<glyph unicode="&#xb0;" horiz-adv-x="563" d="M32 1136q0 105 72 177t178 72t178 -72t72 -177q0 -106 -72.5 -178.5t-177.5 -72.5q-106 0 -178 72.5t-72 178.5zM176 1136q0 -44 31.5 -76t75.5 -32q45 0 75 31.5t30 76.5t-30.5 76t-74.5 31t-75.5 -31t-31.5 -76z" />
<glyph unicode="&#xb1;" d="M107 642v212h361v230h243v-230h365v-212h-365v-246h-243v246h-361zM109 64v219h969v-219h-969z" />
<glyph unicode="&#xb2;" horiz-adv-x="647" d="M56 1148v13q0 89 67 155t196 66q117 0 187.5 -56t70.5 -144q0 -15 -2.5 -30.5t-6.5 -28.5t-11 -27.5t-12.5 -24t-15.5 -22.5t-15.5 -20t-17 -19t-15.5 -16t-15.5 -14.5t-12.5 -11.5l-132 -117v-5h266v-148h-514v115l243 232q75 73 75 119q0 31 -22 51.5t-55 20.5 q-35 0 -56 -21.5t-21 -52.5v-14h-181z" />
<glyph unicode="&#xb3;" horiz-adv-x="660" d="M52 898h175q1 -32 24.5 -52.5t65.5 -20.5q43 0 69.5 21t26.5 53q0 31 -24.5 51.5t-67.5 20.5h-77v136h75q39 0 61 20t22 50t-23 48.5t-60 18.5q-40 0 -61.5 -21t-23.5 -53h-175q4 97 73 154.5t192 57.5q117 0 186.5 -49.5t69.5 -130.5q0 -59 -38 -100t-90 -52v-6 q65 -8 106.5 -47t41.5 -108q0 -97 -80.5 -150.5t-195.5 -53.5q-132 0 -201.5 62t-70.5 151z" />
<glyph unicode="&#xb4;" horiz-adv-x="948" d="M271 1189l207 294h243l-255 -294h-195z" />
<glyph unicode="&#xb5;" horiz-adv-x="1301" d="M128 -352v1416h281v-628q0 -101 47.5 -158t135.5 -57q92 0 148 61.5t56 153.5v628h282v-739q0 -68 18.5 -93.5t66.5 -25.5q20 0 46 6v-206q-52 -14 -129 -14q-206 0 -237 166l-3 18h-12q-57 -192 -243 -192q-53 0 -97 22t-65 60h-13v-418h-282z" />
<glyph unicode="&#xb6;" horiz-adv-x="1422" d="M91 904q0 99 29 179.5t76 132t109.5 86t126.5 49t130 14.5h285v-1575h-266v650h-20q-65 0 -130 17.5t-126.5 55t-108.5 91t-76 131.5t-29 169zM1010 -210v1575h266v-1575h-266z" />
<glyph unicode="&#xb7;" horiz-adv-x="610" d="M142 528q0 67 48 115t115 48t115 -47.5t48 -115.5q0 -67 -48 -115t-115 -48t-115 48t-48 115z" />
<glyph unicode="&#xb8;" horiz-adv-x="948" d="M319 -341q47 -14 111 -14q109 0 109 60q0 35 -30 47t-99 12h-55v105l52 136h161l-47 -122q88 0 140 -45t52 -124q0 -97 -66.5 -145.5t-181.5 -50.5q-86 -3 -146 15v126z" />
<glyph unicode="&#xb9;" horiz-adv-x="562" d="M78 1089v163l164 113h192v-667h-192v498h-9z" />
<glyph unicode="&#xba;" horiz-adv-x="673" d="M39 1029v54q0 126 81 203t217 77t216.5 -76t80.5 -204v-53q0 -135 -79.5 -209.5t-217.5 -74.5q-139 0 -218.5 74t-79.5 209zM225 1027q0 -63 27 -103.5t85 -40.5q57 0 83.5 40.5t26.5 103.5v56q0 64 -27 103.5t-83 39.5t-84 -40t-28 -103v-56z" />
<glyph unicode="&#xbb;" horiz-adv-x="1298" d="M101 165l339 395v6l-339 393h250l344 -394v-8l-335 -392h-259zM607 165l339 395v6l-339 393h250l344 -394v-8l-335 -392h-259z" />
<glyph unicode="&#xbc;" horiz-adv-x="1600" d="M100 1089v163l164 113h192v-667h-192v498h-9zM143 -1l559 717l493 649h209l-549 -703l-503 -663h-209zM886 105v136q86 160 245 425h257v-424h81v-137h-81v-105h-170v105h-332zM1050 242h168v290h-8q-80 -130 -160 -288v-2z" />
<glyph unicode="&#xbd;" horiz-adv-x="1600" d="M85 1089v163l164 113h192v-667h-192v498h-9zM123 -1l559 717l493 649h209l-549 -703l-503 -663h-209zM951 455v13q0 41 15.5 79.5t46 71.5t83.5 52.5t120 19.5q118 0 189.5 -56.5t71.5 -145.5q0 -15 -3 -31t-6.5 -29t-11 -27t-12.5 -24t-15.5 -23.5t-16 -20.5t-17 -18.5 l-16 -16t-15.5 -15t-12 -11.5l-134 -118v-5h269v-149h-519v116l245 234q22 21 35 35.5t27 39t14 45.5q0 32 -22.5 52.5t-55.5 20.5q-35 0 -56.5 -22t-21.5 -53v-14h-182z" />
<glyph unicode="&#xbe;" horiz-adv-x="1600" d="M86 886h177q0 -33 24 -53.5t66 -20.5q44 0 70.5 21t26.5 54q0 31 -24.5 51.5t-68.5 20.5h-77v137h75q39 0 61.5 20t22.5 51q0 30 -23 48.5t-61 18.5q-40 0 -62 -21.5t-23 -53.5h-177q4 99 73.5 156.5t193.5 57.5q118 0 188 -49.5t70 -131.5q0 -60 -38 -101t-91 -52v-6 q66 -9 108 -48t42 -109q0 -66 -40.5 -113.5t-102 -69.5t-136.5 -22q-68 0 -121.5 18t-86 48.5t-49 68.5t-17.5 80zM183 -1l559 717l493 649h209l-549 -703l-503 -663h-209zM926 105v136q86 160 245 425h258v-423h80v-138h-80v-105h-171v105h-332zM1090 243h168v289h-8 q-83 -135 -160 -287v-2z" />
<glyph unicode="&#xbf;" horiz-adv-x="982" d="M39 60q0 62 16 112.5t49 90t60.5 63.5t73.5 56q99 69 130.5 108t31.5 116v51h253l1 -56q9 -108 -37 -186t-139 -140q-44 -31 -64.5 -47t-45.5 -41.5t-34.5 -52t-9.5 -59.5q0 -80 51.5 -120.5t126.5 -40.5q86 0 134 52.5t49 135.5h258q3 -86 -21.5 -156.5t-68 -116.5 t-103.5 -77.5t-126 -45.5t-138 -14q-91 0 -171 23t-142 67.5t-98 116t-36 161.5zM364 963q0 64 46 105t113 41t113 -41t46 -105q0 -65 -46 -106t-113 -41t-113 41t-46 106z" />
<glyph unicode="&#xc0;" horiz-adv-x="1272" d="M14 0l452 1365h344l450 -1365h-308l-101 339h-444l-102 -339h-291zM295 1798h243l208 -294h-196zM464 552h331l-158 541h-13z" />
<glyph unicode="&#xc1;" horiz-adv-x="1272" d="M14 0l452 1365h344l450 -1365h-308l-101 339h-444l-102 -339h-291zM464 552h331l-158 541h-13zM526 1504l208 294h243l-255 -294h-196z" />
<glyph unicode="&#xc2;" horiz-adv-x="1273" d="M14 0l452 1365h344l450 -1365h-308l-101 339h-444l-102 -339h-291zM311 1504l232 276h188l232 -276h-208l-113 147h-10l-113 -147h-208zM464 552h331l-158 541h-13z" />
<glyph unicode="&#xc3;" horiz-adv-x="1272" d="M14 0l452 1365h344l450 -1365h-308l-101 339h-444l-102 -339h-291zM324 1497q0 88 51 153.5t143 65.5q44 0 82 -17.5t59.5 -38t45.5 -38t44 -17.5q28 0 43.5 28.5t17.5 66.5h141q0 -93 -55.5 -159t-146.5 -66q-44 0 -80.5 17.5t-56.5 38t-43 38t-43 17.5q-29 0 -44 -26.5 t-17 -62.5h-141zM464 552h331l-158 541h-13z" />
<glyph unicode="&#xc4;" horiz-adv-x="1273" d="M14 0l452 1365h344l450 -1365h-308l-101 339h-444l-102 -339h-291zM353 1583q0 47 30.5 79.5t75.5 32.5q47 0 79.5 -32.5t32.5 -79.5q0 -46 -32.5 -78t-79.5 -32q-45 0 -75.5 31.5t-30.5 78.5zM464 552h331l-158 541h-13zM705 1583q0 47 31 79.5t77 32.5t78 -32.5 t32 -79.5t-31.5 -78.5t-78.5 -31.5q-46 0 -77 31.5t-31 78.5z" />
<glyph unicode="&#xc5;" horiz-adv-x="1273" d="M14 0l452 1365h344l450 -1365h-308l-101 339h-444l-102 -339h-291zM418 1674q0 92 62.5 151t156.5 59t156 -59t62 -151t-62.5 -152t-155.5 -60q-94 0 -156.5 60t-62.5 152zM464 552h331l-158 541h-13zM544 1673q0 -40 26 -66.5t66 -26.5t66.5 26.5t26.5 66.5t-26.5 66.5 t-66.5 26.5t-66 -26.5t-26 -66.5z" />
<glyph unicode="&#xc6;" horiz-adv-x="1900" d="M7 0l657 1365h1135v-233h-601v-333h565v-218h-565v-347h601v-234h-887v338h-423l-164 -338h-318zM584 560l328 1v571h-67z" />
<glyph unicode="&#xc7;" horiz-adv-x="1286" d="M86 604v153q0 296 151.5 465t426.5 169q238 0 390.5 -134.5t152.5 -349.5v-29h-278q-2 120 -73 195t-190 75q-137 0 -211.5 -101.5t-74.5 -289.5v-154q0 -186 74.5 -286t211.5 -100q119 0 190 72t73 186h278v-30q0 -189 -129 -317t-335 -149l-38 -96q91 0 141.5 -45.5 t50.5 -123.5q0 -97 -67.5 -146.5t-190.5 -49.5q-87 0 -136 15v126q49 -14 111 -14q109 0 109 59q0 32 -26.5 46t-101.5 14h-55v105l41 109q-237 26 -366 191t-129 435z" />
<glyph unicode="&#xc8;" horiz-adv-x="1133" d="M141 0v1365h891v-234h-604v-332h568v-218h-568v-347h604v-234h-891zM236 1798h243l208 -294h-196z" />
<glyph unicode="&#xc9;" horiz-adv-x="1133" d="M141 0v1365h891v-234h-604v-332h568v-218h-568v-347h604v-234h-891zM467 1504l208 294h243l-255 -294h-196z" />
<glyph unicode="&#xca;" horiz-adv-x="1133" d="M141 0v1365h891v-234h-604v-332h568v-218h-568v-347h604v-234h-891zM251 1504l232 276h188l232 -276h-208l-113 147h-10l-113 -147h-208z" />
<glyph unicode="&#xcb;" horiz-adv-x="1133" d="M141 0v1365h891v-234h-604v-332h568v-218h-568v-347h604v-234h-891zM292 1583q0 47 30.5 79.5t75.5 32.5q47 0 79.5 -32.5t32.5 -79.5q0 -46 -32.5 -78t-79.5 -32q-45 0 -75.5 31.5t-30.5 78.5zM644 1583q0 47 31 79.5t77 32.5t78 -32.5t32 -79.5t-32 -78.5t-78 -31.5 t-77 31.5t-31 78.5z" />
<glyph unicode="&#xcc;" horiz-adv-x="572" d="M-55 1798h243l208 -294h-196zM141 0v1365h290v-1365h-290z" />
<glyph unicode="&#xcd;" horiz-adv-x="572" d="M141 0v1365h290v-1365h-290zM176 1504l208 294h243l-255 -294h-196z" />
<glyph unicode="&#xce;" horiz-adv-x="572" d="M-40 1504l232 276h188l232 -276h-208l-113 147h-10l-113 -147h-208zM141 0v1365h290v-1365h-290z" />
<glyph unicode="&#xcf;" horiz-adv-x="572" d="M1 1583q0 47 30.5 79.5t75.5 32.5q47 0 79.5 -32.5t32.5 -79.5q0 -46 -32.5 -78t-79.5 -32q-45 0 -75.5 31.5t-30.5 78.5zM141 0v1365h290v-1365h-290zM353 1583q0 47 31 79.5t77 32.5t78 -32.5t32 -79.5t-31.5 -78.5t-78.5 -31.5q-46 0 -77 31.5t-31 78.5z" />
<glyph unicode="&#xd0;" horiz-adv-x="1426" d="M66 567v250h127v548h511q308 0 460 -175t152 -503q0 -330 -153 -508.5t-459 -178.5h-511v567h-127zM482 240h179q85 0 147.5 22t111 72.5t73 138.5t24.5 214q0 214 -83.5 332t-272.5 118h-179v-320h273v-250h-273v-327z" />
<glyph unicode="&#xd1;" horiz-adv-x="1385" d="M141 0v1365h237l587 -876h10v876h269v-1365h-236l-588 882h-10v-882h-269zM380 1497q0 88 51 153.5t143 65.5q44 0 82 -17.5t59.5 -38t45.5 -38t44 -17.5q28 0 43.5 28.5t17.5 66.5h141q0 -93 -55.5 -159t-146.5 -66q-44 0 -80.5 17.5t-56.5 38t-43 38t-43 17.5 q-29 0 -44 -26.5t-17 -62.5h-141z" />
<glyph unicode="&#xd2;" horiz-adv-x="1358" d="M86 593v170q0 292 158 460t436 168t435 -168.5t157 -459.5v-170q0 -289 -157.5 -454t-436.5 -165q-278 0 -435 165t-157 454zM337 1798h243l208 -294h-196zM381 592q0 -185 81.5 -282t216.5 -97q136 0 217 96.5t81 282.5v174q0 186 -81.5 286t-216.5 100t-216.5 -100.5 t-81.5 -285.5v-174z" />
<glyph unicode="&#xd3;" horiz-adv-x="1358" d="M86 593v170q0 292 158 460t436 168t435 -168.5t157 -459.5v-170q0 -289 -157.5 -454t-436.5 -165q-278 0 -435 165t-157 454zM381 592q0 -185 81.5 -282t216.5 -97q136 0 217 96.5t81 282.5v174q0 186 -81.5 286t-216.5 100t-216.5 -100.5t-81.5 -285.5v-174zM568 1504 l208 294h243l-255 -294h-196z" />
<glyph unicode="&#xd4;" horiz-adv-x="1358" d="M86 593v170q0 292 158 460t436 168t435 -168.5t157 -459.5v-170q0 -289 -157.5 -454t-436.5 -165q-278 0 -435 165t-157 454zM352 1504l232 276h188l232 -276h-208l-113 147h-10l-113 -147h-208zM381 592q0 -185 81.5 -282t216.5 -97q136 0 217 96.5t81 282.5v174 q0 186 -81.5 286t-216.5 100t-216.5 -100.5t-81.5 -285.5v-174z" />
<glyph unicode="&#xd5;" horiz-adv-x="1358" d="M86 593v170q0 292 158 460t436 168t435 -168.5t157 -459.5v-170q0 -289 -157.5 -454t-436.5 -165q-278 0 -435 165t-157 454zM366 1497q0 88 51 153.5t143 65.5q44 0 82 -17.5t59.5 -38t45.5 -38t44 -17.5q28 0 43.5 28.5t17.5 66.5h141q0 -93 -55.5 -159t-146.5 -66 q-44 0 -80.5 17.5t-56.5 38t-43 38t-43 17.5q-29 0 -44 -26.5t-17 -62.5h-141zM381 592q0 -185 81.5 -282t216.5 -97q136 0 217 96.5t81 282.5v174q0 186 -81.5 286t-216.5 100t-216.5 -100.5t-81.5 -285.5v-174z" />
<glyph unicode="&#xd6;" horiz-adv-x="1358" d="M86 593v170q0 292 158 460t436 168t435 -168.5t157 -459.5v-170q0 -289 -157.5 -454t-436.5 -165q-278 0 -435 165t-157 454zM381 592q0 -185 81.5 -282t216.5 -97q136 0 217 96.5t81 282.5v174q0 186 -81.5 286t-216.5 100t-216.5 -100.5t-81.5 -285.5v-174zM394 1583 q0 47 30.5 79.5t75.5 32.5q47 0 79.5 -32.5t32.5 -79.5q0 -46 -32.5 -78t-79.5 -32q-45 0 -75.5 31.5t-30.5 78.5zM746 1583q0 47 31 79.5t77 32.5t78 -32.5t32 -79.5t-32 -78.5t-78 -31.5t-77 31.5t-31 78.5z" />
<glyph unicode="&#xd7;" d="M118 233l302 303l-302 302l172 173l303 -303l302 303l172 -173l-302 -302l302 -303l-172 -173l-302 303l-303 -303z" />
<glyph unicode="&#xd8;" horiz-adv-x="1357" d="M76 74l111 137q-101 153 -101 382v170q0 292 158 460t435 168q226 0 372 -117l88 109l130 -96l-105 -129q107 -157 107 -395v-170q0 -289 -157.5 -454t-436.5 -165q-230 0 -376 119l-99 -122zM373 589q0 -77 18 -129l494 611q-80 86 -208 86q-138 0 -221 -101.5 t-83 -289.5v-177zM464 294q79 -89 213 -89q139 0 222 98t83 286v177q0 85 -21 142z" />
<glyph unicode="&#xd9;" horiz-adv-x="1367" d="M126 463v902h288v-862q0 -135 73.5 -209.5t196.5 -74.5q122 0 195.5 74.5t73.5 209.5v862h289v-902q0 -221 -150 -355t-408 -134t-408 134t-150 355zM342 1798h243l208 -294h-196z" />
<glyph unicode="&#xda;" horiz-adv-x="1367" d="M126 463v902h288v-862q0 -135 73.5 -209.5t196.5 -74.5q122 0 195.5 74.5t73.5 209.5v862h289v-902q0 -221 -150 -355t-408 -134t-408 134t-150 355zM573 1504l208 294h243l-255 -294h-196z" />
<glyph unicode="&#xdb;" horiz-adv-x="1367" d="M126 463v902h288v-862q0 -135 73.5 -209.5t196.5 -74.5q122 0 195.5 74.5t73.5 209.5v862h289v-902q0 -221 -150 -355t-408 -134t-408 134t-150 355zM357 1504l232 276h188l232 -276h-208l-113 147h-10l-113 -147h-208z" />
<glyph unicode="&#xdc;" horiz-adv-x="1367" d="M126 463v902h288v-862q0 -135 73.5 -209.5t196.5 -74.5q122 0 195.5 74.5t73.5 209.5v862h289v-902q0 -221 -150 -355t-408 -134t-408 134t-150 355zM398 1583q0 47 30.5 79.5t75.5 32.5q47 0 79.5 -32.5t32.5 -79.5q0 -46 -32.5 -78t-79.5 -32q-45 0 -75.5 31.5 t-30.5 78.5zM750 1583q0 47 31 79.5t77 32.5t78 -32.5t32 -79.5t-32 -78.5t-78 -31.5t-77 31.5t-31 78.5z" />
<glyph unicode="&#xdd;" horiz-adv-x="1164" d="M-19 1365h319l281 -573h10l282 573h311l-457 -853v-512h-289v505zM472 1504l208 294h243l-255 -294h-196z" />
<glyph unicode="&#xde;" horiz-adv-x="1205" d="M141 0v1365h288v-224h258q220 0 343.5 -121.5t123.5 -319.5q0 -199 -124 -318t-346 -119h-254v-263h-289zM429 486h176q121 0 188 47.5t67 166.5q0 107 -61 160.5t-172 53.5h-198v-428z" />
<glyph unicode="&#xdf;" horiz-adv-x="1323" d="M136 0v1048q0 98 38.5 175.5t106.5 125.5t156.5 73t192.5 25q222 0 356 -101.5t134 -261.5q0 -133 -73 -217.5t-162 -100.5v-16q68 -1 131.5 -24.5t115.5 -67t83.5 -113.5t31.5 -156q0 -100 -39.5 -178.5t-108 -127.5t-156.5 -74.5t-188 -25.5q-115 0 -180 19v221 q50 -19 134 -19q110 0 180 49.5t70 149.5q0 98 -78.5 151.5t-202.5 53.5h-79v233h47q79 0 139 55t60 140q0 82 -54.5 133.5t-154.5 51.5q-218 0 -218 -230v-991h-282z" />
<glyph unicode="&#xe0;" horiz-adv-x="1102" d="M73 307q0 146 98.5 230t280.5 84h256v94q0 75 -43.5 115.5t-121.5 40.5q-76 0 -120 -37.5t-48 -99.5h-263q3 70 27.5 129.5t73.5 109.5t135 78.5t200 28.5q127 0 223.5 -37.5t155 -121.5t58.5 -206v-715h-265v129h-12q-33 -64 -104 -104.5t-181 -40.5q-157 0 -253.5 87 t-96.5 236zM213 1483h243l207 -294h-196zM352 327q0 -67 48 -104t116 -37q81 0 136.5 45.5t55.5 116.5v110h-189q-81 0 -124 -35.5t-43 -95.5z" />
<glyph unicode="&#xe1;" horiz-adv-x="1102" d="M73 307q0 146 98.5 230t280.5 84h256v94q0 75 -43.5 115.5t-121.5 40.5q-76 0 -120 -37.5t-48 -99.5h-263q3 70 27.5 129.5t73.5 109.5t135 78.5t200 28.5q127 0 223.5 -37.5t155 -121.5t58.5 -206v-715h-265v129h-12q-33 -64 -104 -104.5t-181 -40.5q-157 0 -253.5 87 t-96.5 236zM352 327q0 -67 48 -104t116 -37q81 0 136.5 45.5t55.5 116.5v110h-189q-81 0 -124 -35.5t-43 -95.5zM441 1189l207 294h243l-255 -294h-195z" />
<glyph unicode="&#xe2;" horiz-adv-x="1102" d="M73 307q0 146 98.5 230t280.5 84h256v94q0 75 -43.5 115.5t-121.5 40.5q-76 0 -120 -37.5t-48 -99.5h-263q3 70 27.5 129.5t73.5 109.5t135 78.5t200 28.5q127 0 223.5 -37.5t155 -121.5t58.5 -206v-715h-265v129h-12q-33 -64 -104 -104.5t-181 -40.5q-157 0 -253.5 87 t-96.5 236zM224 1189l232 311h191l233 -311h-212l-113 172h-6l-114 -172h-211zM352 327q0 -67 48 -104t116 -37q81 0 136.5 45.5t55.5 116.5v110h-189q-81 0 -124 -35.5t-43 -95.5z" />
<glyph unicode="&#xe3;" horiz-adv-x="1102" d="M73 307q0 146 98.5 230t280.5 84h256v94q0 75 -43.5 115.5t-121.5 40.5q-76 0 -120 -37.5t-48 -99.5h-263q3 70 27.5 129.5t73.5 109.5t135 78.5t200 28.5q127 0 223.5 -37.5t155 -121.5t58.5 -206v-715h-265v129h-12q-33 -64 -104 -104.5t-181 -40.5q-157 0 -253.5 87 t-96.5 236zM203 1199q0 101 56 172.5t152 71.5q46 0 86.5 -19t64 -41.5t51.5 -41.5t52 -19q33 0 51 29.5t20 74.5h157q0 -102 -61 -176t-160 -74q-46 0 -86 19t-62.5 41.5t-49 41.5t-49.5 19q-19 0 -32.5 -10.5t-20 -27t-9.5 -31t-3 -29.5h-157zM352 327q0 -67 48 -104 t116 -37q81 0 136.5 45.5t55.5 116.5v110h-189q-81 0 -124 -35.5t-43 -95.5z" />
<glyph unicode="&#xe4;" horiz-adv-x="1102" d="M73 307q0 146 98.5 230t280.5 84h256v94q0 75 -43.5 115.5t-121.5 40.5q-76 0 -120 -37.5t-48 -99.5h-263q3 70 27.5 129.5t73.5 109.5t135 78.5t200 28.5q127 0 223.5 -37.5t155 -121.5t58.5 -206v-715h-265v129h-12q-33 -64 -104 -104.5t-181 -40.5q-157 0 -253.5 87 t-96.5 236zM246 1310q0 52 33 85.5t83 33.5q51 0 84.5 -33.5t33.5 -85.5q0 -50 -33.5 -83t-84.5 -33q-50 0 -83 33t-33 83zM352 327q0 -67 48 -104t116 -37q81 0 136.5 45.5t55.5 116.5v110h-189q-81 0 -124 -35.5t-43 -95.5zM636 1310q0 52 32 85.5t82 33.5q52 0 86 -33.5 t34 -85.5q0 -50 -34 -83t-86 -33q-49 0 -81.5 33t-32.5 83z" />
<glyph unicode="&#xe5;" horiz-adv-x="1102" d="M73 307q0 146 98.5 230t280.5 84h256v94q0 75 -43.5 115.5t-121.5 40.5q-76 0 -120 -37.5t-48 -99.5h-263q3 70 27.5 129.5t73.5 109.5t135 78.5t200 28.5q127 0 223.5 -37.5t155 -121.5t58.5 -206v-715h-265v129h-12q-33 -64 -104 -104.5t-181 -40.5q-157 0 -253.5 87 t-96.5 236zM333 1395q0 92 62.5 151t156.5 59t156 -59t62 -151t-62.5 -152t-155.5 -60q-94 0 -156.5 60t-62.5 152zM352 327q0 -67 48 -104t116 -37q81 0 136.5 45.5t55.5 116.5v110h-189q-81 0 -124 -35.5t-43 -95.5zM459 1394q0 -40 26 -66.5t66 -26.5t66.5 26.5 t26.5 66.5t-26.5 66.5t-66.5 26.5t-66 -26.5t-26 -66.5z" />
<glyph unicode="&#xe6;" horiz-adv-x="1759" d="M73 307q0 149 99 236t280 87h256v85q0 75 -43.5 115.5t-121.5 40.5q-76 0 -120 -37.5t-48 -99.5h-263q3 70 27.5 129.5t73.5 110t135 79.5t200 29q105 0 193 -35.5t138 -94.5h10q49 60 131 95t184 35q223 0 349 -137.5t126 -371.5v-100h-678v-36q0 -105 57.5 -173.5 t157.5 -68.5q84 0 133 37.5t58 94.5h263q-4 -47 -21 -93t-53 -92.5t-86 -81.5t-125.5 -57t-166.5 -22q-274 0 -388 192h-9q-125 -192 -374 -192q-173 0 -273.5 87.5t-100.5 238.5zM352 327q0 -67 48 -104t116 -37q81 0 136.5 45.5t55.5 116.5v116h-185q-84 0 -127.5 -36.5 t-43.5 -100.5zM1001 645h406v2q0 101 -54.5 164.5t-146.5 63.5q-93 0 -149 -64t-56 -164v-2z" />
<glyph unicode="&#xe7;" horiz-adv-x="1080" d="M83 495v85q0 226 129 364.5t351 138.5q199 0 319.5 -110t125.5 -274h-258q-10 68 -58 115t-117 47q-97 0 -153 -76t-56 -208v-80q0 -137 56.5 -215.5t153.5 -78.5q81 0 125 42.5t53 109.5h258q-13 -161 -109.5 -255t-256.5 -114l-41 -93q88 0 137.5 -44.5t49.5 -123.5 q0 -98 -66.5 -146.5t-181.5 -50.5q-92 -1 -146 16v125q44 -13 111 -13q109 0 109 60q0 35 -28 47t-95 12h-55v104l44 107q-187 23 -294 158.5t-107 350.5z" />
<glyph unicode="&#xe8;" horiz-adv-x="1117" d="M83 491v93q0 234 131.5 366.5t346.5 132.5q219 0 347 -137t128 -368v-105h-677v-32q0 -113 59.5 -180.5t155.5 -67.5q77 0 128.5 35.5t65.5 98.5h259q-7 -52 -27 -101t-58 -94t-88.5 -78t-123 -53t-158.5 -20q-224 0 -356.5 133.5t-132.5 376.5zM221 1483h243l207 -294 h-196zM359 645h406v2q0 100 -56 165t-146 65q-91 0 -147.5 -65.5t-56.5 -164.5v-2z" />
<glyph unicode="&#xe9;" horiz-adv-x="1117" d="M83 491v93q0 234 131.5 366.5t346.5 132.5q219 0 347 -137t128 -368v-105h-677v-32q0 -113 59.5 -180.5t155.5 -67.5q77 0 128.5 35.5t65.5 98.5h259q-7 -52 -27 -101t-58 -94t-88.5 -78t-123 -53t-158.5 -20q-224 0 -356.5 133.5t-132.5 376.5zM359 645h406v2 q0 100 -56 165t-146 65q-91 0 -147.5 -65.5t-56.5 -164.5v-2zM449 1189l207 294h243l-255 -294h-195z" />
<glyph unicode="&#xea;" horiz-adv-x="1117" d="M83 491v93q0 234 131.5 366.5t346.5 132.5q219 0 347 -137t128 -368v-105h-677v-32q0 -113 59.5 -180.5t155.5 -67.5q77 0 128.5 35.5t65.5 98.5h259q-7 -52 -27 -101t-58 -94t-88.5 -78t-123 -53t-158.5 -20q-224 0 -356.5 133.5t-132.5 376.5zM232 1189l232 311h191 l233 -311h-212l-113 172h-6l-114 -172h-211zM359 645h406v2q0 100 -56 165t-146 65q-91 0 -147.5 -65.5t-56.5 -164.5v-2z" />
<glyph unicode="&#xeb;" horiz-adv-x="1117" d="M83 491v93q0 234 131.5 366.5t346.5 132.5q219 0 347 -137t128 -368v-105h-677v-32q0 -113 59.5 -180.5t155.5 -67.5q77 0 128.5 35.5t65.5 98.5h259q-7 -52 -27 -101t-58 -94t-88.5 -78t-123 -53t-158.5 -20q-224 0 -356.5 133.5t-132.5 376.5zM254 1310q0 52 33 85.5 t83 33.5q51 0 84.5 -33.5t33.5 -85.5q0 -50 -33.5 -83t-84.5 -33q-50 0 -83 33t-33 83zM359 645h406v2q0 100 -56 165t-146 65q-91 0 -147.5 -65.5t-56.5 -164.5v-2zM644 1310q0 52 32 85.5t82 33.5q52 0 86 -33.5t34 -85.5q0 -50 -34 -83t-86 -33q-49 0 -81.5 33t-32.5 83z " />
<glyph unicode="&#xec;" horiz-adv-x="554" d="M-68 1483h243l207 -294h-196zM137 0v1064h281v-1064h-281z" />
<glyph unicode="&#xed;" horiz-adv-x="554" d="M137 0v1064h281v-1064h-281zM160 1189l207 294h243l-255 -294h-195z" />
<glyph unicode="&#xee;" horiz-adv-x="554" d="M-57 1189l232 311h191l233 -311h-212l-113 172h-6l-114 -172h-211zM137 0v1064h281v-1064h-281z" />
<glyph unicode="&#xef;" horiz-adv-x="554" d="M-35 1310q0 52 33 85.5t83 33.5q51 0 84.5 -33.5t33.5 -85.5q0 -50 -33.5 -83t-84.5 -33q-50 0 -83 33t-33 83zM137 0v1064h281v-1064h-281zM355 1310q0 52 32 85.5t82 33.5q52 0 86 -33.5t34 -85.5q0 -50 -34 -83t-86 -33q-49 0 -81.5 33t-32.5 83z" />
<glyph unicode="&#xf0;" horiz-adv-x="1141" d="M83 497v25q0 148 48.5 263t144.5 181.5t227 66.5q159 0 232 -98h14q-7 23 -20 55q-47 121 -131 221l-259 -100l-57 131l210 80q-107 111 -232 212h329q64 -47 135 -118l255 97l55 -128l-199 -77q233 -301 233 -708v-95q0 -240 -127.5 -382t-364.5 -142q-233 0 -363 139 t-130 377zM362 491q0 -136 57.5 -212t157.5 -76t157.5 76t57.5 212v41q0 137 -57 212t-158 75t-158 -75.5t-57 -211.5v-41z" />
<glyph unicode="&#xf1;" horiz-adv-x="1200" d="M126 0v1064h274v-159h12q30 68 109 121.5t200 53.5q166 0 265 -102.5t99 -292.5v-685h-281v622q0 113 -55.5 166.5t-141.5 53.5q-94 0 -147 -61.5t-53 -162.5v-618h-281zM253 1199q0 101 56 172.5t152 71.5q46 0 86.5 -19t64 -41.5t51.5 -41.5t52 -19q33 0 51 29.5 t20 74.5h157q0 -102 -61 -176t-160 -74q-46 0 -86 19t-62.5 41.5t-49 41.5t-49.5 19q-19 0 -32.5 -10.5t-20 -27t-9.5 -31t-3 -29.5h-157z" />
<glyph unicode="&#xf2;" horiz-adv-x="1151" d="M83 497v75q0 227 131 369t363 142q231 0 361 -141t130 -369v-75q0 -239 -128.5 -378t-362.5 -139q-235 0 -364.5 139t-129.5 377zM238 1483h243l207 -294h-196zM368 492q0 -83 20.5 -147t68.5 -106t119 -42q105 0 156.5 83t51.5 212v82q0 132 -52 213t-156 81t-156 -81.5 t-52 -212.5v-82z" />
<glyph unicode="&#xf3;" horiz-adv-x="1151" d="M83 497v75q0 227 131 369t363 142q231 0 361 -141t130 -369v-75q0 -239 -128.5 -378t-362.5 -139q-235 0 -364.5 139t-129.5 377zM368 492q0 -83 20.5 -147t68.5 -106t119 -42q105 0 156.5 83t51.5 212v82q0 132 -52 213t-156 81t-156 -81.5t-52 -212.5v-82zM466 1189 l207 294h243l-255 -294h-195z" />
<glyph unicode="&#xf4;" horiz-adv-x="1151" d="M83 497v75q0 227 131 369t363 142q231 0 361 -141t130 -369v-75q0 -239 -128.5 -378t-362.5 -139q-235 0 -364.5 139t-129.5 377zM249 1189l232 311h191l233 -311h-212l-113 172h-6l-114 -172h-211zM368 492q0 -83 20.5 -147t68.5 -106t119 -42q105 0 156.5 83t51.5 212 v82q0 132 -52 213t-156 81t-156 -81.5t-52 -212.5v-82z" />
<glyph unicode="&#xf5;" horiz-adv-x="1151" d="M83 497v75q0 227 131 369t363 142q231 0 361 -141t130 -369v-75q0 -239 -128.5 -378t-362.5 -139q-235 0 -364.5 139t-129.5 377zM228 1199q0 101 56 172.5t152 71.5q46 0 86.5 -19t64 -41.5t51.5 -41.5t52 -19q33 0 51 29.5t20 74.5h157q0 -102 -61 -176t-160 -74 q-46 0 -86 19t-62.5 41.5t-49 41.5t-49.5 19q-19 0 -32.5 -10.5t-20 -27t-9.5 -31t-3 -29.5h-157zM368 492q0 -83 20.5 -147t68.5 -106t119 -42q105 0 156.5 83t51.5 212v82q0 132 -52 213t-156 81t-156 -81.5t-52 -212.5v-82z" />
<glyph unicode="&#xf6;" horiz-adv-x="1151" d="M83 497v75q0 227 131 369t363 142q231 0 361 -141t130 -369v-75q0 -239 -128.5 -378t-362.5 -139q-235 0 -364.5 139t-129.5 377zM271 1310q0 52 33 85.5t83 33.5q51 0 84.5 -33.5t33.5 -85.5q0 -50 -33.5 -83t-84.5 -33q-50 0 -83 33t-33 83zM368 492q0 -83 20.5 -147 t68.5 -106t119 -42q105 0 156.5 83t51.5 212v82q0 132 -52 213t-156 81t-156 -81.5t-52 -212.5v-82zM661 1310q0 52 32 85.5t82 33.5q52 0 86 -33.5t34 -85.5q0 -50 -34 -83t-86 -33q-49 0 -81.5 33t-32.5 83z" />
<glyph unicode="&#xf7;" d="M114 478v196h958v-196h-958zM440 182q0 63 43.5 101.5t108.5 38.5q66 0 109.5 -38.5t43.5 -101.5t-43.5 -101.5t-109.5 -38.5q-64 0 -108 39t-44 101zM440 971q0 64 43.5 102.5t108.5 38.5q66 0 109.5 -38.5t43.5 -102.5q0 -62 -43.5 -100.5t-109.5 -38.5 q-64 0 -108 38.5t-44 100.5z" />
<glyph unicode="&#xf8;" horiz-adv-x="1151" d="M64 25l113 139q-94 130 -94 333v75q0 227 131 369t363 142q170 0 289 -80l99 120l111 -91l-106 -129q98 -131 98 -330v-75q0 -239 -128.5 -378t-362.5 -139q-180 0 -301 84l-106 -129zM363 493q0 -67 18 -111l335 429q-51 64 -140 64q-107 0 -160 -83t-53 -216v-83z M430 263q53 -69 146 -69q108 0 160.5 84t52.5 215v83q0 71 -22 116z" />
<glyph unicode="&#xf9;" horiz-adv-x="1196" d="M115 362v702h282v-628q0 -117 54.5 -166t138.5 -49q87 0 143 56.5t56 161.5v625h281v-1064h-274v158h-13q-28 -71 -106 -122.5t-201 -51.5q-166 0 -263.5 97t-97.5 281zM256 1483h243l207 -294h-196z" />
<glyph unicode="&#xfa;" horiz-adv-x="1196" d="M115 362v702h282v-628q0 -117 54.5 -166t138.5 -49q87 0 143 56.5t56 161.5v625h281v-1064h-274v158h-13q-28 -71 -106 -122.5t-201 -51.5q-166 0 -263.5 97t-97.5 281zM484 1189l207 294h243l-255 -294h-195z" />
<glyph unicode="&#xfb;" horiz-adv-x="1196" d="M115 362v702h282v-628q0 -117 54.5 -166t138.5 -49q87 0 143 56.5t56 161.5v625h281v-1064h-274v158h-13q-28 -71 -106 -122.5t-201 -51.5q-166 0 -263.5 97t-97.5 281zM267 1189l232 311h191l233 -311h-212l-113 172h-6l-114 -172h-211z" />
<glyph unicode="&#xfc;" horiz-adv-x="1196" d="M115 362v702h282v-628q0 -117 54.5 -166t138.5 -49q87 0 143 56.5t56 161.5v625h281v-1064h-274v158h-13q-28 -71 -106 -122.5t-201 -51.5q-166 0 -263.5 97t-97.5 281zM289 1310q0 52 33 85.5t83 33.5q51 0 84.5 -33.5t33.5 -85.5q0 -50 -33.5 -83t-84.5 -33 q-50 0 -83 33t-33 83zM679 1310q0 52 32 85.5t82 33.5q52 0 86 -33.5t34 -85.5q0 -50 -34 -83t-86 -33q-49 0 -81.5 33t-32.5 83z" />
<glyph unicode="&#xfd;" horiz-adv-x="1058" d="M2 1064h311l214 -816h11l220 816h298q-338 -1015 -343 -1027l-27 -73q-24 -63 -49 -110.5t-63 -93t-84 -74t-112 -46t-148 -17.5q-95 0 -153 12v200q32 -7 89 -7q94 0 136 34t55 104l8 34zM421 1189l207 294h243l-255 -294h-195z" />
<glyph unicode="&#xfe;" horiz-adv-x="1207" d="M128 -352v1789h282v-530h12q37 79 115.5 124.5t185.5 45.5q181 0 290 -131.5t109 -368.5v-89q0 -237 -109 -369t-293 -132q-104 0 -181.5 45.5t-116.5 123.5h-12v-508h-282zM408 499q0 -135 59 -212.5t160 -77.5q94 0 150 75t56 215v69q0 137 -55.5 212t-153.5 75 t-157 -76.5t-59 -209.5v-70z" />
<glyph unicode="&#xff;" horiz-adv-x="1058" d="M2 1064h311l214 -816h11l220 816h298q-338 -1015 -343 -1027l-27 -73q-24 -63 -49 -110.5t-63 -93t-84 -74t-112 -46t-148 -17.5q-95 0 -153 12v200q32 -7 89 -7q94 0 136 34t55 104l8 34zM226 1310q0 52 33 85.5t83 33.5q51 0 84.5 -33.5t33.5 -85.5q0 -50 -33.5 -83 t-84.5 -33q-50 0 -83 33t-33 83zM616 1310q0 52 32 85.5t82 33.5q52 0 86 -33.5t34 -85.5q0 -50 -34 -83t-86 -33q-49 0 -81.5 33t-32.5 83z" />
<glyph unicode="&#x152;" horiz-adv-x="1966" d="M86 595v167q0 298 151 463.5t400 165.5q122 0 218 -43t147 -124h17v141h846v-234h-599v-332h563v-218h-563v-347h599v-234h-846v145h-17q-52 -80 -147.5 -125.5t-219.5 -45.5q-254 0 -401.5 167.5t-147.5 453.5zM390 591q0 -185 81.5 -282t217.5 -97q137 0 218.5 93.5 t81.5 278.5v193q0 184 -81.5 279.5t-218.5 95.5q-135 0 -217 -100.5t-82 -285.5v-175z" />
<glyph unicode="&#x153;" horiz-adv-x="1817" d="M78 479v110q0 223 135.5 358.5t360.5 135.5q106 0 199 -40t142 -112h17q46 67 135.5 109.5t201.5 42.5q215 0 343.5 -137t128.5 -368v-105h-678v-32q0 -113 60 -180.5t156 -67.5q76 0 128 35.5t65 98.5h260q-8 -65 -39 -125t-84.5 -110.5t-139 -80.5t-191.5 -30 q-113 0 -203.5 39.5t-141.5 106.5h-17q-52 -67 -145.5 -106.5t-202.5 -39.5q-225 0 -357.5 131t-132.5 367zM362 479q0 -122 52.5 -202t156.5 -80q103 0 155 80t52 202v107q0 123 -52.5 202.5t-154.5 79.5q-101 0 -155 -80t-54 -202v-107zM1063 645h406v2q0 100 -55.5 165 t-145.5 65q-91 0 -147.5 -65t-57.5 -165v-2z" />
<glyph unicode="&#x178;" horiz-adv-x="1165" d="M-19 1365h319l281 -573h10l282 573h311l-457 -853v-512h-289v505zM298 1583q0 47 30.5 79.5t75.5 32.5q47 0 79.5 -32.5t32.5 -79.5q0 -46 -32.5 -78t-79.5 -32q-45 0 -75.5 31.5t-30.5 78.5zM650 1583q0 47 31 79.5t77 32.5t78 -32.5t32 -79.5t-32 -78.5t-78 -31.5 t-77 31.5t-31 78.5z" />
<glyph unicode="&#x2c6;" horiz-adv-x="946" d="M145 1189l232 311h191l233 -311h-212l-113 172h-6l-114 -172h-211z" />
<glyph unicode="&#x2dc;" horiz-adv-x="948" d="M125 1230q0 101 56 172.5t152 71.5q46 0 86.5 -19t64 -41.5t51.5 -41.5t52 -19q33 0 51 29.5t20 74.5h157q0 -102 -61 -176t-160 -74q-46 0 -86 19t-62.5 41.5t-49 41.5t-49.5 19q-19 0 -32.5 -10.5t-20 -27t-9.5 -31t-3 -29.5h-157z" />
<glyph unicode="&#x2000;" horiz-adv-x="942" />
<glyph unicode="&#x2001;" horiz-adv-x="1884" />
<glyph unicode="&#x2002;" horiz-adv-x="942" />
<glyph unicode="&#x2003;" horiz-adv-x="1884" />
<glyph unicode="&#x2004;" horiz-adv-x="628" />
<glyph unicode="&#x2005;" horiz-adv-x="471" />
<glyph unicode="&#x2006;" horiz-adv-x="314" />
<glyph unicode="&#x2007;" horiz-adv-x="314" />
<glyph unicode="&#x2008;" horiz-adv-x="235" />
<glyph unicode="&#x2009;" horiz-adv-x="376" />
<glyph unicode="&#x200a;" horiz-adv-x="104" />
<glyph unicode="&#x2010;" horiz-adv-x="788" d="M79 435v250h630v-250h-630z" />
<glyph unicode="&#x2011;" horiz-adv-x="788" d="M79 435v250h630v-250h-630z" />
<glyph unicode="&#x2012;" horiz-adv-x="788" d="M79 435v250h630v-250h-630z" />
<glyph unicode="&#x2013;" horiz-adv-x="1204" d="M0 435v250h1204v-250h-1204z" />
<glyph unicode="&#x2014;" horiz-adv-x="2048" d="M0 435v250h2048v-250h-2048z" />
<glyph unicode="&#x2018;" horiz-adv-x="529" d="M103 850l137 515h206l-85 -515h-258z" />
<glyph unicode="&#x2019;" horiz-adv-x="559" d="M116 850l85 515h258l-137 -515h-206z" />
<glyph unicode="&#x201a;" horiz-adv-x="559" d="M116 -454l85 516h258l-137 -516h-206z" />
<glyph unicode="&#x201c;" horiz-adv-x="945" d="M102 850l137 515h206l-85 -515h-258zM507 850l137 515h206l-85 -515h-258z" />
<glyph unicode="&#x201d;" horiz-adv-x="945" d="M95 850l85 515h258l-137 -515h-206zM500 850l85 515h258l-137 -515h-206z" />
<glyph unicode="&#x201e;" horiz-adv-x="965" d="M95 -409l85 516h258l-137 -516h-206zM500 -409l85 516h258l-137 -516h-206z" />
<glyph unicode="&#x2022;" horiz-adv-x="930" d="M134 613q0 137 97 234t233 97q137 0 234.5 -97t97.5 -234q0 -136 -97.5 -233t-234.5 -97q-136 0 -233 97t-97 233z" />
<glyph unicode="&#x2026;" horiz-adv-x="1592" d="M112 141q0 67 48 115t115 48t115 -48t48 -115t-48 -115t-115 -48t-115 48t-48 115zM629 141q0 67 47.5 115t115.5 48q67 0 115 -48t48 -115t-48 -115t-115 -48t-115 48t-48 115zM1145 141q0 67 47.5 115t115.5 48q67 0 115 -48t48 -115t-48 -115t-115 -48t-115 48 t-48 115z" />
<glyph unicode="&#x202f;" horiz-adv-x="376" />
<glyph unicode="&#x2039;" horiz-adv-x="801" d="M96 557v8l344 394h250l-339 -393v-6l339 -395h-259z" />
<glyph unicode="&#x203a;" horiz-adv-x="801" d="M102 165l339 395v6l-339 393h250l344 -394v-8l-335 -392h-259z" />
<glyph unicode="&#x205f;" horiz-adv-x="471" />
<glyph unicode="&#x20ac;" horiz-adv-x="1212" d="M37 461v151h115v134h-115v151h122q50 494 515 494q124 0 218.5 -38.5t153 -108.5t87.5 -162t29 -204h-277q0 58 -9 102.5t-30.5 84.5t-64.5 62t-105 22q-107 0 -161 -61t-62 -191h261v-151h-268v-134h268v-151h-261q7 -130 60.5 -187t162.5 -57q63 0 106 19.5t64.5 57.5 t30 80.5t8.5 100.5h277q0 -85 -17.5 -159t-55 -137.5t-94 -108.5t-138.5 -70.5t-184 -25.5q-240 0 -365 121.5t-149 365.5h-122z" />
<glyph unicode="&#x2122;" horiz-adv-x="1485" d="M54 1229v136h529v-136h-188v-426h-155v426h-186zM698 803v562h190l147 -321h7l147 321h189v-562h-149v351h-8l-134 -295h-97l-135 295h-8v-351h-149z" />
<glyph unicode="&#x25fc;" horiz-adv-x="1065" d="M0 0v1065h1065v-1065h-1065z" />
<glyph unicode="&#xfb01;" horiz-adv-x="1312" d="M58 847v217h154v105q0 161 86.5 231.5t277.5 70.5q52 0 122 -7v-198q-28 4 -66 4q-76 0 -111.5 -28t-35.5 -96v-82h204v-217h-198v-847h-279v847h-154zM879 1329q0 63 45 103.5t111 40.5t111.5 -40.5t45.5 -103.5q0 -64 -45.5 -104.5t-111.5 -40.5t-111 40.5t-45 104.5z M895 0v1064h281v-1064h-281z" />
<glyph unicode="&#xfb02;" horiz-adv-x="1307" d="M58 847v217h154v105q0 161 86.5 231.5t277.5 70.5q52 0 122 -7v-198q-28 4 -66 4q-76 0 -111.5 -28t-35.5 -96v-82h204v-217h-198v-847h-279v847h-154zM892 0v1437h282v-1437h-282z" />
</font>
</defs>
</svg>
