<?xml version="1.0" standalone="no"?>
<!DOCTYPE svg PUBLIC "-//W3C//DTD SVG 1.1//EN" "http://www.w3.org/Graphics/SVG/1.1/DTD/svg11.dtd" >
<svg xmlns="http://www.w3.org/2000/svg">
<metadata></metadata>
<defs>
<font id="sfc-display" horiz-adv-x="1080" >
<font-face units-per-em="2048" ascent="1638" descent="-410" />
<missing-glyph horiz-adv-x="425" />
<glyph horiz-adv-x="0" />
<glyph unicode="&#xd;" horiz-adv-x="0" />
<glyph unicode=" "  horiz-adv-x="425" />
<glyph unicode="&#x09;" horiz-adv-x="425" />
<glyph unicode="&#xa0;" horiz-adv-x="425" />
<glyph unicode="!" horiz-adv-x="479" d="M172 53q0 28 19.5 48t47.5 20t48 -20t20 -48t-20 -47.5t-48 -19.5t-47.5 19.5t-19.5 47.5zM210 1358h57l-4 -995h-48z" />
<glyph unicode="&#x22;" horiz-adv-x="556" d="M140 1358h69l-14 -412h-41zM347 1358h69l-14 -412h-41z" />
<glyph unicode="#" horiz-adv-x="1198" d="M76 427l10 52h245l81 410h-231l10 52h232l87 423h54l-88 -423h373l87 423h54l-88 -423h257l-11 -52h-257l-81 -410h243l-10 -52h-244l-89 -427h-53l88 427h-372l-89 -427h-53l88 427h-243zM385 479h372l81 410h-372z" />
<glyph unicode="$" d="M84 338h61q2 -115 102 -203.5t278 -93.5v637l-94 26q-148 41 -229 127t-81 209q0 145 108.5 235t295.5 95v134h55v-135q179 -9 281.5 -97.5t104.5 -211.5h-58q-1 44 -21 86t-58 79.5t-102.5 62.5t-146.5 29v-595l40 -10q190 -48 278 -135t88 -224q0 -163 -112 -257.5 t-294 -105.5v-137h-55v135q-108 1 -194.5 33.5t-139 84t-80 111t-27.5 121.5zM182 1040q0 -211 284 -288l59 -16v581q-159 -5 -251 -78.5t-92 -198.5zM580 42q161 11 253 91t92 217q0 123 -80.5 193.5t-253.5 117.5l-11 3v-622z" />
<glyph unicode="%" horiz-adv-x="1445" d="M93 1043v40q0 141 68.5 224t162.5 83q93 0 161 -83t68 -224v-40q0 -141 -68 -224t-161 -83q-94 0 -162.5 83t-68.5 224zM146 1044q0 -120 52.5 -189t125.5 -69q72 0 124 69t52 189v39q0 118 -52 187.5t-124 69.5q-73 0 -125.5 -69.5t-52.5 -187.5v-39zM172 0l512 679 l512 679h63l-512 -679l-512 -679h-63zM892 297v40q0 141 68.5 224t162.5 83q93 0 161 -83t68 -224v-40q0 -141 -68 -224t-161 -83q-94 0 -162.5 83t-68.5 224zM945 298q0 -120 52.5 -189t125.5 -69q72 0 124 69t52 189v39q0 118 -52 187.5t-124 69.5q-73 0 -125.5 -69.5 t-52.5 -187.5v-39z" />
<glyph unicode="&#x26;" horiz-adv-x="1261" d="M78 336q0 46 11 87t39 89t86.5 96.5t144.5 91.5l85 43q-113 114 -160.5 189.5t-47.5 159.5q0 129 93.5 203.5t223.5 74.5q137 0 221 -82.5t84 -200.5q0 -103 -77 -188t-245 -168l432 -461q43 62 74.5 175t36.5 226q2 50 2 78h55q0 -30 -2 -84q-5 -123 -39.5 -242.5 t-86.5 -190.5l219 -232h-81l-173 186q-89 -103 -215 -158t-255 -55q-84 0 -160 24t-135.5 68.5t-94.5 114.5t-35 156zM138 334q0 -129 102.5 -217.5t260.5 -88.5q118 0 236.5 52t195.5 145l-448 479l-97 -50q-250 -129 -250 -320zM296 1089q0 -40 12 -77t42.5 -78.5t60 -74 t85.5 -90.5q169 81 235.5 155t66.5 160q0 99 -68 165t-179 66q-108 0 -181.5 -63t-73.5 -163z" />
<glyph unicode="'" horiz-adv-x="349" d="M140 1358h69l-14 -412h-41z" />
<glyph unicode="(" horiz-adv-x="558" d="M160 566q0 125 18.5 240t43.5 194.5t63 156.5t65.5 118t61.5 87h46q-28 -36 -54.5 -78.5t-62 -118.5t-61.5 -159t-44.5 -199.5t-18.5 -240.5q0 -457 241 -829h-51q-29 39 -58 86.5t-64.5 127t-62 166.5t-44.5 205.5t-18 243.5z" />
<glyph unicode=")" horiz-adv-x="557" d="M100 -263q241 377 241 829q0 124 -18.5 240.5t-44.5 199t-62 159t-62 118.5t-54 79h45q34 -46 61.5 -87t65.5 -118t63 -156.5t43.5 -194.5t18.5 -240t-18 -243.5t-44.5 -205.5t-62 -166.5t-64 -127t-57.5 -86.5h-51z" />
<glyph unicode="*" horiz-adv-x="944" d="M149 857l284 149l-284 167l25 44l276 -177l-4 333h53l-5 -333l276 177l25 -44l-284 -167l284 -149l-25 -45l-276 158l5 -314h-53l4 314l-276 -158z" />
<glyph unicode="+" horiz-adv-x="1040" d="M67 529v53h426v459h54v-459h427v-53h-427v-473h-54v473h-426z" />
<glyph unicode="," horiz-adv-x="325" d="M71 -315l78 403h69l-96 -403h-51z" />
<glyph unicode="-" horiz-adv-x="754" d="M62 536v52h630v-52h-630z" />
<glyph unicode="." horiz-adv-x="415" d="M140 53q0 28 19.5 48t47.5 20t48 -20t20 -48t-20 -47.5t-48 -19.5t-47.5 19.5t-19.5 47.5z" />
<glyph unicode="/" horiz-adv-x="611" d="M32 -317l490 1752h57l-492 -1752h-55z" />
<glyph unicode="0" d="M108 635v88q0 320 118 493.5t314 173.5t314 -173.5t118 -493.5v-88q0 -320 -118 -493.5t-314 -173.5t-314 173.5t-118 493.5zM167 631q0 -293 102.5 -452t270.5 -159t270.5 159t102.5 452v96q0 293 -102.5 452t-270.5 159t-270.5 -159t-102.5 -452v-96z" />
<glyph unicode="1" horiz-adv-x="746" d="M95 1071v58l346 229h57v-1358h-57v1295h-4z" />
<glyph unicode="2" d="M141 1025v4q0 66 25 128.5t72 115.5t125 85t175 32q95 0 172 -29.5t124.5 -79.5t72.5 -114t25 -135q0 -60 -17 -117t-52.5 -111.5t-60 -86t-68.5 -81.5l-512 -580v-5h743v-51h-817v52l544 619q45 51 66.5 79t53.5 78t46 102t14 110q0 55 -21 107t-60.5 95.5t-105 69.5 t-147.5 26q-157 0 -248 -92.5t-92 -216.5v-4h-57z" />
<glyph unicode="3" horiz-adv-x="1089" d="M102 337h59q0 -58 26.5 -114t74 -101.5t122.5 -73.5t164 -28q165 0 272 94t107 236q0 146 -117.5 235.5t-295.5 89.5h-135v52h117q170 0 265 91t95 224q0 127 -90.5 211.5t-247.5 84.5q-87 0 -154.5 -30.5t-104.5 -78t-55 -97t-18 -95.5h-58q0 43 12 88t41.5 93.5t73 86 t112.5 61.5t153 24q183 0 289.5 -97.5t106.5 -247.5q0 -75 -26.5 -138.5t-69.5 -105t-94.5 -66.5t-105.5 -30v-2q69 -5 133 -30t116.5 -67.5t84 -108.5t31.5 -144q0 -170 -125 -277.5t-315 -107.5q-105 0 -191 32.5t-140 86t-83 118.5t-29 132z" />
<glyph unicode="4" horiz-adv-x="1090" d="M82 345v51l629 962h84v-962h205v-51h-205v-345h-52v345h-661zM145 396h598v912h-4l-594 -908v-4z" />
<glyph unicode="5" horiz-adv-x="1090" d="M120 325h59q1 -36 13.5 -74.5t41.5 -80.5t70 -75t104.5 -54t140.5 -21q163 0 272.5 116t109.5 280q0 169 -107 283t-277 114q-121 0 -213.5 -59.5t-126.5 -124.5h-59l95 729h653v-51h-607l-84 -611h2q11 21 38 47.5t69 55t105 48t132 19.5q194 0 316 -127.5t122 -322.5 q0 -187 -126 -317.5t-317 -130.5q-89 0 -162.5 24.5t-121 62.5t-81 86.5t-47.5 94.5t-14 89z" />
<glyph unicode="6" horiz-adv-x="1060" d="M98 585q0 214 34.5 370.5t100 251t152.5 139t199 44.5q78 0 147.5 -31t117.5 -81.5t78.5 -111t37.5 -121.5h-54q-7 49 -32 99t-65 94t-101.5 72t-132.5 28q-202 0 -316 -184.5t-114 -561.5h1h1q31 109 142.5 192.5t275.5 83.5q106 0 202 -53t159.5 -158.5t63.5 -241.5 q0 -197 -123.5 -322t-313.5 -125q-202 0 -326 152q-134 165 -134 465zM173 454q0 -183 112 -309t275 -126q165 0 271 111.5t106 277.5q0 179 -110.5 293.5t-258.5 114.5q-104 0 -192 -40.5t-145.5 -124.5t-57.5 -197z" />
<glyph unicode="7" horiz-adv-x="1040" d="M110 1306v52h805v-55l-594 -1303h-64l599 1302v4h-746z" />
<glyph unicode="8" horiz-adv-x="1100" d="M98 359q0 81 31 149.5t80 110.5t100 67.5t99 31.5v7q-32 6 -66 20.5t-69 41.5t-62 61.5t-44.5 85t-17.5 107.5q0 154 111 251t290 97t290 -97t111 -251q0 -57 -17.5 -107.5t-44.5 -85t-62 -61.5t-69 -41.5t-66 -20.5v-7q48 -6 99 -31.5t100 -67.5t80 -110.5t31 -149.5 q0 -171 -127.5 -281t-324.5 -110t-324.5 110t-127.5 281zM157 367q0 -154 110.5 -251t282.5 -97t282.5 97t110.5 251q0 143 -109.5 236t-283.5 93t-283.5 -93t-109.5 -236zM208 1036q0 -128 98 -211t244 -83t244 83t98 211q0 136 -96.5 219t-245.5 83t-245.5 -83t-96.5 -219 z" />
<glyph unicode="9" horiz-adv-x="1060" d="M86 943q0 193 121.5 320t303.5 127q101 0 180.5 -37t139.5 -114t92 -206t32 -304q0 -205 -30 -352t-90.5 -236.5t-144 -130.5t-196.5 -41q-70 0 -131.5 20.5t-105 55t-76 80t-50 94t-21.5 97.5h54q4 -40 18 -79t41 -78.5t64 -69.5t92 -49t120 -19q100 0 173 39.5 t126 127.5t79 234.5t26 354.5h-2q-18 -55 -47 -102.5t-74 -91.5t-113 -69t-152 -25q-85 0 -162 30.5t-136.5 87t-95 143.5t-35.5 193zM144 942q0 -180 108 -290.5t271 -110.5q146 0 251.5 107t105.5 257q0 121 -42.5 218.5t-127.5 156.5t-199 59q-159 0 -263 -115t-104 -282 z" />
<glyph unicode=":" horiz-adv-x="385" d="M125 77q0 28 19.5 48t47.5 20t48 -20t20 -48t-20 -47.5t-48 -19.5t-47.5 19.5t-19.5 47.5zM125 817q0 28 19.5 48t47.5 20t48 -20t20 -48t-20 -47.5t-48 -19.5t-47.5 19.5t-19.5 47.5z" />
<glyph unicode=";" horiz-adv-x="398" d="M88 -271l69 359h69l-87 -359h-51zM107 817q0 28 19.5 48t47.5 20t48 -20t20 -48t-20 -47.5t-48 -19.5t-47.5 19.5t-19.5 47.5z" />
<glyph unicode="&#x3c;" horiz-adv-x="1040" d="M120 476v60l760 546v-62l-710 -506v-11l710 -470v-62z" />
<glyph unicode="=" horiz-adv-x="1040" d="M109 342v52h820v-52h-820zM109 699v52h820v-52h-820z" />
<glyph unicode="&#x3e;" horiz-adv-x="1040" d="M160 -29v62l710 470v11l-710 506v62l760 -546v-60z" />
<glyph unicode="?" horiz-adv-x="859" d="M60 1075q4 60 27 114t66 100t116.5 73.5t168.5 27.5q157 0 259 -84t102 -227q0 -103 -51.5 -179t-156.5 -154q-97 -73 -127 -132.5t-30 -134.5v-97h-57v102q0 90 37 156t147 149q95 72 137 137t42 152q0 123 -88.5 191.5t-219.5 68.5q-69 0 -125 -19t-89.5 -47 t-57.5 -65.5t-34 -69t-13 -62.5h-53zM341 53q0 28 19.5 48t47.5 20t48 -20t20 -48t-20 -47.5t-48 -19.5t-47.5 19.5t-19.5 47.5z" />
<glyph unicode="@" horiz-adv-x="1630" d="M113 495v44q0 351 197.5 558.5t520.5 207.5h7q129 0 240.5 -36t193 -99t140.5 -146.5t88 -181t29 -201.5v-54q0 -197 -82.5 -300.5t-204.5 -103.5q-86 0 -145.5 44.5t-68.5 118.5h-4q-4 -18 -16 -40.5t-36 -52.5t-69 -50t-102 -20q-111 0 -183.5 76.5t-72.5 227.5v100 q0 134 66 214.5t189 80.5q58 0 102 -18.5t66.5 -46t33.5 -49.5t14 -39h4v137h48v-468q0 -50 17 -85.5t45 -53t56.5 -25t59.5 -7.5q97 0 165.5 90t68.5 281v39q0 125 -43.5 236.5t-123 197.5t-202.5 136.5t-273 50.5h-7q-148 0 -271 -50t-210 -142.5t-135.5 -229 t-48.5 -304.5v-31q0 -162 51.5 -292.5t142 -214.5t211 -128.5t260.5 -44.5h9q160 0 288 41v-46q-111 -41 -288 -41h-9q-156 0 -287.5 48t-227 138.5t-149.5 227t-54 306.5zM599 492q0 -131 58.5 -196t146.5 -65q38 0 73 12t67 37.5t51 72t19 107.5v135q0 97 -54 168.5 t-155 71.5q-96 0 -151 -68t-55 -184v-91z" />
<glyph unicode="A" horiz-adv-x="1177" d="M70 0l487 1358h63l487 -1358h-61l-166 470h-584l-166 -470h-60zM313 520h549l-271 769h-5z" />
<glyph unicode="B" horiz-adv-x="1205" d="M198 0v1358h420q189 0 295.5 -87.5t106.5 -243.5q0 -75 -25.5 -137t-64.5 -98.5t-77 -57.5t-73 -27v-4q60 -6 114 -27.5t100.5 -61t73.5 -104t27 -146.5q0 -167 -113.5 -265.5t-325.5 -98.5h-458zM255 53h398q182 0 282.5 83t100.5 227q0 152 -107.5 230t-271.5 78h-402 v-618zM255 724h378q87 0 159.5 31t120.5 99.5t48 165.5q0 137 -92.5 211t-259.5 74h-354v-581z" />
<glyph unicode="C" horiz-adv-x="1245" d="M142 555v247q0 95 18 180.5t57.5 160.5t97 129.5t142 86t188.5 31.5q110 0 201 -37t146.5 -96.5t85.5 -129t30 -139.5v-4h-55q0 60 -27 121t-76.5 113.5t-129.5 86t-175 33.5q-113 0 -201 -43.5t-140 -118t-78.5 -166.5t-26.5 -196v-270q0 -83 15.5 -158t50.5 -142.5 t86.5 -116.5t128 -78t171.5 -29q184 0 299 102.5t115 251.5h55v-4q0 -166 -129.5 -284t-339.5 -118q-108 0 -194.5 31t-144.5 85t-97 129.5t-56 160t-17 181.5z" />
<glyph unicode="D" horiz-adv-x="1297" d="M198 0v1358h345q159 0 277.5 -48t191 -138t108 -213t35.5 -279q0 -158 -34.5 -280.5t-106 -213t-190.5 -138.5t-281 -48h-345zM255 53h290q144 0 250.5 44t172.5 127.5t98 197t32 258.5q0 143 -32.5 256.5t-98.5 196.5t-173 127.5t-249 44.5h-290v-1252z" />
<glyph unicode="E" horiz-adv-x="1093" d="M198 0v1358h765v-53h-708v-582h674v-53h-674v-617h708v-53h-765z" />
<glyph unicode="F" horiz-adv-x="1043" d="M198 0v1358h755v-53h-698v-591h640v-53h-640v-661h-57z" />
<glyph unicode="G" horiz-adv-x="1261" d="M142 567v241q0 266 130 424t370 158q110 0 199.5 -34.5t144 -90t84.5 -120t34 -130.5h-53q-4 39 -20 81t-48.5 86t-78 78t-113.5 56t-148 22q-213 0 -328.5 -143.5t-115.5 -386.5v-241q0 -119 27 -217t81 -172.5t142.5 -116t205.5 -41.5q183 0 297 97.5t114 270.5v202 h-421v52h474v-254q0 -200 -130 -310t-337 -110q-106 0 -191.5 30.5t-144.5 84.5t-98.5 129.5t-57.5 164t-18 190.5z" />
<glyph unicode="H" horiz-adv-x="1326" d="M198 0v1358h57v-617h816v617h57v-1358h-57v689h-816v-689h-57z" />
<glyph unicode="I" horiz-adv-x="493" d="M218 0v1358h57v-1358h-57z" />
<glyph unicode="J" horiz-adv-x="922" d="M70 293h57q0 -41 13.5 -82.5t43 -82.5t87 -67t135.5 -26q128 0 206.5 80t78.5 236v1007h57v-1008q0 -182 -93 -274.5t-251 -92.5q-75 0 -134.5 21t-96 53.5t-60.5 75t-33.5 82t-9.5 78.5z" />
<glyph unicode="K" horiz-adv-x="1121" d="M198 0v1358h57v-749h1l706 749h75l-573 -612l607 -746h-74l-574 709l-168 -177v-532h-57z" />
<glyph unicode="L" horiz-adv-x="1022" d="M198 0v1358h57v-1306h697v-52h-754z" />
<glyph unicode="M" horiz-adv-x="1574" d="M198 0v1358h58l529 -1185h4l530 1185h57v-1358h-53v1232h-4l-504 -1127h-56l-504 1127h-4v-1232h-53z" />
<glyph unicode="N" horiz-adv-x="1326" d="M198 0v1358h60l809 -1256h4v1256h57v-1358h-60l-809 1256h-4v-1256h-57z" />
<glyph unicode="O" horiz-adv-x="1310" d="M142 551v256q0 267 135 425t378 158t378 -159t135 -426v-254q0 -267 -135 -425t-378 -158t-378 158t-135 425zM198 543q0 -234 122 -378.5t335 -144.5t335 144.5t122 378.5v272q0 233 -122.5 378t-334.5 145t-334.5 -145t-122.5 -378v-272z" />
<glyph unicode="P" horiz-adv-x="1141" d="M198 0v1358h422q203 0 312 -105t109 -290q0 -184 -109 -288t-312 -104h-365v-571h-57zM255 623h363q173 0 269 90t96 250q0 162 -95.5 252t-269.5 90h-363v-682z" />
<glyph unicode="Q" horiz-adv-x="1310" d="M142 564v242q0 267 134.5 425.5t378.5 158.5t378.5 -158.5t134.5 -425.5v-242q0 -165 -53 -291.5t-154 -200.5l179 -244h-64l-159 215q-111 -63 -262 -63q-244 0 -378.5 158.5t-134.5 425.5zM198 555q0 -234 121.5 -378.5t335.5 -144.5q129 0 229 56l-182 247h69 l157 -218q89 68 136.5 181.5t47.5 256.5v260q0 233 -122.5 378t-334.5 145t-334.5 -145t-122.5 -378v-260z" />
<glyph unicode="R" horiz-adv-x="1181" d="M198 0v1358h434q185 0 295 -102t110 -273q0 -150 -81.5 -242.5t-218.5 -121.5l322 -619h-66l-318 608h-420v-608h-57zM255 659h368q162 0 259 87.5t97 236.5q0 150 -96 237t-260 87h-368v-648z" />
<glyph unicode="S" horiz-adv-x="1158" d="M120 338h59q1 -39 13 -79.5t42 -84t74 -77t115.5 -55t159.5 -21.5q176 0 286 88.5t110 224.5q0 68 -21.5 118t-69 86t-106.5 61t-149 49l-157 42q-153 41 -231.5 122.5t-78.5 219.5q0 161 114.5 259.5t311.5 98.5q101 0 182 -27.5t131.5 -74.5t77 -105t26.5 -123h-59 q-1 38 -13 75.5t-40 74t-68 64.5t-101.5 45.5t-135.5 17.5q-171 0 -268.5 -84t-97.5 -222q0 -121 69.5 -186.5t216.5 -105.5l150 -41q98 -27 162.5 -54.5t115.5 -69t74.5 -99.5t23.5 -138q0 -168 -127 -268.5t-333 -100.5q-98 0 -178.5 24.5t-131 63t-85 89t-49 98.5 t-14.5 95z" />
<glyph unicode="T" horiz-adv-x="1077" d="M60 1305v53h957v-53h-449v-1305h-57v1305h-451z" />
<glyph unicode="U" horiz-adv-x="1327" d="M185 467v891h57v-891q0 -205 109.5 -324.5t311.5 -119.5q204 0 312.5 118.5t108.5 325.5v891h58v-891q0 -230 -126 -364.5t-353 -134.5t-352.5 134.5t-125.5 364.5z" />
<glyph unicode="V" horiz-adv-x="1204" d="M70 1358h61l466 -1291h4l473 1291h60l-503 -1358h-68z" />
<glyph unicode="W" horiz-adv-x="1733" d="M70 1358h61l329 -1281h4l372 1281h61l372 -1281h4l329 1281h61l-356 -1358h-69l-369 1269h-5l-369 -1269h-69z" />
<glyph unicode="X" horiz-adv-x="1154" d="M70 1358h68l437 -633h4l438 633h67l-473 -681l470 -677h-68l-435 631h-4l-435 -631h-67l470 677z" />
<glyph unicode="Y" horiz-adv-x="1104" d="M50 1358h68l432 -686h6l433 686h65l-473 -746v-612h-56v610z" />
<glyph unicode="Z" horiz-adv-x="1155" d="M100 0v49l885 1254v4h-858v51h928v-49l-886 -1254v-5h886v-50h-955z" />
<glyph unicode="[" horiz-adv-x="562" d="M160 -221v1579h319v-44h-266v-1491h279v-44h-332z" />
<glyph unicode="\" horiz-adv-x="608" d="M32 1435h54l490 -1752h-52z" />
<glyph unicode="]" horiz-adv-x="562" d="M70 -177h279v1491h-266v44h319v-1579h-332v44z" />
<glyph unicode="^" horiz-adv-x="753" d="M97 794l251 570h56l252 -570h-56l-222 503h-4l-222 -503h-55z" />
<glyph unicode="_" horiz-adv-x="854" d="M-21 -130h896v-52h-896v52z" />
<glyph unicode="`" horiz-adv-x="760" d="M183 1507h66l245 -301h-55z" />
<glyph unicode="a" horiz-adv-x="1003" d="M106 287q0 130 89.5 207t257.5 77h329v159q0 133 -78 199t-212 66q-127 0 -195 -54.5t-88 -158.5h-56q16 122 102 194t241 72q158 0 250 -79t92 -224v-745h-56v178h-4q-8 -26 -31 -56.5t-62 -63.5t-103 -54.5t-139 -21.5q-152 0 -244.5 82t-92.5 223zM167 288 q0 -115 76.5 -184t200.5 -69q140 0 239 87t99 225v171h-329q-143 0 -214.5 -62t-71.5 -168z" />
<glyph unicode="b" horiz-adv-x="1097" d="M175 0v1435h56v-621h4q5 21 17.5 46.5t40.5 60t65 62t96.5 46.5t128.5 19q170 0 279.5 -117.5t109.5 -312.5v-204q0 -106 -32.5 -190.5t-88 -136t-124.5 -78.5t-146 -27q-80 0 -145 24t-104.5 62t-62.5 74t-34 71h-4v-213h-56zM231 425q0 -168 96.5 -279t253.5 -111 q65 0 123.5 23.5t106.5 70t76 124t28 176.5v177q0 181 -95.5 285t-238.5 104q-82 0 -150 -32.5t-111 -86.5t-66 -123t-23 -143v-185z" />
<glyph unicode="c" horiz-adv-x="1031" d="M125 436v166q0 212 111.5 329t288.5 117q89 0 162 -28t118.5 -74.5t71.5 -101t29 -111.5h-54q-15 108 -100.5 185t-226.5 77q-154 0 -249 -106.5t-95 -300.5v-142q0 -200 94 -305.5t259 -105.5q76 0 136 21.5t96.5 58t57.5 77.5t29 87h53q-5 -53 -28.5 -103t-66 -95 t-115.5 -72t-167 -27q-186 0 -295 116.5t-109 337.5z" />
<glyph unicode="d" horiz-adv-x="1097" d="M125 412v204q0 106 32.5 190.5t88 136t124.5 78.5t146 27q80 0 145 -24t104.5 -62t62.5 -74t34 -71h4v618h56v-1435h-56v216h-4q-5 -21 -17.5 -46.5t-40.5 -60t-65 -62t-96.5 -46.5t-128.5 -19q-170 0 -279.5 117.5t-109.5 312.5zM182 424q0 -181 95.5 -285t238.5 -104 q66 0 123 21.5t98.5 58.5t70.5 86t43.5 105.5t14.5 115.5v181q0 168 -96.5 280t-253.5 112q-65 0 -123.5 -23.5t-106.5 -70t-76 -124t-28 -176.5v-177z" />
<glyph unicode="e" horiz-adv-x="1040" d="M125 453v107q0 238 107 363t288 125t288 -125t107 -363v-42h-734v-61q0 -203 94 -312.5t257 -109.5q74 0 134 21t96.5 54t57 70.5t24.5 74.5h56q-4 -45 -27.5 -90.5t-66 -87.5t-114.5 -68.5t-161 -26.5q-191 0 -298.5 123t-107.5 348zM181 569h678v4q0 200 -92 311 t-247 111t-247 -111t-92 -311v-4z" />
<glyph unicode="f" horiz-adv-x="604" d="M45 980v50h173v146q0 134 62.5 191t185.5 57q45 0 83 -7v-50q-42 6 -82 6q-100 0 -146.5 -44.5t-46.5 -151.5v-147h273v-50h-273v-980h-56v980h-173z" />
<glyph unicode="g" horiz-adv-x="1097" d="M125 468v148q0 106 32.5 190.5t88.5 136t125.5 78.5t146.5 27q79 0 143.5 -24t104 -62t62.5 -74t34 -71h4v213h56v-1043q0 -151 -105.5 -244.5t-288.5 -93.5q-91 0 -164 25t-116 65t-65.5 86t-24.5 93h57q6 -82 88 -149t226 -67q157 0 247 78.5t90 204.5v287h-4 q-5 -21 -17.5 -46.5t-40.5 -60t-65 -62t-95.5 -46.5t-127.5 -19q-171 0 -281 117.5t-110 312.5zM182 480q0 -181 96 -285t240 -104q108 0 189 56t120 142t39 187v129q0 167 -96 278.5t-252 111.5q-66 0 -124.5 -23.5t-106.5 -70t-76.5 -124t-28.5 -176.5v-121z" />
<glyph unicode="h" horiz-adv-x="1099" d="M175 0v1435h56v-615h4q27 93 116 160.5t228 67.5q157 0 256 -98t99 -271v-679h-56v673q0 140 -80.5 231t-220.5 91q-109 0 -189.5 -54t-118.5 -136t-38 -178v-627h-56z" />
<glyph unicode="i" horiz-adv-x="416" d="M148 1309q0 26 17.5 43.5t42.5 17.5q26 0 43.5 -18t17.5 -43t-17.5 -42.5t-43.5 -17.5t-43 17.5t-17 42.5zM180 0v1030h56v-1030h-56z" />
<glyph unicode="j" horiz-adv-x="416" d="M-36 -267q33 -7 65 -7q80 0 115.5 42.5t35.5 147.5v1114h56v-1110q0 -132 -50 -189.5t-154 -57.5q-42 0 -68 7v53zM148 1309q0 26 17.5 43.5t42.5 17.5q26 0 43.5 -18t17.5 -43t-17.5 -42.5t-43.5 -17.5t-43 17.5t-17 42.5z" />
<glyph unicode="k" horiz-adv-x="994" d="M175 0v1435h56v-929h4l578 524h80l-462 -418l485 -612h-73l-455 574l-157 -141v-433h-56z" />
<glyph unicode="l" horiz-adv-x="436" d="M190 0v1435h56v-1435h-56z" />
<glyph unicode="m" horiz-adv-x="1648" d="M175 0v1030h56v-184h4q8 32 28 64.5t53.5 65t88.5 52.5t123 20q130 0 209 -65.5t100 -160.5h4q6 32 27 68t57 73t96 61t133 24q146 0 237.5 -88.5t91.5 -253.5v-706h-56v691q0 150 -75.5 227t-198.5 77q-94 0 -163 -47t-101 -117.5t-32 -151.5v-679h-56v687 q0 147 -73.5 227.5t-200.5 80.5q-142 0 -219 -96.5t-77 -240.5v-658h-56z" />
<glyph unicode="n" horiz-adv-x="1095" d="M175 0v1030h56v-210h4q27 93 115 160.5t227 67.5q157 0 255 -97.5t98 -271.5v-679h-56v673q0 140 -79.5 231t-219.5 91q-109 0 -189 -54t-117.5 -136t-37.5 -178v-627h-56z" />
<glyph unicode="o" d="M125 431v163q0 217 116 335.5t298 118.5q178 0 297 -120.5t119 -333.5v-163q0 -109 -32.5 -195.5t-89.5 -141.5t-132 -83.5t-162 -28.5t-162 29t-131.5 84t-88.5 141t-32 195zM181 440q0 -196 99.5 -300.5t259.5 -104.5q158 0 258 104t100 301v145q0 195 -101 302.5 t-258 107.5q-158 0 -258 -106.5t-100 -303.5v-145z" />
<glyph unicode="p" horiz-adv-x="1097" d="M175 -326v1356h56v-216h4q5 21 17.5 46.5t40.5 60t65 62t96.5 46.5t128.5 19q170 0 279.5 -117.5t109.5 -312.5v-204q0 -106 -32.5 -190.5t-88 -136t-124.5 -78.5t-146 -27q-80 0 -145 24t-104.5 62t-62.5 74t-34 71h-4v-539h-56zM231 427q0 -168 96.5 -280t253.5 -112 q65 0 123.5 23.5t106.5 70t76 124t28 176.5v177q0 181 -95.5 285t-238.5 104q-66 0 -123 -21.5t-98.5 -58.5t-70.5 -86t-43.5 -105.5t-14.5 -115.5v-181z" />
<glyph unicode="q" horiz-adv-x="1097" d="M125 412v204q0 106 32.5 190.5t88 136t124.5 78.5t146 27q80 0 145 -24t104.5 -62t62.5 -74t34 -71h4v213h56v-1356h-56v542h-4q-5 -21 -17.5 -46.5t-40.5 -60t-65 -62t-96.5 -46.5t-128.5 -19q-170 0 -279.5 117.5t-109.5 312.5zM182 424q0 -181 95.5 -285t238.5 -104 q82 0 150 32.5t111 86.5t66 123t23 143v185q0 168 -96.5 279t-253.5 111q-65 0 -123.5 -23.5t-106.5 -70t-76 -124t-28 -176.5v-177z" />
<glyph unicode="r" horiz-adv-x="665" d="M175 0v1030h56v-213h4q60 229 299 229q37 0 81 -8v-54q-40 9 -88 9q-140 0 -218 -108t-78 -297v-588h-56z" />
<glyph unicode="s" horiz-adv-x="950" d="M97 261h56q0 -26 9 -55t32 -60t57 -55t89 -40t122 -16q86 0 155 23.5t114.5 78t45.5 132.5q0 29 -7.5 53t-17.5 41.5t-34 34t-42.5 27t-59 25t-67.5 22.5t-83 24q-57 16 -93.5 28.5t-78.5 30.5t-67 37.5t-47.5 45.5t-32.5 59.5t-10 75.5q0 128 93 201.5t247 73.5 q74 0 133.5 -18t97 -46.5t63 -65t35.5 -70.5t10 -66h-56q0 24 -8.5 51t-29.5 56.5t-52 52.5t-81.5 38t-112.5 15q-122 0 -201 -56t-79 -164q0 -39 12.5 -69t32.5 -51.5t58.5 -40.5t78 -32.5t102.5 -31.5q150 -43 192 -60q123 -52 153 -144q11 -36 11 -79q0 -140 -107 -212.5 t-267 -72.5q-98 0 -172.5 27.5t-114.5 71.5t-59 89.5t-19 90.5z" />
<glyph unicode="t" horiz-adv-x="617" d="M45 980v50h173v248h56v-248h273v-50h-273v-780q0 -92 42 -126.5t143 -34.5q56 0 103 9v-48q-46 -10 -110 -10q-131 0 -182.5 50t-51.5 179v761h-173z" />
<glyph unicode="u" horiz-adv-x="1095" d="M165 331v699h56v-693q0 -136 79.5 -219t214.5 -83q83 0 151 33t110.5 88.5t65 123t22.5 140.5v610h56v-1030h-56v211h-4q-14 -41 -40.5 -79t-67.5 -73t-103 -56t-136 -21q-153 0 -250.5 89.5t-97.5 259.5z" />
<glyph unicode="v" horiz-adv-x="917" d="M45 1030h62l350 -956h5l350 956h60l-384 -1030h-59z" />
<glyph unicode="w" horiz-adv-x="1386" d="M40 1030h62l251 -945h5l305 945h60l305 -945h5l251 945h62l-285 -1030h-59l-307 951h-4l-307 -951h-59z" />
<glyph unicode="x" horiz-adv-x="917" d="M60 0l365 520l-355 510h67l321 -460h4l323 460h64l-356 -508l364 -522h-67l-330 472h-4l-332 -472h-64z" />
<glyph unicode="y" horiz-adv-x="912" d="M45 1030h62l351 -972h4l345 972h60l-371 -1028l-49 -129q-41 -108 -96.5 -154t-154.5 -46q-50 0 -93 10v53q48 -10 92 -10q76 0 122 40t74 115l40 107z" />
<glyph unicode="z" horiz-adv-x="890" d="M95 0v46l640 930v4h-640v50h710v-50l-639 -926v-4h639v-50h-710z" />
<glyph unicode="{" horiz-adv-x="669" d="M100 549v98q98 0 130.5 47.5t32.5 159.5v276q0 87 20.5 143.5t65 87.5t103 43t146.5 12h31v-52h-68q-123 0 -182 -51t-59 -162v-329q0 -104 -37 -155t-119 -59v-18q82 -8 119 -58.5t37 -154.5v-393q0 -213 241 -213h68v-53h-31q-88 0 -147 13t-103 45.5t-64.5 90.5 t-20.5 146v332q0 111 -32.5 157.5t-130.5 46.5z" />
<glyph unicode="|" horiz-adv-x="343" d="M144 -308v1743h55v-1743h-55z" />
<glyph unicode="}" horiz-adv-x="669" d="M40 -229h68q241 0 241 213v393q0 104 37 154.5t119 58.5v18q-82 8 -119 59t-37 155v329q0 111 -59 162t-182 51h-68v52h31q88 0 146.5 -12t103 -43t65 -87.5t20.5 -143.5v-276q0 -111 33 -159t130 -48v-98q-97 0 -130 -46.5t-33 -157.5v-332q0 -88 -20.5 -146 t-64.5 -90.5t-103 -45.5t-147 -13h-31v53z" />
<glyph unicode="~" horiz-adv-x="1127" d="M131 543q0 119 67 195.5t165 76.5q51 0 97.5 -24t82 -57.5t70.5 -67.5t77 -58t87 -24q80 0 122.5 65t46.5 157h55q0 -47 -12.5 -92.5t-38 -87t-70.5 -67t-103 -25.5q-55 0 -104 24t-85 58t-70 67.5t-74.5 57.5t-82.5 24q-73 0 -123.5 -60.5t-51.5 -161.5h-55z" />
<glyph unicode="&#xa1;" horiz-adv-x="480" d="M171 971q0 28 20 47.5t48 19.5t47.5 -19.5t19.5 -47.5t-19.5 -48t-47.5 -20t-48 20t-20 48zM211 -334l4 995h48l5 -995h-57z" />
<glyph unicode="&#xa2;" d="M145 598v166q0 204 104 320t273 125v242h57v-242q81 -4 147.5 -34.5t108 -76t65 -98t26.5 -105.5h-53q-15 107 -99.5 184.5t-222.5 77.5q-157 0 -253.5 -106.5t-96.5 -300.5v-142q0 -200 95.5 -305.5t263.5 -105.5q75 0 134 22t94.5 59t56 77.5t29.5 85.5h52 q-5 -50 -27.5 -98.5t-62 -92.5t-106.5 -72.5t-151 -32.5v-237h-57v237q-175 10 -276 126t-101 327z" />
<glyph unicode="&#xa3;" d="M69 678v54h258v347q0 151 84 231t236 80q148 0 237 -82.5t94 -190.5h-58q-2 38 -19.5 75.5t-49 70t-84 52.5t-116.5 20q-133 0 -200 -67t-67 -195v-341h339v-54h-339v-361q0 -210 -102 -253v-10h684v-54h-874v56q36 0 62.5 3t61.5 18.5t57 42.5t38 79t16 125v354h-258z " />
<glyph unicode="&#xa4;" d="M100 254l192 191q-76 88 -76 212q0 123 76 211l-192 191l38 37l191 -191q91 78 211 78q121 0 212 -78l191 191l37 -37l-191 -191q76 -88 76 -211q0 -124 -76 -212l191 -191l-37 -37l-191 191q-91 -78 -212 -78q-120 0 -211 78l-191 -191zM270 657q0 -114 78.5 -193.5 t191.5 -79.5t191.5 79.5t78.5 193.5q0 113 -78.5 193t-191.5 80t-191.5 -80t-78.5 -193z" />
<glyph unicode="&#xa5;" d="M35 1358h68l432 -686h6l433 686h65l-450 -710h240v-53h-263v-197h263v-53h-263v-345h-56v345h-264v53h264v197h-264v53h240z" />
<glyph unicode="&#xa6;" horiz-adv-x="343" d="M144 -309v685h55v-685h-55zM144 783v654h55v-654h-55z" />
<glyph unicode="&#xa7;" horiz-adv-x="944" d="M93 54h51q2 -113 89 -183.5t239 -70.5q144 0 233 76t89 177t-78.5 155t-259.5 97q-61 15 -100 26t-85 28t-73.5 37t-52.5 47.5t-36 64.5t-11 83q0 55 20.5 102t53.5 78t65 50.5t63 29.5v4q-29 15 -47 25.5t-45.5 33t-43 47t-27.5 63.5t-12 85q0 123 94.5 202t243.5 79 q153 0 245 -78.5t92 -215.5h-57q0 79 -42.5 135t-103 80t-131.5 24q-135 0 -209 -66t-74 -158q0 -107 76.5 -163.5t239.5 -101.5q67 -18 106.5 -31t88.5 -37t75.5 -50.5t45 -68.5t18.5 -95q0 -90 -50 -158.5t-114 -105.5v-4q32 -11 60 -27.5t57.5 -43.5t47 -68t17.5 -92 q0 -134 -105.5 -226t-276.5 -92q-180 0 -278 83.5t-98 223.5zM155 595q0 -89 58 -137.5t189 -83.5l213 -56q26 14 50 33t50.5 49t43 72.5t16.5 90.5q0 63 -44 117.5t-150 85.5l-214 62q-74 -13 -143 -78t-69 -155z" />
<glyph unicode="&#xa8;" horiz-adv-x="760" d="M181 1302q0 23 16.5 39.5t39.5 16.5t39.5 -16.5t16.5 -39.5t-16.5 -39.5t-39.5 -16.5t-39.5 16.5t-16.5 39.5zM467 1302q0 23 16.5 39.5t39.5 16.5t39.5 -16.5t16.5 -39.5t-16.5 -39.5t-39.5 -16.5t-39.5 16.5t-16.5 39.5z" />
<glyph unicode="&#xa9;" horiz-adv-x="1653" d="M129 639v106q0 139 52.5 263t144.5 214t223.5 142.5t282.5 52.5q152 0 284 -53t223.5 -144t144 -214.5t52.5 -260.5v-106q0 -198 -87 -356.5t-248 -249t-369 -90.5q-155 0 -287 53t-223 145.5t-142 221t-51 276.5zM185 635q0 -182 80.5 -328t229 -230t337.5 -84t338 84 t229.5 230t80.5 328v110q0 125 -48 239t-132 198.5t-206 134.5t-262 50t-261.5 -49.5t-205.5 -134t-132 -198.5t-48 -240v-110zM538 638v100q0 153 79.5 232t219.5 79q118 0 186 -58.5t79 -130.5h-64q-12 53 -62 93t-139 40q-239 0 -239 -260v-97q0 -125 63 -190.5 t176 -65.5q91 0 142.5 33.5t62.5 87.5h65q-14 -73 -85.5 -125t-184.5 -52q-141 0 -220 79t-79 235z" />
<glyph unicode="&#xaa;" horiz-adv-x="604" d="M102 940q0 72 48 111.5t136 39.5h156v69q0 61 -36 91t-99 30q-60 0 -92 -23.5t-38 -55.5h-53q5 58 54.5 93t131.5 35q85 0 136 -41.5t51 -124.5v-374h-53v82h-3q-17 -35 -58.5 -63t-106.5 -28q-79 0 -126.5 43t-47.5 116zM156 942q0 -53 37 -83t93 -30q66 0 111 40 t45 101v75h-156q-64 0 -97 -28t-33 -75z" />
<glyph unicode="&#xab;" horiz-adv-x="1152" d="M153 557v8l374 404h72l-368 -403v-6l368 -405h-81zM538 557v8l374 404h72l-368 -403v-6l368 -405h-81z" />
<glyph unicode="&#xac;" horiz-adv-x="1040" d="M123 523v54h779v-403h-57v349h-722z" />
<glyph unicode="&#xad;" horiz-adv-x="754" d="M62 536v52h630v-52h-630z" />
<glyph unicode="&#xae;" horiz-adv-x="1171" d="M113 887v45q0 193 134.5 323t341.5 130q206 0 340.5 -130.5t134.5 -322.5v-45q0 -204 -132 -336t-343 -132q-210 0 -343 132t-133 336zM165 882q0 -182 117 -298.5t306 -116.5q188 0 306.5 117t118.5 298v56q0 170 -119 285t-306 115q-184 0 -303.5 -116t-119.5 -284v-56 zM420 645v532h190q77 0 123.5 -43.5t46.5 -114.5q0 -116 -110 -149q12 -20 26 -45t43.5 -77.5t57.5 -102.5h-55l-122 216h-151v-216h-49zM469 908h137q57 0 90.5 29.5t33.5 81.5t-33 82t-91 30h-137v-223z" />
<glyph unicode="&#xaf;" horiz-adv-x="760" d="M101 1279v44h558v-44h-558z" />
<glyph unicode="&#xb0;" horiz-adv-x="451" d="M50 1189q0 72 51.5 123.5t124.5 51.5q72 0 123.5 -51.5t51.5 -123.5q0 -73 -51.5 -124.5t-123.5 -51.5q-74 0 -125 51.5t-51 124.5zM99 1189q0 -52 38 -89.5t89 -37.5q53 0 90.5 37.5t37.5 89.5q0 53 -37.5 90.5t-90.5 37.5q-51 0 -89 -37.5t-38 -90.5z" />
<glyph unicode="&#xb1;" horiz-adv-x="1040" d="M82 159v57h876v-57h-876zM82 700v57h411v313h53v-313h411v-57h-411v-334h-53v334h-411z" />
<glyph unicode="&#xb2;" horiz-adv-x="650" d="M110 746v36l262 278q40 42 61.5 77.5t21.5 78.5q0 55 -39.5 91.5t-107.5 36.5q-69 0 -106 -38.5t-37 -93.5v-2h-53v2q0 73 51 125.5t147 52.5q92 0 146 -49.5t54 -123.5q0 -47 -24.5 -89.5t-80.5 -101.5l-219 -231v-4h336v-45h-412z" />
<glyph unicode="&#xb3;" horiz-adv-x="616" d="M83 889h50q2 -46 46.5 -77.5t113.5 -31.5q75 0 121 38t46 98q0 61 -47.5 98t-121.5 37h-69v44h62q69 0 110 36.5t41 92.5q0 53 -39.5 87t-105.5 34q-65 0 -103.5 -31.5t-40.5 -71.5h-50q1 58 53.5 103t141.5 45q90 0 144 -46.5t54 -113.5q0 -61 -42 -103.5t-92 -49.5v-3 q62 -5 109.5 -45t47.5 -111q0 -80 -62 -131t-161 -51q-92 0 -148 44t-58 109z" />
<glyph unicode="&#xb4;" horiz-adv-x="760" d="M249 1206l246 301h65l-256 -301h-55z" />
<glyph unicode="&#xb5;" horiz-adv-x="1149" d="M175 -326v1356h56v-693q0 -137 77 -219.5t212 -82.5q155 0 249.5 107.5t94.5 277.5v610h56v-818q0 -93 25 -130.5t87 -37.5q24 0 62 4v-52q-35 -5 -64 -5q-85 0 -125.5 48.5t-40.5 161.5v15h-4q-30 -104 -120.5 -169t-221.5 -65q-198 0 -283 151h-4v-459h-56z" />
<glyph unicode="&#xb6;" horiz-adv-x="1141" d="M178 949q0 98 31 174.5t77.5 121t108 73t114 38t104.5 9.5h76v-1575h-57v747h-20q-49 0 -103.5 12t-114.5 42.5t-107 75.5t-78 118.5t-31 163.5zM867 -210v1575h57v-1575h-57z" />
<glyph unicode="&#xb7;" horiz-adv-x="415" d="M140 544q0 28 19.5 48t47.5 20t48 -20t20 -48t-20 -47.5t-48 -19.5t-47.5 19.5t-19.5 47.5z" />
<glyph unicode="&#xb8;" horiz-adv-x="760" d="M213 -391q46 -16 122 -16q65 0 113 28.5t48 83.5q0 109 -153 109h-50v39l66 147h52l-60 -139q84 0 144 -37t60 -115q0 -81 -68 -123.5t-158 -42.5q-70 0 -116 16v50z" />
<glyph unicode="&#xb9;" horiz-adv-x="498" d="M111 1193v52l169 113h53v-612h-53v555h-3z" />
<glyph unicode="&#xba;" horiz-adv-x="588" d="M72 1013v84q0 109 62.5 171t159.5 62q96 0 158.5 -62t62.5 -171v-84q0 -110 -62 -171t-159 -61q-98 0 -160 61t-62 171zM126 1020q0 -90 46 -140t122 -50q75 0 121 50t46 140v70q0 89 -46.5 140.5t-120.5 51.5q-75 0 -121.5 -51t-46.5 -141v-70z" />
<glyph unicode="&#xbb;" horiz-adv-x="1152" d="M168 155l368 405v6l-368 403h72l374 -404v-8l-365 -402h-81zM553 155l368 405v6l-368 403h72l374 -404v-8l-365 -402h-81z" />
<glyph unicode="&#xbc;" horiz-adv-x="1445" d="M80 1193v52l169 113h53v-612h-53v555h-3zM145 0l512 679l512 679h63l-512 -679l-512 -679h-63zM822 148v46q19 32 79 121t142 208t83 121h81v-451h97v-45h-97v-148h-51v148h-334zM879 193h277v406h-3q-34 -47 -141 -204t-133 -198v-4z" />
<glyph unicode="&#xbd;" horiz-adv-x="1445" d="M50 1193v52l169 113h53v-612h-53v555h-3zM115 0l512 679l512 679h63l-512 -679l-512 -679h-63zM914 0v36l262 278q40 42 61.5 77.5t21.5 78.5q0 55 -39.5 91.5t-107.5 36.5q-69 0 -106 -38.5t-37 -93.5v-2h-53v2q0 73 51 125.5t147 52.5q92 0 146 -49.5t54 -123.5 q0 -47 -24.5 -89.5t-80.5 -101.5l-219 -231v-4h336v-45h-412z" />
<glyph unicode="&#xbe;" horiz-adv-x="1445" d="M40 889h50q2 -46 46.5 -77.5t113.5 -31.5q75 0 121 38t46 98q0 61 -47.5 98t-121.5 37h-69v44h62q69 0 110 36.5t41 92.5q0 53 -39.5 87t-105.5 34q-65 0 -103.5 -31.5t-40.5 -71.5h-50q1 58 53.5 103t141.5 45q90 0 144 -46.5t54 -113.5q0 -61 -42 -103.5t-92 -49.5v-3 q62 -5 109.5 -45t47.5 -111q0 -80 -62 -131t-161 -51q-92 0 -148 44t-58 109zM206 0l512 679l512 679h63l-512 -679l-512 -679h-63zM917 148v46q19 32 79 121t142 208t83 121h81v-451h97v-45h-97v-148h-51v148h-334zM974 193h277v406h-3q-34 -47 -141 -204t-133 -198v-4z " />
<glyph unicode="&#xbf;" horiz-adv-x="859" d="M60 -55q0 103 51.5 179t156.5 154q97 73 127 132.5t30 134.5v97h57v-102q0 -90 -37 -156t-147 -149q-95 -72 -137 -137t-42 -152q0 -123 88.5 -191.5t219.5 -68.5q69 0 125 19t89.5 47t57.5 65.5t34 69t13 62.5h53q-4 -60 -27 -114t-66 -100t-116.5 -73.5t-168.5 -27.5 q-157 0 -259 84t-102 227zM383 971q0 28 20 47.5t48 19.5t47.5 -19.5t19.5 -47.5t-19.5 -48t-47.5 -20t-48 20t-20 48z" />
<glyph unicode="&#xc0;" horiz-adv-x="1177" d="M70 0l487 1358h63l487 -1358h-61l-166 470h-584l-166 -470h-60zM313 520h549l-271 769h-5zM316 1813h66l245 -301h-55z" />
<glyph unicode="&#xc1;" horiz-adv-x="1177" d="M70 0l487 1358h63l487 -1358h-61l-166 470h-584l-166 -470h-60zM313 520h549l-271 769h-5zM551 1512l246 301h65l-256 -301h-55z" />
<glyph unicode="&#xc2;" horiz-adv-x="1177" d="M70 0l487 1358h63l487 -1358h-61l-166 470h-584l-166 -470h-60zM296 1512l275 205h28l275 -205h-79l-208 156h-4l-208 -156h-79zM313 520h549l-271 769h-5z" />
<glyph unicode="&#xc3;" horiz-adv-x="1177" d="M70 0l487 1358h63l487 -1358h-61l-166 470h-584l-166 -470h-60zM299 1512q0 78 41 118t107 40q36 0 66 -11.5t51 -27.5t41 -32t46 -27.5t57 -11.5q51 0 75.5 26.5t24.5 88.5h48q0 -77 -38 -117.5t-111 -40.5q-46 0 -84 17t-59.5 38t-52 38t-64.5 17q-44 0 -72 -28.5 t-28 -86.5h-48zM313 520h549l-271 769h-5z" />
<glyph unicode="&#xc4;" horiz-adv-x="1177" d="M70 0l487 1358h63l487 -1358h-61l-166 470h-584l-166 -470h-60zM313 520h549l-271 769h-5zM388 1571q0 23 16.5 39.5t39.5 16.5t39.5 -16.5t16.5 -39.5t-16.5 -39.5t-39.5 -16.5t-39.5 16.5t-16.5 39.5zM674 1571q0 23 16.5 39.5t39.5 16.5t39.5 -16.5t16.5 -39.5 t-16.5 -39.5t-39.5 -16.5t-39.5 16.5t-16.5 39.5z" />
<glyph unicode="&#xc5;" horiz-adv-x="1177" d="M70 0l487 1358h63l487 -1358h-61l-166 470h-584l-166 -470h-60zM313 520h549l-271 769h-5zM420 1682q0 70 49 118t120 48q70 0 120 -48.5t50 -117.5q0 -70 -50.5 -119.5t-119.5 -49.5q-71 0 -120 49t-49 120zM467 1680q0 -49 36.5 -85.5t85.5 -36.5q51 0 87 36t36 86 q0 51 -36 87t-87 36q-49 0 -85.5 -36t-36.5 -87z" />
<glyph unicode="&#xc6;" horiz-adv-x="1816" d="M21 0l827 1358h864v-53h-708v-582h674v-53h-674v-617h708v-53h-765v500h-559l-307 -500h-60zM418 550h529v755h-66z" />
<glyph unicode="&#xc7;" horiz-adv-x="1245" d="M142 555v247q0 95 18 180.5t57.5 160.5t97 129.5t142 86t188.5 31.5q110 0 201 -37t146.5 -96.5t85.5 -129t30 -139.5v-4h-55q0 60 -27 121t-76.5 113.5t-129.5 86t-175 33.5q-113 0 -201 -43.5t-140 -118t-78.5 -166.5t-26.5 -196v-270q0 -83 15.5 -158t50.5 -142.5 t86.5 -116.5t128 -78t171.5 -29q184 0 299 102.5t115 251.5h55v-4q0 -102 -50.5 -189.5t-149.5 -145.5t-228 -66l-51 -118q84 0 144 -37t60 -115q0 -81 -68 -123.5t-158 -42.5q-70 0 -116 16v50q46 -16 122 -16q65 0 113 28.5t48 83.5q0 109 -153 109h-50v39l56 125 q-105 2 -190 34t-141.5 86t-94.5 128.5t-54.5 158.5t-16.5 180z" />
<glyph unicode="&#xc8;" horiz-adv-x="1093" d="M198 0v1358h765v-53h-708v-582h674v-53h-674v-617h708v-53h-765zM305 1813h66l245 -301h-55z" />
<glyph unicode="&#xc9;" horiz-adv-x="1093" d="M198 0v1358h765v-53h-708v-582h674v-53h-674v-617h708v-53h-765zM540 1512l246 301h65l-256 -301h-55z" />
<glyph unicode="&#xca;" horiz-adv-x="1093" d="M198 0v1358h765v-53h-708v-582h674v-53h-674v-617h708v-53h-765zM289 1512l275 205h28l275 -205h-79l-208 156h-4l-208 -156h-79z" />
<glyph unicode="&#xcb;" horiz-adv-x="1093" d="M198 0v1358h765v-53h-708v-582h674v-53h-674v-617h708v-53h-765zM379 1571q0 23 16.5 39.5t39.5 16.5t39.5 -16.5t16.5 -39.5t-16.5 -39.5t-39.5 -16.5t-39.5 16.5t-16.5 39.5zM665 1571q0 23 16.5 39.5t39.5 16.5t39.5 -16.5t16.5 -39.5t-16.5 -39.5t-39.5 -16.5 t-39.5 16.5t-16.5 39.5z" />
<glyph unicode="&#xcc;" horiz-adv-x="493" d="M-26 1813h66l245 -301h-55zM218 0v1358h57v-1358h-57z" />
<glyph unicode="&#xcd;" horiz-adv-x="493" d="M209 1512l246 301h65l-256 -301h-55zM218 0v1358h57v-1358h-57z" />
<glyph unicode="&#xce;" horiz-adv-x="505" d="M-40 1512l275 205h28l275 -205h-79l-208 156h-4l-208 -156h-79zM224 0v1358h57v-1358h-57z" />
<glyph unicode="&#xcf;" horiz-adv-x="494" d="M47 1571q0 23 16.5 39.5t39.5 16.5t39.5 -16.5t16.5 -39.5t-16.5 -39.5t-39.5 -16.5t-39.5 16.5t-16.5 39.5zM219 0v1358h57v-1358h-57zM333 1571q0 23 16.5 39.5t39.5 16.5t39.5 -16.5t16.5 -39.5t-16.5 -39.5t-39.5 -16.5t-39.5 16.5t-16.5 39.5z" />
<glyph unicode="&#xd0;" horiz-adv-x="1350" d="M92 670v53h159v635h345q159 0 277.5 -48t191 -138t108 -213t35.5 -279q0 -158 -34.5 -280.5t-106 -213t-190.5 -138.5t-281 -48h-345v670h-159zM308 53h290q144 0 250.5 44t172.5 127.5t98 197t32 258.5q0 143 -32.5 256.5t-98.5 196.5t-173 127.5t-249 44.5h-290v-582 h374v-53h-374v-617z" />
<glyph unicode="&#xd1;" horiz-adv-x="1326" d="M198 0v1358h60l809 -1256h4v1256h57v-1358h-60l-809 1256h-4v-1256h-57zM373 1512q0 78 41 118t107 40q36 0 66 -11.5t51 -27.5t41 -32t46 -27.5t57 -11.5q51 0 75.5 26.5t24.5 88.5h48q0 -77 -38 -117.5t-111 -40.5q-46 0 -84 17t-59.5 38t-52 38t-64.5 17 q-44 0 -72 -28.5t-28 -86.5h-48z" />
<glyph unicode="&#xd2;" horiz-adv-x="1310" d="M142 551v256q0 267 135 425t378 158t378 -159t135 -426v-254q0 -267 -135 -425t-378 -158t-378 158t-135 425zM198 543q0 -234 122 -378.5t335 -144.5t335 144.5t122 378.5v272q0 233 -122.5 378t-334.5 145t-334.5 -145t-122.5 -378v-272zM382 1813h66l245 -301h-55z " />
<glyph unicode="&#xd3;" horiz-adv-x="1310" d="M142 551v256q0 267 135 425t378 158t378 -159t135 -426v-254q0 -267 -135 -425t-378 -158t-378 158t-135 425zM198 543q0 -234 122 -378.5t335 -144.5t335 144.5t122 378.5v272q0 233 -122.5 378t-334.5 145t-334.5 -145t-122.5 -378v-272zM617 1512l246 301h65 l-256 -301h-55z" />
<glyph unicode="&#xd4;" horiz-adv-x="1310" d="M142 551v256q0 267 135 425t378 158t378 -159t135 -426v-254q0 -267 -135 -425t-378 -158t-378 158t-135 425zM198 543q0 -234 122 -378.5t335 -144.5t335 144.5t122 378.5v272q0 233 -122.5 378t-334.5 145t-334.5 -145t-122.5 -378v-272zM363 1512l275 205h28l275 -205 h-79l-208 156h-4l-208 -156h-79z" />
<glyph unicode="&#xd5;" horiz-adv-x="1310" d="M142 551v256q0 267 135 425t378 158t378 -159t135 -426v-254q0 -267 -135 -425t-378 -158t-378 158t-135 425zM198 543q0 -234 122 -378.5t335 -144.5t335 144.5t122 378.5v272q0 233 -122.5 378t-334.5 145t-334.5 -145t-122.5 -378v-272zM365 1512q0 78 41 118t107 40 q36 0 66 -11.5t51 -27.5t41 -32t46 -27.5t57 -11.5q51 0 75.5 26.5t24.5 88.5h48q0 -77 -38 -117.5t-111 -40.5q-46 0 -84 17t-59.5 38t-52 38t-64.5 17q-44 0 -72 -28.5t-28 -86.5h-48z" />
<glyph unicode="&#xd6;" horiz-adv-x="1310" d="M142 551v256q0 267 135 425t378 158t378 -159t135 -426v-254q0 -267 -135 -425t-378 -158t-378 158t-135 425zM198 543q0 -234 122 -378.5t335 -144.5t335 144.5t122 378.5v272q0 233 -122.5 378t-334.5 145t-334.5 -145t-122.5 -378v-272zM455 1571q0 23 16.5 39.5 t39.5 16.5t39.5 -16.5t16.5 -39.5t-16.5 -39.5t-39.5 -16.5t-39.5 16.5t-16.5 39.5zM741 1571q0 23 16.5 39.5t39.5 16.5t39.5 -16.5t16.5 -39.5t-16.5 -39.5t-39.5 -16.5t-39.5 16.5t-16.5 39.5z" />
<glyph unicode="&#xd7;" horiz-adv-x="1040" d="M154 215l329 329l-329 330l37 37l330 -329l329 329l37 -37l-329 -330l329 -329l-38 -37l-328 329l-329 -329z" />
<glyph unicode="&#xd8;" horiz-adv-x="1310" d="M89 69l127 147q-74 139 -74 336v254q0 267 134.5 425.5t378.5 158.5q269 0 406 -194l125 144l37 -25l-137 -159q82 -143 82 -350v-254q0 -267 -134.5 -425.5t-378.5 -158.5q-279 0 -415 207l-116 -135zM198 543q0 -159 58 -280l766 887q-60 90 -153 139t-214 49 q-212 0 -334.5 -145t-122.5 -378v-272zM279 220q59 -95 154.5 -147.5t221.5 -52.5q214 0 335.5 144.5t121.5 378.5v272q0 169 -66 295z" />
<glyph unicode="&#xd9;" horiz-adv-x="1327" d="M185 467v891h57v-891q0 -205 109.5 -324.5t311.5 -119.5q204 0 312.5 118.5t108.5 325.5v891h58v-891q0 -230 -126 -364.5t-353 -134.5t-352.5 134.5t-125.5 364.5zM391 1813h66l245 -301h-55z" />
<glyph unicode="&#xda;" horiz-adv-x="1327" d="M185 467v891h57v-891q0 -205 109.5 -324.5t311.5 -119.5q204 0 312.5 118.5t108.5 325.5v891h58v-891q0 -230 -126 -364.5t-353 -134.5t-352.5 134.5t-125.5 364.5zM626 1512l246 301h65l-256 -301h-55z" />
<glyph unicode="&#xdb;" horiz-adv-x="1327" d="M185 467v891h57v-891q0 -205 109.5 -324.5t311.5 -119.5q204 0 312.5 118.5t108.5 325.5v891h58v-891q0 -230 -126 -364.5t-353 -134.5t-352.5 134.5t-125.5 364.5zM371 1512l275 205h28l275 -205h-79l-208 156h-4l-208 -156h-79z" />
<glyph unicode="&#xdc;" horiz-adv-x="1327" d="M185 467v891h57v-891q0 -205 109.5 -324.5t311.5 -119.5q204 0 312.5 118.5t108.5 325.5v891h58v-891q0 -230 -126 -364.5t-353 -134.5t-352.5 134.5t-125.5 364.5zM463 1571q0 23 16.5 39.5t39.5 16.5t39.5 -16.5t16.5 -39.5t-16.5 -39.5t-39.5 -16.5t-39.5 16.5 t-16.5 39.5zM749 1571q0 23 16.5 39.5t39.5 16.5t39.5 -16.5t16.5 -39.5t-16.5 -39.5t-39.5 -16.5t-39.5 16.5t-16.5 39.5z" />
<glyph unicode="&#xdd;" horiz-adv-x="1104" d="M50 1358h68l432 -686h6l433 686h65l-473 -746v-612h-56v610zM489 1512l246 301h65l-256 -301h-55z" />
<glyph unicode="&#xde;" horiz-adv-x="1129" d="M198 0v1358h57v-263h345q193 0 307 -93.5t114 -270.5q0 -176 -114 -269.5t-307 -93.5h-345v-368h-57zM255 420h343q177 0 271 77t94 234q0 311 -365 311h-343v-622z" />
<glyph unicode="&#xdf;" horiz-adv-x="1129" d="M190 0v1077q0 163 91.5 253.5t270.5 90.5q175 0 271 -89.5t96 -237.5q0 -124 -77.5 -221t-174.5 -119v-3q51 -2 102.5 -16.5t100.5 -45t87 -72t61 -102t23 -130.5q0 -97 -40.5 -176t-105.5 -127.5t-140.5 -74t-152.5 -25.5q-100 0 -179 15v58q69 -18 184 -18 q69 0 134.5 23t118.5 65.5t85.5 109t32.5 146.5q0 151 -118 243.5t-318 92.5h-99v59h98q132 0 224.5 95t92.5 213q0 73 -24.5 128.5t-67.5 88.5t-96.5 49t-116.5 16q-150 0 -228.5 -76t-78.5 -213v-1077h-56z" />
<glyph unicode="&#xe0;" horiz-adv-x="1003" d="M106 287q0 130 89.5 207t257.5 77h329v159q0 133 -78 199t-212 66q-127 0 -195 -54.5t-88 -158.5h-56q16 122 102 194t241 72q158 0 250 -79t92 -224v-745h-56v178h-4q-8 -26 -31 -56.5t-62 -63.5t-103 -54.5t-139 -21.5q-152 0 -244.5 82t-92.5 223zM167 288 q0 -115 76.5 -184t200.5 -69q140 0 239 87t99 225v171h-329q-143 0 -214.5 -62t-71.5 -168zM224 1507h66l245 -301h-55z" />
<glyph unicode="&#xe1;" horiz-adv-x="1003" d="M106 287q0 130 89.5 207t257.5 77h329v159q0 133 -78 199t-212 66q-127 0 -195 -54.5t-88 -158.5h-56q16 122 102 194t241 72q158 0 250 -79t92 -224v-745h-56v178h-4q-8 -26 -31 -56.5t-62 -63.5t-103 -54.5t-139 -21.5q-152 0 -244.5 82t-92.5 223zM167 288 q0 -115 76.5 -184t200.5 -69q140 0 239 87t99 225v171h-329q-143 0 -214.5 -62t-71.5 -168zM469 1206l246 301h65l-256 -301h-55z" />
<glyph unicode="&#xe2;" horiz-adv-x="1003" d="M106 287q0 130 89.5 207t257.5 77h329v159q0 133 -78 199t-212 66q-127 0 -195 -54.5t-88 -158.5h-56q16 122 102 194t241 72q158 0 250 -79t92 -224v-745h-56v178h-4q-8 -26 -31 -56.5t-62 -63.5t-103 -54.5t-139 -21.5q-152 0 -244.5 82t-92.5 223zM167 288 q0 -115 76.5 -184t200.5 -69q140 0 239 87t99 225v171h-329q-143 0 -214.5 -62t-71.5 -168zM237 1206l240 335h50l240 -335h-55l-208 292h-4l-208 -292h-55z" />
<glyph unicode="&#xe3;" horiz-adv-x="1003" d="M106 287q0 130 89.5 207t257.5 77h329v159q0 133 -78 199t-212 66q-127 0 -195 -54.5t-88 -158.5h-56q16 122 102 194t241 72q158 0 250 -79t92 -224v-745h-56v178h-4q-8 -26 -31 -56.5t-62 -63.5t-103 -54.5t-139 -21.5q-152 0 -244.5 82t-92.5 223zM167 288 q0 -115 76.5 -184t200.5 -69q140 0 239 87t99 225v171h-329q-143 0 -214.5 -62t-71.5 -168zM206 1217q0 95 44 145.5t114 50.5q39 0 71 -17t53.5 -41.5t42 -49.5t47.5 -42t60 -17q52 0 81 41.5t29 116.5h48q0 -92 -41.5 -147.5t-116.5 -55.5q-34 0 -63.5 12.5t-48.5 31 t-39.5 40t-36.5 40t-38.5 31t-47.5 12.5q-46 0 -78 -38.5t-32 -112.5h-48z" />
<glyph unicode="&#xe4;" horiz-adv-x="1003" d="M106 287q0 130 89.5 207t257.5 77h329v159q0 133 -78 199t-212 66q-127 0 -195 -54.5t-88 -158.5h-56q16 122 102 194t241 72q158 0 250 -79t92 -224v-745h-56v178h-4q-8 -26 -31 -56.5t-62 -63.5t-103 -54.5t-139 -21.5q-152 0 -244.5 82t-92.5 223zM167 288 q0 -115 76.5 -184t200.5 -69q140 0 239 87t99 225v171h-329q-143 0 -214.5 -62t-71.5 -168zM304 1302q0 23 16.5 39.5t39.5 16.5t39.5 -16.5t16.5 -39.5t-16.5 -39.5t-39.5 -16.5t-39.5 16.5t-16.5 39.5zM590 1302q0 23 16.5 39.5t39.5 16.5t39.5 -16.5t16.5 -39.5 t-16.5 -39.5t-39.5 -16.5t-39.5 16.5t-16.5 39.5z" />
<glyph unicode="&#xe5;" horiz-adv-x="1003" d="M106 287q0 130 89.5 207t257.5 77h329v159q0 133 -78 199t-212 66q-127 0 -195 -54.5t-88 -158.5h-56q16 122 102 194t241 72q158 0 250 -79t92 -224v-745h-56v178h-4q-8 -26 -31 -56.5t-62 -63.5t-103 -54.5t-139 -21.5q-152 0 -244.5 82t-92.5 223zM167 288 q0 -115 76.5 -184t200.5 -69q140 0 239 87t99 225v171h-329q-143 0 -214.5 -62t-71.5 -168zM333 1374q0 70 49 118t120 48q70 0 120 -48.5t50 -117.5q0 -70 -50.5 -119.5t-119.5 -49.5q-71 0 -120 49t-49 120zM380 1372q0 -49 36.5 -85.5t85.5 -36.5q51 0 87 36t36 86 q0 51 -36 87t-87 36q-49 0 -85.5 -36t-36.5 -87z" />
<glyph unicode="&#xe6;" horiz-adv-x="1698" d="M106 287q0 130 89.5 206.5t257.5 75.5h329v141q0 135 -79.5 210t-210.5 75q-127 0 -195 -54.5t-88 -158.5h-56q16 122 102 194t241 72q128 0 215 -60.5t115 -167.5h4q42 112 135 170t214 58q181 0 286.5 -125t105.5 -363v-42h-733v-61q0 -203 94 -312.5t257 -109.5 q74 0 134 20.5t96 54t57 70.5t25 75h56q-4 -45 -28 -90.5t-66.5 -87.5t-114 -68.5t-160.5 -26.5q-148 0 -245 74t-125 206h-4q-24 -121 -122 -200.5t-249 -79.5q-152 0 -244.5 82t-92.5 223zM167 288q0 -115 76.5 -184t200.5 -69q140 0 239 87t99 225v171h-329 q-143 0 -214.5 -62t-71.5 -168zM838 569h677v4q0 200 -90.5 311t-245.5 111q-156 0 -248.5 -111.5t-92.5 -310.5v-4z" />
<glyph unicode="&#xe7;" horiz-adv-x="1031" d="M125 436v166q0 212 111.5 329t288.5 117q89 0 162 -28t118.5 -74.5t71.5 -101t29 -111.5h-54q-15 108 -100.5 185t-226.5 77q-154 0 -249 -106.5t-95 -300.5v-142q0 -200 94 -305.5t259 -105.5q76 0 136 21.5t96.5 58t57.5 77.5t29 87h53q-5 -50 -26 -97.5t-59.5 -91 t-104 -72.5t-148.5 -35l-53 -122q84 0 144 -37t60 -115q0 -81 -68 -123.5t-158 -42.5q-70 0 -116 16v50q46 -16 122 -16q65 0 113 28.5t48 83.5q0 109 -153 109h-50v39l58 129q-180 5 -285 121.5t-105 332.5z" />
<glyph unicode="&#xe8;" horiz-adv-x="1040" d="M125 453v107q0 238 107 363t288 125t288 -125t107 -363v-42h-734v-61q0 -203 94 -312.5t257 -109.5q74 0 134 21t96.5 54t57 70.5t24.5 74.5h56q-4 -45 -27.5 -90.5t-66 -87.5t-114.5 -68.5t-161 -26.5q-191 0 -298.5 123t-107.5 348zM181 569h678v4q0 200 -92 311 t-247 111t-247 -111t-92 -311v-4zM241 1507h66l245 -301h-55z" />
<glyph unicode="&#xe9;" horiz-adv-x="1040" d="M125 453v107q0 238 107 363t288 125t288 -125t107 -363v-42h-734v-61q0 -203 94 -312.5t257 -109.5q74 0 134 21t96.5 54t57 70.5t24.5 74.5h56q-4 -45 -27.5 -90.5t-66 -87.5t-114.5 -68.5t-161 -26.5q-191 0 -298.5 123t-107.5 348zM181 569h678v4q0 200 -92 311 t-247 111t-247 -111t-92 -311v-4zM486 1206l246 301h65l-256 -301h-55z" />
<glyph unicode="&#xea;" horiz-adv-x="1040" d="M125 453v107q0 238 107 363t288 125t288 -125t107 -363v-42h-734v-61q0 -203 94 -312.5t257 -109.5q74 0 134 21t96.5 54t57 70.5t24.5 74.5h56q-4 -45 -27.5 -90.5t-66 -87.5t-114.5 -68.5t-161 -26.5q-191 0 -298.5 123t-107.5 348zM181 569h678v4q0 200 -92 311 t-247 111t-247 -111t-92 -311v-4zM254 1206l240 335h50l240 -335h-55l-208 292h-4l-208 -292h-55z" />
<glyph unicode="&#xeb;" horiz-adv-x="1040" d="M125 453v107q0 238 107 363t288 125t288 -125t107 -363v-42h-734v-61q0 -203 94 -312.5t257 -109.5q74 0 134 21t96.5 54t57 70.5t24.5 74.5h56q-4 -45 -27.5 -90.5t-66 -87.5t-114.5 -68.5t-161 -26.5q-191 0 -298.5 123t-107.5 348zM181 569h678v4q0 200 -92 311 t-247 111t-247 -111t-92 -311v-4zM321 1302q0 23 16.5 39.5t39.5 16.5t39.5 -16.5t16.5 -39.5t-16.5 -39.5t-39.5 -16.5t-39.5 16.5t-16.5 39.5zM607 1302q0 23 16.5 39.5t39.5 16.5t39.5 -16.5t16.5 -39.5t-16.5 -39.5t-39.5 -16.5t-39.5 16.5t-16.5 39.5z" />
<glyph unicode="&#xec;" horiz-adv-x="416" d="M-69 1507h66l245 -301h-55zM180 0v1030h56v-1030h-56z" />
<glyph unicode="&#xed;" horiz-adv-x="416" d="M176 1206l246 301h65l-256 -301h-55zM180 0v1030h56v-1030h-56z" />
<glyph unicode="&#xee;" horiz-adv-x="416" d="M-56 1206l240 335h50l240 -335h-55l-208 292h-4l-208 -292h-55zM180 0v1030h56v-1030h-56z" />
<glyph unicode="&#xef;" horiz-adv-x="416" d="M11 1302q0 23 16.5 39.5t39.5 16.5t39.5 -16.5t16.5 -39.5t-16.5 -39.5t-39.5 -16.5t-39.5 16.5t-16.5 39.5zM180 0v1030h56v-1030h-56zM297 1302q0 23 16.5 39.5t39.5 16.5t39.5 -16.5t16.5 -39.5t-16.5 -39.5t-39.5 -16.5t-39.5 16.5t-16.5 39.5z" />
<glyph unicode="&#xf0;" d="M125 431v113q0 217 116 335.5t298 118.5q127 0 220.5 -60t135.5 -148h4l-5 49q-28 275 -167 433l-285 -103l-12 45l264 96q-42 46 -131.5 106.5t-163.5 88.5h107q139 -68 242 -176l237 86l11 -44l-216 -78q175 -224 175 -619v-243q0 -109 -32.5 -195.5t-89.5 -141.5 t-132 -83.5t-162 -28.5t-162 29t-131.5 84t-88.5 141t-32 195zM181 440q0 -196 99.5 -300.5t259.5 -104.5q158 0 258 104t100 301v176q0 136 -105 232.5t-254 96.5q-158 0 -258 -106.5t-100 -303.5v-95z" />
<glyph unicode="&#xf1;" horiz-adv-x="1095" d="M175 0v1030h56v-210h4q27 93 115 160.5t227 67.5q157 0 255 -97.5t98 -271.5v-679h-56v673q0 140 -79.5 231t-219.5 91q-109 0 -189 -54t-117.5 -136t-37.5 -178v-627h-56zM252 1217q0 95 44 145.5t114 50.5q39 0 71 -17t53.5 -41.5t42 -49.5t47.5 -42t60 -17 q52 0 81 41.5t29 116.5h48q0 -92 -41.5 -147.5t-116.5 -55.5q-34 0 -63.5 12.5t-48.5 31t-39.5 40t-36.5 40t-38.5 31t-47.5 12.5q-46 0 -78 -38.5t-32 -112.5h-48z" />
<glyph unicode="&#xf2;" d="M125 431v163q0 217 116 335.5t298 118.5q178 0 297 -120.5t119 -333.5v-163q0 -109 -32.5 -195.5t-89.5 -141.5t-132 -83.5t-162 -28.5t-162 29t-131.5 84t-88.5 141t-32 195zM181 440q0 -196 99.5 -300.5t259.5 -104.5q158 0 258 104t100 301v145q0 195 -101 302.5 t-258 107.5q-158 0 -258 -106.5t-100 -303.5v-145zM261 1507h66l245 -301h-55z" />
<glyph unicode="&#xf3;" d="M125 431v163q0 217 116 335.5t298 118.5q178 0 297 -120.5t119 -333.5v-163q0 -109 -32.5 -195.5t-89.5 -141.5t-132 -83.5t-162 -28.5t-162 29t-131.5 84t-88.5 141t-32 195zM181 440q0 -196 99.5 -300.5t259.5 -104.5q158 0 258 104t100 301v145q0 195 -101 302.5 t-258 107.5q-158 0 -258 -106.5t-100 -303.5v-145zM506 1206l246 301h65l-256 -301h-55z" />
<glyph unicode="&#xf4;" d="M125 431v163q0 217 116 335.5t298 118.5q178 0 297 -120.5t119 -333.5v-163q0 -109 -32.5 -195.5t-89.5 -141.5t-132 -83.5t-162 -28.5t-162 29t-131.5 84t-88.5 141t-32 195zM181 440q0 -196 99.5 -300.5t259.5 -104.5q158 0 258 104t100 301v145q0 195 -101 302.5 t-258 107.5q-158 0 -258 -106.5t-100 -303.5v-145zM274 1206l240 335h50l240 -335h-55l-208 292h-4l-208 -292h-55z" />
<glyph unicode="&#xf5;" d="M125 431v163q0 217 116 335.5t298 118.5q178 0 297 -120.5t119 -333.5v-163q0 -109 -32.5 -195.5t-89.5 -141.5t-132 -83.5t-162 -28.5t-162 29t-131.5 84t-88.5 141t-32 195zM181 440q0 -196 99.5 -300.5t259.5 -104.5q158 0 258 104t100 301v145q0 195 -101 302.5 t-258 107.5q-158 0 -258 -106.5t-100 -303.5v-145zM243 1217q0 95 44 145.5t114 50.5q39 0 71 -17t53.5 -41.5t42 -49.5t47.5 -42t60 -17q52 0 81 41.5t29 116.5h48q0 -92 -41.5 -147.5t-116.5 -55.5q-34 0 -63.5 12.5t-48.5 31t-39.5 40t-36.5 40t-38.5 31t-47.5 12.5 q-46 0 -78 -38.5t-32 -112.5h-48z" />
<glyph unicode="&#xf6;" d="M125 431v163q0 217 116 335.5t298 118.5q178 0 297 -120.5t119 -333.5v-163q0 -109 -32.5 -195.5t-89.5 -141.5t-132 -83.5t-162 -28.5t-162 29t-131.5 84t-88.5 141t-32 195zM181 440q0 -196 99.5 -300.5t259.5 -104.5q158 0 258 104t100 301v145q0 195 -101 302.5 t-258 107.5q-158 0 -258 -106.5t-100 -303.5v-145zM341 1302q0 23 16.5 39.5t39.5 16.5t39.5 -16.5t16.5 -39.5t-16.5 -39.5t-39.5 -16.5t-39.5 16.5t-16.5 39.5zM627 1302q0 23 16.5 39.5t39.5 16.5t39.5 -16.5t16.5 -39.5t-16.5 -39.5t-39.5 -16.5t-39.5 16.5t-16.5 39.5z " />
<glyph unicode="&#xf7;" horiz-adv-x="1040" d="M82 512v57h876v-57h-876zM453 183q0 28 19.5 48t47.5 20t48 -20t20 -48t-20 -47.5t-48 -19.5t-47.5 19.5t-19.5 47.5zM453 896q0 28 19.5 48t47.5 20t48 -20t20 -48t-20 -47.5t-48 -19.5t-47.5 19.5t-19.5 47.5z" />
<glyph unicode="&#xf8;" d="M81 30l115 127q-71 112 -71 274v163q0 217 116 335.5t298 118.5q99 0 183 -39t141 -113l134 146l34 -30l-142 -154q66 -110 66 -264v-163q0 -109 -32.5 -195.5t-89.5 -141.5t-132 -83.5t-162 -28.5q-202 0 -316 138l-108 -120zM181 440q0 -141 55 -238l588 652 q-99 141 -285 141q-158 0 -258 -106.5t-100 -303.5v-145zM262 162q97 -127 278 -127q158 0 258 104t100 301v145q0 132 -49 228z" />
<glyph unicode="&#xf9;" horiz-adv-x="1095" d="M165 331v699h56v-693q0 -136 79.5 -219t214.5 -83q83 0 151 33t110.5 88.5t65 123t22.5 140.5v610h56v-1030h-56v211h-4q-14 -41 -40.5 -79t-67.5 -73t-103 -56t-136 -21q-153 0 -250.5 89.5t-97.5 259.5zM270 1507h66l245 -301h-55z" />
<glyph unicode="&#xfa;" horiz-adv-x="1095" d="M165 331v699h56v-693q0 -136 79.5 -219t214.5 -83q83 0 151 33t110.5 88.5t65 123t22.5 140.5v610h56v-1030h-56v211h-4q-14 -41 -40.5 -79t-67.5 -73t-103 -56t-136 -21q-153 0 -250.5 89.5t-97.5 259.5zM515 1206l246 301h65l-256 -301h-55z" />
<glyph unicode="&#xfb;" horiz-adv-x="1095" d="M165 331v699h56v-693q0 -136 79.5 -219t214.5 -83q83 0 151 33t110.5 88.5t65 123t22.5 140.5v610h56v-1030h-56v211h-4q-14 -41 -40.5 -79t-67.5 -73t-103 -56t-136 -21q-153 0 -250.5 89.5t-97.5 259.5zM283 1206l240 335h50l240 -335h-55l-208 292h-4l-208 -292h-55z " />
<glyph unicode="&#xfc;" horiz-adv-x="1095" d="M165 331v699h56v-693q0 -136 79.5 -219t214.5 -83q83 0 151 33t110.5 88.5t65 123t22.5 140.5v610h56v-1030h-56v211h-4q-14 -41 -40.5 -79t-67.5 -73t-103 -56t-136 -21q-153 0 -250.5 89.5t-97.5 259.5zM350 1302q0 23 16.5 39.5t39.5 16.5t39.5 -16.5t16.5 -39.5 t-16.5 -39.5t-39.5 -16.5t-39.5 16.5t-16.5 39.5zM636 1302q0 23 16.5 39.5t39.5 16.5t39.5 -16.5t16.5 -39.5t-16.5 -39.5t-39.5 -16.5t-39.5 16.5t-16.5 39.5z" />
<glyph unicode="&#xfd;" horiz-adv-x="912" d="M45 1030h62l351 -972h4l345 972h60l-371 -1028l-49 -129q-41 -108 -96.5 -154t-154.5 -46q-50 0 -93 10v53q48 -10 92 -10q76 0 122 40t74 115l40 107zM421 1206l246 301h65l-256 -301h-55z" />
<glyph unicode="&#xfe;" horiz-adv-x="1090" d="M170 -325v1760h56v-621h4q9 28 25.5 57.5t45.5 62t65.5 57.5t89 41t112.5 16q62 0 120 -16.5t109 -52t88.5 -86.5t59.5 -123.5t22 -159.5v-192q0 -198 -112 -317t-286 -119q-67 0 -124.5 19t-93.5 46.5t-63.5 61.5t-40 59t-17.5 45h-4v-538h-56zM226 425 q0 -75 22.5 -144.5t64.5 -124.5t108.5 -88t146.5 -33q147 0 244.5 104.5t97.5 287.5v172q0 99 -29 177t-77.5 124.5t-108.5 70.5t-127 24q-153 0 -247.5 -113t-94.5 -280v-177z" />
<glyph unicode="&#xff;" horiz-adv-x="912" d="M45 1030h62l351 -972h4l345 972h60l-371 -1028l-49 -129q-41 -108 -96.5 -154t-154.5 -46q-50 0 -93 10v53q48 -10 92 -10q76 0 122 40t74 115l40 107zM256 1302q0 23 16.5 39.5t39.5 16.5t39.5 -16.5t16.5 -39.5t-16.5 -39.5t-39.5 -16.5t-39.5 16.5t-16.5 39.5z M542 1302q0 23 16.5 39.5t39.5 16.5t39.5 -16.5t16.5 -39.5t-16.5 -39.5t-39.5 -16.5t-39.5 16.5t-16.5 39.5z" />
<glyph unicode="&#x152;" horiz-adv-x="1982" d="M142 551v256q0 268 131 425.5t373 157.5q160 0 277 -74.5t166 -195.5h4v238h765v-53h-708v-582h674v-53h-674v-617h708v-53h-765v247h-4q-125 -279 -443 -279q-242 0 -373 157.5t-131 425.5zM198 543q0 -235 118 -379t330 -144q135 0 238 65.5t155.5 172.5t52.5 237v377 q0 92 -30 175t-85 148.5t-141 104t-190 38.5q-211 0 -329.5 -144.5t-118.5 -378.5v-272z" />
<glyph unicode="&#x153;" horiz-adv-x="1814" d="M125 431v163q0 217 116 335.5t298 118.5q134 0 237.5 -70t149.5 -199h3q43 133 137.5 201t227.5 68q181 0 288 -125t107 -363v-42h-734v-61q0 -203 94 -312.5t257 -109.5q74 0 134 21t96.5 54t57 70.5t24.5 74.5h56q-4 -45 -27.5 -90.5t-66 -87.5t-114.5 -68.5 t-161 -26.5q-140 0 -236.5 67.5t-139.5 194.5h-3q-45 -127 -148.5 -194.5t-238.5 -67.5q-87 0 -162 29t-131.5 84t-88.5 141t-32 195zM181 440q0 -196 99.5 -300.5t259.5 -104.5q158 0 258 104t100 301v145q0 195 -101 302.5t-258 107.5q-158 0 -258 -106.5t-100 -303.5 v-145zM955 569h678v4q0 200 -92 311t-247 111t-247 -111t-92 -311v-4z" />
<glyph unicode="&#x178;" horiz-adv-x="1104" d="M50 1358h68l432 -686h6l433 686h65l-473 -746v-612h-56v610zM352 1571q0 23 16.5 39.5t39.5 16.5t39.5 -16.5t16.5 -39.5t-16.5 -39.5t-39.5 -16.5t-39.5 16.5t-16.5 39.5zM638 1571q0 23 16.5 39.5t39.5 16.5t39.5 -16.5t16.5 -39.5t-16.5 -39.5t-39.5 -16.5t-39.5 16.5 t-16.5 39.5z" />
<glyph unicode="&#x2c6;" horiz-adv-x="760" d="M115 1206l240 335h50l240 -335h-55l-208 292h-4l-208 -292h-55z" />
<glyph unicode="&#x2dc;" horiz-adv-x="760" d="M77 1217q0 95 44 145.5t114 50.5q39 0 71 -17t53.5 -41.5t42 -49.5t47.5 -42t60 -17q52 0 81 41.5t29 116.5h48q0 -92 -41.5 -147.5t-116.5 -55.5q-34 0 -63.5 12.5t-48.5 31t-39.5 40t-36.5 40t-38.5 31t-47.5 12.5q-46 0 -78 -38.5t-32 -112.5h-48z" />
<glyph unicode="&#x2000;" horiz-adv-x="924" />
<glyph unicode="&#x2001;" horiz-adv-x="1848" />
<glyph unicode="&#x2002;" horiz-adv-x="924" />
<glyph unicode="&#x2003;" horiz-adv-x="1848" />
<glyph unicode="&#x2004;" horiz-adv-x="616" />
<glyph unicode="&#x2005;" horiz-adv-x="462" />
<glyph unicode="&#x2006;" horiz-adv-x="308" />
<glyph unicode="&#x2007;" horiz-adv-x="308" />
<glyph unicode="&#x2008;" horiz-adv-x="231" />
<glyph unicode="&#x2009;" horiz-adv-x="369" />
<glyph unicode="&#x200a;" horiz-adv-x="102" />
<glyph unicode="&#x2010;" horiz-adv-x="754" d="M62 536v52h630v-52h-630z" />
<glyph unicode="&#x2011;" horiz-adv-x="754" d="M62 536v52h630v-52h-630z" />
<glyph unicode="&#x2012;" horiz-adv-x="754" d="M62 536v52h630v-52h-630z" />
<glyph unicode="&#x2013;" horiz-adv-x="1085" d="M0 538v52h1085v-52h-1085z" />
<glyph unicode="&#x2014;" horiz-adv-x="2048" d="M0 536v52h2048v-52h-2048z" />
<glyph unicode="&#x2018;" horiz-adv-x="380" d="M135 964l60 394h50l-47 -394h-63z" />
<glyph unicode="&#x2019;" horiz-adv-x="370" d="M135 964l37 394h63l-51 -394h-49z" />
<glyph unicode="&#x201a;" horiz-adv-x="375" d="M135 -294l42 371h63l-60 -371h-45z" />
<glyph unicode="&#x201c;" horiz-adv-x="613" d="M135 960l64 398h45l-45 -398h-64zM373 960l60 398h45l-41 -398h-64z" />
<glyph unicode="&#x201d;" horiz-adv-x="622" d="M135 961l42 397h63l-60 -397h-45zM380 961l44 397h63l-62 -397h-45z" />
<glyph unicode="&#x201e;" horiz-adv-x="622" d="M135 -294l42 397h63l-60 -397h-45zM380 -294l44 397h63l-62 -397h-45z" />
<glyph unicode="&#x2022;" horiz-adv-x="944" d="M297 590q0 72 51 123t124 51q71 0 122.5 -51t51.5 -123t-51.5 -123.5t-122.5 -51.5q-73 0 -124 51.5t-51 123.5z" />
<glyph unicode="&#x2026;" horiz-adv-x="1325" d="M140 53q0 28 19.5 48t47.5 20t48 -20t20 -48t-20 -47.5t-48 -19.5t-47.5 19.5t-19.5 47.5zM595 53q0 28 19.5 48t47.5 20t48 -20t20 -48t-20 -47.5t-48 -19.5t-47.5 19.5t-19.5 47.5zM1050 53q0 28 19.5 48t47.5 20t48 -20t20 -48t-20 -47.5t-48 -19.5t-47.5 19.5 t-19.5 47.5z" />
<glyph unicode="&#x202f;" horiz-adv-x="369" />
<glyph unicode="&#x2039;" horiz-adv-x="749" d="M128 557v8l374 404h72l-368 -403v-6l368 -405h-81z" />
<glyph unicode="&#x203a;" horiz-adv-x="747" d="M167 155l368 405v6l-368 403h72l374 -404v-8l-365 -402h-81z" />
<glyph unicode="&#x205f;" horiz-adv-x="462" />
<glyph unicode="&#x20ac;" d="M50 496v53h156v250h-156v53h158q0 263 108 400.5t300 137.5q83 0 151 -26.5t113 -70.5t75.5 -103t44 -122.5t13.5 -130.5h-57q0 112 -36.5 201t-115 144t-187.5 55q-174 0 -263 -128.5t-89 -356.5h425v-53h-427v-250h427v-53h-425q0 -233 96 -352.5t259 -119.5 q81 0 146.5 33.5t104.5 89t59.5 121t20.5 135.5h57q0 -59 -13.5 -117.5t-43.5 -115.5t-74 -101t-111 -71t-147 -27q-87 0 -160 31t-130 92.5t-89 164.5t-32 237h-158z" />
<glyph unicode="&#x2122;" horiz-adv-x="1760" d="M132 1313v50h594v-50h-270v-641h-54v641h-270zM868 672v691h50l293 -566l287 566h50v-691h-52v566l-264 -515h-42l-269 516v-567h-53z" />
<glyph unicode="&#x25fc;" horiz-adv-x="1030" d="M0 0v1030h1030v-1030h-1030z" />
<glyph unicode="&#xfb01;" horiz-adv-x="1020" d="M45 980v50h173v146q0 134 62.5 191t185.5 57q45 0 83 -7v-50q-42 6 -82 6q-100 0 -146.5 -44.5t-46.5 -151.5v-147h273v-50h-273v-980h-56v980h-173zM752 1309q0 26 17.5 43.5t42.5 17.5q26 0 43.5 -18t17.5 -43t-17.5 -42.5t-43.5 -17.5t-43 17.5t-17 42.5zM784 0v1030 h56v-1030h-56z" />
<glyph unicode="&#xfb02;" horiz-adv-x="1040" d="M45 980v50h173v146q0 134 62.5 191t185.5 57q45 0 83 -7v-50q-42 6 -82 6q-100 0 -146.5 -44.5t-46.5 -151.5v-147h273v-50h-273v-980h-56v980h-173zM794 0v1435h56v-1435h-56z" />
</font>
</defs>
</svg>
