<?xml version="1.0" standalone="no"?>
<!DOCTYPE svg PUBLIC "-//W3C//DTD SVG 1.1//EN" "http://www.w3.org/Graphics/SVG/1.1/DTD/svg11.dtd" >
<svg xmlns="http://www.w3.org/2000/svg">
<metadata></metadata>
<defs>
<font id="sfc-text" horiz-adv-x="1237" >
<font-face units-per-em="2048" ascent="1638" descent="-410" />
<missing-glyph horiz-adv-x="454" />
<glyph horiz-adv-x="0" />
<glyph unicode="&#xd;" horiz-adv-x="0" />
<glyph unicode=" "  horiz-adv-x="454" />
<glyph unicode="&#x09;" horiz-adv-x="454" />
<glyph unicode="&#xa0;" horiz-adv-x="454" />
<glyph unicode="!" horiz-adv-x="616" d="M126 139q0 73 50 117t132 44q84 0 134 -44t50 -117q0 -72 -50 -115.5t-134 -43.5q-82 0 -132 44t-50 115zM155 1365h309l-34 -908h-243z" />
<glyph unicode="&#x22;" horiz-adv-x="1045" d="M120 1365h307l-37 -572h-233zM619 1365h306l-36 -572h-234z" />
<glyph unicode="#" horiz-adv-x="1289" d="M66 361l39 212h196l49 235h-188l39 211h190l69 346h214l-71 -346h219l69 346h213l-70 -346h204l-38 -211h-207l-49 -235h198l-39 -212h-200l-72 -361h-212l72 361h-218l-74 -361h-211l72 361h-194zM489 549h259l57 283h-258z" />
<glyph unicode="$" d="M99 395h238q5 -76 60 -129t154 -66v397l-83 19q-70 16 -129 45.5t-107.5 74t-76 110.5t-27.5 147q0 171 117 272t303 119v129h154v-130q184 -20 297 -125.5t117 -263.5h-232q-2 69 -51.5 121.5t-133.5 65.5v-372l84 -19q80 -18 142 -46t112.5 -72.5t77 -111t26.5 -152.5 q0 -176 -119.5 -283.5t-321.5 -126.5l1 -127h-154v125q-115 9 -203.5 46t-140 93.5t-77.5 122t-27 137.5zM371 1012q0 -114 144 -162q20 -7 36 -11v343q-80 -9 -130 -54t-50 -116zM699 200q90 8 145 56.5t55 127.5q0 66 -41.5 109t-135.5 70q-13 4 -23 5v-368z" />
<glyph unicode="%" horiz-adv-x="1444" d="M25 1020v31q0 144 81 237.5t217 93.5q135 0 215 -93t80 -239v-32q0 -140 -80 -236.5t-219 -96.5q-136 0 -215 94.5t-79 240.5zM88 -1l558 720l494 646h209l-549 -706l-503 -660h-209zM202 1030q0 -89 32 -137t87 -48t87 47.5t32 135.5v12q0 88 -31.5 135.5t-86.5 47.5 q-57 0 -88.5 -47.5t-31.5 -134.5v-11zM826 318v31q0 144 81 237.5t217 93.5q135 0 215 -93t80 -239v-31q0 -140 -80 -237t-219 -97q-136 0 -215 94.5t-79 240.5zM1003 328q0 -89 32 -137t87 -48q54 0 86.5 48t32.5 136v11q0 88 -31.5 135.5t-86.5 47.5q-57 0 -88.5 -47.5 t-31.5 -134.5v-11z" />
<glyph unicode="&#x26;" horiz-adv-x="1414" d="M92 355q0 122 65 207.5t185 153.5q30 16 63 33q-84 87 -126.5 157.5t-42.5 152.5q0 139 110.5 228t274.5 89q100 0 184.5 -34t139.5 -106.5t55 -171.5q0 -63 -22.5 -117t-64 -97t-86 -75t-103.5 -64l260 -273q48 84 48 255v74h228v-91q0 -256 -114 -411l252 -265h-306 l-105 110q-79 -66 -189 -102t-231 -36q-215 0 -345 104t-130 279zM347 377q0 -94 71 -147t176 -53q69 0 138 24t112 68l-313 332q-21 -10 -37 -19q-147 -79 -147 -205zM471 1044q0 -46 28 -90.5t98 -111.5q86 43 130.5 90t44.5 112q0 66 -42.5 106t-107.5 40 q-66 0 -108.5 -41t-42.5 -105z" />
<glyph unicode="'" horiz-adv-x="547" d="M120 1365h307l-37 -572h-233z" />
<glyph unicode="(" horiz-adv-x="726" d="M133 566q0 127 17 238t40.5 187.5t63 152.5t69 119t74.5 100h259q-35 -40 -71.5 -104t-75.5 -161.5t-64 -236.5t-25 -293q0 -104 10 -199.5t32.5 -178.5t41 -142t52.5 -128t49 -97t48 -85h-265q-46 56 -85.5 125t-80.5 170.5t-65 239.5t-24 293z" />
<glyph unicode=")" horiz-adv-x="726" d="M70 1363h257q45 -57 75 -100t70 -119t63.5 -152.5t40.5 -187.5t17 -238q0 -155 -24 -293t-65.5 -239.5t-81.5 -170.5t-86 -125h-264q38 65 58.5 103.5t58.5 126t59.5 165.5t38.5 194.5t17 240.5q0 154 -24.5 293t-63.5 236.5t-75 161.5t-71 104z" />
<glyph unicode="*" horiz-adv-x="984" d="M86 872l288 117l-288 116l98 176l248 -192l-40 309h196l-41 -309l248 192l98 -176l-288 -116l288 -117l-98 -176l-246 188l39 -305h-196l39 305l-247 -188z" />
<glyph unicode="+" d="M108 429v249h391v403h243v-403h392v-249h-392v-416h-243v416h-391z" />
<glyph unicode="," horiz-adv-x="520" d="M29 -340l108 626h282l-171 -626h-219z" />
<glyph unicode="-" horiz-adv-x="840" d="M105 430v261h630v-261h-630z" />
<glyph unicode="." horiz-adv-x="628" d="M132 158q0 82 51.5 131.5t129.5 49.5q79 0 131 -50t52 -131t-52 -129.5t-131 -48.5q-77 0 -129 49t-52 129z" />
<glyph unicode="/" horiz-adv-x="737" d="M13 -286l459 1723h252l-459 -1723h-252z" />
<glyph unicode="0" horiz-adv-x="1294" d="M121 651v64q0 201 61.5 352.5t182 237t285.5 85.5q248 0 385.5 -183.5t137.5 -491.5v-64q0 -114 -21 -215.5t-64.5 -186.5t-105.5 -146t-148 -95t-189 -34q-165 0 -284.5 86t-179.5 238t-60 353zM410 652q0 -210 64 -322t173 -112t173 112.5t64 321.5v62q0 209 -64 320.5 t-173 111.5t-173 -111t-64 -321v-62z" />
<glyph unicode="1" horiz-adv-x="983" d="M131 865v271l323 229h287v-1365h-287v1082h-14z" />
<glyph unicode="2" horiz-adv-x="1206" d="M127 947v16q0 81 29.5 155.5t85.5 136t149 98.5t210 37q213 0 343.5 -109t130.5 -276q0 -29 -4.5 -57t-9 -50t-17.5 -49.5t-19.5 -43.5t-26.5 -44t-27.5 -39t-33 -40t-32 -36t-36 -38.5t-34.5 -36.5l-299 -315v-14h562v-242h-957v187l497 521q35 36 55.5 60t46 60 t37.5 73t12 75q0 76 -55 126t-139 50q-88 0 -141.5 -54.5t-53.5 -131.5v-19h-273z" />
<glyph unicode="3" horiz-adv-x="1233" d="M98 371h264q5 -71 70.5 -117.5t163.5 -46.5q107 -1 172.5 53t64.5 139q-1 83 -64 136.5t-167 53.5h-152v227h145q89 0 146 49.5t57 125.5q-1 76 -58 123.5t-145 47.5t-145 -49t-61 -116h-268q6 176 133.5 284t350.5 109q214 1 343 -99t131 -259q1 -69 -24 -127 t-64.5 -94.5t-81.5 -58.5t-82 -28v-16q50 -5 99 -26.5t93 -59t72 -100t29 -138.5q1 -97 -41 -176t-114.5 -129.5t-167 -77.5t-201.5 -27q-229 0 -361.5 114.5t-136.5 282.5z" />
<glyph unicode="4" horiz-adv-x="1273" d="M95 242v244q55 105 128.5 232.5t116 199t145 239.5t126.5 208h415v-883h164v-240h-164v-242h-271v242h-660zM353 482h402v661h-14q-249 -392 -388 -654v-7z" />
<glyph unicode="5" horiz-adv-x="1255" d="M138 361h263q14 -70 80 -111t152 -41q99 0 169 66.5t70 176.5q0 102 -68.5 166t-169.5 64q-80 0 -134.5 -35.5t-80.5 -81.5h-253l56 800h850v-240h-621l-28 -335h14q26 42 98.5 79.5t176.5 37.5q119 0 217 -50t159.5 -153t61.5 -242q0 -222 -143.5 -355t-377.5 -133 q-215 0 -350.5 110t-140.5 277z" />
<glyph unicode="6" horiz-adv-x="1287" d="M121 654q0 361 147.5 548t407.5 187q109 0 199 -32t146 -84t87.5 -113t34.5 -124h-274q-16 49 -66.5 83.5t-129.5 34.5q-86 0 -150.5 -59.5t-96 -160.5t-27.5 -226h17q36 79 118 132t208 53q83 0 159 -28.5t136.5 -81t97 -137.5t36.5 -190q0 -224 -142 -352.5 t-367 -128.5q-300 0 -438 229q-103 169 -103 450zM431 444q0 -107 65.5 -171t165.5 -64q103 0 167 61.5t64 172.5q0 107 -66 168.5t-164 61.5q-103 0 -167.5 -64t-64.5 -165z" />
<glyph unicode="7" horiz-adv-x="1155" d="M105 1123v242h955v-247l-553 -1118h-304l567 1110v13h-665z" />
<glyph unicode="8" horiz-adv-x="1300" d="M113 376q0 78 26.5 140.5t71 102t92 62.5t98.5 33v13q-102 31 -168 106.5t-66 196.5q0 157 133.5 258.5t350.5 101.5t350 -101.5t133 -258.5q0 -122 -66.5 -197t-167.5 -106v-13q51 -10 99 -33.5t92 -62.5t70.5 -101.5t26.5 -139.5q0 -179 -148 -291t-392 -112 q-243 0 -389 111.5t-146 290.5zM401 398q0 -94 71 -153t179 -59q107 0 178.5 59t71.5 153t-71.5 153.5t-178.5 59.5q-108 0 -179 -59.5t-71 -153.5zM444 994q0 -81 58.5 -133t148.5 -52t148.5 52t58.5 133t-58.5 132t-148.5 51t-148.5 -51t-58.5 -132z" />
<glyph unicode="9" horiz-adv-x="1286" d="M116 917q0 145 67 253.5t182.5 164.5t262.5 56q90 0 167 -22t146 -73t118 -129t77.5 -197t28.5 -270q0 -356 -140.5 -540t-415.5 -184q-108 0 -196 30t-142.5 79.5t-85.5 109t-36 122.5h273q11 -44 63.5 -76t127.5 -32q98 0 163.5 60t93 158t22.5 226h-16 q-29 -78 -112 -130t-207 -52q-88 0 -166.5 29t-140.5 83t-98 140.5t-36 193.5zM394 924q0 -109 65 -171t165 -62q98 0 163 62t65 170q0 109 -64 173.5t-167 64.5q-99 0 -163 -64.5t-64 -172.5z" />
<glyph unicode=":" horiz-adv-x="647" d="M141 158q0 81 52 131t129 50q79 0 131.5 -50t52.5 -131t-52.5 -129.5t-131.5 -48.5q-77 0 -129 49t-52 129zM141 810q0 81 52 131t129 50q79 0 131.5 -50t52.5 -131t-52.5 -129.5t-131.5 -48.5q-77 0 -129 49t-52 129z" />
<glyph unicode=";" horiz-adv-x="644" d="M69 -409l110 647h294l-176 -647h-228zM145 812q0 82 52 131.5t129 49.5q79 0 131.5 -50t52.5 -131q0 -80 -52.5 -129t-131.5 -49q-77 0 -129 49t-52 129z" />
<glyph unicode="&#x3c;" d="M150 439v184l933 512v-292l-607 -300v-13l607 -295v-286z" />
<glyph unicode="=" d="M145 216v231h948v-231h-948zM145 657v231h948v-231h-948z" />
<glyph unicode="&#x3e;" d="M154 -51v286l607 295v13l-607 300v292l933 -512v-184z" />
<glyph unicode="?" horiz-adv-x="1034" d="M65 980q-3 86 21.5 156.5t68.5 117t104 78t126 45.5t138 14q123 0 222 -39.5t162 -125t63 -205.5q0 -63 -16 -113.5t-49 -89.5t-61 -62.5t-74 -55.5q-44 -31 -63 -45t-43.5 -36.5t-33 -40t-15.5 -42.5t-7 -58v-50h-252l-2 53q-15 200 176 328q84 56 119 95.5t35 101.5 q0 77 -51 116t-126 39q-87 0 -134.5 -50.5t-48.5 -130.5h-259zM308 139q0 73 50 117t132 44q84 0 134.5 -44t50.5 -117q0 -72 -50.5 -115.5t-134.5 -43.5q-82 0 -132 44t-50 115z" />
<glyph unicode="@" horiz-adv-x="1769" d="M118 500v51q0 233 100.5 411.5t279 274.5t408.5 96h8q175 0 319.5 -56.5t237 -152.5t143 -220t50.5 -261v-49q0 -204 -97 -332.5t-261 -128.5q-94 0 -163 39.5t-87 106.5h-9q-19 -66 -82.5 -105.5t-147.5 -39.5q-130 0 -205.5 88t-75.5 240v116q0 145 76 232.5t208 87.5 q89 0 142.5 -42t69.5 -99h8v127h190v-499q0 -47 28.5 -73.5t73.5 -26.5q65 0 111 82t46 240v29q0 110 -40 207t-112.5 170t-181.5 115.5t-240 42.5h-9q-272 0 -440.5 -171t-168.5 -456v-38q0 -124 32 -226.5t87.5 -173t131.5 -119t162.5 -70.5t182.5 -22h9q185 0 284 43 v-161q-91 -41 -294 -41h-9q-163 0 -302 50t-242.5 144.5t-162 241t-58.5 328.5zM742 493q0 -189 140 -189q138 0 138 177v83q0 86 -39.5 128t-100.5 42q-63 0 -100.5 -47t-37.5 -140v-54z" />
<glyph unicode="A" horiz-adv-x="1324" d="M39 0l452 1365h344l450 -1365h-308l-100 331h-445l-102 -331h-291zM489 552h332l-159 534h-13z" />
<glyph unicode="B" horiz-adv-x="1318" d="M167 0v1365h581q186 0 297.5 -90t111.5 -245q0 -123 -65.5 -199.5t-171.5 -99.5v-13q129 -11 217 -97t88 -235q0 -180 -132 -283t-343 -103h-583zM454 219h193q284 0 284 189q0 91 -61 143t-175 52h-241v-384zM454 804h172q247 0 247 174q0 78 -51 123t-143 45h-225v-342 z" />
<glyph unicode="C" horiz-adv-x="1338" d="M112 601v160q0 293 152.5 461t427.5 168q236 0 388.5 -135.5t152.5 -350.5v-32h-278q0 116 -71.5 191t-189.5 75q-136 0 -211.5 -99t-75.5 -279v-160q0 -180 74.5 -276.5t212.5 -96.5q119 0 190 71.5t71 183.5h278v-33q0 -210 -153 -342.5t-388 -132.5 q-277 0 -428.5 166.5t-151.5 460.5z" />
<glyph unicode="D" horiz-adv-x="1388" d="M167 0v1365h511q307 0 459.5 -175.5t152.5 -502.5q0 -329 -153.5 -508t-458.5 -179h-511zM457 243h179q184 0 270.5 108t86.5 329q0 222 -87 332.5t-270 110.5h-179v-880z" />
<glyph unicode="E" horiz-adv-x="1185" d="M167 0v1365h891v-243h-604v-321h568v-225h-568v-333h604v-243h-891z" />
<glyph unicode="F" horiz-adv-x="1129" d="M167 0v1365h883v-246h-593v-352h541v-239h-541v-528h-290z" />
<glyph unicode="G" horiz-adv-x="1363" d="M112 603v168q0 280 156.5 449.5t434.5 169.5q125 0 228.5 -38t170.5 -103t105 -149t42 -179h-282q-12 97 -83 158t-185 61q-141 0 -218 -97.5t-77 -274.5v-164q0 -174 75.5 -277t227.5 -103q129 0 199 65.5t70 164.5v72h-267v217h542v-268q0 -102 -34 -191t-99.5 -159 t-172 -110.5t-242.5 -40.5q-147 0 -261 47t-185.5 132t-108 198.5t-36.5 251.5z" />
<glyph unicode="H" horiz-adv-x="1464" d="M167 0v1365h290v-546h550v546h290v-1365h-290v571h-550v-571h-290z" />
<glyph unicode="I" horiz-adv-x="624" d="M167 0v1365h290v-1365h-290z" />
<glyph unicode="J" horiz-adv-x="1135" d="M52 415h278q2 -79 50 -126.5t125 -47.5q183 0 183 203v921h290v-917q0 -230 -124 -352t-346 -122q-112 0 -200.5 36t-143.5 97.5t-83.5 140t-28.5 167.5z" />
<glyph unicode="K" horiz-adv-x="1325" d="M167 0v1365h290v-595h13l501 595h315l-483 -590l503 -775h-346l-369 574l-134 -150v-424h-290z" />
<glyph unicode="L" horiz-adv-x="1077" d="M167 0v1365h290v-1111h569v-254h-859z" />
<glyph unicode="M" horiz-adv-x="1692" d="M170 0v1365h296l376 -827h10l377 827h294v-1365h-261v876h-14l-312 -686h-181l-313 686h-14v-876h-258z" />
<glyph unicode="N" horiz-adv-x="1437" d="M167 0v1365h237l582 -854h12v854h272v-1365h-236l-583 861h-12v-861h-272z" />
<glyph unicode="O" horiz-adv-x="1409" d="M112 598v166q0 292 157.5 459t435.5 167t435 -167.5t157 -458.5v-166q0 -290 -157 -457t-435 -167t-435.5 167t-157.5 457zM407 597q0 -182 81 -278t217 -96q135 0 216 96.5t81 277.5v170q0 182 -81 278.5t-216 96.5q-136 0 -217 -96.5t-81 -278.5v-170z" />
<glyph unicode="P" horiz-adv-x="1259" d="M167 0v1365h556q146 0 253.5 -63.5t160.5 -167.5t53 -234q0 -201 -125 -331t-345 -130h-264v-439h-289zM455 671h208q109 0 171 60t62 169q0 110 -61.5 169.5t-171.5 59.5h-208v-458z" />
<glyph unicode="Q" horiz-adv-x="1413" d="M115 600v162q0 287 159.5 457.5t433.5 170.5t433 -170.5t159 -457.5v-162q0 -311 -186 -480l170 -250h-283l-95 135q-93 -31 -198 -31q-274 0 -433.5 170.5t-159.5 455.5zM399 594q0 -184 80.5 -286t220.5 -106q42 0 75 13l-148 211h261l63 -77q65 94 65 245v171 q0 178 -83 278t-225 100q-143 0 -226 -100t-83 -278v-171z" />
<glyph unicode="R" horiz-adv-x="1322" d="M167 0v1365h556q230 0 358 -119t128 -321q0 -144 -73.5 -245t-173.5 -139l274 -541h-322l-237 497h-225v-497h-285zM452 717h225q109 0 171.5 52t62.5 152q0 102 -63 157.5t-167 55.5h-229v-417z" />
<glyph unicode="S" horiz-adv-x="1269" d="M85 394h278q7 -80 80 -132.5t192 -52.5t183 47t64 124q0 65 -50 102.5t-158 61.5l-205 45q-167 37 -259.5 131.5t-92.5 251.5q0 191 143 305.5t374 114.5q120 0 218 -33.5t161.5 -90t98 -130.5t35.5 -157h-270q-6 78 -70.5 128.5t-173.5 50.5q-105 0 -166 -46.5 t-61 -119.5q0 -112 186 -150l207 -45q85 -18 149.5 -46.5t115.5 -74t77.5 -113t26.5 -155.5q0 -197 -144 -316.5t-403 -119.5q-133 0 -237 34t-167.5 93t-96.5 133.5t-35 159.5z" />
<glyph unicode="T" horiz-adv-x="1136" d="M41 1115v250h1054v-250h-382v-1115h-290v1115h-382z" />
<glyph unicode="U" horiz-adv-x="1419" d="M152 472v893h289v-861q0 -133 72.5 -204t196.5 -71q123 0 195.5 71.5t72.5 203.5v861h290v-893q0 -226 -151.5 -362t-406.5 -136t-406.5 136t-151.5 362z" />
<glyph unicode="V" horiz-adv-x="1314" d="M33 1365h335l291 -1042h14l288 1042h320l-445 -1365h-353z" />
<glyph unicode="W" horiz-adv-x="1815" d="M31 1365h311l195 -956h14l235 956h244l236 -956h14l194 956h310l-357 -1365h-267l-246 909h-11l-247 -909h-267z" />
<glyph unicode="X" horiz-adv-x="1250" d="M19 0l418 687l-415 678h340l271 -474h13l269 474h326l-431 -683l425 -682h-330l-280 464h-13l-280 -464h-313z" />
<glyph unicode="Y" horiz-adv-x="1218" d="M7 1365h319l281 -570h12l281 570h311l-457 -862v-503h-290v496z" />
<glyph unicode="Z" horiz-adv-x="1235" d="M110 0v195l646 911v15h-630v244h980v-195l-644 -910v-16h664v-244h-1016z" />
<glyph unicode="[" horiz-adv-x="770" d="M133 -228v1593h546v-215h-277v-1164h290v-214h-559z" />
<glyph unicode="\" horiz-adv-x="737" d="M13 1437h252l459 -1723h-252z" />
<glyph unicode="]" horiz-adv-x="770" d="M78 -14h290v1164h-278v215h547v-1593h-559v214z" />
<glyph unicode="^" horiz-adv-x="948" d="M62 795l293 570h240l292 -570h-244l-163 339h-11l-163 -339h-244z" />
<glyph unicode="_" horiz-adv-x="908" d="M-1 -103h910v-224h-910v224z" />
<glyph unicode="`" horiz-adv-x="1000" d="M217 1585h248l237 -352h-205z" />
<glyph unicode="a" horiz-adv-x="1157" d="M99 309q0 147 99 233t280 86h256v92q0 70 -44.5 106.5t-122.5 36.5q-143 0 -164 -110h-265q4 68 30 125t76.5 103.5t134 73t193.5 26.5q95 0 172 -20t138.5 -62t95.5 -115.5t34 -172.5v-711h-265v133h-13q-34 -65 -105 -107t-180 -42q-157 0 -253.5 87.5t-96.5 237.5z M378 330q0 -65 48 -100.5t117 -35.5q79 0 135 45t56 114v107h-191q-81 0 -123 -35.5t-42 -94.5z" />
<glyph unicode="b" horiz-adv-x="1257" d="M155 0v1455h282v-559h14q26 83 109.5 132.5t196.5 49.5q185 0 289.5 -127t104.5 -353v-130q0 -226 -105.5 -353.5t-291.5 -127.5q-111 0 -193 47t-114 130h-14v-164h-278zM437 469q0 -113 60 -182.5t157 -69.5q99 0 153.5 71.5t54.5 199.5v85q0 130 -55 202t-155 72 t-157.5 -70t-57.5 -192v-116z" />
<glyph unicode="c" horiz-adv-x="1125" d="M104 478v118q0 223 130 355.5t350 132.5q204 0 323 -109.5t122 -278.5h-258q-6 64 -50.5 111t-128.5 47q-98 0 -151.5 -70t-53.5 -191v-113q0 -127 54 -198t151 -71q163 0 183 150h258q-4 -171 -120.5 -275.5t-329.5 -104.5q-223 0 -351 132.5t-128 364.5z" />
<glyph unicode="d" horiz-adv-x="1258" d="M106 462v142q0 222 107.5 348t290.5 126q111 0 192 -47.5t111 -128.5h13v553h282v-1455h-278v170h-13q-26 -81 -111 -131.5t-199 -50.5q-182 0 -288.5 126t-106.5 348zM395 486q0 -128 56.5 -198t154.5 -70t156 68.5t58 191.5v120q0 115 -60.5 182t-156.5 67t-152 -69.5 t-56 -197.5v-94z" />
<glyph unicode="e" horiz-adv-x="1158" d="M104 477v113q0 119 37 214t102.5 155.5t151.5 92.5t187 32q213 0 344 -133.5t131 -360.5v-120h-677v-50q0 -98 59 -158t156 -60q77 0 129.5 32.5t60.5 82.5h263q-3 -44 -20.5 -88.5t-53.5 -89.5t-86.5 -80t-126.5 -56.5t-165 -21.5q-227 0 -359.5 128.5t-132.5 367.5z M380 640h406v9q0 99 -55.5 159.5t-146.5 60.5q-92 0 -148 -60.5t-56 -159.5v-9z" />
<glyph unicode="f" horiz-adv-x="850" d="M74 829v222h173v106q0 161 86 231.5t285 70.5q96 0 155 -9v-204q-36 6 -99 6q-82 0 -118 -27t-36 -93v-81h238v-222h-232v-829h-279v829h-173z" />
<glyph unicode="g" horiz-adv-x="1234" d="M101 500v97q0 228 109.5 354.5t289.5 126.5q112 0 193 -50.5t109 -127.5h13v165h277v-1052q0 -89 -28.5 -159.5t-75.5 -116t-113.5 -76t-138.5 -43t-153 -12.5q-114 0 -202.5 25.5t-142.5 70.5t-83 100.5t-32 120.5h271q11 -49 63.5 -77t133.5 -28q110 0 165 56t55 161 v152h-14q-31 -74 -109.5 -120.5t-187.5 -46.5q-179 0 -289 126.5t-110 353.5zM390 502q0 -125 59.5 -196.5t156.5 -71.5q95 0 150 69.5t55 182.5v107q0 114 -56 184t-150 70q-99 0 -157 -71t-58 -197v-77z" />
<glyph unicode="h" horiz-adv-x="1262" d="M156 0v1455h281v-576h14q10 33 31.5 65t57.5 64.5t95 52.5t131 20q161 0 256.5 -96t95.5 -278v-707h-281v628q0 108 -52 158t-136 50q-96 0 -154 -67t-58 -180v-589h-281z" />
<glyph unicode="i" horiz-adv-x="622" d="M138 1374q0 69 47.5 111.5t124.5 42.5q78 0 126.5 -42.5t48.5 -111.5t-48 -111t-127 -42q-77 0 -124.5 42t-47.5 111zM171 0v1065h281v-1065h-281z" />
<glyph unicode="j" horiz-adv-x="622" d="M-23 -148q28 -4 57 -4q73 0 105 35t32 110v1072h280v-1075q0 -174 -94 -263t-268 -89q-68 0 -112 7v207zM138 1374q0 69 47.5 111.5t124.5 42.5q78 0 126.5 -42.5t48.5 -111.5t-48 -111t-127 -42q-77 0 -124.5 42t-47.5 111z" />
<glyph unicode="k" horiz-adv-x="1172" d="M154 0v1455h281v-822h13l339 432h316l-381 -459l408 -606h-328l-295 441l-72 -78v-363h-281z" />
<glyph unicode="l" horiz-adv-x="602" d="M160 0v1455h282v-1455h-282z" />
<glyph unicode="m" horiz-adv-x="1843" d="M152 0v1065h274v-178h14q10 34 29 65t52 61.5t87.5 49t122.5 18.5q116 0 191 -55t100 -145h11q30 82 112.5 141t209.5 59q160 0 250.5 -91.5t90.5 -248.5v-741h-281v649q0 97 -47 145t-127 48t-131 -54.5t-51 -150.5v-637h-270v645q0 99 -49 148t-128 49t-129 -52.5 t-50 -150.5v-639h-281z" />
<glyph unicode="n" horiz-adv-x="1256" d="M152 0v1065h274v-186h14q11 35 32.5 67t57.5 64t94.5 51.5t131.5 19.5q164 0 258.5 -95t94.5 -278v-708h-281v628q0 109 -50 158.5t-133 49.5q-99 0 -155.5 -66.5t-56.5 -180.5v-589h-281z" />
<glyph unicode="o" horiz-adv-x="1193" d="M104 483v104q0 224 135.5 360.5t358.5 136.5t357 -134.5t134 -361.5v-104q0 -238 -133 -370.5t-358 -132.5q-228 0 -361 131.5t-133 370.5zM389 481q0 -118 52.5 -197.5t156.5 -79.5q103 0 155 79t52 198v104q0 119 -53 197.5t-154 78.5t-155 -79t-54 -197v-104z" />
<glyph unicode="p" horiz-adv-x="1254" d="M153 -351v1416h278v-169h14q32 85 114 133.5t194 48.5q185 0 289.5 -127t104.5 -353v-130q0 -226 -105.5 -353.5t-291.5 -127.5q-109 0 -187.5 46.5t-113.5 130.5h-14v-515h-282zM435 467q0 -113 58.5 -181.5t155.5 -68.5q99 0 154 71.5t55 200.5v85q0 130 -55 201.5 t-156 71.5q-99 0 -155.5 -69.5t-56.5 -190.5v-120z" />
<glyph unicode="q" horiz-adv-x="1253" d="M106 466v133q0 223 105.5 351t289.5 128q112 0 194.5 -48.5t113.5 -132.5h14v168h278v-1416h-282v517h-14q-30 -83 -112 -131t-194 -48q-183 0 -288 127.5t-105 351.5zM395 485q0 -126 55.5 -197t155.5 -71q99 0 156 69.5t57 190.5v120q0 112 -59.5 180.5t-155.5 68.5 q-98 0 -153.5 -71t-55.5 -196v-94z" />
<glyph unicode="r" horiz-adv-x="863" d="M161 0v1065h282v-168h14q8 30 27 60t49.5 58.5t79 46.5t106.5 18q54 0 88 -8v-252q-31 12 -108 12q-124 0 -186.5 -64.5t-62.5 -175.5v-592h-289z" />
<glyph unicode="s" horiz-adv-x="1089" d="M92 299h273q7 -56 52 -88.5t126 -32.5q88 0 132 33.5t44 86.5q0 16 -4 29t-14 24t-19.5 19t-28 15.5t-31 12t-38 10t-39.5 8t-44 8t-45 8.5q-78 15 -134.5 36.5t-106.5 57t-76 91.5t-26 131q0 87 35 153.5t96.5 105.5t137.5 58t165 19q186 0 299 -83t113 -233h-248 q-6 49 -49.5 84.5t-119.5 35.5q-74 0 -117.5 -32t-43.5 -85q0 -17 5 -31.5t17 -25.5t24 -20t32.5 -16.5t35.5 -12.5t41 -10t40.5 -7.5t42.5 -7t39 -6.5q160 -27 247 -96.5t87 -205.5q0 -164 -122 -257.5t-340 -93.5q-205 0 -321.5 86.5t-116.5 231.5z" />
<glyph unicode="t" horiz-adv-x="842" d="M69 829v222h168v264h273v-264h235v-222h-235v-481q0 -73 35 -102t116 -29q54 0 92 4v-214q-63 -12 -161 -12q-199 0 -280 70.5t-81 236.5v527h-162z" />
<glyph unicode="u" horiz-adv-x="1253" d="M146 350v715h281v-639q0 -109 52 -153.5t132 -44.5q88 0 148.5 57.5t60.5 150.5v629h281v-1065h-274v178h-15q-11 -34 -35 -66t-61 -62t-93 -48t-123 -18q-165 0 -259.5 91t-94.5 275z" />
<glyph unicode="v" horiz-adv-x="1110" d="M38 1065h306l199 -798h11l223 798h296l-370 -1065h-316z" />
<glyph unicode="w" horiz-adv-x="1636" d="M45 1065h295l148 -768h11l191 768h264l195 -768h11l151 768h280l-275 -1065h-293l-197 737h-9l-194 -737h-296z" />
<glyph unicode="x" horiz-adv-x="1146" d="M53 1065h325l193 -345h12l198 345h309l-346 -527l339 -538h-314l-197 347h-11l-198 -347h-298l327 530z" />
<glyph unicode="y" horiz-adv-x="1151" d="M45 1065h310l214 -820h12l219 820h299q-339 -1011 -343 -1024l-27 -72q-30 -82 -64 -139.5t-86.5 -107t-129 -74t-177.5 -24.5q-85 0 -152 12v207q32 -7 88 -7q94 0 136.5 33.5t54.5 101.5l9 31z" />
<glyph unicode="z" horiz-adv-x="1058" d="M110 0v161l497 663v13h-490v228h830v-180l-479 -644v-13h492v-228h-850z" />
<glyph unicode="{" horiz-adv-x="844" d="M108 451v265q93 0 125.5 45t32.5 151v172q0 195 99 276t312 81h100v-211h-41q-117 0 -159.5 -41.5t-42.5 -151.5v-220q0 -107 -49 -158.5t-149 -60.5v-28q198 -18 198 -237v-241q0 -110 42.5 -151.5t159.5 -41.5h41v-211h-100q-212 0 -311.5 84t-99.5 281v202 q0 107 -32.5 151.5t-125.5 44.5z" />
<glyph unicode="|" horiz-adv-x="763" d="M255 -297v1734h253v-1734h-253z" />
<glyph unicode="}" horiz-adv-x="845" d="M68 -101h42q116 0 159 41.5t43 151.5v241q0 219 197 237v28q-99 9 -148 60.5t-49 158.5v220q0 110 -43 151.5t-159 41.5h-42v211h100q213 0 311.5 -81t98.5 -276v-172q0 -106 33 -151t127 -45v-265q-94 0 -127 -45t-33 -151v-202q0 -197 -99 -281t-311 -84h-100v211z" />
<glyph unicode="~" horiz-adv-x="1167" d="M83 509q-8 168 69.5 281t223.5 113q57 0 106.5 -19t84 -45.5t65 -53.5t64 -46t66.5 -19q100 0 108 155h211q5 -176 -72.5 -285t-218.5 -109q-57 0 -106.5 19t-85 45.5t-67 53.5t-65 46t-65.5 19q-53 0 -79 -44.5t-29 -110.5h-210z" />
<glyph unicode="&#xa1;" horiz-adv-x="616" d="M124 947q0 72 50.5 116t134.5 44q82 0 132 -44.5t50 -115.5q0 -72 -50 -116.5t-132 -44.5q-84 0 -134.5 44.5t-50.5 116.5zM153 -279l34 908h243l32 -908h-309z" />
<glyph unicode="&#xa2;" d="M132 617v138q0 103 31 188t84 142.5t121 92t145 44.5v223h212v-226q154 -16 251 -123t100 -248h-253q-6 63 -60 114t-146 51q-105 0 -165.5 -71t-60.5 -185v-141q0 -121 62 -191.5t166 -70.5q92 0 145.5 45t62.5 109h253q-3 -148 -102.5 -249t-252.5 -118v-222h-212v220 q-164 18 -272.5 142.5t-108.5 335.5z" />
<glyph unicode="&#xa3;" d="M105 578v197h173v240q0 173 115 273.5t313 100.5q202 0 315.5 -100t116.5 -289h-264q-2 67 -45 110t-120 43q-82 0 -123.5 -48t-41.5 -126v-204h291v-197h-291l-1 -133q-3 -155 -85 -193v-16h687v-236h-1028v245q78 8 119.5 54t41.5 157v122h-173z" />
<glyph unicode="&#xa4;" d="M98 265l163 161q-64 103 -64 223t61 220l-160 158l142 147l159 -158q100 64 223 64q118 0 220 -62l157 156l142 -147l-157 -156q62 -103 62 -222q0 -122 -65 -225l160 -159l-142 -146l-161 160q-99 -60 -216 -60q-119 0 -219 61l-163 -161zM405 649q0 -88 63.5 -150.5 t153.5 -62.5q89 0 152.5 62.5t63.5 150.5t-63.5 150.5t-152.5 62.5q-90 0 -153.5 -62.5t-63.5 -150.5z" />
<glyph unicode="&#xa5;" d="M17 1365h319l280 -570h12l281 570h311l-380 -707h213v-180h-290v-115h290v-180h-290v-183h-288v183h-285v180h285v115h-285v180h205z" />
<glyph unicode="&#xa6;" horiz-adv-x="763" d="M255 -297v677h253v-677h-253zM255 780v657h253v-657h-253z" />
<glyph unicode="&#xa7;" horiz-adv-x="984" d="M79 77h234q9 -57 54 -92t121 -35q83 0 124 35.5t41 87.5q0 18 -6.5 33.5t-15 27t-26.5 23t-31.5 18.5t-41 16t-44 14t-50 14.5t-50.5 14.5q-67 19 -116 40.5t-94.5 56t-69 85.5t-23.5 118q0 160 166 255v6q-158 92 -158 260q0 107 57 184.5t147.5 114.5t203.5 37 q179 0 285.5 -91t106.5 -238h-231q-3 52 -48.5 91t-119.5 39q-67 0 -108 -34t-41 -88q0 -16 4 -30.5t14.5 -26.5t19.5 -21.5t28 -18.5t31 -15t38 -14l39 -12t43 -12t43 -12q53 -14 91.5 -27.5t82.5 -38t71 -54t45.5 -75t18.5 -101.5q0 -164 -156 -269v-7q70 -41 109 -96 t39 -142q0 -156 -114 -252t-303 -96q-180 0 -294 88t-116 239zM328 573q0 -62 43.5 -94t127.5 -54l39 -9t33 -8q43 20 70.5 61.5t27.5 88.5q0 113 -172 152q-10 2 -31.5 6.5t-31.5 6.5q-43 -18 -74.5 -59.5t-31.5 -90.5z" />
<glyph unicode="&#xa8;" horiz-adv-x="1000" d="M165 1335q0 57 36 92t95 35t95.5 -35t36.5 -92q0 -56 -36.5 -90.5t-95.5 -34.5q-58 0 -94.5 34.5t-36.5 90.5zM573 1335q0 57 36 92t93 35q61 0 97.5 -35t36.5 -92q0 -56 -37 -90.5t-97 -34.5q-57 0 -93 35t-36 90z" />
<glyph unicode="&#xa9;" horiz-adv-x="1693" d="M132 644v103q0 142 54 268t148 218t229 145.5t289 53.5q155 0 290 -54t228.5 -146.5t147.5 -218.5t54 -266v-103q0 -151 -53 -282t-146.5 -224.5t-228.5 -147.5t-292 -54q-209 0 -374 92t-255.5 253.5t-90.5 362.5zM266 642q0 -251 162 -412t424 -161q261 0 424.5 161 t163.5 412v104q0 114 -43.5 215.5t-119.5 176t-186.5 118t-238.5 43.5q-171 0 -305.5 -74t-207.5 -200t-73 -279v-104zM510 632v99q0 155 97.5 243.5t250.5 88.5q140 0 230 -81t92 -192h-175q-4 45 -40.5 79t-105.5 34q-167 0 -167 -178v-94q0 -86 45.5 -128t121.5 -42 q68 0 105.5 26.5t43.5 71.5h174q-2 -110 -89 -186t-235 -76q-154 0 -251 88t-97 247z" />
<glyph unicode="&#xaa;" horiz-adv-x="713" d="M67 930q0 85 58 132.5t175 47.5h145v49q0 66 -89 66q-79 0 -87 -52h-175q4 82 65.5 135.5t200.5 53.5q274 0 274 -209v-395h-180v73h-9q-42 -82 -163 -82q-100 0 -157.5 47.5t-57.5 133.5zM254 944q0 -32 26 -48.5t64 -16.5q42 0 71.5 21t29.5 56v49h-98q-93 2 -93 -61z " />
<glyph unicode="&#xab;" horiz-adv-x="1356" d="M117 557v8l344 404h260l-339 -403v-6l339 -405h-269zM623 557v8l344 404h260l-339 -403v-6l339 -405h-269z" />
<glyph unicode="&#xac;" d="M107 426v234h1018v-575h-244v341h-774z" />
<glyph unicode="&#xad;" horiz-adv-x="840" d="M105 430v261h630v-261h-630z" />
<glyph unicode="&#xae;" horiz-adv-x="1211" d="M100 900v71q0 129 65.5 237t181.5 170.5t257 62.5q140 0 256 -63t181.5 -171t65.5 -236v-71q0 -210 -142 -348t-361 -138t-361.5 138t-142.5 348zM214 901q0 -161 110.5 -269t279.5 -108t280 108t111 269v68q0 151 -112 257t-279 106q-168 0 -279 -105.5t-111 -257.5v-68 zM410 698v483h241q77 0 124 -44.5t47 -112.5q0 -53 -27 -92t-68 -51l110 -183h-133l-95 169h-79v-169h-120zM530 958h78q88 0 88 66q0 30 -21 47t-59 17h-86v-130z" />
<glyph unicode="&#xaf;" horiz-adv-x="1000" d="M180 1239v147h634v-147h-634z" />
<glyph unicode="&#xb0;" horiz-adv-x="711" d="M57 1088q0 127 86 213.5t213 86.5q126 0 212 -86.5t86 -213.5t-86.5 -214t-211.5 -87q-126 0 -212.5 87t-86.5 214zM223 1088q0 -54 39.5 -93.5t94.5 -39.5t93.5 39.5t38.5 93.5q0 55 -38.5 93.5t-93.5 38.5t-94.5 -38.5t-39.5 -93.5z" />
<glyph unicode="&#xb1;" d="M133 640v221h361v224h243v-224h365v-221h-365v-241h-243v241h-361zM135 57v229h969v-229h-969z" />
<glyph unicode="&#xb2;" horiz-adv-x="699" d="M82 1147v13q0 89 67 155.5t196 66.5q117 0 187.5 -56.5t70.5 -144.5q0 -37 -12.5 -71.5t-37 -65t-37 -43t-37.5 -34.5l-132 -111v-5h266v-153h-514v120l243 228q75 70 75 117q0 30 -22 49.5t-55 19.5q-35 0 -56 -21t-21 -50v-14h-181z" />
<glyph unicode="&#xb3;" horiz-adv-x="712" d="M78 901h175q1 -31 24.5 -51t65.5 -20q43 0 69.5 20t26.5 51q0 30 -24.5 49t-67.5 19h-77v140h75q39 0 61 19t22 48t-23 47t-60 18q-40 0 -61.5 -21t-23.5 -52h-175q4 99 72.5 156.5t192.5 57.5q117 0 186.5 -49.5t69.5 -130.5q0 -60 -38 -100t-90 -51v-7q65 -7 106.5 -46 t41.5 -108q0 -99 -80 -152t-196 -53q-132 0 -201.5 63t-70.5 153z" />
<glyph unicode="&#xb4;" horiz-adv-x="1000" d="M273 1233l237 352h248l-280 -352h-205z" />
<glyph unicode="&#xb5;" horiz-adv-x="1342" d="M154 -351v1416h281v-627q0 -99 47.5 -154.5t135.5 -55.5q93 0 149 60t56 150v627h281v-732q0 -67 18.5 -93t67.5 -26q24 0 50 6v-213q-56 -15 -129 -15q-100 0 -163 42t-79 124l-3 16h-15q-56 -190 -238 -190q-109 0 -163 72h-14v-407h-282z" />
<glyph unicode="&#xb6;" horiz-adv-x="1474" d="M117 899q0 99 29 180t76 133t109.5 87.5t126.5 50.5t130 15h285v-1575h-266v640h-20q-64 0 -129.5 18t-127 56.5t-109 92.5t-76 132.5t-28.5 169.5zM1036 -210v1575h266v-1575h-266z" />
<glyph unicode="&#xb7;" horiz-adv-x="661" d="M149 779q0 82 51.5 131.5t129.5 49.5q79 0 131 -50t52 -131t-52 -129.5t-131 -48.5q-77 0 -129 49t-52 129z" />
<glyph unicode="&#xb8;" horiz-adv-x="1000" d="M343 -338q47 -14 111 -14q109 0 109 58q0 34 -30 46t-98 12h-55v108l51 133h162l-48 -120q88 0 140 -45t52 -124q0 -99 -66.5 -147.5t-181.5 -50.5q-84 -1 -146 16v128z" />
<glyph unicode="&#xb9;" horiz-adv-x="614" d="M104 1086v166l164 113h192v-667h-192v494h-9z" />
<glyph unicode="&#xba;" horiz-adv-x="725" d="M65 1028v51q0 127 81 205t217 78t216.5 -77t80.5 -206v-51q0 -136 -79.5 -211t-217.5 -75q-139 0 -218.5 75t-79.5 211zM251 1025q0 -62 27 -102t85 -40q57 0 83.5 40t26.5 102v55q0 62 -27.5 101.5t-82.5 39.5q-56 0 -84 -39.5t-28 -101.5v-55z" />
<glyph unicode="&#xbb;" horiz-adv-x="1356" d="M129 155l339 405v6l-339 403h260l344 -404v-8l-335 -402h-269zM635 155l339 405v6l-339 403h260l344 -404v-8l-335 -402h-269z" />
<glyph unicode="&#xbc;" horiz-adv-x="1610" d="M121 1086v166l164 113h192v-667h-192v494h-9zM158 -1l558 720l494 646h209l-549 -706l-503 -660h-209zM907 103v140q90 167 245 421h257v-421h81v-140h-81v-103h-170v103h-332zM1071 243h168v285h-8q-82 -131 -160 -283v-2z" />
<glyph unicode="&#xbd;" horiz-adv-x="1642" d="M121 1086v166l164 113h192v-667h-192v494h-9zM158 -1l558 720l494 646h209l-549 -706l-503 -660h-209zM987 442v13q0 41 15.5 79.5t46 71.5t83.5 53t120 20q119 0 190 -57t71 -146q0 -31 -10.5 -61.5t-21.5 -50.5t-33.5 -45t-31 -33t-28.5 -26l-133 -112v-5h268v-154 h-519v121l245 230q22 20 35.5 34.5t27 38.5t13.5 45q0 30 -22.5 50t-55.5 20q-35 0 -56 -21.5t-21 -50.5v-14h-183z" />
<glyph unicode="&#xbe;" horiz-adv-x="1662" d="M121 890h176q1 -32 24.5 -52t66.5 -20t69.5 20.5t26.5 51.5q0 30 -24.5 49t-67.5 19h-78v141h76q38 0 60.5 19.5t22.5 48.5t-23 47t-60 18q-41 0 -62.5 -21t-23.5 -52h-176q3 100 72.5 157.5t194.5 57.5q118 0 188 -49.5t70 -131.5q0 -61 -38.5 -101t-90.5 -51v-7 q65 -8 107 -47t42 -108q0 -68 -40.5 -116t-102 -69.5t-135.5 -21.5q-68 0 -122 18.5t-86 49.5t-49 69.5t-17 80.5zM210 -1l558 720l494 646h209l-549 -706l-503 -660h-209zM959 103v140q90 167 245 421h259v-420h79v-141h-79v-103h-171v103h-333zM1123 244h169v284h-9 q-76 -122 -160 -282v-2z" />
<glyph unicode="&#xbf;" horiz-adv-x="1034" d="M64 57q0 62 16 112.5t49 90t61 63.5t74 55q99 68 130.5 107t31.5 115v50h252l2 -53q15 -200 -176 -328q-44 -30 -65 -46t-45.5 -41t-34 -51t-9.5 -59q0 -77 51 -116.5t126 -39.5q87 0 134.5 50.5t48.5 131.5h259q4 -107 -34 -189t-105 -129t-147.5 -70.5t-171.5 -23.5 t-171 23.5t-142 68t-98 116.5t-36 163zM359 939q0 71 50.5 115t134.5 44q82 0 132 -44t50 -115q0 -73 -50 -117.5t-132 -44.5q-84 0 -134.5 44.5t-50.5 117.5z" />
<glyph unicode="&#xc0;" horiz-adv-x="1324" d="M39 0l452 1365h344l450 -1365h-308l-100 331h-445l-102 -331h-291zM300 1837h241l236 -335h-195zM489 552h332l-159 534h-13z" />
<glyph unicode="&#xc1;" horiz-adv-x="1324" d="M39 0l452 1365h344l450 -1365h-308l-100 331h-445l-102 -331h-291zM489 552h332l-159 534h-13zM547 1502l236 335h241l-282 -335h-195z" />
<glyph unicode="&#xc2;" horiz-adv-x="1324" d="M39 0l452 1365h344l450 -1365h-308l-100 331h-445l-102 -331h-291zM296 1488l272 249h191l262 -249h-223l-131 125h-10l-140 -125h-221zM489 552h332l-159 534h-13z" />
<glyph unicode="&#xc3;" horiz-adv-x="1324" d="M39 0l452 1365h344l450 -1365h-308l-100 331h-445l-102 -331h-291zM340 1474q0 92 51 160.5t148 68.5q45 0 85.5 -17.5t64 -38t51.5 -38t52 -17.5q34 0 51.5 27t18.5 68h139q0 -98 -57 -163t-151 -65q-46 0 -85 17.5t-60.5 38t-47.5 38t-50 17.5q-34 0 -51.5 -29 t-19.5 -67h-139zM489 552h332l-159 534h-13z" />
<glyph unicode="&#xc4;" horiz-adv-x="1324" d="M39 0l452 1365h344l450 -1365h-308l-100 331h-445l-102 -331h-291zM342 1579q0 54 34 87t90 33q57 0 91 -33t34 -87t-34 -87t-91 -33q-55 0 -89.5 33.5t-34.5 86.5zM489 552h332l-159 534h-13zM733 1579q0 54 33.5 87t89.5 33q58 0 92.5 -33t34.5 -87t-34.5 -87 t-92.5 -33q-56 0 -89.5 33t-33.5 87z" />
<glyph unicode="&#xc5;" horiz-adv-x="1324" d="M39 0l452 1365h344l450 -1365h-308l-100 331h-445l-102 -331h-291zM443 1680q0 93 62.5 153t156.5 60t156.5 -60t62.5 -153q0 -94 -62.5 -154.5t-156.5 -60.5q-93 0 -156 60.5t-63 154.5zM489 552h332l-159 534h-13zM569 1679q0 -40 26.5 -66t66.5 -26t66 26t26 66 q0 39 -26 65t-66 26t-66.5 -26t-26.5 -65z" />
<glyph unicode="&#xc6;" horiz-adv-x="1952" d="M33 0l657 1365h1135v-242h-601v-322h565v-225h-565v-333h601v-243h-887v318h-426l-161 -318h-318zM606 547l332 1v575h-67z" />
<glyph unicode="&#xc7;" horiz-adv-x="1338" d="M112 601v160q0 294 153.5 461.5t424.5 167.5q124 0 227 -38t171.5 -104t106.5 -154.5t38 -189.5v-32h-278q0 111 -70 188.5t-193 77.5q-132 0 -208.5 -97.5t-76.5 -280.5v-160q0 -184 76 -278.5t211 -94.5q124 0 192.5 72.5t68.5 182.5h278v-33q0 -118 -53 -218 t-161.5 -169t-255.5 -83l-37 -94q88 0 140 -45t52 -124q0 -99 -66.5 -147.5t-181.5 -50.5q-84 -1 -146 16v128q47 -14 111 -14q109 0 109 58q0 34 -30 46t-98 12h-55v108l41 107q-233 26 -361.5 188.5t-128.5 433.5z" />
<glyph unicode="&#xc8;" horiz-adv-x="1185" d="M167 0v1365h891v-243h-604v-321h568v-225h-568v-333h604v-243h-891zM242 1837h241l236 -335h-195z" />
<glyph unicode="&#xc9;" horiz-adv-x="1185" d="M167 0v1365h891v-243h-604v-321h568v-225h-568v-333h604v-243h-891zM489 1502l236 335h241l-282 -335h-195z" />
<glyph unicode="&#xca;" horiz-adv-x="1185" d="M167 0v1365h891v-243h-604v-321h568v-225h-568v-333h604v-243h-891zM238 1488l272 249h191l262 -249h-223l-131 125h-10l-140 -125h-221z" />
<glyph unicode="&#xcb;" horiz-adv-x="1185" d="M167 0v1365h891v-243h-604v-321h568v-225h-568v-333h604v-243h-891zM283 1579q0 54 34 87t90 33q57 0 91 -33t34 -87t-34 -87t-91 -33q-55 0 -89.5 33.5t-34.5 86.5zM674 1579q0 54 33.5 87t89.5 33q58 0 92.5 -33t34.5 -87t-34.5 -87t-92.5 -33q-56 0 -89.5 33t-33.5 87 z" />
<glyph unicode="&#xcc;" horiz-adv-x="624" d="M-50 1837h241l236 -335h-195zM167 0v1365h290v-1365h-290z" />
<glyph unicode="&#xcd;" horiz-adv-x="624" d="M167 0v1365h290v-1365h-290zM197 1502l236 335h241l-282 -335h-195z" />
<glyph unicode="&#xce;" horiz-adv-x="624" d="M-54 1488l272 249h191l262 -249h-223l-131 125h-10l-140 -125h-221zM167 0v1365h290v-1365h-290z" />
<glyph unicode="&#xcf;" horiz-adv-x="624" d="M-8 1579q0 54 34 87t90 33q57 0 91 -33t34 -87t-34 -87t-91 -33q-55 0 -89.5 33.5t-34.5 86.5zM167 0v1365h290v-1365h-290zM383 1579q0 54 33.5 87t89.5 33q58 0 92.5 -33t34.5 -87t-34.5 -87t-92.5 -33q-56 0 -89.5 33t-33.5 87z" />
<glyph unicode="&#xd0;" horiz-adv-x="1478" d="M92 560v263h165v542h511q307 0 459.5 -175.5t152.5 -502.5q0 -329 -153.5 -508t-458.5 -179h-511v560h-165zM546 249h179q184 0 270 103.5t86 333.5q0 231 -86.5 337t-269.5 106h-179v-306h235v-263h-235v-311z" />
<glyph unicode="&#xd1;" horiz-adv-x="1437" d="M167 0v1365h237l582 -854h12v854h272v-1365h-236l-583 861h-12v-861h-272zM396 1474q0 92 51 160.5t148 68.5q45 0 85.5 -17.5t64 -38t51.5 -38t52 -17.5q34 0 51.5 27t18.5 68h139q0 -98 -57 -163t-151 -65q-46 0 -85 17.5t-60.5 38t-47.5 38t-50 17.5q-34 0 -51.5 -29 t-19.5 -67h-139z" />
<glyph unicode="&#xd2;" horiz-adv-x="1409" d="M112 598v166q0 292 157.5 459t435.5 167t435 -167.5t157 -458.5v-166q0 -290 -157 -457t-435 -167t-435.5 167t-157.5 457zM342 1837h241l236 -335h-195zM407 597q0 -182 81 -278t217 -96q135 0 216 96.5t81 277.5v170q0 182 -81 278.5t-216 96.5q-136 0 -217 -96.5 t-81 -278.5v-170z" />
<glyph unicode="&#xd3;" horiz-adv-x="1409" d="M112 598v166q0 292 157.5 459t435.5 167t435 -167.5t157 -458.5v-166q0 -290 -157 -457t-435 -167t-435.5 167t-157.5 457zM407 597q0 -182 81 -278t217 -96q135 0 216 96.5t81 277.5v170q0 182 -81 278.5t-216 96.5q-136 0 -217 -96.5t-81 -278.5v-170zM589 1502 l236 335h241l-282 -335h-195z" />
<glyph unicode="&#xd4;" horiz-adv-x="1409" d="M112 598v166q0 292 157.5 459t435.5 167t435 -167.5t157 -458.5v-166q0 -290 -157 -457t-435 -167t-435.5 167t-157.5 457zM338 1488l272 249h191l262 -249h-223l-131 125h-10l-140 -125h-221zM407 597q0 -182 81 -278t217 -96q135 0 216 96.5t81 277.5v170 q0 182 -81 278.5t-216 96.5q-136 0 -217 -96.5t-81 -278.5v-170z" />
<glyph unicode="&#xd5;" horiz-adv-x="1409" d="M112 598v166q0 292 157.5 459t435.5 167t435 -167.5t157 -458.5v-166q0 -290 -157 -457t-435 -167t-435.5 167t-157.5 457zM382 1474q0 92 51 160.5t148 68.5q45 0 85.5 -17.5t64 -38t51.5 -38t52 -17.5q34 0 51.5 27t18.5 68h139q0 -98 -57 -163t-151 -65 q-46 0 -85 17.5t-60.5 38t-47.5 38t-50 17.5q-34 0 -51.5 -29t-19.5 -67h-139zM407 597q0 -182 81 -278t217 -96q135 0 216 96.5t81 277.5v170q0 182 -81 278.5t-216 96.5q-136 0 -217 -96.5t-81 -278.5v-170z" />
<glyph unicode="&#xd6;" horiz-adv-x="1409" d="M112 598v166q0 292 157.5 459t435.5 167t435 -167.5t157 -458.5v-166q0 -290 -157 -457t-435 -167t-435.5 167t-157.5 457zM384 1579q0 54 34 87t90 33q57 0 91 -33t34 -87t-34 -87t-91 -33q-55 0 -89.5 33.5t-34.5 86.5zM407 597q0 -182 81 -278t217 -96q135 0 216 96.5 t81 277.5v170q0 182 -81 278.5t-216 96.5q-136 0 -217 -96.5t-81 -278.5v-170zM775 1579q0 54 33.5 87t89.5 33q58 0 92.5 -33t34.5 -87t-34.5 -87t-92.5 -33q-56 0 -89.5 33t-33.5 87z" />
<glyph unicode="&#xd7;" d="M144 239l302 302l-302 301l172 181l303 -302l302 302l172 -181l-302 -301l302 -302l-172 -181l-302 302l-303 -302z" />
<glyph unicode="&#xd8;" horiz-adv-x="1409" d="M102 74l111 136q-101 153 -101 385v166q0 292 158 460.5t435 168.5q226 0 372 -114l88 107l130 -98l-105 -127q107 -159 107 -397v-166q0 -289 -158 -455t-436 -166q-229 0 -376 116l-99 -121zM399 591q0 -73 18 -121l494 595q-80 83 -208 83q-138 0 -221 -99.5 t-83 -283.5v-174zM490 299q79 -85 213 -85q139 0 222 96.5t83 280.5v174q0 78 -21 132z" />
<glyph unicode="&#xd9;" horiz-adv-x="1419" d="M152 472v893h289v-861q0 -133 72.5 -204t196.5 -71q123 0 195.5 71.5t72.5 203.5v861h290v-893q0 -226 -151.5 -362t-406.5 -136t-406.5 136t-151.5 362zM348 1837h241l236 -335h-195z" />
<glyph unicode="&#xda;" horiz-adv-x="1419" d="M152 472v893h289v-861q0 -133 72.5 -204t196.5 -71q123 0 195.5 71.5t72.5 203.5v861h290v-893q0 -226 -151.5 -362t-406.5 -136t-406.5 136t-151.5 362zM595 1502l236 335h241l-282 -335h-195z" />
<glyph unicode="&#xdb;" horiz-adv-x="1419" d="M152 472v893h289v-861q0 -133 72.5 -204t196.5 -71q123 0 195.5 71.5t72.5 203.5v861h290v-893q0 -226 -151.5 -362t-406.5 -136t-406.5 136t-151.5 362zM344 1488l272 249h191l262 -249h-223l-131 125h-10l-140 -125h-221z" />
<glyph unicode="&#xdc;" horiz-adv-x="1419" d="M152 472v893h289v-861q0 -133 72.5 -204t196.5 -71q123 0 195.5 71.5t72.5 203.5v861h290v-893q0 -226 -151.5 -362t-406.5 -136t-406.5 136t-151.5 362zM389 1579q0 54 34 87t90 33q57 0 91 -33t34 -87t-34 -87t-91 -33q-55 0 -89.5 33.5t-34.5 86.5zM780 1579 q0 54 33.5 87t89.5 33q58 0 92.5 -33t34.5 -87t-34.5 -87t-92.5 -33q-56 0 -89.5 33t-33.5 87z" />
<glyph unicode="&#xdd;" horiz-adv-x="1218" d="M7 1365h319l281 -570h12l281 570h311l-457 -862v-503h-290v496zM493 1502l236 335h241l-282 -335h-195z" />
<glyph unicode="&#xde;" horiz-adv-x="1257" d="M167 0v1365h289v-220h257q223 0 345 -125.5t122 -321.5q0 -197 -122.5 -319.5t-347.5 -122.5h-254v-256h-289zM455 487h198q113 0 173 53.5t60 157.5q0 105 -60 158.5t-173 53.5h-198v-423z" />
<glyph unicode="&#xdf;" horiz-adv-x="1375" d="M162 0v1048q0 80 25.5 146t70 112.5t107 78.5t135.5 47t156 15q222 1 356.5 -101t133.5 -262q0 -68 -22 -127t-57 -97.5t-75.5 -62.5t-80.5 -31v-16q68 -1 131.5 -24.5t115.5 -67t83.5 -113.5t31.5 -156q0 -80 -26 -147.5t-71.5 -114.5t-108 -79.5t-134.5 -48t-152 -15.5 q-110 0 -180 18v230q53 -20 134 -20q110 0 180 48.5t70 144.5t-78 147t-203 51h-79v240h47q79 0 139 53t60 135q0 80 -55 131t-154 51q-217 0 -217 -226v-987h-283z" />
<glyph unicode="&#xe0;" horiz-adv-x="1157" d="M99 309q0 147 99 233t280 86h256v92q0 70 -44.5 106.5t-122.5 36.5q-143 0 -164 -110h-265q4 68 30 125t76.5 103.5t134 73t193.5 26.5q95 0 172 -20t138.5 -62t95.5 -115.5t34 -172.5v-711h-265v133h-13q-34 -65 -105 -107t-180 -42q-157 0 -253.5 87.5t-96.5 237.5z M220 1585h248l237 -352h-205zM378 330q0 -65 48 -100.5t117 -35.5q79 0 135 45t56 114v107h-191q-81 0 -123 -35.5t-42 -94.5z" />
<glyph unicode="&#xe1;" horiz-adv-x="1157" d="M99 309q0 147 99 233t280 86h256v92q0 70 -44.5 106.5t-122.5 36.5q-143 0 -164 -110h-265q4 68 30 125t76.5 103.5t134 73t193.5 26.5q95 0 172 -20t138.5 -62t95.5 -115.5t34 -172.5v-711h-265v133h-13q-34 -65 -105 -107t-180 -42q-157 0 -253.5 87.5t-96.5 237.5z M378 330q0 -65 48 -100.5t117 -35.5q79 0 135 45t56 114v107h-191q-81 0 -123 -35.5t-42 -94.5zM460 1233l237 352h248l-280 -352h-205z" />
<glyph unicode="&#xe2;" horiz-adv-x="1157" d="M99 309q0 147 99 233t280 86h256v92q0 70 -44.5 106.5t-122.5 36.5q-143 0 -164 -110h-265q4 68 30 125t76.5 103.5t134 73t193.5 26.5q95 0 172 -20t138.5 -62t95.5 -115.5t34 -172.5v-711h-265v133h-13q-34 -65 -105 -107t-180 -42q-157 0 -253.5 87.5t-96.5 237.5z M227 1224l251 350h201l250 -350h-216l-129 206h-11l-129 -206h-217zM378 330q0 -65 48 -100.5t117 -35.5q79 0 135 45t56 114v107h-191q-81 0 -123 -35.5t-42 -94.5z" />
<glyph unicode="&#xe3;" horiz-adv-x="1157" d="M99 309q0 147 99 233t280 86h256v92q0 70 -44.5 106.5t-122.5 36.5q-143 0 -164 -110h-265q4 68 30 125t76.5 103.5t134 73t193.5 26.5q95 0 172 -20t138.5 -62t95.5 -115.5t34 -172.5v-711h-265v133h-13q-34 -65 -105 -107t-180 -42q-157 0 -253.5 87.5t-96.5 237.5z M251 1236q0 119 53 197t156 78q47 0 85.5 -19.5t59.5 -42.5t46.5 -42.5t48.5 -19.5q62 0 66 111h151q0 -117 -55.5 -196.5t-153.5 -79.5q-36 0 -66 13t-50.5 31t-38.5 36t-38 31t-41 13q-66 0 -72 -110h-151zM378 330q0 -65 48 -100.5t117 -35.5q79 0 135 45t56 114v107 h-191q-81 0 -123 -35.5t-42 -94.5z" />
<glyph unicode="&#xe4;" horiz-adv-x="1157" d="M99 309q0 147 99 233t280 86h256v92q0 70 -44.5 106.5t-122.5 36.5q-143 0 -164 -110h-265q4 68 30 125t76.5 103.5t134 73t193.5 26.5q95 0 172 -20t138.5 -62t95.5 -115.5t34 -172.5v-711h-265v133h-13q-34 -65 -105 -107t-180 -42q-157 0 -253.5 87.5t-96.5 237.5z M243 1335q0 57 36 92t95 35t95.5 -35t36.5 -92q0 -56 -36.5 -90.5t-95.5 -34.5q-58 0 -94.5 34.5t-36.5 90.5zM378 330q0 -65 48 -100.5t117 -35.5q79 0 135 45t56 114v107h-191q-81 0 -123 -35.5t-42 -94.5zM651 1335q0 57 36 92t93 35q61 0 97.5 -35t36.5 -92 q0 -56 -37 -90.5t-97 -34.5q-57 0 -93 35t-36 90z" />
<glyph unicode="&#xe5;" horiz-adv-x="1157" d="M99 309q0 147 99 233t280 86h256v92q0 70 -44.5 106.5t-122.5 36.5q-143 0 -164 -110h-265q4 68 30 125t76.5 103.5t134 73t193.5 26.5q95 0 172 -20t138.5 -62t95.5 -115.5t34 -172.5v-711h-265v133h-13q-34 -65 -105 -107t-180 -42q-157 0 -253.5 87.5t-96.5 237.5z M359 1431q0 93 62.5 153t156.5 60t156.5 -60t62.5 -153q0 -94 -62.5 -154.5t-156.5 -60.5q-93 0 -156 60.5t-63 154.5zM378 330q0 -65 48 -100.5t117 -35.5q79 0 135 45t56 114v107h-191q-81 0 -123 -35.5t-42 -94.5zM485 1430q0 -40 26.5 -66t66.5 -26t66 26t26 66 q0 39 -26 65t-66 26t-66.5 -26t-26.5 -65z" />
<glyph unicode="&#xe6;" horiz-adv-x="1803" d="M97 308q0 148 100.5 234t283.5 86h254v92q0 70 -44.5 106t-122.5 36q-74 0 -116 -29.5t-51 -79.5h-265q4 67 31 125t77.5 104.5t135 73.5t194.5 27q105 0 193.5 -34.5t134.5 -91.5h16q45 58 129 92t183 34q212 0 341.5 -133t129.5 -360v-120h-673v-63q0 -92 60.5 -148.5 t154.5 -56.5q77 0 127 32.5t58 82.5h264q-4 -56 -31.5 -112t-78.5 -107.5t-139 -84t-199 -32.5q-150 0 -249 52t-143 141h-16q-47 -82 -140 -137.5t-225 -55.5q-172 0 -273 87t-101 240zM374 330q0 -65 50 -101t120 -36q79 0 135 45t56 114v108h-189q-81 0 -126.5 -36 t-45.5 -94zM1028 640h401v13q0 99 -53 158t-144 59q-88 0 -146 -59.5t-58 -152.5v-18z" />
<glyph unicode="&#xe7;" horiz-adv-x="1125" d="M104 478v118q0 221 129 354.5t351 133.5q205 0 323.5 -110t121.5 -278h-258q-6 64 -50.5 112t-128.5 48q-97 0 -151 -71t-54 -192v-113q0 -127 54.5 -197t150.5 -70q162 0 183 148h258q-3 -158 -98.5 -256t-263.5 -118l-40 -102q88 0 140 -45t52 -124q0 -98 -66.5 -147 t-181.5 -51q-87 -1 -146 16v128q47 -14 111 -14q109 0 109 58q0 34 -30.5 46t-98.5 12h-55v108l44 114q-189 21 -297 149.5t-108 342.5z" />
<glyph unicode="&#xe8;" horiz-adv-x="1158" d="M104 477v113q0 119 37 214t102.5 155.5t151.5 92.5t187 32q213 0 344 -133.5t131 -360.5v-120h-677v-50q0 -98 59 -158t156 -60q77 0 129.5 32.5t60.5 82.5h263q-3 -44 -20.5 -88.5t-53.5 -89.5t-86.5 -80t-126.5 -56.5t-165 -21.5q-227 0 -359.5 128.5t-132.5 367.5z M221 1585h248l237 -352h-205zM380 640h406v9q0 99 -55.5 159.5t-146.5 60.5q-92 0 -148 -60.5t-56 -159.5v-9z" />
<glyph unicode="&#xe9;" horiz-adv-x="1158" d="M104 477v113q0 119 37 214t102.5 155.5t151.5 92.5t187 32q213 0 344 -133.5t131 -360.5v-120h-677v-50q0 -98 59 -158t156 -60q77 0 129.5 32.5t60.5 82.5h263q-3 -44 -20.5 -88.5t-53.5 -89.5t-86.5 -80t-126.5 -56.5t-165 -21.5q-227 0 -359.5 128.5t-132.5 367.5z M380 640h406v9q0 99 -55.5 159.5t-146.5 60.5q-92 0 -148 -60.5t-56 -159.5v-9zM461 1233l237 352h248l-280 -352h-205z" />
<glyph unicode="&#xea;" horiz-adv-x="1158" d="M104 477v113q0 119 37 214t102.5 155.5t151.5 92.5t187 32q213 0 344 -133.5t131 -360.5v-120h-677v-50q0 -98 59 -158t156 -60q77 0 129.5 32.5t60.5 82.5h263q-3 -44 -20.5 -88.5t-53.5 -89.5t-86.5 -80t-126.5 -56.5t-165 -21.5q-227 0 -359.5 128.5t-132.5 367.5z M228 1224l251 350h201l250 -350h-216l-129 206h-11l-129 -206h-217zM380 640h406v9q0 99 -55.5 159.5t-146.5 60.5q-92 0 -148 -60.5t-56 -159.5v-9z" />
<glyph unicode="&#xeb;" horiz-adv-x="1158" d="M104 477v113q0 119 37 214t102.5 155.5t151.5 92.5t187 32q213 0 344 -133.5t131 -360.5v-120h-677v-50q0 -98 59 -158t156 -60q77 0 129.5 32.5t60.5 82.5h263q-3 -44 -20.5 -88.5t-53.5 -89.5t-86.5 -80t-126.5 -56.5t-165 -21.5q-227 0 -359.5 128.5t-132.5 367.5z M244 1335q0 57 36 92t95 35t95.5 -35t36.5 -92q0 -56 -36.5 -90.5t-95.5 -34.5q-58 0 -94.5 34.5t-36.5 90.5zM380 640h406v9q0 99 -55.5 159.5t-146.5 60.5q-92 0 -148 -60.5t-56 -159.5v-9zM652 1335q0 57 36 92t93 35q61 0 97.5 -35t36.5 -92q0 -56 -37 -90.5t-97 -34.5 q-57 0 -93 35t-36 90z" />
<glyph unicode="&#xec;" horiz-adv-x="622" d="M-47 1585h248l237 -352h-205zM171 0v1065h281v-1065h-281z" />
<glyph unicode="&#xed;" horiz-adv-x="622" d="M171 0v1065h281v-1065h-281zM193 1233l237 352h248l-280 -352h-205z" />
<glyph unicode="&#xee;" horiz-adv-x="622" d="M-40 1224l251 350h201l250 -350h-216l-129 206h-11l-129 -206h-217zM171 0v1065h281v-1065h-281z" />
<glyph unicode="&#xef;" horiz-adv-x="622" d="M-24 1335q0 57 36 92t95 35t95.5 -35t36.5 -92q0 -56 -36.5 -90.5t-95.5 -34.5q-58 0 -94.5 34.5t-36.5 90.5zM171 0v1065h281v-1065h-281zM384 1335q0 57 36 92t93 35q61 0 97.5 -35t36.5 -92q0 -56 -37 -90.5t-97 -34.5q-57 0 -93 35t-36 90z" />
<glyph unicode="&#xf0;" horiz-adv-x="1193" d="M104 492v39q0 227 111.5 365.5t308.5 138.5q159 0 232 -94h14q-7 23 -20 55q-46 114 -131 216l-259 -102l-57 135l210 81q-111 113 -232 210h329q66 -45 135 -113l255 98l55 -133l-199 -75q233 -296 233 -701v-108q0 -242 -127 -382.5t-365 -140.5q-234 0 -363.5 136 t-129.5 375zM383 485q0 -133 57 -203.5t158 -70.5t158 71.5t57 204.5v55q0 133 -57 202.5t-158 69.5t-158 -69.5t-57 -201.5v-58z" />
<glyph unicode="&#xf1;" horiz-adv-x="1256" d="M152 0v1065h274v-186h14q11 35 32.5 67t57.5 64t94.5 51.5t131.5 19.5q164 0 258.5 -95t94.5 -278v-708h-281v628q0 109 -50 158.5t-133 49.5q-99 0 -155.5 -66.5t-56.5 -180.5v-589h-281zM301 1236q0 119 53 197t156 78q47 0 85.5 -19.5t59.5 -42.5t46.5 -42.5 t48.5 -19.5q62 0 66 111h151q0 -117 -55.5 -196.5t-153.5 -79.5q-36 0 -66 13t-50.5 31t-38.5 36t-38 31t-41 13q-66 0 -72 -110h-151z" />
<glyph unicode="&#xf2;" horiz-adv-x="1193" d="M104 483v104q0 224 135.5 360.5t358.5 136.5t357 -134.5t134 -361.5v-104q0 -238 -133 -370.5t-358 -132.5q-228 0 -361 131.5t-133 370.5zM239 1585h248l237 -352h-205zM389 481q0 -118 52.5 -197.5t156.5 -79.5q103 0 155 79t52 198v104q0 119 -53 197.5t-154 78.5 t-155 -79t-54 -197v-104z" />
<glyph unicode="&#xf3;" horiz-adv-x="1193" d="M104 483v104q0 224 135.5 360.5t358.5 136.5t357 -134.5t134 -361.5v-104q0 -238 -133 -370.5t-358 -132.5q-228 0 -361 131.5t-133 370.5zM389 481q0 -118 52.5 -197.5t156.5 -79.5q103 0 155 79t52 198v104q0 119 -53 197.5t-154 78.5t-155 -79t-54 -197v-104z M479 1233l237 352h248l-280 -352h-205z" />
<glyph unicode="&#xf4;" horiz-adv-x="1193" d="M104 483v104q0 224 135.5 360.5t358.5 136.5t357 -134.5t134 -361.5v-104q0 -238 -133 -370.5t-358 -132.5q-228 0 -361 131.5t-133 370.5zM246 1224l251 350h201l250 -350h-216l-129 206h-11l-129 -206h-217zM389 481q0 -118 52.5 -197.5t156.5 -79.5q103 0 155 79 t52 198v104q0 119 -53 197.5t-154 78.5t-155 -79t-54 -197v-104z" />
<glyph unicode="&#xf5;" horiz-adv-x="1193" d="M104 483v104q0 224 135.5 360.5t358.5 136.5t357 -134.5t134 -361.5v-104q0 -238 -133 -370.5t-358 -132.5q-228 0 -361 131.5t-133 370.5zM270 1236q0 119 53 197t156 78q47 0 85.5 -19.5t59.5 -42.5t46.5 -42.5t48.5 -19.5q62 0 66 111h151q0 -117 -55.5 -196.5 t-153.5 -79.5q-36 0 -66 13t-50.5 31t-38.5 36t-38 31t-41 13q-66 0 -72 -110h-151zM389 481q0 -118 52.5 -197.5t156.5 -79.5q103 0 155 79t52 198v104q0 119 -53 197.5t-154 78.5t-155 -79t-54 -197v-104z" />
<glyph unicode="&#xf6;" horiz-adv-x="1193" d="M104 483v104q0 224 135.5 360.5t358.5 136.5t357 -134.5t134 -361.5v-104q0 -238 -133 -370.5t-358 -132.5q-228 0 -361 131.5t-133 370.5zM262 1335q0 57 36 92t95 35t95.5 -35t36.5 -92q0 -56 -36.5 -90.5t-95.5 -34.5q-58 0 -94.5 34.5t-36.5 90.5zM389 481 q0 -118 52.5 -197.5t156.5 -79.5q103 0 155 79t52 198v104q0 119 -53 197.5t-154 78.5t-155 -79t-54 -197v-104zM670 1335q0 57 36 92t93 35q61 0 97.5 -35t36.5 -92q0 -56 -37 -90.5t-97 -34.5q-57 0 -93 35t-36 90z" />
<glyph unicode="&#xf7;" d="M135 472v214h968v-214h-968zM457 165q0 71 46 115.5t115 44.5t116 -45t47 -115q0 -69 -47 -113t-116 -44q-68 0 -114.5 44t-46.5 113zM457 994q0 70 46 114.5t114 44.5q70 0 116.5 -44.5t46.5 -114.5t-46.5 -114t-116.5 -44q-68 0 -114 44t-46 114z" />
<glyph unicode="&#xf8;" horiz-adv-x="1193" d="M90 29l110 133q-96 129 -96 321v104q0 224 135.5 360.5t358.5 136.5q168 0 291 -84l102 122l111 -93l-108 -132q95 -126 95 -309v-104q0 -238 -133 -370.5t-358 -132.5q-176 0 -297 83l-105 -126zM381 469q0 -52 18 -88l343 424q-53 66 -145 66q-104 0 -160 -81t-56 -202 v-119zM451 264q55 -65 146 -65q55 0 97 23t67.5 63t38 90t12.5 107v119q0 46 -18 82z" />
<glyph unicode="&#xf9;" horiz-adv-x="1253" d="M146 350v715h281v-639q0 -109 52 -153.5t132 -44.5q88 0 148.5 57.5t60.5 150.5v629h281v-1065h-274v178h-15q-11 -34 -35 -66t-61 -62t-93 -48t-123 -18q-165 0 -259.5 91t-94.5 275zM268 1585h248l237 -352h-205z" />
<glyph unicode="&#xfa;" horiz-adv-x="1253" d="M146 350v715h281v-639q0 -109 52 -153.5t132 -44.5q88 0 148.5 57.5t60.5 150.5v629h281v-1065h-274v178h-15q-11 -34 -35 -66t-61 -62t-93 -48t-123 -18q-165 0 -259.5 91t-94.5 275zM508 1233l237 352h248l-280 -352h-205z" />
<glyph unicode="&#xfb;" horiz-adv-x="1253" d="M146 350v715h281v-639q0 -109 52 -153.5t132 -44.5q88 0 148.5 57.5t60.5 150.5v629h281v-1065h-274v178h-15q-11 -34 -35 -66t-61 -62t-93 -48t-123 -18q-165 0 -259.5 91t-94.5 275zM275 1224l251 350h201l250 -350h-216l-129 206h-11l-129 -206h-217z" />
<glyph unicode="&#xfc;" horiz-adv-x="1253" d="M146 350v715h281v-639q0 -109 52 -153.5t132 -44.5q88 0 148.5 57.5t60.5 150.5v629h281v-1065h-274v178h-15q-11 -34 -35 -66t-61 -62t-93 -48t-123 -18q-165 0 -259.5 91t-94.5 275zM291 1335q0 57 36 92t95 35t95.5 -35t36.5 -92q0 -56 -36.5 -90.5t-95.5 -34.5 q-58 0 -94.5 34.5t-36.5 90.5zM699 1335q0 57 36 92t93 35q61 0 97.5 -35t36.5 -92q0 -56 -37 -90.5t-97 -34.5q-57 0 -93 35t-36 90z" />
<glyph unicode="&#xfd;" horiz-adv-x="1151" d="M45 1065h310l214 -820h12l219 820h299q-339 -1011 -343 -1024l-27 -72q-30 -82 -64 -139.5t-86.5 -107t-129 -74t-177.5 -24.5q-85 0 -152 12v207q32 -7 88 -7q94 0 136.5 33.5t54.5 101.5l9 31zM457 1233l237 352h248l-280 -352h-205z" />
<glyph unicode="&#xfe;" horiz-adv-x="1254" d="M153 -351v1806h282v-559h14q32 86 112.5 134t191.5 48q185 0 289.5 -127t104.5 -353v-130q0 -226 -105.5 -353.5t-291.5 -127.5q-109 0 -187.5 46.5t-113.5 130.5h-14v-515h-282zM435 467q0 -113 58.5 -181.5t155.5 -68.5q99 0 154 71.5t55 200.5v85q0 130 -55 201.5 t-156 71.5q-99 0 -155.5 -69.5t-56.5 -190.5v-120z" />
<glyph unicode="&#xff;" horiz-adv-x="1151" d="M45 1065h310l214 -820h12l219 820h299q-339 -1011 -343 -1024l-27 -72q-30 -82 -64 -139.5t-86.5 -107t-129 -74t-177.5 -24.5q-85 0 -152 12v207q32 -7 88 -7q94 0 136.5 33.5t54.5 101.5l9 31zM240 1335q0 57 36 92t95 35t95.5 -35t36.5 -92q0 -56 -36.5 -90.5 t-95.5 -34.5q-58 0 -94.5 34.5t-36.5 90.5zM648 1335q0 57 36 92t93 35q61 0 97.5 -35t36.5 -92q0 -56 -37 -90.5t-97 -34.5q-57 0 -93 35t-36 90z" />
<glyph unicode="&#x152;" horiz-adv-x="2018" d="M112 597v163q0 298 150 464t401 166q126 0 220.5 -43.5t144.5 -123.5h17v142h846v-243h-599v-321h563v-225h-563v-333h599v-243h-846v145h-17q-51 -79 -146 -125t-221 -46q-256 0 -402.5 169.5t-146.5 453.5zM417 592q0 -177 79 -274t219 -97q143 0 221.5 95t78.5 270 v188q0 175 -79 271.5t-221 96.5q-139 0 -218.5 -100t-79.5 -278v-172z" />
<glyph unicode="&#x153;" horiz-adv-x="1869" d="M104 483v104q0 224 135.5 360.5t358.5 136.5q108 0 200.5 -39t142.5 -109h17q48 67 138 107.5t196 40.5q213 0 344 -133.5t131 -360.5v-120h-678v-49q0 -98 59 -158.5t156 -60.5q77 0 129.5 32.5t60.5 82.5h264q-4 -56 -32.5 -112t-80 -107.5t-140.5 -84t-199 -32.5 q-112 0 -205 39t-142 103h-17q-51 -64 -144.5 -103t-199.5 -39q-228 0 -361 131.5t-133 370.5zM388 481q0 -75 21 -136t69.5 -101t118.5 -40q103 0 155 79.5t52 197.5v104q0 120 -53 198t-154 78t-155 -78.5t-54 -197.5v-104zM1089 640h406v9q0 99 -55 160t-146 61 q-92 0 -148.5 -61t-56.5 -160v-9z" />
<glyph unicode="&#x178;" horiz-adv-x="1218" d="M7 1365h319l281 -570h12l281 570h311l-457 -862v-503h-290v496zM288 1579q0 54 34 87t90 33q57 0 91 -33t34 -87t-34 -87t-91 -33q-55 0 -89.5 33.5t-34.5 86.5zM679 1579q0 54 33.5 87t89.5 33q58 0 92.5 -33t34.5 -87t-34.5 -87t-92.5 -33q-56 0 -89.5 33t-33.5 87z " />
<glyph unicode="&#x2c6;" horiz-adv-x="1000" d="M153 1224l251 350h201l250 -350h-216l-129 206h-11l-129 -206h-217z" />
<glyph unicode="&#x2dc;" horiz-adv-x="1000" d="M161 1236q0 119 53 197t156 78q47 0 85.5 -19.5t59.5 -42.5t46.5 -42.5t48.5 -19.5q62 0 66 111h151q0 -117 -55.5 -196.5t-153.5 -79.5q-36 0 -66 13t-50.5 31t-38.5 36t-38 31t-41 13q-66 0 -72 -110h-151z" />
<glyph unicode="&#x2000;" horiz-adv-x="946" />
<glyph unicode="&#x2001;" horiz-adv-x="1893" />
<glyph unicode="&#x2002;" horiz-adv-x="946" />
<glyph unicode="&#x2003;" horiz-adv-x="1893" />
<glyph unicode="&#x2004;" horiz-adv-x="631" />
<glyph unicode="&#x2005;" horiz-adv-x="473" />
<glyph unicode="&#x2006;" horiz-adv-x="315" />
<glyph unicode="&#x2007;" horiz-adv-x="315" />
<glyph unicode="&#x2008;" horiz-adv-x="236" />
<glyph unicode="&#x2009;" horiz-adv-x="378" />
<glyph unicode="&#x200a;" horiz-adv-x="105" />
<glyph unicode="&#x2010;" horiz-adv-x="840" d="M105 430v261h630v-261h-630z" />
<glyph unicode="&#x2011;" horiz-adv-x="840" d="M105 430v261h630v-261h-630z" />
<glyph unicode="&#x2012;" horiz-adv-x="840" d="M105 430v261h630v-261h-630z" />
<glyph unicode="&#x2013;" horiz-adv-x="1256" d="M0 430v261h1256v-261h-1256z" />
<glyph unicode="&#x2014;" horiz-adv-x="2048" d="M0 430v261h2048v-261h-2048z" />
<glyph unicode="&#x2018;" horiz-adv-x="639" d="M130 769l151 596h228l-89 -596h-290z" />
<glyph unicode="&#x2019;" horiz-adv-x="640" d="M130 769l90 596h290l-150 -596h-230z" />
<glyph unicode="&#x201a;" horiz-adv-x="640" d="M130 -488l90 596h290l-150 -596h-230z" />
<glyph unicode="&#x201c;" horiz-adv-x="1128" d="M130 769l119 596h239l-69 -596h-289zM642 769l119 596h237l-66 -596h-290z" />
<glyph unicode="&#x201d;" horiz-adv-x="1128" d="M130 769l66 596h290l-119 -596h-237zM640 769l69 596h289l-119 -596h-239z" />
<glyph unicode="&#x201e;" horiz-adv-x="1128" d="M130 -486l66 597h290l-119 -597h-237zM640 -486l69 597h289l-119 -597h-239z" />
<glyph unicode="&#x2022;" horiz-adv-x="984" d="M162 614q0 139 96.5 237t233.5 98t234 -98t97 -237q0 -137 -97.5 -235.5t-233.5 -98.5t-233 98.5t-97 235.5z" />
<glyph unicode="&#x2026;" horiz-adv-x="1768" d="M132 158q0 82 51.5 131.5t129.5 49.5q79 0 131 -50t52 -131t-52 -129.5t-131 -48.5q-77 0 -129 49t-52 129zM699 158q0 81 52 131t129 50q79 0 131.5 -50t52.5 -131t-52.5 -129.5t-131.5 -48.5q-77 0 -129 49t-52 129zM1267 158q0 82 51.5 131.5t129.5 49.5q79 0 131 -50 t52 -131t-52 -129.5t-131 -48.5q-77 0 -129 49t-52 129z" />
<glyph unicode="&#x202f;" horiz-adv-x="378" />
<glyph unicode="&#x2039;" horiz-adv-x="846" d="M117 557v8l344 404h260l-339 -403v-6l339 -405h-269z" />
<glyph unicode="&#x203a;" horiz-adv-x="846" d="M125 155l339 405v6l-339 403h260l344 -404v-8l-335 -402h-269z" />
<glyph unicode="&#x205f;" horiz-adv-x="473" />
<glyph unicode="&#x20ac;" d="M53 466v148h115v131h-115v148h122q49 497 515 497q124 0 217.5 -37t150.5 -105t86.5 -156t33.5 -198h-277q-1 39 -6.5 70.5t-19.5 65.5t-36 56.5t-59.5 37t-87.5 14.5q-107 0 -161 -58.5t-62 -186.5h281v-148h-288v-131h288v-148h-281q7 -128 60.5 -183.5t162.5 -55.5 q63 0 105.5 19t64 54.5t30 72.5t9.5 87h277q-4 -105 -32.5 -190.5t-85 -153t-151 -105t-220.5 -37.5q-240 0 -365 122.5t-149 369.5h-122z" />
<glyph unicode="&#x2122;" horiz-adv-x="1831" d="M84 1196v169h634v-169h-224v-521h-189v521h-221zM881 675v690h214l189 -367h9l189 367h213v-690h-168v438h-10l-183 -367h-92l-183 367h-9v-438h-169z" />
<glyph unicode="&#x25fc;" horiz-adv-x="1065" d="M0 0v1065h1065v-1065h-1065z" />
<glyph unicode="&#xfb01;" horiz-adv-x="1472" d="M74 829v222h173v106q0 161 86 231.5t285 70.5q96 0 155 -9v-204q-36 6 -99 6q-82 0 -118 -27t-36 -93v-81h238v-222h-232v-829h-279v829h-173zM988 1374q0 69 47.5 111.5t124.5 42.5q78 0 126.5 -42.5t48.5 -111.5t-48 -111t-127 -42q-77 0 -124.5 42t-47.5 111zM1021 0 v1065h281v-1065h-281z" />
<glyph unicode="&#xfb02;" horiz-adv-x="1452" d="M74 829v222h173v106q0 161 86 231.5t285 70.5q96 0 155 -9v-204q-36 6 -99 6q-82 0 -118 -27t-36 -93v-81h238v-222h-232v-829h-279v829h-173zM1010 0v1455h282v-1455h-282z" />
</font>
</defs>
</svg>
