<?xml version="1.0" standalone="no"?>
<!DOCTYPE svg PUBLIC "-//W3C//DTD SVG 1.1//EN" "http://www.w3.org/Graphics/SVG/1.1/DTD/svg11.dtd" >
<svg xmlns="http://www.w3.org/2000/svg">
<metadata></metadata>
<defs>
<font id="sfc-text" horiz-adv-x="1125" >
<font-face units-per-em="2048" ascent="1638" descent="-410" />
<missing-glyph horiz-adv-x="467" />
<glyph horiz-adv-x="0" />
<glyph unicode="&#xd;" horiz-adv-x="0" />
<glyph unicode=" "  horiz-adv-x="467" />
<glyph unicode="&#x09;" horiz-adv-x="467" />
<glyph unicode="&#xa0;" horiz-adv-x="467" />
<glyph unicode="!" horiz-adv-x="589" d="M162 96q0 49 32.5 82.5t79.5 33.5q50 0 83.5 -33.5t33.5 -82.5q0 -47 -34 -79.5t-83 -32.5q-47 0 -79.5 32.5t-32.5 79.5zM271 409l146 955h142l-191 -955h-97z" />
<glyph unicode="&#x22;" horiz-adv-x="869" d="M341 900l59 464h144l-103 -464h-100zM663 900l60 464h143l-103 -464h-100z" />
<glyph unicode="#" horiz-adv-x="1265" d="M125 404l41 107h218l135 357h-206l40 106h207l151 391h110l-151 -391h316l146 391h110l-150 -391h231l-41 -106h-227l-135 -357h215l-40 -107h-216q-11 -30 -154 -404h-110l154 404h-315q-17 -44 -77.5 -202t-77.5 -202h-110l154 404h-218zM495 511h315l134 357h-315z " />
<glyph unicode="$" horiz-adv-x="1143" d="M121 332q0 17 2 37h117q-2 -12 -2 -20q0 -88 65 -158.5t172 -95.5l112 568q-37 15 -51 21q-273 118 -273 340q0 167 127.5 267.5t319.5 100.5h22l23 119h108l-27 -133q137 -27 220.5 -111.5t83.5 -216.5q0 -24 -1 -26h-108q1 14 0 27q-5 81 -63.5 141t-152.5 82 l-106 -531q1 0 26 -11q65 -27 109.5 -49t90.5 -54.5t72.5 -68t43.5 -85t17 -109.5q0 -181 -132.5 -286.5t-346.5 -105.5q-11 0 -33 2l-21 -111h-106l25 124q-157 30 -245 125.5t-88 217.5zM385 1028q0 -83 49 -136t149 -97q2 -1 14 -6t14 -6l100 506h-12q-81 0 -150.5 -28 t-116.5 -88.5t-47 -144.5zM577 78h23q154 0 252 75t98 202q0 99 -62 156t-189 108q-10 3 -14 6z" />
<glyph unicode="%" horiz-adv-x="1489" d="M171 976q0 48 7 90l5 30q20 126 97 203t181 77q105 0 167.5 -79t62.5 -204q0 -47 -8 -90l-4 -30q-20 -125 -97 -204t-183 -79q-107 0 -167.5 78.5t-60.5 207.5zM193 0l558 682l558 682h123l-558 -682l-558 -682h-123zM270 977q0 -88 35.5 -139.5t100.5 -51.5q67 0 115 55 t61 151l4 22q6 38 6 74q0 88 -35.5 140.5t-99.5 52.5q-68 0 -116 -56.5t-62 -152.5l-3 -17q-6 -37 -6 -78zM929 274q0 48 7 90l5 30q20 126 97 203t181 77q105 0 167.5 -79t62.5 -204q0 -43 -7 -90l-5 -30q-20 -125 -97 -203.5t-183 -78.5q-107 0 -167.5 78.5t-60.5 206.5z M1028 275q0 -88 35.5 -139.5t100.5 -51.5q67 0 115 55t61 151l4 22q6 38 6 74q0 88 -35.5 140.5t-99.5 52.5q-68 0 -116 -56.5t-62 -152.5l-3 -17q-6 -37 -6 -78z" />
<glyph unicode="&#x26;" horiz-adv-x="1389" d="M153 350q0 79 30.5 145t88.5 117t116.5 86t140.5 73q4 2 19.5 9.5t19.5 8.5q-41 63 -61.5 97t-44.5 99t-24 121q0 131 98 211t249 80q144 0 231.5 -76.5t87.5 -199.5q0 -64 -25 -118.5t-73 -97t-99.5 -74t-122.5 -63.5q-25 -13 -45 -20l308 -427q97 128 130 296 q20 101 21 144h124q-5 -62 -23 -152q-40 -218 -183 -387l161 -222h-149l-101 140q-194 -162 -434 -162q-210 0 -325 108t-115 264zM286 354q0 -50 19.5 -96.5t56.5 -84.5t99.5 -61t141.5 -23q103 0 197.5 39t161.5 107l-333 465q-3 -2 -16.5 -8t-16.5 -7 q-52 -23 -94.5 -46.5t-84 -55t-69.5 -65t-45 -76t-17 -88.5zM562 1095q0 -109 118 -263q1 1 13 6t14 6q129 53 203 118.5t74 155.5q0 80 -58.5 124t-144.5 44q-93 0 -156 -51.5t-63 -139.5z" />
<glyph unicode="'" horiz-adv-x="546" d="M340 898l60 466h144l-103 -466h-101z" />
<glyph unicode="(" horiz-adv-x="662" d="M205 322q0 157 27.5 303t70 255.5t100.5 207t111 161t109 114.5h120q-45 -42 -91 -95.5t-106 -150.5t-105 -204.5t-76.5 -260t-31.5 -315.5q0 -196 34 -336.5t95 -264.5h-116q-59 110 -100 265t-41 321z" />
<glyph unicode=")" horiz-adv-x="658" d="M31 -264q46 46 91 101t105.5 154t104.5 207t75.5 261t31.5 315q0 192 -35.5 329.5t-97.5 259.5h117q61 -114 102.5 -263t41.5 -312q0 -191 -41 -368t-107 -307.5t-133.5 -222.5t-136.5 -154h-118z" />
<glyph unicode="*" horiz-adv-x="1011" d="M251 885l318 114l-274 198l64 82l258 -219l33 337l103 -15l-61 -333l309 140l39 -97l-319 -113l275 -198l-64 -82l-258 218l-34 -336l-102 15l60 332l-308 -139z" />
<glyph unicode="+" horiz-adv-x="1177" d="M160 495l19 106h416l78 439h113l-78 -439h419l-19 -106h-419l-81 -462h-113l81 462h-416z" />
<glyph unicode="," horiz-adv-x="524" d="M0 -383l226 535h168l-281 -535h-113z" />
<glyph unicode="-" horiz-adv-x="874" d="M169 506l19 113h633l-20 -113h-632z" />
<glyph unicode="." horiz-adv-x="519" d="M121 96q0 49 33 82.5t80 33.5q50 0 83 -33t33 -83q0 -47 -33.5 -79.5t-82.5 -32.5q-47 0 -80 32.5t-33 79.5z" />
<glyph unicode="/" horiz-adv-x="704" d="M-27 -289l736 1704h120l-735 -1704h-121z" />
<glyph unicode="0" horiz-adv-x="1214" d="M204 472q0 119 19 228l16 91q49 285 182.5 443t338.5 158q194 0 300 -134.5t106 -379.5q0 -118 -18 -217l-16 -91q-51 -281 -183.5 -440.5t-338.5 -159.5q-195 0 -300.5 130.5t-105.5 371.5zM328 475q0 -184 73 -286.5t210 -102.5q150 0 252 128.5t145 376.5l16 91 q19 104 19 208q0 172 -74.5 279t-212.5 107q-147 0 -246 -129t-147 -377l-17 -91q-18 -98 -18 -204z" />
<glyph unicode="1" horiz-adv-x="935" d="M293 1030l19 133l356 200h136l-241 -1363h-130l217 1226h-10z" />
<glyph unicode="2" horiz-adv-x="1115" d="M120 0l16 93l594 584q51 51 81 83.5t68 83t56 100t18 100.5q0 98 -73 165.5t-194 67.5q-123 0 -198 -69t-85 -167h-126q3 70 34 133.5t83 112t129.5 77.5t167.5 29q174 0 281 -96.5t107 -247.5q0 -54 -15.5 -106.5t-37.5 -93t-62 -90t-71 -82.5t-84 -84l-480 -469l-2 -10 h662l-20 -114h-849z" />
<glyph unicode="3" horiz-adv-x="1136" d="M138 301q0 20 4 42h123q-2 -18 -2 -23q0 -94 88.5 -164.5t220.5 -70.5q140 0 234.5 78.5t94.5 209.5q0 124 -87.5 200t-224.5 79l-100 2l20 121q54 -3 119 -3q89 0 163.5 28t123.5 90t49 148q0 111 -79 176t-201 65q-114 0 -182.5 -54.5t-84.5 -126.5h-125 q11 120 117 207.5t279 87.5q109 0 198 -36.5t145.5 -115t56.5 -186.5q0 -78 -28.5 -143.5t-75 -106.5t-99.5 -65t-108 -29l-2 -10q116 -23 186 -110.5t70 -213.5q0 -183 -130.5 -295t-334.5 -112q-190 0 -309 97.5t-119 233.5z" />
<glyph unicode="4" horiz-adv-x="1178" d="M142 313l15 116q169 246 748 935h193l-163 -937h199l-17 -114h-201l-55 -313h-126l55 313h-648zM298 427h513l145 820h-10q-535 -658 -646 -810z" />
<glyph unicode="5" horiz-adv-x="1165" d="M180 300q0 17 4 43h121q-2 -14 -2 -23q0 -88 81.5 -162t214.5 -74q154 0 255.5 104t101.5 266q0 141 -84 225t-215 84q-84 0 -157.5 -35.5t-114.5 -94.5l-123 1l178 730h699l-16 -115h-587l-121 -488l10 -1q37 47 112 79t161 32q167 0 276.5 -116t109.5 -299 q0 -207 -134 -346.5t-355 -139.5q-101 0 -183 31t-131 81t-75 106.5t-26 111.5z" />
<glyph unicode="6" horiz-adv-x="1173" d="M205 489q0 120 23 256.5t66 243.5q159 386 499 386q155 0 260.5 -92.5t105.5 -219.5q0 -11 -1 -15h-115q-6 91 -80 150.5t-176 59.5q-169 0 -282.5 -144t-155.5 -421h12q39 74 118 126t198 52q167 0 284.5 -113.5t117.5 -301.5q0 -206 -125 -340t-322 -134 q-199 0 -313 133.5t-114 373.5zM336 426q0 -144 82.5 -239.5t217.5 -95.5q143 0 227.5 100t84.5 258q0 139 -84.5 225.5t-215.5 86.5q-138 0 -225 -95t-87 -240z" />
<glyph unicode="7" horiz-adv-x="1079" d="M176 0l784 1239v10h-704l15 115h847l-14 -108l-784 -1256h-144z" />
<glyph unicode="8" horiz-adv-x="1199" d="M169 353q0 72 23.5 133t61 102.5t86 72t97 45.5t95.5 18l2 11q-35 16 -65.5 38t-64 57.5t-53 88t-19.5 114.5q0 159 119.5 259.5t299.5 100.5q110 0 200 -39.5t145.5 -118.5t55.5 -185q0 -74 -27.5 -136t-72.5 -101.5t-97 -63t-105 -28.5l-1 -11q43 -13 83 -38 t79.5 -64.5t63.5 -101t24 -136.5q0 -122 -64.5 -214.5t-170.5 -139t-235 -46.5q-123 0 -225.5 42t-168.5 130.5t-66 210.5zM304 368q0 -132 94 -207.5t233 -75.5q146 0 242.5 81t96.5 215q0 130 -96 206.5t-234 76.5q-145 0 -240.5 -83.5t-95.5 -212.5zM463 1020 q0 -110 78.5 -176.5t196.5 -66.5q123 0 204.5 73t81.5 187q0 115 -78 180.5t-196 65.5q-125 0 -206 -74t-81 -189z" />
<glyph unicode="9" horiz-adv-x="1172" d="M182 310q0 11 1 16h119q2 -97 77 -160t191 -63q334 0 421 578l-12 1q-34 -73 -117 -127.5t-199 -54.5q-166 0 -285 115.5t-119 304.5q0 198 124.5 332.5t320.5 134.5q192 0 308 -123t116 -364q0 -201 -56 -418q-141 -495 -512 -495q-160 0 -269 93t-109 230zM391 925 q0 -139 83 -227t212 -88q139 0 226.5 96t87.5 240q0 146 -81.5 238.5t-217.5 92.5q-137 0 -223.5 -100t-86.5 -252z" />
<glyph unicode=":" horiz-adv-x="522" d="M122 101q0 49 33 82t80 33q50 0 83 -33t33 -82q0 -47 -33.5 -80t-82.5 -33q-47 0 -80 33t-33 80zM248 804q0 49 32.5 82.5t79.5 33.5q50 0 83.5 -33.5t33.5 -82.5q0 -47 -34 -79.5t-83 -32.5q-47 0 -79.5 32.5t-32.5 79.5z" />
<glyph unicode=";" horiz-adv-x="519" d="M-19 -383l226 535h168l-282 -535h-112zM273 804q0 49 33 82.5t80 33.5q50 0 83 -33t33 -83q0 -47 -33.5 -79.5t-82.5 -32.5q-47 0 -80 32.5t-33 79.5z" />
<glyph unicode="&#x3c;" horiz-adv-x="1065" d="M194 453l20 117l839 530l-24 -143l-715 -445l-2 -8l571 -407l-24 -133z" />
<glyph unicode="=" horiz-adv-x="1137" d="M172 315l17 105h820l-15 -105h-822zM234 674l19 105h819l-19 -105h-819z" />
<glyph unicode="&#x3e;" horiz-adv-x="1065" d="M113 -35l24 142l712 411l1 8l-563 440l24 122l657 -522l-19 -113z" />
<glyph unicode="?" horiz-adv-x="1000" d="M260 1067q11 66 40.5 123.5t78.5 104.5t124.5 73t168.5 25q162 -2 266.5 -83t104.5 -232q0 -54 -16 -102t-38 -81t-61 -68.5t-69 -56.5t-79 -52q-102 -65 -139 -104.5t-50 -115.5l-15 -84h-124l15 87q19 108 64 165.5t173 137.5q44 28 64 41t55 42t51.5 52t30 58.5 t13.5 75.5q0 101 -71 155t-177 55q-123 2 -194 -63.5t-91 -153.5zM366 96q0 49 33 82.5t79 33.5q50 0 83.5 -33.5t33.5 -82.5q0 -47 -34 -79.5t-83 -32.5q-46 0 -79 32.5t-33 79.5z" />
<glyph unicode="@" horiz-adv-x="1703" d="M176 408q0 83 15 167l10 55q28 160 99 288t173 211.5t230.5 128t273.5 44.5q159 0 291 -48.5t219.5 -132t136 -195t48.5 -238.5q0 -67 -10 -124l-8 -46q-34 -183 -132 -275t-229 -92q-84 0 -142.5 40.5t-64.5 97.5h-8q-23 -56 -80 -98t-147 -42q-110 0 -177 71t-67 185 q0 51 8 92l16 90q25 135 100 211t187 76q92 0 145.5 -47.5t58.5 -107.5h6l24 134h106l-82 -470q-3 -11 -3 -32q0 -49 35 -81t96 -32q83 0 152 71t96 228l6 37q8 45 8 108q0 156 -77 276t-210.5 183.5t-300.5 63.5q-252 0 -435.5 -156t-234.5 -436l-8 -43q-13 -75 -13 -153 q0 -143 47 -254.5t132 -182t199 -106.5t253 -36q129 0 202 23l-16 -96q-72 -24 -201 -24q-126 0 -236 26t-200.5 80.5t-155 133t-100 187.5t-35.5 240zM721 422q0 -77 44 -126.5t121 -49.5q71 0 123 48.5t70 151.5l17 96q5 32 5 54q0 76 -46 129.5t-122 53.5 q-70 0 -120.5 -52.5t-70.5 -156.5l-14 -72q-7 -38 -7 -76z" />
<glyph unicode="A" horiz-adv-x="1222" d="M17 0l730 1364h137l247 -1364h-132l-74 438h-539l-228 -438h-141zM443 545h463l-111 660h-9z" />
<glyph unicode="B" horiz-adv-x="1265" d="M162 0l240 1364h438q100 0 174.5 -25.5t116.5 -70t62.5 -97.5t20.5 -114q0 -133 -83.5 -225.5t-199.5 -115.5l-2 -8q118 -20 186.5 -97t68.5 -207q0 -189 -145.5 -296.5t-397.5 -107.5h-479zM311 115h344q111 0 199 31t143 97.5t55 160.5q0 112 -81 177t-247 65h-319z M425 761h305q148 0 248 73.5t100 204.5q0 209 -276 209h-291z" />
<glyph unicode="C" horiz-adv-x="1289" d="M200 482q0 93 11 153l47 249q45 242 190.5 375.5t357.5 133.5q113 0 206 -35.5t151 -93.5t89 -128t31 -142q0 -27 -3 -39h-125q2 18 1 34q-3 47 -25 94t-62 91.5t-110 72t-157 27.5q-169 0 -274 -109.5t-142 -300.5l-43 -223q-13 -63 -13 -154q0 -195 104.5 -296 t273.5 -101q147 0 241 73.5t117 185.5h128q-2 -18 -7 -38q-29 -140 -157.5 -240t-330.5 -100q-105 0 -194.5 32t-158 93.5t-107.5 160.5t-39 225z" />
<glyph unicode="D" horiz-adv-x="1350" d="M162 0l240 1364h364q263 0 399.5 -137t136.5 -371q0 -78 -11 -149q-5 -40 -25 -150q-50 -282 -233 -419.5t-510 -137.5h-361zM313 115h214q259 0 414.5 113t197.5 342q15 73 23 136q9 61 9 135q0 197 -109.5 302t-329.5 105h-221z" />
<glyph unicode="E" d="M162 0l240 1364h788l-19 -116h-660l-86 -489h627l-21 -114h-627l-93 -530h662l-19 -115h-792z" />
<glyph unicode="F" horiz-adv-x="1095" d="M162 0l242 1364h784l-20 -116h-655l-92 -513h604l-20 -115h-604l-110 -620h-129z" />
<glyph unicode="G" horiz-adv-x="1338" d="M199 482q0 90 12 153l47 249q45 241 194.5 375t366.5 134q117 0 212 -36.5t152 -95t87 -127t30 -137.5q0 -27 -3 -39h-125v11v13v10q-2 35 -14.5 72t-40 75t-67.5 67.5t-101 48t-135 18.5q-172 0 -282 -110t-146 -300l-43 -222q-14 -77 -14 -154q0 -195 105.5 -297 t277.5 -102q87 0 161.5 26.5t133.5 90.5t75 157l37 211h-377l21 115h505l-59 -339q-22 -126 -100 -213.5t-181.5 -126t-224.5 -38.5q-106 0 -195.5 31t-159.5 92t-109.5 160.5t-39.5 227.5z" />
<glyph unicode="H" horiz-adv-x="1406" d="M162 0l240 1364h129l-105 -596h741l105 596h129l-240 -1364h-129l115 654h-741l-115 -654h-129z" />
<glyph unicode="I" horiz-adv-x="539" d="M164 0l240 1364h129l-240 -1364h-129z" />
<glyph unicode="J" horiz-adv-x="995" d="M85 280q0 36 6 57h120q-2 -32 -2 -37q0 -88 61 -146t162 -58q93 0 161 58t91 190l180 1020h129l-183 -1034q-17 -97 -53.5 -167t-87.5 -110t-108.5 -58.5t-124.5 -18.5q-156 0 -253.5 86.5t-97.5 217.5z" />
<glyph unicode="K" horiz-adv-x="1233" d="M162 0l240 1364h130l-127 -699h10l769 699h166l-662 -609l439 -755h-152l-386 679l-210 -183l-88 -496h-129z" />
<glyph unicode="L" horiz-adv-x="1041" d="M162 0l240 1364h129l-220 -1249h650l-20 -115h-779z" />
<glyph unicode="M" horiz-adv-x="1628" d="M162 0l240 1364h123l294 -1057h7l661 1057h137l-240 -1364h-123l192 1095h-8l-604 -955h-90l-266 955h-9l-192 -1095h-122z" />
<glyph unicode="N" horiz-adv-x="1416" d="M162 0l240 1364h128l541 -1150h8l204 1150h128l-240 -1364h-125l-545 1148h-9l-202 -1148h-128z" />
<glyph unicode="O" horiz-adv-x="1377" d="M200 472q0 103 15 186l40 225q42 239 192 374.5t366 135.5q232 0 377.5 -138.5t145.5 -381.5q0 -84 -16 -164l-40 -225q-45 -246 -190 -380t-381 -134q-106 0 -198.5 34t-162 96.5t-109 158.5t-39.5 213zM330 492q0 -183 107 -292.5t289 -109.5q171 0 281.5 110 t146.5 313l40 231q9 49 9 133q0 178 -107.5 287.5t-285.5 109.5q-165 0 -276.5 -104t-148.5 -306l-41 -221q-14 -84 -14 -151z" />
<glyph unicode="P" horiz-adv-x="1181" d="M162 0l240 1364h433q182 0 284 -97.5t102 -248.5q0 -39 -7 -88q-53 -387 -533 -387h-295l-96 -543h-128zM406 657h292q180 0 275 74t112 199q6 33 6 76q0 107 -68 174.5t-211 67.5h-302z" />
<glyph unicode="Q" horiz-adv-x="1386" d="M200 472q0 103 15 186l40 225q42 239 192 374.5t366 135.5q232 0 377.5 -138.5t145.5 -381.5q0 -84 -16 -164l-41 -229q-54 -293 -248 -423l127 -219h-141l-98 167q-94 -35 -210 -35q-220 0 -364.5 134.5t-144.5 367.5zM330 488q0 -182 107 -290t289 -108q68 0 129 23 l-151 257h148l117 -206q141 106 183 340l42 240q9 49 9 133q0 178 -107.5 287.5t-285.5 109.5q-165 0 -276.5 -104t-148.5 -306l-41 -221q-14 -84 -14 -155z" />
<glyph unicode="R" horiz-adv-x="1246" d="M162 0l240 1364h444q185 0 282 -93.5t97 -245.5q0 -49 -7 -90q-23 -139 -114 -226t-223 -115l199 -594h-138l-188 575q-33 -3 -75 -3h-288l-100 -572h-129zM411 687h292q173 0 267 70.5t114 190.5q5 37 5 73q0 103 -65.5 165.5t-206.5 62.5h-306z" />
<glyph unicode="S" horiz-adv-x="1204" d="M147 333q0 30 4 47h127q-2 -16 -2 -32q0 -107 96 -184t254 -77q149 0 243 74t94 197q0 44 -14.5 80t-36.5 60.5t-60 48t-71 38.5t-84 34l-80 31q-71 27 -126 57.5t-105 75t-77 105t-27 134.5q0 171 128.5 271t325.5 100q182 0 307 -94.5t125 -247.5q0 -29 -3 -38h-123 q2 6 2 22q0 104 -88 173t-222 69q-131 0 -224 -64.5t-93 -183.5q0 -94 65 -153t189 -107l93 -37q63 -25 104.5 -44t89.5 -51t75.5 -66.5t46.5 -86t19 -114.5q0 -184 -132.5 -291.5t-346.5 -107.5q-107 0 -197.5 30t-150 80.5t-92.5 115.5t-33 136z" />
<glyph unicode="T" horiz-adv-x="1119" d="M234 1248l20 116h1007l-19 -116h-439l-220 -1248h-129l220 1248h-440z" />
<glyph unicode="U" horiz-adv-x="1362" d="M221 411q0 69 13 134l144 819h131l-146 -832q-8 -44 -8 -103q0 -155 93.5 -246t252.5 -91q151 0 253.5 89t131.5 255l164 928h132l-165 -937q-40 -226 -178 -341.5t-341 -115.5q-213 0 -345 117.5t-132 323.5z" />
<glyph unicode="V" horiz-adv-x="1218" d="M249 1364h139l198 -1202h8l623 1202h144l-726 -1364h-138z" />
<glyph unicode="W" horiz-adv-x="1764" d="M271 1364h139l64 -1173h9l525 1173h126l121 -1173h8l482 1173h139l-579 -1364h-134l-130 1153h-9l-522 -1153h-138z" />
<glyph unicode="X" horiz-adv-x="1209" d="M19 0l579 687l-342 677h144l286 -582h8l496 582h159l-592 -686l353 -678h-144l-298 586h-7l-483 -586h-159z" />
<glyph unicode="Y" horiz-adv-x="1120" d="M226 1364h138l274 -650h8l492 650h154l-600 -766l-104 -598h-129l105 597z" />
<glyph unicode="Z" horiz-adv-x="1195" d="M103 0l18 101l964 1138l2 10h-763l20 115h923l-16 -105l-964 -1135l-2 -10h790l-19 -114h-953z" />
<glyph unicode="[" horiz-adv-x="653" d="M82 -227l280 1591h387l-17 -96h-267l-247 -1398h281l-18 -97h-399z" />
<glyph unicode="\" horiz-adv-x="660" d="M236 1415h120l242 -1704h-120z" />
<glyph unicode="]" horiz-adv-x="653" d="M9 -227l17 97h280l247 1398h-268l18 96h386l-280 -1591h-400z" />
<glyph unicode="^" horiz-adv-x="795" d="M179 797l350 568h128l152 -568h-111l-117 458h-7l-278 -458h-117z" />
<glyph unicode="_" horiz-adv-x="947" d="M-49 -204l21 102h912l-22 -102h-911z" />
<glyph unicode="`" horiz-adv-x="938" d="M437 1556h146l180 -339h-104z" />
<glyph unicode="a" horiz-adv-x="1088" d="M134 269q0 29 1 44q14 134 121 211t297 77h296l12 77q6 30 6 63q0 91 -62 150t-181 59q-103 0 -165 -40.5t-80 -98.5h-124q20 108 120.5 178.5t257.5 70.5q166 0 261 -82t95 -225q0 -55 -17 -149l-106 -604h-124l25 145l-9 1q-31 -62 -112.5 -112.5t-195.5 -50.5 q-135 0 -225 77.5t-91 208.5zM262 283q0 -87 59.5 -138.5t157.5 -51.5q118 0 209 70.5t111 181.5l28 150h-286q-132 0 -205.5 -59t-73.5 -153z" />
<glyph unicode="b" horiz-adv-x="1177" d="M145 0l260 1464h127l-106 -589h10q36 75 114 130t197 55q165 0 266.5 -104.5t101.5 -282.5q0 -68 -9 -122l-33 -190q-30 -171 -143 -274.5t-285 -103.5q-123 0 -212.5 70.5t-112.5 165.5h-10l-39 -219h-126zM355 408q1 -75 26 -136t66.5 -97.5t91.5 -56t103 -19.5 q123 0 207.5 83.5t108.5 220.5l28 160q5 35 5 95q0 135 -76 214.5t-203 79.5t-213.5 -87.5t-109.5 -222.5l-29 -176q-5 -30 -5 -58z" />
<glyph unicode="c" horiz-adv-x="1060" d="M165 377q0 67 12 145l26 152q32 187 148.5 286.5t291.5 99.5q173 0 277.5 -93t104.5 -231q0 -3 -0.5 -10t-0.5 -8h-124q1 5 1 15q0 87 -70 153t-188 66q-124 0 -208.5 -81.5t-110.5 -229.5l-22 -126q-10 -60 -10 -110q0 -147 73 -228t209 -81q105 0 173.5 45.5 t83.5 113.5h127q-21 -122 -127 -197t-263 -75q-182 0 -292.5 106t-110.5 288z" />
<glyph unicode="d" horiz-adv-x="1180" d="M164 372q0 82 10 127l35 190q30 167 142.5 269t287.5 102q127 0 215.5 -70t107.5 -159h10l111 633h128l-259 -1464h-125l31 178h-10q-32 -78 -113.5 -136t-198.5 -58q-164 0 -268 107t-104 281zM291 393q0 -137 75.5 -216t204.5 -79q126 0 214 86t112 224l31 177 q6 36 6 58q0 143 -86 225.5t-204 82.5q-126 0 -208 -83.5t-109 -222.5l-30 -157q-6 -42 -6 -95z" />
<glyph unicode="e" horiz-adv-x="1082" d="M163 374q0 74 15 153l25 138q31 180 148.5 287.5t298.5 107.5q103 0 181 -36.5t120.5 -97.5t59.5 -135q11 -48 11 -99q0 -27 -3 -55q0 -6 -9.5 -64t-13.5 -77h-700q-11 -50 -11 -109q0 -128 69 -209.5t209 -81.5q105 0 176 45.5t87 106.5h126q-18 -102 -125.5 -183.5 t-270.5 -81.5q-177 0 -285 102.5t-108 288.5zM316 599h577q6 24 6 42q3 27 3 52q0 101 -54 171q-68 88 -203 88q-118 0 -201.5 -74.5t-113.5 -211.5q-1 -3 -7.5 -33.5t-6.5 -33.5z" />
<glyph unicode="f" horiz-adv-x="717" d="M183 937l18 106h179l12 78q42 303 339 303q68 0 119 -12l-20 -104q-32 8 -99 8q-94 0 -143.5 -44t-67.5 -143l-15 -86h258l-19 -106h-259l-164 -937h-127l166 937h-177z" />
<glyph unicode="g" horiz-adv-x="1174" d="M108 -92q0 2 0.5 10t0.5 9h124v-17q0 -72 74 -127t192 -55q278 0 331 301l31 175h-10q-32 -76 -111 -128.5t-198 -52.5q-153 0 -262.5 107.5t-109.5 280.5q0 75 13 143l23 121q35 191 153 288t274 97q129 0 215 -68t110 -161h10l37 212h126l-183 -1037 q-69 -388 -457 -388q-170 0 -276.5 84.5t-106.5 205.5zM295 433q0 -144 77 -223.5t207 -79.5q121 0 207.5 86t109.5 218l22 122q9 51 9 92q0 136 -81 219.5t-208 83.5q-119 0 -203 -82.5t-111 -232.5l-17 -92q-12 -74 -12 -111z" />
<glyph unicode="h" horiz-adv-x="1183" d="M146 0l258 1464h127l-109 -597h10q40 89 122.5 141t197.5 52q153 0 240.5 -93t87.5 -232q0 -58 -16 -148l-103 -587h-128l105 594q12 60 12 118q0 105 -60 172t-173 67q-135 0 -222 -93.5t-111 -229.5l-111 -628h-127z" />
<glyph unicode="i" horiz-adv-x="534" d="M162 0l184 1043h127l-183 -1043h-128zM348 1358q0 43 29 72t71 29q44 0 73 -29t29 -72q0 -42 -29.5 -71t-72.5 -29q-41 0 -70.5 29t-29.5 71z" />
<glyph unicode="j" horiz-adv-x="535" d="M-137 -324l23 106q36 -9 77 -9q158 0 192 186l191 1084h128l-191 -1076q-28 -159 -106 -231t-225 -72q-41 0 -89 12zM350 1358q0 43 28.5 72t70.5 29q44 0 73 -29t29 -72q0 -42 -29.5 -71t-72.5 -29q-41 0 -70 29t-29 71z" />
<glyph unicode="k" horiz-adv-x="1059" d="M145 0l258 1464h127l-152 -869h9l561 454h178l-525 -419l350 -630h-143l-307 561l-151 -120l-78 -441h-127z" />
<glyph unicode="l" horiz-adv-x="536" d="M163 0l258 1464h127l-258 -1464h-127z" />
<glyph unicode="m" horiz-adv-x="1753" d="M145 0l184 1043h124l-31 -176h10q36 85 112 139t183 54q119 0 193.5 -58t99.5 -147h9q15 34 38 66t60.5 65.5t94 53.5t123.5 20q147 0 226 -87.5t79 -225.5q0 -54 -16 -152l-104 -595h-127l105 603q11 71 11 114q0 107 -50.5 170.5t-152.5 63.5q-120 0 -194.5 -90 t-100.5 -237l-110 -624h-128l107 607q10 65 10 112q0 107 -53.5 169.5t-154.5 62.5q-127 0 -206 -92.5t-103 -233.5l-110 -625h-128z" />
<glyph unicode="n" horiz-adv-x="1178" d="M145 0l184 1043h125l-32 -176h10q42 90 124 141.5t194 51.5q155 0 240 -93t85 -232q0 -47 -16 -148l-104 -587h-127l105 594q11 69 11 118q0 104 -59 171.5t-171 67.5q-134 0 -220.5 -93t-110.5 -230l-110 -628h-128z" />
<glyph unicode="o" d="M166 382q0 76 11 137l25 143q33 191 154 294.5t290 103.5q183 0 299 -108.5t116 -303.5q0 -54 -11 -120l-26 -144q-35 -193 -151.5 -297t-302.5 -104q-177 0 -290.5 107.5t-113.5 291.5zM290 400q0 -137 79.5 -221t214.5 -84q126 0 209.5 83.5t110.5 237.5l23 133 q7 39 7 101q0 132 -79.5 215t-212.5 83q-120 0 -205 -77t-113 -234l-23 -126q-11 -61 -11 -111z" />
<glyph unicode="p" horiz-adv-x="1176" d="M83 -354l245 1397h125l-30 -168h10q34 76 113 130.5t197 54.5q166 0 268.5 -105t102.5 -282q0 -76 -9 -122l-34 -190q-26 -167 -140.5 -272.5t-290.5 -105.5q-126 0 -213.5 72.5t-106.5 163.5h-11l-99 -573h-127zM350 408q1 -97 43.5 -169t106 -106t136.5 -34 q127 0 212.5 85.5t108.5 218.5l27 160q7 36 7 95q0 134 -78 214t-206 80q-125 0 -212 -86t-110 -224l-30 -176q-5 -29 -5 -58z" />
<glyph unicode="q" horiz-adv-x="1178" d="M164 372q0 81 10 127l36 190q30 164 143.5 267.5t287.5 103.5q127 0 215 -69.5t108 -159.5h11l36 212h125l-249 -1397h-127l96 530h-10q-38 -78 -116 -134t-194 -56q-162 0 -267 106.5t-105 279.5zM292 393q0 -136 76.5 -215t204.5 -79q127 0 214 85.5t111 223.5l30 176 q5 29 5 61q0 142 -85.5 224t-201.5 82q-126 0 -209 -86.5t-108 -219.5l-31 -157q-6 -32 -6 -95z" />
<glyph unicode="r" horiz-adv-x="766" d="M146 0l183 1043h122l-32 -178h9q34 83 111 139t187 56q52 0 96 -11l-28 -120q-31 13 -93 13q-90 0 -158.5 -45.5t-107 -116.5t-54.5 -163l-108 -617h-127z" />
<glyph unicode="s" horiz-adv-x="1009" d="M112 277q0 14 1 17h122q0 -15 1 -22q9 -78 87.5 -129t190.5 -51q114 0 184 51t70 140q0 30 -7.5 54t-25.5 43t-35 32t-48.5 26.5t-52 20.5t-60.5 20q-49 16 -79.5 27.5t-77 37t-73.5 53t-47.5 72t-20.5 98.5q0 136 97 215.5t264 79.5q162 0 262.5 -82.5t100.5 -198.5 q0 -19 -1 -22h-120v14q0 74 -67.5 129.5t-176.5 55.5q-103 0 -168 -49t-65 -127q0 -28 8 -51.5t26 -42t35.5 -32t49 -27t54 -21.5t61.5 -21q71 -23 116 -43.5t89.5 -54t66 -82t21.5 -114.5q0 -149 -106.5 -230t-281.5 -81q-169 0 -281.5 85t-112.5 210z" />
<glyph unicode="t" horiz-adv-x="739" d="M181 937l19 106h178l47 259h126l-46 -259h249l-19 -106h-248l-104 -593q-18 -98 -18 -134q0 -58 33 -84.5t105 -26.5q77 0 128 11l-19 -107q-46 -12 -136 -12q-242 0 -242 188q0 46 14 122l112 636h-179z" />
<glyph unicode="u" horiz-adv-x="1165" d="M190 304q0 69 16 155l106 584h127l-106 -592q-12 -68 -12 -124q0 -105 62 -167t178 -62q90 0 161 46t110.5 116.5t55.5 158.5l109 624h123l-184 -1043h-120l32 181h-10q-38 -88 -121 -143t-194 -55q-153 0 -243 90.5t-90 230.5z" />
<glyph unicode="v" horiz-adv-x="1010" d="M203 1043h130l133 -899h8l450 899h130l-537 -1043h-137z" />
<glyph unicode="w" horiz-adv-x="1430" d="M181 1043h129l75 -893h8l379 893h116l85 -893h7l378 893h131l-467 -1043h-135l-81 859h-7l-363 -859h-141z" />
<glyph unicode="x" horiz-adv-x="996" d="M21 0l450 527l-269 516h138l217 -429h7l358 429h149l-452 -523l276 -520h-140l-221 429h-5l-360 -429h-148z" />
<glyph unicode="y" horiz-adv-x="1047" d="M42 -331l24 106q39 -10 80 -10q82 0 132 42.5t91 130.5l36 73l-200 1032h136l151 -890h8l454 890h136l-555 -1044l-47 -92q-37 -71 -67.5 -114t-72 -75.5t-94.5 -46t-127 -13.5q-47 0 -85 11z" />
<glyph unicode="z" horiz-adv-x="947" d="M70 0l22 122l723 806l2 10h-605l19 105h758l-22 -118l-723 -806l-1 -10h605l-18 -109h-760z" />
<glyph unicode="{" horiz-adv-x="739" d="M156 516l26 148q100 0 145.5 47t64.5 157l46 255q17 95 53 158.5t91.5 96t116.5 45t145 12.5h46l-18 -103h-50q-230 0 -267 -214l-53 -297q-19 -109 -68 -161.5t-135 -58.5l-3 -21q74 -8 108 -64t17 -156q-67 -377 -67 -393q-6 -92 36.5 -130t160.5 -38h50l-19 -104h-53 q-159 0 -231 59.5t-62 186.5q0 42 58 372q19 109 -9.5 156t-128.5 47z" />
<glyph unicode="|" horiz-adv-x="641" d="M173 -289l300 1704h121l-301 -1704h-120z" />
<glyph unicode="}" horiz-adv-x="738" d="M-35 -305l18 104h50q231 0 268 214l60 347q19 109 68 161.5t135 58.5l3 21q-74 8 -108 64t-16 156q58 322 58 342q6 93 -35.5 131t-161.5 38h-49l18 103h53q159 0 231.5 -58.5t62.5 -183.5q0 -55 -14 -145.5t-28.5 -161t-14.5 -75.5q-6 -77 26.5 -112t117.5 -35l-26 -148 q-99 0 -145 -47t-65 -156l-53 -303q-14 -77 -41.5 -133.5t-63 -91t-85 -55t-100.5 -28t-117 -7.5h-46z" />
<glyph unicode="~" horiz-adv-x="1155" d="M155 573q10 120 88 204.5t192 84.5q59 0 110.5 -26t87.5 -62.5t69.5 -73t73.5 -62.5t83 -26q64 0 109 49.5t59 123.5h113q-13 -114 -91 -200t-194 -86q-60 0 -111.5 26t-87.5 62.5t-69 73.5t-72.5 63t-81.5 26q-59 0 -104.5 -46.5t-59.5 -130.5h-114z" />
<glyph unicode="&#xa1;" horiz-adv-x="589" d="M132 -320l190 955h97l-146 -955h-141zM300 947q0 47 33.5 79.5t82.5 32.5q47 0 80 -32.5t33 -79.5q0 -49 -33 -82.5t-80 -33.5q-50 0 -83 33.5t-33 82.5z" />
<glyph unicode="&#xa2;" horiz-adv-x="1107" d="M210 533q0 76 12 144l26 152q31 184 146 284.5t287 102.5h7l44 243h105l-45 -254q128 -27 203 -113t75 -200q0 -3 -0.5 -10.5t-0.5 -8.5h-120q1 3 1 16q0 86 -72 152t-191 66q-123 0 -207.5 -81.5t-110.5 -229.5l-22 -125q-11 -59 -11 -111q0 -147 73.5 -228t209.5 -81 q105 0 172.5 45.5t82.5 113.5h129q-21 -122 -127 -197t-263 -75h-9l-40 -228h-107l43 241q-135 30 -212.5 130t-77.5 252z" />
<glyph unicode="&#xa3;" horiz-adv-x="1107" d="M65 0l21 116q29 0 43.5 0.5t43.5 5.5t46.5 14t42 28t40.5 46.5t32 70.5t26 98l47 271h-216l18 104h214l63 355q24 139 117 211.5t232 72.5q161 0 255 -93.5t86 -230.5q0 -2 -0.5 -5t-0.5 -4h-119q1 2 1 6q7 85 -52.5 150t-166.5 65q-100 0 -157.5 -54.5t-74.5 -149.5 l-57 -323h314l-18 -104h-312l-48 -278q-35 -201 -155 -251l-1 -12h721l-19 -109h-966z" />
<glyph unicode="&#xa4;" horiz-adv-x="1107" d="M107 337l208 153q-42 79 -42 172q0 138 99 240l-139 194l88 64l137 -193q78 43 172 43q136 0 236 -102l225 165l62 -89l-226 -164q42 -78 42 -170q0 -144 -108 -250l128 -178l-86 -63l-130 180q-67 -36 -157 -36q-141 0 -239 100l-209 -154zM368 655q0 -107 74.5 -183 t178.5 -76q106 0 179.5 76t73.5 183q0 109 -73.5 185t-179.5 76q-105 0 -179 -76.5t-74 -184.5z" />
<glyph unicode="&#xa5;" horiz-adv-x="1115" d="M224 1364h138l274 -650h8l491 650h155l-543 -693h241l-17 -96h-286l-28 -165h284l-17 -97h-284l-54 -313h-129l54 313h-274l17 97h275l28 165h-274l18 96h228z" />
<glyph unicode="&#xa6;" horiz-adv-x="641" d="M168 -309l121 685h121l-121 -685h-121zM361 783l115 654h121l-115 -654h-121z" />
<glyph unicode="&#xa7;" horiz-adv-x="1011" d="M87 44q0 17 4 43l121 -2q-1 -4 -1 -15q1 -102 81.5 -155t195.5 -53q111 0 182 55t71 146q0 72 -56 116.5t-182 93.5q-1 0 -8.5 3t-8.5 3q-149 56 -222.5 125.5t-73.5 181.5q0 98 65 168t162 97l2 7q-49 32 -87 89.5t-38 138.5q0 142 105 224t262 82q63 0 125 -18 t114.5 -52t85 -91t32.5 -128q0 -24 -5 -54l-119 2q4 16 4 34q0 90 -73.5 142t-170.5 52q-94 0 -164 -48t-70 -134q0 -80 57 -130t182 -100q56 -23 93 -40.5t79.5 -45t67.5 -56.5t41.5 -69.5t16.5 -88.5q0 -98 -55.5 -169.5t-146.5 -110.5v-7q114 -86 114 -203 q0 -152 -113 -240t-279 -88q-65 0 -131 17.5t-125.5 51.5t-96.5 93t-37 133zM317 595q0 -67 49 -115t141 -88q14 -6 70 -25.5t75 -25.5q69 18 122.5 75t53.5 136q0 121 -192 199q-79 34 -117 45q-78 -10 -140 -67.5t-62 -133.5z" />
<glyph unicode="&#xa8;" horiz-adv-x="938" d="M392 1293q0 39 26.5 64.5t65.5 25.5t66 -25.5t27 -64.5q0 -37 -27 -62.5t-66 -25.5t-65.5 25.5t-26.5 62.5zM724 1293q0 39 26 64.5t64 25.5q41 0 68 -25.5t27 -64.5q0 -38 -27.5 -63t-67.5 -25q-38 0 -64 25.5t-26 62.5z" />
<glyph unicode="&#xa9;" horiz-adv-x="1721" d="M219 613q0 43 7 104l13 107q33 266 232.5 435t486.5 169q153 0 285 -52t223.5 -141t143.5 -211.5t52 -259.5q0 -56 -5 -93l-13 -106q-35 -281 -234.5 -454.5t-491.5 -173.5q-205 0 -365 88.5t-247 242t-87 345.5zM320 608q0 -170 77 -301t212.5 -202t306.5 -71 q253 0 426.5 146.5t202.5 390.5l13 111q5 43 5 72q0 166 -81.5 298.5t-220 205t-307.5 72.5q-247 0 -417.5 -146.5t-197.5 -370.5l-13 -110q-6 -47 -6 -95zM619 586q0 42 10 102l18 103q24 133 105 204t210 71q123 0 200 -66t79 -167v-9h-99v4q-2 59 -52 103.5t-126 44.5 q-89 0 -146.5 -55.5t-74.5 -155.5l-14 -85q-8 -39 -8 -69q0 -105 51.5 -160t151.5 -55q66 0 110.5 25.5t56.5 67.5h104q-18 -85 -94 -135.5t-185 -50.5q-132 0 -214.5 76t-82.5 207z" />
<glyph unicode="&#xaa;" horiz-adv-x="692" d="M243 897q0 87 63 132t173 45h142q7 35 7 45q0 2 0.5 7.5t0.5 10.5q0 47 -30.5 74t-84.5 27q-43 0 -74.5 -18t-38.5 -48h-95q10 63 67 105.5t150 42.5q95 0 148.5 -47.5t53.5 -134.5q0 -16 -4 -42l-62 -351h-95l15 75h-6q-18 -34 -59.5 -59t-99.5 -25q-74 0 -122.5 42.5 t-48.5 118.5zM342 905q0 -40 27.5 -64t74.5 -24q56 0 98 33.5t52 86.5q3 22 13 68h-134q-63 0 -97 -27.5t-34 -72.5z" />
<glyph unicode="&#xab;" horiz-adv-x="1271" d="M222 557l2 8l424 404h153l-428 -411l-1 -6l268 -397h-143zM661 557l1 8l425 404h152l-428 -411l-1 -6l268 -397h-143z" />
<glyph unicode="&#xac;" horiz-adv-x="1113" d="M156 493l19 106h896l-84 -476h-113l65 370h-783z" />
<glyph unicode="&#xad;" horiz-adv-x="874" d="M169 506l19 113h633l-20 -113h-632z" />
<glyph unicode="&#xae;" horiz-adv-x="1214" d="M243 873q0 10 2 30l4 26q12 210 143 337.5t341 127.5q207 0 341 -126t134 -328q0 -15 -2 -31l-4 -31q-14 -214 -144 -338.5t-341 -124.5q-210 0 -342 124.5t-132 333.5zM322 873q0 -177 110 -279.5t285 -102.5q178 0 285.5 104t121.5 284l3 31q2 8 2 30q0 170 -112.5 274 t-283.5 104q-176 0 -287 -107.5t-119 -283.5l-4 -27q-1 -10 -1 -27zM514 655l93 520h176q78 0 116.5 -38t38.5 -104q0 -5 -2 -27q-7 -49 -40 -84.5t-83 -49.5l73 -217h-80l-64 207h-31h-86l-35 -207h-76zM636 924h94q113 0 130 86q2 16 2 26q0 33 -24 54t-68 21h-99z" />
<glyph unicode="&#xaf;" horiz-adv-x="938" d="M364 1270l16 90h578l-15 -90h-579z" />
<glyph unicode="&#xb0;" horiz-adv-x="716" d="M242 1110q0 112 79 191t192 79q112 0 191 -79t79 -191q0 -113 -79 -192.5t-191 -79.5q-113 0 -192 79.5t-79 192.5zM343 1110q0 -69 51 -120t119 -51q71 0 121 50.5t50 120.5q0 71 -50 121t-121 50q-68 0 -119 -50.5t-51 -120.5z" />
<glyph unicode="&#xb1;" horiz-adv-x="1122" d="M81 137l19 107h927l-19 -107h-927zM171 672l19 106h410l51 291h106l-51 -291h410l-19 -106h-410l-54 -307h-106l54 307h-410z" />
<glyph unicode="&#xb2;" horiz-adv-x="690" d="M257 705l14 74l276 256q29 28 46.5 47.5t34 50.5t16.5 59q0 41 -28.5 68t-79.5 27q-52 0 -83 -29.5t-35 -73.5h-97q7 86 69 139t154 53q89 0 146 -49t57 -129q0 -62 -34 -112t-101 -112l-199 -181v-1h302l-16 -87h-442z" />
<glyph unicode="&#xb3;" horiz-adv-x="684" d="M212 887h91v-2q2 -46 38 -75.5t92 -29.5q55 0 92.5 29.5t37.5 85.5q0 93 -126 108q-15 2 -50 2l4 87q5 -1 55 -1q59 0 104 28t45 78q0 42 -31.5 67.5t-79.5 25.5q-45 0 -71.5 -22t-34.5 -53h-99q8 70 64.5 115.5t142.5 45.5q85 0 146.5 -44.5t61.5 -125.5q0 -66 -40 -109 t-95 -54v-1q51 -16 79.5 -57.5t28.5 -97.5q0 -89 -67.5 -144.5t-172.5 -52.5q-97 3 -153 52.5t-61 121.5q-1 9 -1 23z" />
<glyph unicode="&#xb4;" horiz-adv-x="938" d="M436 1217l280 339h144l-322 -339h-102z" />
<glyph unicode="&#xb6;" horiz-adv-x="1244" d="M306 930q0 11 2 29q5 100 49 179t115 127.5t158.5 74t185.5 25.5h145l-277 -1575h-126l128 726l-20 4q-43 7 -89 25t-95.5 52.5t-87.5 79t-63 110.5t-25 143zM848 -210l278 1575h126l-278 -1575h-126z" />
<glyph unicode="&#xb7;" horiz-adv-x="519" d="M230 717q0 49 33 82.5t80 33.5q49 0 82.5 -33.5t33.5 -82.5q0 -47 -33.5 -79.5t-82.5 -32.5q-47 0 -80 32.5t-33 79.5z" />
<glyph unicode="&#xb8;" horiz-adv-x="938" d="M177 -446l14 84q66 -22 135 -22q50 0 86.5 21t36.5 68q0 78 -139 83l-50 2l10 66l50 156h99l-45 -149q83 -3 135.5 -41.5t52.5 -111.5q0 -86 -66 -135t-164 -49q-82 0 -155 28z" />
<glyph unicode="&#xb9;" horiz-adv-x="617" d="M300 1162l18 100l178 102h98l-116 -659h-98l97 552h-5z" />
<glyph unicode="&#xba;" horiz-adv-x="715" d="M248 1002q0 12 6 48l8 46q18 103 85.5 160t163.5 57q112 0 180 -75.5t53 -197.5q0 -12 -6 -48q0 -1 -3.5 -21.5t-4.5 -24.5q-18 -104 -84.5 -161t-164.5 -57q-114 0 -181.5 74.5t-51.5 199.5zM340 994q-11 -80 27 -131.5t111 -51.5q65 0 106.5 42t54.5 115l7 37 q5 30 5 44q11 78 -28 130t-110 52q-61 0 -104.5 -41.5t-56.5 -115.5l-7 -37q0 -2 -2.5 -21t-2.5 -22z" />
<glyph unicode="&#xbb;" horiz-adv-x="1268" d="M147 155l426 411l1 6l-269 397h140l278 -403l-2 -8l-422 -403h-152zM585 155l426 411l1 6l-269 397h140l278 -403l-2 -8l-421 -403h-153z" />
<glyph unicode="&#xbc;" horiz-adv-x="1556" d="M203 0l558 682l558 682h123l-558 -682l-558 -682h-123zM283 1162l18 100l178 102h98l-116 -659h-98l97 552h-5zM901 143l13 79q30 44 81 109t87.5 109t104 123.5t83.5 98.5h146l-76 -439h92l-12 -80h-93l-25 -143h-97l25 143h-329zM1021 223h221l65 353h-6 q-22 -27 -85.5 -104.5t-112.5 -138.5t-81 -105z" />
<glyph unicode="&#xbd;" horiz-adv-x="1583" d="M210 0l558 682l558 682h123l-558 -682l-558 -682h-123zM283 1162l18 100l178 102h98l-116 -659h-98l97 552h-5zM978 0l14 75l277 256q29 28 46.5 47.5t34 50.5t16.5 59q0 42 -28.5 69t-79.5 27q-35 0 -61.5 -14.5t-40.5 -37.5t-16 -52h-98q8 87 69.5 140t154.5 53 q58 0 104.5 -22t72.5 -63t26 -94q0 -61 -34 -111.5t-101 -112.5l-199 -181v-1h302l-16 -88h-443z" />
<glyph unicode="&#xbe;" horiz-adv-x="1686" d="M235 887h91v-2q2 -46 38 -75.5t92 -29.5q55 0 92.5 29.5t37.5 85.5q0 93 -126 108q-15 2 -50 2l4 87q5 -1 55 -1q59 0 104 28t45 78q0 42 -31.5 67.5t-79.5 25.5q-45 0 -71.5 -22t-34.5 -53h-99q8 70 64.5 115.5t142.5 45.5q85 0 146.5 -44.5t61.5 -125.5q0 -66 -40 -109 t-95 -54v-1q51 -16 79.5 -57.5t28.5 -97.5q0 -89 -67.5 -144.5t-172.5 -52.5q-97 3 -153 52.5t-61 121.5q-1 9 -1 23zM321 0l558 682l558 682h123l-558 -682l-558 -682h-123zM1031 143l13 79q25 36 57.5 79t79 99.5t71 86t83 98.5t65.5 77h145l-76 -439h92l-12 -80h-92 l-25 -143h-97l24 143h-328zM1151 223h221l65 353h-6q-22 -27 -85.5 -104.5t-112.5 -138.5t-81 -105z" />
<glyph unicode="&#xbf;" horiz-adv-x="999" d="M64 -2q0 54 16 102t37.5 81t61.5 68.5t69 56t79 52.5q55 35 80.5 53.5t52 44.5t38 53.5t18.5 68.5l15 83h124l-15 -86q-19 -108 -64 -165.5t-174 -137.5q-44 -28 -64 -41t-54.5 -42t-51 -52.5t-30 -59t-13.5 -75.5q0 -101 70.5 -154.5t177.5 -55.5q65 -1 117.5 18.5 t85.5 53t53 69.5t29 76h124q-10 -66 -40 -123.5t-79 -104.5t-124 -73.5t-168 -25.5q-105 2 -187 36t-133 106.5t-51 173.5zM512 979q0 47 33.5 80t82.5 33q47 0 80 -33t33 -80q0 -49 -32.5 -82t-79.5 -33q-50 0 -83.5 33t-33.5 82z" />
<glyph unicode="&#xc0;" horiz-adv-x="1222" d="M17 0l730 1364h137l247 -1364h-132l-74 438h-539l-228 -438h-141zM443 545h463l-111 660h-9zM520 1721h163l278 -209h-141z" />
<glyph unicode="&#xc1;" horiz-adv-x="1222" d="M17 0l730 1364h137l247 -1364h-132l-74 438h-539l-228 -438h-141zM443 545h463l-111 660h-9zM708 1513l301 209h170l-326 -209h-145z" />
<glyph unicode="&#xc2;" horiz-adv-x="1222" d="M17 0l730 1364h137l247 -1364h-132l-74 438h-539l-228 -438h-141zM443 545h463l-111 660h-9zM511 1500l302 225h117l217 -225h-132l-145 152h-9l-206 -152h-144z" />
<glyph unicode="&#xc3;" horiz-adv-x="1222" d="M17 0l730 1364h137l247 -1364h-132l-74 438h-539l-228 -438h-141zM443 545h463l-111 660h-9zM535 1485q0 91 45.5 150t129.5 59q40 0 72.5 -14.5t54 -35.5t40.5 -42t40.5 -35.5t44.5 -14.5q40 0 63 38.5t26 88.5h93q0 -86 -49.5 -151.5t-134.5 -65.5q-38 0 -69.5 14.5 t-52.5 36t-40.5 42.5t-42 35.5t-47.5 14.5q-75 0 -79 -120h-94z" />
<glyph unicode="&#xc4;" horiz-adv-x="1222" d="M17 0l730 1364h137l247 -1364h-132l-74 438h-539l-228 -438h-141zM443 545h463l-111 660h-9zM600 1574q0 38 25.5 63t63.5 25t63.5 -25t25.5 -63q0 -37 -25.5 -61t-63.5 -24t-63.5 24t-25.5 61zM922 1574q0 38 25.5 63t61.5 25q39 0 65 -25t26 -63q0 -37 -26 -61t-65 -24 q-36 0 -61.5 24.5t-25.5 60.5z" />
<glyph unicode="&#xc5;" horiz-adv-x="1222" d="M17 0l730 1364h137l247 -1364h-132l-74 438h-539l-228 -438h-141zM443 545h463l-111 660h-9zM688 1675q0 75 53 126t128 51t127.5 -51t52.5 -126t-52.5 -126.5t-127.5 -51.5t-128 51.5t-53 126.5zM760 1675q0 -46 31.5 -78.5t77.5 -32.5q45 0 76.5 32.5t31.5 78.5 t-31 77.5t-77 31.5t-77.5 -31.5t-31.5 -77.5z" />
<glyph unicode="&#xc6;" horiz-adv-x="1842" d="M-9 0l1064 1364h853l-20 -116h-660l-87 -488h628l-19 -115h-629l-94 -530h663l-20 -115h-791l79 445h-469l-350 -445h-148zM566 553h411l118 643h-28z" />
<glyph unicode="&#xc7;" horiz-adv-x="1289" d="M200 482q0 93 11 153l47 249q45 242 190.5 375.5t357.5 133.5q113 0 206 -35.5t151 -93.5t89 -128t31 -142q0 -27 -3 -39h-125q2 18 1 34q-3 47 -25 94t-62 91.5t-110 72t-157 27.5q-169 0 -274 -109.5t-142 -300.5l-43 -223q-13 -63 -13 -154q0 -195 104.5 -296 t273.5 -101q147 0 241 73.5t117 185.5h128q-2 -18 -7 -38q-13 -65 -50.5 -124.5t-96.5 -108t-145 -77.5t-188 -30h-16l-33 -108q83 -3 135.5 -41.5t52.5 -111.5q0 -86 -66 -135t-163 -49q-83 0 -156 28l14 84q66 -22 135 -22q50 0 86.5 21t36.5 68q0 78 -139 83l-50 2l10 66 l39 123q-177 30 -285 158.5t-108 344.5z" />
<glyph unicode="&#xc8;" d="M162 0l240 1364h788l-19 -116h-660l-86 -489h627l-21 -114h-627l-93 -530h662l-19 -115h-792zM489 1721h163l278 -209h-141z" />
<glyph unicode="&#xc9;" d="M162 0l240 1364h788l-19 -116h-660l-86 -489h627l-21 -114h-627l-93 -530h662l-19 -115h-792zM677 1513l301 209h170l-326 -209h-145z" />
<glyph unicode="&#xca;" d="M162 0l240 1364h788l-19 -116h-660l-86 -489h627l-21 -114h-627l-93 -530h662l-19 -115h-792zM480 1500l302 225h117l217 -225h-132l-145 152h-9l-206 -152h-144z" />
<glyph unicode="&#xcb;" d="M162 0l240 1364h788l-19 -116h-660l-86 -489h627l-21 -114h-627l-93 -530h662l-19 -115h-792zM569 1574q0 38 25.5 63t63.5 25t63.5 -25t25.5 -63q0 -37 -25.5 -61t-63.5 -24t-63.5 24t-25.5 61zM891 1574q0 38 25.5 63t61.5 25q39 0 65 -25t26 -63q0 -37 -26 -61 t-65 -24q-36 0 -61.5 24.5t-25.5 60.5z" />
<glyph unicode="&#xcc;" horiz-adv-x="539" d="M164 0l240 1364h129l-240 -1364h-129zM177 1721h163l278 -209h-141z" />
<glyph unicode="&#xcd;" horiz-adv-x="539" d="M164 0l240 1364h129l-240 -1364h-129zM365 1513l301 209h170l-326 -209h-145z" />
<glyph unicode="&#xce;" horiz-adv-x="539" d="M164 0l240 1364h129l-240 -1364h-129zM168 1500l302 225h117l217 -225h-132l-145 152h-9l-206 -152h-144z" />
<glyph unicode="&#xcf;" horiz-adv-x="539" d="M164 0l240 1364h129l-240 -1364h-129zM257 1574q0 38 25.5 63t63.5 25t63.5 -25t25.5 -63q0 -37 -25.5 -61t-63.5 -24t-63.5 24t-25.5 61zM579 1574q0 38 25.5 63t61.5 25q39 0 65 -25t26 -63q0 -37 -26 -61t-65 -24q-36 0 -61.5 24.5t-25.5 60.5z" />
<glyph unicode="&#xd0;" horiz-adv-x="1423" d="M189 641l20 114h159l109 609h362q263 0 399.5 -137t136.5 -371q0 -78 -11 -149q-2 -27 -24 -150q-49 -281 -232.5 -419t-511.5 -138h-360l113 641h-160zM386 115h214q260 0 416 113t197 342q19 97 22 136q10 59 10 135q0 197 -110 302t-329 105h-221l-87 -493h333 l-20 -114h-332z" />
<glyph unicode="&#xd1;" horiz-adv-x="1416" d="M162 0l240 1364h128l541 -1150h8l204 1150h128l-240 -1364h-125l-545 1148h-9l-202 -1148h-128zM638 1485q0 91 45.5 150t129.5 59q40 0 72.5 -14.5t54 -35.5t40.5 -42t40.5 -35.5t44.5 -14.5q40 0 63 38.5t26 88.5h93q0 -86 -49.5 -151.5t-134.5 -65.5q-38 0 -69.5 14.5 t-52.5 36t-40.5 42.5t-42 35.5t-47.5 14.5q-75 0 -79 -120h-94z" />
<glyph unicode="&#xd2;" horiz-adv-x="1377" d="M200 472q0 103 15 186l40 225q42 239 192 374.5t366 135.5q232 0 377.5 -138.5t145.5 -381.5q0 -84 -16 -164l-40 -225q-45 -246 -190 -380t-381 -134q-106 0 -198.5 34t-162 96.5t-109 158.5t-39.5 213zM330 492q0 -183 107 -292.5t289 -109.5q171 0 281.5 110 t146.5 313l40 231q9 49 9 133q0 178 -107.5 287.5t-285.5 109.5q-165 0 -276.5 -104t-148.5 -306l-41 -221q-14 -84 -14 -151zM591 1721h163l278 -209h-141z" />
<glyph unicode="&#xd3;" horiz-adv-x="1377" d="M200 472q0 103 15 186l40 225q42 239 192 374.5t366 135.5q232 0 377.5 -138.5t145.5 -381.5q0 -84 -16 -164l-40 -225q-45 -246 -190 -380t-381 -134q-106 0 -198.5 34t-162 96.5t-109 158.5t-39.5 213zM330 492q0 -183 107 -292.5t289 -109.5q171 0 281.5 110 t146.5 313l40 231q9 49 9 133q0 178 -107.5 287.5t-285.5 109.5q-165 0 -276.5 -104t-148.5 -306l-41 -221q-14 -84 -14 -151zM779 1513l301 209h170l-326 -209h-145z" />
<glyph unicode="&#xd4;" horiz-adv-x="1377" d="M200 472q0 103 15 186l40 225q42 239 192 374.5t366 135.5q232 0 377.5 -138.5t145.5 -381.5q0 -84 -16 -164l-40 -225q-45 -246 -190 -380t-381 -134q-106 0 -198.5 34t-162 96.5t-109 158.5t-39.5 213zM330 492q0 -183 107 -292.5t289 -109.5q171 0 281.5 110 t146.5 313l40 231q9 49 9 133q0 178 -107.5 287.5t-285.5 109.5q-165 0 -276.5 -104t-148.5 -306l-41 -221q-14 -84 -14 -151zM582 1500l302 225h117l217 -225h-132l-145 152h-9l-206 -152h-144z" />
<glyph unicode="&#xd5;" horiz-adv-x="1377" d="M200 472q0 103 15 186l40 225q42 239 192 374.5t366 135.5q232 0 377.5 -138.5t145.5 -381.5q0 -84 -16 -164l-40 -225q-45 -246 -190 -380t-381 -134q-106 0 -198.5 34t-162 96.5t-109 158.5t-39.5 213zM330 492q0 -183 107 -292.5t289 -109.5q171 0 281.5 110 t146.5 313l40 231q9 49 9 133q0 178 -107.5 287.5t-285.5 109.5q-165 0 -276.5 -104t-148.5 -306l-41 -221q-14 -84 -14 -151zM606 1485q0 91 45.5 150t129.5 59q40 0 72.5 -14.5t54 -35.5t40.5 -42t40.5 -35.5t44.5 -14.5q40 0 63 38.5t26 88.5h93q0 -86 -49.5 -151.5 t-134.5 -65.5q-38 0 -69.5 14.5t-52.5 36t-40.5 42.5t-42 35.5t-47.5 14.5q-75 0 -79 -120h-94z" />
<glyph unicode="&#xd6;" horiz-adv-x="1377" d="M200 472q0 103 15 186l40 225q42 239 192 374.5t366 135.5q232 0 377.5 -138.5t145.5 -381.5q0 -84 -16 -164l-40 -225q-45 -246 -190 -380t-381 -134q-106 0 -198.5 34t-162 96.5t-109 158.5t-39.5 213zM330 492q0 -183 107 -292.5t289 -109.5q171 0 281.5 110 t146.5 313l40 231q9 49 9 133q0 178 -107.5 287.5t-285.5 109.5q-165 0 -276.5 -104t-148.5 -306l-41 -221q-14 -84 -14 -151zM671 1574q0 38 25.5 63t63.5 25t63.5 -25t25.5 -63q0 -37 -25.5 -61t-63.5 -24t-63.5 24t-25.5 61zM993 1574q0 38 25.5 63t61.5 25q39 0 65 -25 t26 -63q0 -37 -26 -61t-65 -24q-36 0 -61.5 24.5t-25.5 60.5z" />
<glyph unicode="&#xd7;" horiz-adv-x="1107" d="M167 180l357 308l-258 314l77 70l260 -316l373 312l64 -78l-373 -312l262 -317l-78 -70l-262 318l-358 -308z" />
<glyph unicode="&#xd8;" horiz-adv-x="1399" d="M109 141l137 126q-37 93 -37 205q0 102 15 187l40 224q43 239 192.5 374.5t365.5 135.5q139 0 250.5 -52t180.5 -150l128 118l68 -72l-147 -135q43 -103 43 -229q0 -81 -15 -164l-41 -225q-45 -246 -189.5 -380t-380.5 -134q-136 0 -247 53.5t-178 153.5l-121 -112z M340 492q0 -71 14 -126l801 736q-50 81 -137 126t-199 45q-164 0 -275.5 -103t-148.5 -306l-41 -220q-14 -76 -14 -152zM394 267q49 -84 137.5 -130t205.5 -46q171 0 280.5 109.5t145.5 312.5l40 231q10 55 10 133q0 69 -18 128z" />
<glyph unicode="&#xd9;" horiz-adv-x="1362" d="M221 411q0 69 13 134l144 819h131l-146 -832q-8 -44 -8 -103q0 -155 93.5 -246t252.5 -91q151 0 253.5 89t131.5 255l164 928h132l-165 -937q-40 -226 -178 -341.5t-341 -115.5q-213 0 -345 117.5t-132 323.5zM595 1721h163l278 -209h-141z" />
<glyph unicode="&#xda;" horiz-adv-x="1362" d="M221 411q0 69 13 134l144 819h131l-146 -832q-8 -44 -8 -103q0 -155 93.5 -246t252.5 -91q151 0 253.5 89t131.5 255l164 928h132l-165 -937q-40 -226 -178 -341.5t-341 -115.5q-213 0 -345 117.5t-132 323.5zM783 1513l301 209h170l-326 -209h-145z" />
<glyph unicode="&#xdb;" horiz-adv-x="1362" d="M221 411q0 69 13 134l144 819h131l-146 -832q-8 -44 -8 -103q0 -155 93.5 -246t252.5 -91q151 0 253.5 89t131.5 255l164 928h132l-165 -937q-40 -226 -178 -341.5t-341 -115.5q-213 0 -345 117.5t-132 323.5zM586 1500l302 225h117l217 -225h-132l-145 152h-9l-206 -152 h-144z" />
<glyph unicode="&#xdc;" horiz-adv-x="1362" d="M221 411q0 69 13 134l144 819h131l-146 -832q-8 -44 -8 -103q0 -155 93.5 -246t252.5 -91q151 0 253.5 89t131.5 255l164 928h132l-165 -937q-40 -226 -178 -341.5t-341 -115.5q-213 0 -345 117.5t-132 323.5zM675 1574q0 38 25.5 63t63.5 25t63.5 -25t25.5 -63 q0 -37 -25.5 -61t-63.5 -24t-63.5 24t-25.5 61zM997 1574q0 38 25.5 63t61.5 25q39 0 65 -25t26 -63q0 -37 -26 -61t-65 -24q-36 0 -61.5 24.5t-25.5 60.5z" />
<glyph unicode="&#xdd;" horiz-adv-x="1120" d="M226 1364h138l274 -650h8l492 650h154l-600 -766l-104 -598h-129l105 597zM655 1513l301 209h170l-326 -209h-145z" />
<glyph unicode="&#xde;" horiz-adv-x="1184" d="M161 0l242 1364h126l-47 -271h310q180 0 276.5 -89.5t96.5 -231.5q0 -41 -7 -80q-27 -180 -154.5 -269t-373.5 -89h-283l-59 -334h-127zM367 448h286q179 0 267.5 62.5t110.5 184.5q7 37 7 70q0 96 -64 155t-204 59h-306z" />
<glyph unicode="&#xdf;" horiz-adv-x="1234" d="M163 0l204 1154q23 133 124.5 211t255.5 78q170 0 286.5 -94t116.5 -256q0 -77 -28.5 -143t-74.5 -109.5t-98.5 -70.5t-105.5 -35l-1 -6q129 -21 216.5 -113.5t87.5 -250.5q0 -93 -35.5 -168t-95.5 -123t-137.5 -73.5t-164.5 -25.5q-122 0 -242 47l20 110 q36 -18 97.5 -32.5t122.5 -14.5q59 0 112.5 17t97.5 50t70.5 89.5t26.5 128.5q0 139 -96 223.5t-233 84.5h-80l23 128h90q129 0 216 75.5t87 206.5q0 117 -80 181t-198 64q-104 0 -172.5 -51.5t-84.5 -148.5l-199 -1133h-128z" />
<glyph unicode="&#xe0;" horiz-adv-x="1088" d="M134 269q0 29 1 44q14 134 121 211t297 77h296l12 77q6 30 6 63q0 91 -62 150t-181 59q-103 0 -165 -40.5t-80 -98.5h-124q20 108 120.5 178.5t257.5 70.5q166 0 261 -82t95 -225q0 -55 -17 -149l-106 -604h-124l25 145l-9 1q-31 -62 -112.5 -112.5t-195.5 -50.5 q-135 0 -225 77.5t-91 208.5zM262 283q0 -87 59.5 -138.5t157.5 -51.5q118 0 209 70.5t111 181.5l28 150h-286q-132 0 -205.5 -59t-73.5 -153zM441 1566h146l180 -339h-104z" />
<glyph unicode="&#xe1;" horiz-adv-x="1088" d="M134 269q0 29 1 44q14 134 121 211t297 77h296l12 77q6 30 6 63q0 91 -62 150t-181 59q-103 0 -165 -40.5t-80 -98.5h-124q20 108 120.5 178.5t257.5 70.5q166 0 261 -82t95 -225q0 -55 -17 -149l-106 -604h-124l25 145l-9 1q-31 -62 -112.5 -112.5t-195.5 -50.5 q-135 0 -225 77.5t-91 208.5zM262 283q0 -87 59.5 -138.5t157.5 -51.5q118 0 209 70.5t111 181.5l28 150h-286q-132 0 -205.5 -59t-73.5 -153zM568 1227l280 339h144l-322 -339h-102z" />
<glyph unicode="&#xe2;" horiz-adv-x="1088" d="M134 269q0 29 1 44q14 134 121 211t297 77h296l12 77q6 30 6 63q0 91 -62 150t-181 59q-103 0 -165 -40.5t-80 -98.5h-124q20 108 120.5 178.5t257.5 70.5q166 0 261 -82t95 -225q0 -55 -17 -149l-106 -604h-124l25 145l-9 1q-31 -62 -112.5 -112.5t-195.5 -50.5 q-135 0 -225 77.5t-91 208.5zM262 283q0 -87 59.5 -138.5t157.5 -51.5q118 0 209 70.5t111 181.5l28 150h-286q-132 0 -205.5 -59t-73.5 -153zM388 1228l300 339h98l184 -339h-116l-126 252h-6l-212 -252h-122z" />
<glyph unicode="&#xe3;" horiz-adv-x="1088" d="M134 269q0 29 1 44q14 134 121 211t297 77h296l12 77q6 30 6 63q0 91 -62 150t-181 59q-103 0 -165 -40.5t-80 -98.5h-124q20 108 120.5 178.5t257.5 70.5q166 0 261 -82t95 -225q0 -55 -17 -149l-106 -604h-124l25 145l-9 1q-31 -62 -112.5 -112.5t-195.5 -50.5 q-135 0 -225 77.5t-91 208.5zM262 283q0 -87 59.5 -138.5t157.5 -51.5q118 0 209 70.5t111 181.5l28 150h-286q-132 0 -205.5 -59t-73.5 -153zM347 1246q11 111 63 171t131 60q44 0 79 -19.5t57.5 -46.5t42 -54.5t43 -47t49.5 -19.5q40 0 67 40t36 95h100q-7 -96 -65 -165 t-143 -69q-36 0 -66 14t-48.5 34.5t-37 44.5t-33 44.5t-35.5 34.5t-45 14q-72 0 -95 -131h-100z" />
<glyph unicode="&#xe4;" horiz-adv-x="1088" d="M134 269q0 29 1 44q14 134 121 211t297 77h296l12 77q6 30 6 63q0 91 -62 150t-181 59q-103 0 -165 -40.5t-80 -98.5h-124q20 108 120.5 178.5t257.5 70.5q166 0 261 -82t95 -225q0 -55 -17 -149l-106 -604h-124l25 145l-9 1q-31 -62 -112.5 -112.5t-195.5 -50.5 q-135 0 -225 77.5t-91 208.5zM262 283q0 -87 59.5 -138.5t157.5 -51.5q118 0 209 70.5t111 181.5l28 150h-286q-132 0 -205.5 -59t-73.5 -153zM437 1311q0 39 26.5 64.5t65.5 25.5t66 -25.5t27 -64.5q0 -37 -27 -62.5t-66 -25.5t-65.5 25.5t-26.5 62.5zM769 1311 q0 39 26 64.5t64 25.5q41 0 68 -25.5t27 -64.5q0 -38 -27.5 -63t-67.5 -25q-38 0 -64 25.5t-26 62.5z" />
<glyph unicode="&#xe5;" horiz-adv-x="1088" d="M134 269q0 29 1 44q14 134 121 211t297 77h296l12 77q6 30 6 63q0 91 -62 150t-181 59q-103 0 -165 -40.5t-80 -98.5h-124q20 108 120.5 178.5t257.5 70.5q166 0 261 -82t95 -225q0 -55 -17 -149l-106 -604h-124l25 145l-9 1q-31 -62 -112.5 -112.5t-195.5 -50.5 q-135 0 -225 77.5t-91 208.5zM262 283q0 -87 59.5 -138.5t157.5 -51.5q118 0 209 70.5t111 181.5l28 150h-286q-132 0 -205.5 -59t-73.5 -153zM533 1407q0 75 52.5 127t128.5 52q75 0 127.5 -52t52.5 -127q0 -76 -53 -129t-127 -53q-76 0 -128.5 53t-52.5 129zM604 1406 q0 -45 33 -77.5t77 -32.5q46 0 78.5 32.5t32.5 77.5q0 46 -32.5 78t-78.5 32q-45 0 -77.5 -32.5t-32.5 -77.5z" />
<glyph unicode="&#xe6;" horiz-adv-x="1738" d="M134 278q0 155 111.5 238t309.5 83h292l15 84q5 30 5 60q0 90 -62.5 149t-181.5 59q-102 0 -164 -41t-80 -99h-124q20 108 120.5 178.5t256.5 70.5q117 0 200.5 -43.5t120.5 -124.5h1q128 168 353 168q103 0 180.5 -36.5t120 -97.5t60 -135t8.5 -154q0 -6 -9.5 -64 t-13.5 -77h-700q-12 -67 -12 -109q0 -127 69.5 -209t209.5 -82q105 0 175.5 45.5t86.5 106.5h127q-17 -100 -125.5 -182.5t-266.5 -82.5q-138 0 -232 68.5t-126 184.5h-1q-44 -109 -144.5 -181t-247.5 -72q-153 0 -242.5 77.5t-89.5 217.5zM262 284q0 -87 59 -137.5 t158 -50.5q118 0 208 70.5t112 182.5l28 148h-286q-134 0 -206.5 -59.5t-72.5 -153.5zM971 599h579q5 20 5 42q17 133 -49.5 222t-202.5 89q-120 0 -204.5 -74.5t-113.5 -211.5q-13 -58 -14 -67z" />
<glyph unicode="&#xe7;" horiz-adv-x="1061" d="M166 377q0 76 12 145l26 152q32 187 148.5 286.5t291.5 99.5q172 0 277 -93t105 -231q0 -3 -0.5 -10t-0.5 -8h-120q1 3 1 15q0 87 -72 153t-191 66q-123 0 -207.5 -81.5t-110.5 -229.5l-22 -126q-11 -58 -11 -110q0 -147 73.5 -228t209.5 -81q105 0 172.5 45.5 t82.5 113.5h129q-21 -122 -127 -197t-263 -75h-22l-36 -120q83 -3 135 -41.5t52 -111.5q0 -87 -65.5 -135.5t-163.5 -48.5q-84 0 -155 28l14 84q66 -22 135 -22q49 0 85.5 21t36.5 68q0 78 -138 83l-50 2l9 66l46 141q-133 31 -209.5 130.5t-76.5 249.5z" />
<glyph unicode="&#xe8;" horiz-adv-x="1082" d="M163 374q0 74 15 153l25 138q31 180 148.5 287.5t298.5 107.5q103 0 181 -36.5t120.5 -97.5t59.5 -135t8 -154q0 -6 -9.5 -64t-13.5 -77h-700q-11 -50 -11 -109q0 -128 69 -209.5t209 -81.5q105 0 176 45.5t87 106.5h126q-18 -102 -125.5 -183.5t-270.5 -81.5 q-177 0 -285 102.5t-108 288.5zM316 599h577q6 24 6 42q17 134 -50.5 222.5t-203.5 88.5q-118 0 -201.5 -74.5t-113.5 -211.5q-1 -3 -7.5 -33.5t-6.5 -33.5zM469 1566h146l180 -339h-104z" />
<glyph unicode="&#xe9;" horiz-adv-x="1082" d="M163 374q0 74 15 153l25 138q31 180 148.5 287.5t298.5 107.5q103 0 181 -36.5t120.5 -97.5t59.5 -135t8 -154q0 -6 -9.5 -64t-13.5 -77h-700q-11 -50 -11 -109q0 -128 69 -209.5t209 -81.5q105 0 176 45.5t87 106.5h126q-18 -102 -125.5 -183.5t-270.5 -81.5 q-177 0 -285 102.5t-108 288.5zM316 599h577q6 24 6 42q17 134 -50.5 222.5t-203.5 88.5q-118 0 -201.5 -74.5t-113.5 -211.5q-1 -3 -7.5 -33.5t-6.5 -33.5zM597 1227l280 339h144l-322 -339h-102z" />
<glyph unicode="&#xea;" horiz-adv-x="1082" d="M163 374q0 74 15 153l25 138q31 180 148.5 287.5t298.5 107.5q103 0 181 -36.5t120.5 -97.5t59.5 -135t8 -154q0 -6 -9.5 -64t-13.5 -77h-700q-11 -50 -11 -109q0 -128 69 -209.5t209 -81.5q105 0 176 45.5t87 106.5h126q-18 -102 -125.5 -183.5t-270.5 -81.5 q-177 0 -285 102.5t-108 288.5zM316 599h577q6 24 6 42q17 134 -50.5 222.5t-203.5 88.5q-118 0 -201.5 -74.5t-113.5 -211.5q-1 -3 -7.5 -33.5t-6.5 -33.5zM417 1228l300 339h98l184 -339h-116l-126 252h-6l-212 -252h-122z" />
<glyph unicode="&#xeb;" horiz-adv-x="1082" d="M163 374q0 74 15 153l25 138q31 180 148.5 287.5t298.5 107.5q103 0 181 -36.5t120.5 -97.5t59.5 -135t8 -154q0 -6 -9.5 -64t-13.5 -77h-700q-11 -50 -11 -109q0 -128 69 -209.5t209 -81.5q105 0 176 45.5t87 106.5h126q-18 -102 -125.5 -183.5t-270.5 -81.5 q-177 0 -285 102.5t-108 288.5zM316 599h577q6 24 6 42q17 134 -50.5 222.5t-203.5 88.5q-118 0 -201.5 -74.5t-113.5 -211.5q-1 -3 -7.5 -33.5t-6.5 -33.5zM466 1311q0 39 26.5 64.5t65.5 25.5t66 -25.5t27 -64.5q0 -37 -27 -62.5t-66 -25.5t-65.5 25.5t-26.5 62.5z M798 1311q0 39 26 64.5t64 25.5q41 0 68 -25.5t27 -64.5q0 -38 -27.5 -63t-67.5 -25q-38 0 -64 25.5t-26 62.5z" />
<glyph unicode="&#xec;" horiz-adv-x="535" d="M161 0l186 1043h127l-185 -1043h-128zM201 1566h146l180 -339h-104z" />
<glyph unicode="&#xed;" horiz-adv-x="535" d="M161 0l186 1043h127l-185 -1043h-128zM328 1227l280 339h144l-322 -339h-102z" />
<glyph unicode="&#xee;" horiz-adv-x="535" d="M148 1228l300 339h98l184 -339h-116l-126 252h-6l-212 -252h-122zM161 0l186 1043h127l-185 -1043h-128z" />
<glyph unicode="&#xef;" horiz-adv-x="535" d="M161 0l186 1043h127l-185 -1043h-128zM197 1311q0 39 26.5 64.5t65.5 25.5t66 -25.5t27 -64.5q0 -37 -27 -62.5t-66 -25.5t-65.5 25.5t-26.5 62.5zM529 1311q0 39 26 64.5t64 25.5q41 0 68 -25.5t27 -64.5q0 -38 -27.5 -63t-67.5 -25q-38 0 -64 25.5t-26 62.5z" />
<glyph unicode="&#xf0;" horiz-adv-x="1181" d="M165 399q0 57 10 113l18 104q33 189 155 292t289 103q69 0 127 -18t97 -49t64.5 -64t41.5 -70l6 -1q3 54 3 88q3 165 -85 316l-294 -57l-10 82l257 50q-73 103 -167 174l87 77q115 -85 205 -229l251 49l14 -79l-222 -43q81 -168 81 -373q0 -96 -16 -188l-54 -302 q-34 -191 -154 -293t-290 -102q-183 0 -298.5 112.5t-115.5 307.5zM290 407q0 -141 77.5 -227t210.5 -86q129 0 213.5 83.5t111.5 234.5l20 111q7 39 7 80q0 133 -79.5 213.5t-207.5 80.5q-127 0 -215.5 -82.5t-115.5 -234.5l-13 -75q-9 -59 -9 -98z" />
<glyph unicode="&#xf1;" horiz-adv-x="1178" d="M145 0l184 1043h125l-32 -176h10q42 90 124 141.5t194 51.5q155 0 240 -93t85 -232q0 -47 -16 -148l-104 -587h-127l105 594q11 69 11 118q0 104 -59 171.5t-171 67.5q-134 0 -220.5 -93t-110.5 -230l-110 -628h-128zM431 1246q11 111 63 171t131 60q44 0 79 -19.5 t57.5 -46.5t42 -54.5t43 -47t49.5 -19.5q40 0 67 40t36 95h100q-7 -96 -65 -165t-143 -69q-36 0 -66 14t-48.5 34.5t-37 44.5t-33 44.5t-35.5 34.5t-45 14q-72 0 -95 -131h-100z" />
<glyph unicode="&#xf2;" d="M166 382q0 76 11 137l25 143q33 191 154 294.5t290 103.5q183 0 299 -108.5t116 -303.5q0 -54 -11 -120l-26 -144q-35 -193 -151.5 -297t-302.5 -104q-177 0 -290.5 107.5t-113.5 291.5zM290 400q0 -137 79.5 -221t214.5 -84q126 0 209.5 83.5t110.5 237.5l23 133 q7 39 7 101q0 132 -79.5 215t-212.5 83q-120 0 -205 -77t-113 -234l-23 -126q-11 -61 -11 -111zM492 1566h146l180 -339h-104z" />
<glyph unicode="&#xf3;" d="M166 382q0 76 11 137l25 143q33 191 154 294.5t290 103.5q183 0 299 -108.5t116 -303.5q0 -54 -11 -120l-26 -144q-35 -193 -151.5 -297t-302.5 -104q-177 0 -290.5 107.5t-113.5 291.5zM290 400q0 -137 79.5 -221t214.5 -84q126 0 209.5 83.5t110.5 237.5l23 133 q7 39 7 101q0 132 -79.5 215t-212.5 83q-120 0 -205 -77t-113 -234l-23 -126q-11 -61 -11 -111zM619 1227l280 339h144l-322 -339h-102z" />
<glyph unicode="&#xf4;" d="M166 382q0 76 11 137l25 143q33 191 154 294.5t290 103.5q183 0 299 -108.5t116 -303.5q0 -54 -11 -120l-26 -144q-35 -193 -151.5 -297t-302.5 -104q-177 0 -290.5 107.5t-113.5 291.5zM290 400q0 -137 79.5 -221t214.5 -84q126 0 209.5 83.5t110.5 237.5l23 133 q7 39 7 101q0 132 -79.5 215t-212.5 83q-120 0 -205 -77t-113 -234l-23 -126q-11 -61 -11 -111zM439 1228l300 339h98l184 -339h-116l-126 252h-6l-212 -252h-122z" />
<glyph unicode="&#xf5;" d="M166 382q0 76 11 137l25 143q33 191 154 294.5t290 103.5q183 0 299 -108.5t116 -303.5q0 -54 -11 -120l-26 -144q-35 -193 -151.5 -297t-302.5 -104q-177 0 -290.5 107.5t-113.5 291.5zM290 400q0 -137 79.5 -221t214.5 -84q126 0 209.5 83.5t110.5 237.5l23 133 q7 39 7 101q0 132 -79.5 215t-212.5 83q-120 0 -205 -77t-113 -234l-23 -126q-11 -61 -11 -111zM398 1246q11 111 63 171t131 60q44 0 79 -19.5t57.5 -46.5t42 -54.5t43 -47t49.5 -19.5q40 0 67 40t36 95h100q-7 -96 -65 -165t-143 -69q-36 0 -66 14t-48.5 34.5t-37 44.5 t-33 44.5t-35.5 34.5t-45 14q-72 0 -95 -131h-100z" />
<glyph unicode="&#xf6;" d="M166 382q0 76 11 137l25 143q33 191 154 294.5t290 103.5q183 0 299 -108.5t116 -303.5q0 -54 -11 -120l-26 -144q-35 -193 -151.5 -297t-302.5 -104q-177 0 -290.5 107.5t-113.5 291.5zM290 400q0 -137 79.5 -221t214.5 -84q126 0 209.5 83.5t110.5 237.5l23 133 q7 39 7 101q0 132 -79.5 215t-212.5 83q-120 0 -205 -77t-113 -234l-23 -126q-11 -61 -11 -111zM488 1311q0 39 26.5 64.5t65.5 25.5t66 -25.5t27 -64.5q0 -37 -27 -62.5t-66 -25.5t-65.5 25.5t-26.5 62.5zM820 1311q0 39 26 64.5t64 25.5q41 0 68 -25.5t27 -64.5 q0 -38 -27.5 -63t-67.5 -25q-38 0 -64 25.5t-26 62.5z" />
<glyph unicode="&#xf7;" horiz-adv-x="1155" d="M159 490l20 107h926l-20 -107h-926zM460 157q0 47 31 78.5t76 31.5q47 0 79 -31.5t32 -78.5q0 -45 -32 -76t-79 -31q-44 0 -75.5 31t-31.5 76zM566 917q0 47 31 78.5t76 31.5q47 0 79 -31.5t32 -78.5q0 -45 -32 -76t-79 -31q-44 0 -75.5 31t-31.5 76z" />
<glyph unicode="&#xf8;" horiz-adv-x="1129" d="M56 95l138 120q-30 73 -30 167q0 76 11 137l25 143q34 191 154.5 294.5t289.5 103.5q108 0 195.5 -39.5t142.5 -116.5l129 112l65 -75l-145 -126q28 -76 28 -167q0 -54 -11 -120l-26 -144q-34 -192 -151 -296.5t-303 -104.5q-102 0 -186 38t-138 108l-125 -109zM288 400 q0 -46 11 -92l587 512q-37 60 -100 94t-146 34q-120 0 -205 -77t-113 -234l-23 -126q-11 -61 -11 -111zM341 214q79 -119 241 -119q126 0 210 84t110 237l23 133q7 39 7 101q0 37 -9 70z" />
<glyph unicode="&#xf9;" horiz-adv-x="1165" d="M190 304q0 69 16 155l106 584h127l-106 -592q-12 -68 -12 -124q0 -105 62 -167t178 -62q90 0 161 46t110.5 116.5t55.5 158.5l109 624h123l-184 -1043h-120l32 181h-10q-38 -88 -121 -143t-194 -55q-153 0 -243 90.5t-90 230.5zM508 1566h146l180 -339h-104z" />
<glyph unicode="&#xfa;" horiz-adv-x="1165" d="M190 304q0 69 16 155l106 584h127l-106 -592q-12 -68 -12 -124q0 -105 62 -167t178 -62q90 0 161 46t110.5 116.5t55.5 158.5l109 624h123l-184 -1043h-120l32 181h-10q-38 -88 -121 -143t-194 -55q-153 0 -243 90.5t-90 230.5zM636 1227l280 339h144l-322 -339h-102z " />
<glyph unicode="&#xfb;" horiz-adv-x="1165" d="M190 304q0 69 16 155l106 584h127l-106 -592q-12 -68 -12 -124q0 -105 62 -167t178 -62q90 0 161 46t110.5 116.5t55.5 158.5l109 624h123l-184 -1043h-120l32 181h-10q-38 -88 -121 -143t-194 -55q-153 0 -243 90.5t-90 230.5zM456 1228l300 339h98l184 -339h-116 l-126 252h-6l-212 -252h-122z" />
<glyph unicode="&#xfc;" horiz-adv-x="1165" d="M190 304q0 69 16 155l106 584h127l-106 -592q-12 -68 -12 -124q0 -105 62 -167t178 -62q90 0 161 46t110.5 116.5t55.5 158.5l109 624h123l-184 -1043h-120l32 181h-10q-38 -88 -121 -143t-194 -55q-153 0 -243 90.5t-90 230.5zM505 1311q0 39 26.5 64.5t65.5 25.5 t66 -25.5t27 -64.5q0 -37 -27 -62.5t-66 -25.5t-65.5 25.5t-26.5 62.5zM837 1311q0 39 26 64.5t64 25.5q41 0 68 -25.5t27 -64.5q0 -38 -27.5 -63t-67.5 -25q-38 0 -64 25.5t-26 62.5z" />
<glyph unicode="&#xfd;" horiz-adv-x="1047" d="M42 -331l24 106q39 -10 80 -10q82 0 132 42.5t91 130.5l36 73l-200 1032h136l151 -890h8l454 890h136l-555 -1044l-47 -92q-37 -71 -67.5 -114t-72 -75.5t-94.5 -46t-127 -13.5q-47 0 -85 11zM569 1227l280 339h144l-322 -339h-102z" />
<glyph unicode="&#xfe;" horiz-adv-x="1171" d="M81 -354l321 1818h122l-103 -589h9q42 87 125.5 136t188.5 49q167 0 266 -107t99 -288q0 -60 -9 -114l-33 -190q-30 -171 -144.5 -274.5t-273.5 -103.5q-123 0 -215.5 65t-120.5 171h-5l-99 -573h-128zM349 408q2 -136 83 -222.5t208 -86.5q117 0 203 83.5t109 220.5 l28 160q5 33 5 82q0 143 -73 225t-200 82t-216 -84t-112 -226l-30 -176q-5 -45 -5 -58z" />
<glyph unicode="&#xff;" horiz-adv-x="1047" d="M42 -331l24 106q39 -10 80 -10q82 0 132 42.5t91 130.5l36 73l-200 1032h136l151 -890h8l454 890h136l-555 -1044l-47 -92q-37 -71 -67.5 -114t-72 -75.5t-94.5 -46t-127 -13.5q-47 0 -85 11zM438 1311q0 39 26.5 64.5t65.5 25.5t66 -25.5t27 -64.5q0 -37 -27 -62.5 t-66 -25.5t-65.5 25.5t-26.5 62.5zM770 1311q0 39 26 64.5t64 25.5q41 0 68 -25.5t27 -64.5q0 -38 -27.5 -63t-67.5 -25q-38 0 -64 25.5t-26 62.5z" />
<glyph unicode="&#x152;" horiz-adv-x="2027" d="M200 482q0 93 15 176l40 225q43 239 192.5 374.5t367.5 135.5q160 0 280 -74.5t167 -207.5h1l44 253h788l-20 -116h-660l-88 -494h626l-20 -115h-626l-93 -524h662l-20 -115h-788l27 154h-2q-66 -94 -169 -139t-226 -45q-107 0 -197 33t-157.5 95.5t-105.5 161t-38 222.5 zM331 494q0 -188 106.5 -295.5t285.5 -107.5q177 0 288.5 107.5t144.5 303.5l40 242q9 55 9 119q0 179 -106.5 294.5t-286.5 115.5q-166 0 -278.5 -106.5t-148.5 -302.5l-41 -221q-13 -78 -13 -149z" />
<glyph unicode="&#x153;" horiz-adv-x="1831" d="M166 388q0 62 11 131l25 143q32 189 153 293.5t291 104.5q128 0 228.5 -61.5t140.5 -184.5q117 246 383 246q103 0 180.5 -37.5t120 -99t60 -135t9.5 -151.5q0 -6 -9.5 -64t-13.5 -77h-701l-5 -25q-6 -35 -6 -80q0 -131 69 -213t210 -82q105 0 175.5 45.5t86.5 106.5h127 q-8 -47 -39 -93.5t-80 -85t-121.5 -62.5t-154.5 -24q-130 0 -223 61t-131 179q-52 -117 -152 -178.5t-231 -61.5q-176 0 -289.5 107.5t-113.5 297.5zM290 404q0 -140 79 -224.5t212 -84.5q129 0 212.5 83.5t110.5 237.5l23 133q7 41 7 93q0 138 -78.5 222t-211.5 84 q-122 0 -207 -76.5t-113 -234.5l-23 -126q-11 -61 -11 -107zM1065 599h577q5 20 5 42q16 134 -50 222.5t-202 88.5q-119 0 -203 -74.5t-113 -211.5q-6 -17 -14 -67z" />
<glyph unicode="&#x178;" horiz-adv-x="1120" d="M226 1364h138l274 -650h8l492 650h154l-600 -766l-104 -598h-129l105 597zM547 1574q0 38 25.5 63t63.5 25t63.5 -25t25.5 -63q0 -37 -25.5 -61t-63.5 -24t-63.5 24t-25.5 61zM869 1574q0 38 25.5 63t61.5 25q39 0 65 -25t26 -63q0 -37 -26 -61t-65 -24q-36 0 -61.5 24.5 t-25.5 60.5z" />
<glyph unicode="&#x2c6;" horiz-adv-x="938" d="M348 1198l300 339h98l184 -339h-116l-126 252h-6l-212 -252h-122z" />
<glyph unicode="&#x2dc;" horiz-adv-x="938" d="M328 1235q11 111 63 171t131 60q44 0 79 -19.5t57.5 -46.5t42 -54.5t43 -47t49.5 -19.5q40 0 67 40t36 95h100q-7 -96 -65 -165t-143 -69q-36 0 -66 14t-48.5 34.5t-37 44.5t-33 44.5t-35.5 34.5t-45 14q-72 0 -95 -131h-100z" />
<glyph unicode="&#x2000;" horiz-adv-x="926" />
<glyph unicode="&#x2001;" horiz-adv-x="1852" />
<glyph unicode="&#x2002;" horiz-adv-x="926" />
<glyph unicode="&#x2003;" horiz-adv-x="1852" />
<glyph unicode="&#x2004;" horiz-adv-x="617" />
<glyph unicode="&#x2005;" horiz-adv-x="463" />
<glyph unicode="&#x2006;" horiz-adv-x="308" />
<glyph unicode="&#x2007;" horiz-adv-x="308" />
<glyph unicode="&#x2008;" horiz-adv-x="231" />
<glyph unicode="&#x2009;" horiz-adv-x="370" />
<glyph unicode="&#x200a;" horiz-adv-x="102" />
<glyph unicode="&#x2010;" horiz-adv-x="874" d="M169 506l19 113h633l-20 -113h-632z" />
<glyph unicode="&#x2011;" horiz-adv-x="874" d="M169 506l19 113h633l-20 -113h-632z" />
<glyph unicode="&#x2012;" horiz-adv-x="874" d="M169 506l19 113h633l-20 -113h-632z" />
<glyph unicode="&#x2013;" horiz-adv-x="1178" d="M48 507l20 113h1177l-19 -113h-1178z" />
<glyph unicode="&#x2014;" horiz-adv-x="2048" d="M48 506l20 113h2048l-20 -113h-2048z" />
<glyph unicode="&#x2018;" horiz-adv-x="594" d="M281 867l235 496h107l-188 -496h-154z" />
<glyph unicode="&#x2019;" horiz-adv-x="591" d="M281 868l185 496h154l-232 -496h-107z" />
<glyph unicode="&#x201a;" horiz-adv-x="592" d="M59 -391l185 489h154l-233 -489h-106z" />
<glyph unicode="&#x201c;" horiz-adv-x="914" d="M281 866l192 497h114l-160 -497h-146zM642 866l191 497h110l-154 -497h-147z" />
<glyph unicode="&#x201d;" horiz-adv-x="917" d="M281 866l154 497h148l-192 -497h-110zM640 866l160 497h146l-192 -497h-114z" />
<glyph unicode="&#x201e;" horiz-adv-x="917" d="M59 -391l155 497h147l-191 -497h-111zM419 -391l159 497h147l-192 -497h-114z" />
<glyph unicode="&#x2022;" horiz-adv-x="1011" d="M309 596q0 107 75.5 183t182.5 76t183 -76t76 -183q0 -106 -76.5 -182t-182.5 -76t-182 76t-76 182z" />
<glyph unicode="&#x2026;" horiz-adv-x="1454" d="M121 96q0 49 33 82.5t80 33.5q50 0 83 -33t33 -83q0 -47 -33.5 -79.5t-82.5 -32.5q-47 0 -80 32.5t-33 79.5zM588 96q0 49 33 82.5t80 33.5q49 0 82.5 -33t33.5 -83q0 -47 -33.5 -79.5t-82.5 -32.5q-47 0 -80 32.5t-33 79.5zM1056 96q0 49 33 82.5t79 33.5 q50 0 83.5 -33.5t33.5 -82.5q0 -47 -34 -79.5t-83 -32.5q-46 0 -79 32.5t-33 79.5z" />
<glyph unicode="&#x202f;" horiz-adv-x="370" />
<glyph unicode="&#x2039;" horiz-adv-x="834" d="M213 557l2 8l424 404h153l-429 -411l-1 -6l268 -397h-142z" />
<glyph unicode="&#x203a;" horiz-adv-x="823" d="M158 155l411 410l1 6l-269 398h142l282 -404l-1 -8l-416 -402h-150z" />
<glyph unicode="&#x205f;" horiz-adv-x="463" />
<glyph unicode="&#x20ac;" horiz-adv-x="1107" d="M61 495l18 104h151q10 97 26 190h-143l18 104h143q107 500 491 500q87 0 159 -23.5t119.5 -62.5t80 -91.5t47 -108t14.5 -113.5q0 -27 -3 -39h-125q2 18 1 34q-3 39 -11.5 74.5t-29.5 75.5t-52.5 68.5t-84.5 47.5t-120 19q-125 0 -218.5 -92t-137.5 -289h379l-18 -104 h-380q-16 -91 -24 -190h370l-18 -104h-356v-30q1 -193 73.5 -284t230.5 -91q254 0 307 259h128q-6 -34 -7 -38q-14 -67 -45 -125t-81 -108t-127.5 -78.5t-174.5 -28.5q-205 0 -320.5 121t-115.5 371q0 4 0.5 15t0.5 17h-165z" />
<glyph unicode="&#x2122;" horiz-adv-x="1739" d="M299 1279l14 85h601l-14 -85h-253l-108 -605h-98l108 605h-250zM935 674l122 690h97l172 -513h6l348 513h101l-122 -690h-87l90 509h-7l-316 -457h-63l-156 458h-7l-90 -510h-88z" />
<glyph unicode="&#x25fc;" horiz-adv-x="1045" d="M0 0v1045h1045v-1045h-1045z" />
<glyph unicode="&#xfb01;" horiz-adv-x="1252" d="M183 937l18 106h179l12 78q42 303 339 303q68 0 119 -12l-20 -104q-32 8 -99 8q-94 0 -143.5 -44t-67.5 -143l-15 -86h258l-19 -106h-259l-164 -937h-127l166 937h-177zM879 0l184 1043h127l-183 -1043h-128zM1065 1358q0 43 29 72t71 29q44 0 73 -29t29 -72 q0 -42 -29.5 -71t-72.5 -29q-41 0 -70.5 29t-29.5 71z" />
<glyph unicode="&#xfb02;" horiz-adv-x="1253" d="M183 937l18 106h179l12 78q42 303 339 303q68 0 119 -12l-20 -104q-32 8 -99 8q-94 0 -143.5 -44t-67.5 -143l-15 -86h258l-19 -106h-259l-164 -937h-127l166 937h-177zM880 0l258 1464h127l-258 -1464h-127z" />
</font>
</defs>
</svg>
